M48
; DRILL file {KiCad 8.0.6} date 2024-12-17T06:32:21+0200
; FORMAT={-:-/ absolute / metric / decimal}
; #@! TF.CreationDate,2024-12-17T06:32:21+02:00
; #@! TF.GenerationSoftware,Kicad,Pcbnew,8.0.6
; #@! TF.FileFunction,Plated,1,4,PTH
FMAT,2
METRIC
; #@! TA.AperFunction,Plated,PTH,ViaDrill
T1C0.300
; #@! TA.AperFunction,Plated,PTH,ViaDrill
T2C0.400
; #@! TA.AperFunction,Plated,PTH,ComponentDrill
T3C0.500
; #@! TA.AperFunction,Plated,PTH,ComponentDrill
T4C1.000
; #@! TA.AperFunction,Plated,PTH,ComponentDrill
T5C3.200
%
G90
G05
T1
X102.73Y-84.25
X102.79Y-109.1
X103.73Y-84.25
X103.79Y-109.1
X104.73Y-84.25
X104.79Y-109.1
X111.425Y-99.075
X111.525Y-87.6
X111.911Y-89.914
X111.912Y-96.749
X112.975Y-99.025
X113.1Y-87.6
X114.697Y-113.416
X114.723Y-116.87
X114.723Y-120.223
X115.773Y-107.798
X116.95Y-89.05
X116.967Y-90.678
X116.992Y-97.663
X117.043Y-95.987
X119.532Y-100.305
X119.685Y-122.352
X120.98Y-120.752
X122.16Y-82.13
X125.6Y-77.05
X125.628Y-116.789
X126.009Y-113.411
X126.035Y-105.867
X126.162Y-99.06
X126.38Y-87.69
X127.64Y-122.26
X127.79Y-84.67
X128.041Y-99.492
X129.67Y-116.32
X129.769Y-100.279
X129.82Y-78.32
X129.83Y-79.58
X129.94Y-122.063
X130.073Y-109.906
X130.13Y-96.56
X130.67Y-116.32
X131.67Y-116.32
X132.944Y-115.189
X133.42Y-122.038
X133.9Y-97.35
X134.73Y-112.87
X134.77Y-110.289
X136.67Y-78.92
X136.69Y-77.34
X136.728Y-96.291
X137.27Y-115.677
X137.439Y-86.462
X139.9Y-115.522
X140.075Y-122.125
X141.3Y-75.286
X141.3Y-97.612
X142.291Y-94.945
X142.418Y-78.181
X142.773Y-100.279
X143.256Y-110.363
X143.281Y-106.909
X143.51Y-75.311
X143.637Y-93.167
X143.979Y-81.369
X144.78Y-98.679
X144.831Y-97.18
X145.11Y-74.138
X145.355Y-102.689
X146.025Y-109.677
X147.295Y-104.724
X147.955Y-93.167
X148.59Y-109.652
X149.183Y-102.632
X149.403Y-98.73
X149.475Y-97.193
X149.86Y-73.457
X150.393Y-107.29
X151.409Y-98.4
X151.409Y-100.457
X151.943Y-107.264
X152.05Y-73.46
X152.451Y-93.218
X153.365Y-102.87
X155.296Y-82.169
X155.374Y-106.754
X155.473Y-93.675
X157.607Y-99.492
X157.632Y-97.307
X158.979Y-92.151
X159.004Y-80.264
X160.503Y-103.835
X160.528Y-80.239
X160.528Y-94.437
X160.553Y-83.718
X161.027Y-90.306
X162.6Y-82.266
X162.611Y-76.81
X163.855Y-79.477
X167.005Y-94.564
X167.55Y-91.46
X167.555Y-76.814
X168.758Y-79.451
X169.26Y-82.26
T2
X140.366Y-109.762
X140.366Y-110.712
T3
X101.6Y-70.65
X101.6Y-122.65
X102.303Y-68.953
X102.303Y-72.347
X102.303Y-120.953
X102.303Y-124.347
X104.0Y-68.25
X104.0Y-73.05
X104.0Y-120.25
X104.0Y-125.05
X105.697Y-68.953
X105.697Y-72.347
X105.697Y-120.953
X105.697Y-124.347
X106.4Y-70.65
X106.4Y-122.65
X175.6Y-70.65
X175.6Y-122.65
X176.303Y-68.953
X176.303Y-72.347
X176.303Y-120.953
X176.303Y-124.347
X178.0Y-68.25
X178.0Y-73.05
X178.0Y-120.25
X178.0Y-125.05
X179.697Y-68.953
X179.697Y-72.347
X179.697Y-120.953
X179.697Y-124.347
X180.4Y-70.65
X180.4Y-122.65
T4
X172.563Y-108.594
X172.563Y-111.094
X172.568Y-82.285
X172.568Y-84.785
X172.568Y-91.023
X172.568Y-93.523
X172.568Y-99.735
X172.568Y-102.235
T5
X104.0Y-70.65
X104.0Y-122.65
X178.0Y-70.65
X178.0Y-122.65
M30
