%TF.GenerationSoftware,KiCad,Pcbnew,8.0.6*%
%TF.CreationDate,2024-11-04T12:53:01+02:00*%
%TF.ProjectId,PionController,50696f6e-436f-46e7-9472-6f6c6c65722e,rev?*%
%TF.SameCoordinates,Original*%
%TF.FileFunction,Copper,L1,Top*%
%TF.FilePolarity,Positive*%
%FSLAX46Y46*%
G04 Gerber Fmt 4.6, Leading zero omitted, Abs format (unit mm)*
G04 Created by KiCad (PCBNEW 8.0.6) date 2024-11-04 12:53:01*
%MOMM*%
%LPD*%
G01*
G04 APERTURE LIST*
G04 Aperture macros list*
%AMRoundRect*
0 Rectangle with rounded corners*
0 $1 Rounding radius*
0 $2 $3 $4 $5 $6 $7 $8 $9 X,Y pos of 4 corners*
0 Add a 4 corners polygon primitive as box body*
4,1,4,$2,$3,$4,$5,$6,$7,$8,$9,$2,$3,0*
0 Add four circle primitives for the rounded corners*
1,1,$1+$1,$2,$3*
1,1,$1+$1,$4,$5*
1,1,$1+$1,$6,$7*
1,1,$1+$1,$8,$9*
0 Add four rect primitives between the rounded corners*
20,1,$1+$1,$2,$3,$4,$5,0*
20,1,$1+$1,$4,$5,$6,$7,0*
20,1,$1+$1,$6,$7,$8,$9,0*
20,1,$1+$1,$8,$9,$2,$3,0*%
%AMFreePoly0*
4,1,8,0.500000,-0.850000,-0.500000,-0.850000,-1.800000,-0.850000,-1.800000,-0.150000,-0.500000,-0.150000,-0.500000,0.850000,0.500000,0.850000,0.500000,-0.850000,0.500000,-0.850000,$1*%
%AMFreePoly1*
4,1,7,0.500000,-0.150000,1.800000,-0.150000,1.800000,-0.850000,-0.500000,-0.850000,-0.500000,0.850000,0.500000,0.850000,0.500000,-0.150000,0.500000,-0.150000,$1*%
G04 Aperture macros list end*
%TA.AperFunction,SMDPad,CuDef*%
%ADD10RoundRect,0.225000X-0.225000X-0.250000X0.225000X-0.250000X0.225000X0.250000X-0.225000X0.250000X0*%
%TD*%
%TA.AperFunction,SMDPad,CuDef*%
%ADD11RoundRect,0.250000X-0.475000X0.250000X-0.475000X-0.250000X0.475000X-0.250000X0.475000X0.250000X0*%
%TD*%
%TA.AperFunction,SMDPad,CuDef*%
%ADD12RoundRect,0.150000X0.150000X-0.512500X0.150000X0.512500X-0.150000X0.512500X-0.150000X-0.512500X0*%
%TD*%
%TA.AperFunction,SMDPad,CuDef*%
%ADD13RoundRect,0.200000X0.200000X0.275000X-0.200000X0.275000X-0.200000X-0.275000X0.200000X-0.275000X0*%
%TD*%
%TA.AperFunction,SMDPad,CuDef*%
%ADD14RoundRect,0.250000X-0.650000X1.000000X-0.650000X-1.000000X0.650000X-1.000000X0.650000X1.000000X0*%
%TD*%
%TA.AperFunction,ComponentPad*%
%ADD15C,0.800000*%
%TD*%
%TA.AperFunction,ComponentPad*%
%ADD16C,6.400000*%
%TD*%
%TA.AperFunction,SMDPad,CuDef*%
%ADD17RoundRect,0.225000X0.225000X0.250000X-0.225000X0.250000X-0.225000X-0.250000X0.225000X-0.250000X0*%
%TD*%
%TA.AperFunction,SMDPad,CuDef*%
%ADD18FreePoly0,180.000000*%
%TD*%
%TA.AperFunction,SMDPad,CuDef*%
%ADD19FreePoly1,180.000000*%
%TD*%
%TA.AperFunction,SMDPad,CuDef*%
%ADD20FreePoly0,0.000000*%
%TD*%
%TA.AperFunction,SMDPad,CuDef*%
%ADD21FreePoly1,0.000000*%
%TD*%
%TA.AperFunction,SMDPad,CuDef*%
%ADD22RoundRect,0.162500X1.012500X0.162500X-1.012500X0.162500X-1.012500X-0.162500X1.012500X-0.162500X0*%
%TD*%
%TA.AperFunction,SMDPad,CuDef*%
%ADD23RoundRect,0.250000X0.325000X1.100000X-0.325000X1.100000X-0.325000X-1.100000X0.325000X-1.100000X0*%
%TD*%
%TA.AperFunction,SMDPad,CuDef*%
%ADD24RoundRect,0.218750X-0.381250X0.218750X-0.381250X-0.218750X0.381250X-0.218750X0.381250X0.218750X0*%
%TD*%
%TA.AperFunction,SMDPad,CuDef*%
%ADD25R,1.900000X0.550000*%
%TD*%
%TA.AperFunction,SMDPad,CuDef*%
%ADD26R,6.300000X1.050000*%
%TD*%
%TA.AperFunction,SMDPad,CuDef*%
%ADD27RoundRect,0.200000X0.275000X-0.200000X0.275000X0.200000X-0.275000X0.200000X-0.275000X-0.200000X0*%
%TD*%
%TA.AperFunction,SMDPad,CuDef*%
%ADD28RoundRect,0.250000X-0.262500X-0.450000X0.262500X-0.450000X0.262500X0.450000X-0.262500X0.450000X0*%
%TD*%
%TA.AperFunction,SMDPad,CuDef*%
%ADD29RoundRect,0.150000X-0.150000X0.512500X-0.150000X-0.512500X0.150000X-0.512500X0.150000X0.512500X0*%
%TD*%
%TA.AperFunction,SMDPad,CuDef*%
%ADD30RoundRect,0.250000X0.450000X-0.262500X0.450000X0.262500X-0.450000X0.262500X-0.450000X-0.262500X0*%
%TD*%
%TA.AperFunction,SMDPad,CuDef*%
%ADD31RoundRect,0.225000X-0.250000X0.225000X-0.250000X-0.225000X0.250000X-0.225000X0.250000X0.225000X0*%
%TD*%
%TA.AperFunction,FiducialPad,Global*%
%ADD32C,1.000000*%
%TD*%
%TA.AperFunction,SMDPad,CuDef*%
%ADD33RoundRect,0.250000X-0.450000X0.262500X-0.450000X-0.262500X0.450000X-0.262500X0.450000X0.262500X0*%
%TD*%
%TA.AperFunction,SMDPad,CuDef*%
%ADD34RoundRect,0.250000X1.100000X-0.325000X1.100000X0.325000X-1.100000X0.325000X-1.100000X-0.325000X0*%
%TD*%
%TA.AperFunction,ComponentPad*%
%ADD35RoundRect,0.250000X0.750000X-0.600000X0.750000X0.600000X-0.750000X0.600000X-0.750000X-0.600000X0*%
%TD*%
%TA.AperFunction,ComponentPad*%
%ADD36O,2.000000X1.700000*%
%TD*%
%TA.AperFunction,SMDPad,CuDef*%
%ADD37RoundRect,0.250000X-1.100000X0.325000X-1.100000X-0.325000X1.100000X-0.325000X1.100000X0.325000X0*%
%TD*%
%TA.AperFunction,SMDPad,CuDef*%
%ADD38RoundRect,0.200000X-0.275000X0.200000X-0.275000X-0.200000X0.275000X-0.200000X0.275000X0.200000X0*%
%TD*%
%TA.AperFunction,SMDPad,CuDef*%
%ADD39R,1.100000X1.300000*%
%TD*%
%TA.AperFunction,SMDPad,CuDef*%
%ADD40RoundRect,0.218750X-0.218750X-0.256250X0.218750X-0.256250X0.218750X0.256250X-0.218750X0.256250X0*%
%TD*%
%TA.AperFunction,SMDPad,CuDef*%
%ADD41RoundRect,0.225000X0.225000X0.375000X-0.225000X0.375000X-0.225000X-0.375000X0.225000X-0.375000X0*%
%TD*%
%TA.AperFunction,SMDPad,CuDef*%
%ADD42RoundRect,0.225000X0.250000X-0.225000X0.250000X0.225000X-0.250000X0.225000X-0.250000X-0.225000X0*%
%TD*%
%TA.AperFunction,SMDPad,CuDef*%
%ADD43RoundRect,0.250000X0.475000X-0.250000X0.475000X0.250000X-0.475000X0.250000X-0.475000X-0.250000X0*%
%TD*%
%TA.AperFunction,SMDPad,CuDef*%
%ADD44RoundRect,0.075000X0.075000X-0.725000X0.075000X0.725000X-0.075000X0.725000X-0.075000X-0.725000X0*%
%TD*%
%TA.AperFunction,SMDPad,CuDef*%
%ADD45RoundRect,0.075000X0.725000X-0.075000X0.725000X0.075000X-0.725000X0.075000X-0.725000X-0.075000X0*%
%TD*%
%TA.AperFunction,SMDPad,CuDef*%
%ADD46RoundRect,0.150000X-0.825000X-0.150000X0.825000X-0.150000X0.825000X0.150000X-0.825000X0.150000X0*%
%TD*%
%TA.AperFunction,SMDPad,CuDef*%
%ADD47RoundRect,0.218750X0.218750X0.381250X-0.218750X0.381250X-0.218750X-0.381250X0.218750X-0.381250X0*%
%TD*%
%TA.AperFunction,SMDPad,CuDef*%
%ADD48RoundRect,0.250000X-0.312500X-1.450000X0.312500X-1.450000X0.312500X1.450000X-0.312500X1.450000X0*%
%TD*%
%TA.AperFunction,SMDPad,CuDef*%
%ADD49RoundRect,0.250000X0.262500X0.450000X-0.262500X0.450000X-0.262500X-0.450000X0.262500X-0.450000X0*%
%TD*%
%TA.AperFunction,SMDPad,CuDef*%
%ADD50R,2.790000X0.740000*%
%TD*%
%TA.AperFunction,SMDPad,CuDef*%
%ADD51RoundRect,0.150000X-0.512500X-0.150000X0.512500X-0.150000X0.512500X0.150000X-0.512500X0.150000X0*%
%TD*%
%TA.AperFunction,SMDPad,CuDef*%
%ADD52R,1.000000X1.800000*%
%TD*%
%TA.AperFunction,SMDPad,CuDef*%
%ADD53RoundRect,0.250000X1.100000X-1.100000X1.100000X1.100000X-1.100000X1.100000X-1.100000X-1.100000X0*%
%TD*%
%TA.AperFunction,ViaPad*%
%ADD54C,0.700000*%
%TD*%
%TA.AperFunction,ViaPad*%
%ADD55C,0.900000*%
%TD*%
%TA.AperFunction,Conductor*%
%ADD56C,0.600000*%
%TD*%
%TA.AperFunction,Conductor*%
%ADD57C,0.800000*%
%TD*%
%TA.AperFunction,Conductor*%
%ADD58C,0.400000*%
%TD*%
%TA.AperFunction,Conductor*%
%ADD59C,0.250000*%
%TD*%
%TA.AperFunction,Conductor*%
%ADD60C,0.200000*%
%TD*%
%TA.AperFunction,Conductor*%
%ADD61C,1.000000*%
%TD*%
%TA.AperFunction,Conductor*%
%ADD62C,0.300000*%
%TD*%
G04 APERTURE END LIST*
D10*
%TO.P,C13,1*%
%TO.N,VDDA*%
X154876200Y-99491800D03*
%TO.P,C13,2*%
%TO.N,GND*%
X156426200Y-99491800D03*
%TD*%
D11*
%TO.P,C5,1*%
%TO.N,+12V*%
X120989200Y-117764800D03*
%TO.P,C5,2*%
%TO.N,GND*%
X120989200Y-119664800D03*
%TD*%
D12*
%TO.P,U2,1,IN*%
%TO.N,+5V*%
X138953200Y-114472300D03*
%TO.P,U2,2,GND*%
%TO.N,GND*%
X139903200Y-114472300D03*
%TO.P,U2,3,EN*%
%TO.N,Net-(U2-EN)*%
X140853200Y-114472300D03*
%TO.P,U2,4,NC*%
%TO.N,unconnected-(U2-NC-Pad4)*%
X140853200Y-112197300D03*
%TO.P,U2,5,OUT*%
%TO.N,+3.3V*%
X138953200Y-112197300D03*
%TD*%
D13*
%TO.P,R9,1*%
%TO.N,Net-(J1-Pad11)*%
X125065000Y-82120000D03*
%TO.P,R9,2*%
%TO.N,GND*%
X123415000Y-82120000D03*
%TD*%
D14*
%TO.P,D1,1,A1*%
%TO.N,+12V_CAR*%
X118225000Y-103790000D03*
%TO.P,D1,2,A2*%
%TO.N,GND*%
X118225000Y-107790000D03*
%TD*%
D15*
%TO.P,H3,1,1*%
%TO.N,GND*%
X175600000Y-122649999D03*
X176302944Y-120952943D03*
X176302944Y-124347055D03*
X178000000Y-120249999D03*
D16*
X178000000Y-122649999D03*
D15*
X178000000Y-125049999D03*
X179697056Y-120952943D03*
X179697056Y-124347055D03*
X180400000Y-122649999D03*
%TD*%
D17*
%TO.P,C29,1*%
%TO.N,+3.3V*%
X135445800Y-96291400D03*
%TO.P,C29,2*%
%TO.N,GND*%
X133895800Y-96291400D03*
%TD*%
D18*
%TO.P,CMC2,1*%
%TO.N,Net-(U4-CANL)*%
X121219000Y-94943800D03*
D19*
%TO.P,CMC2,2*%
%TO.N,CAN_CRIT_L*%
X119319000Y-94943800D03*
D20*
%TO.P,CMC2,3*%
%TO.N,CAN_CRIT_H*%
X119319000Y-97943800D03*
D21*
%TO.P,CMC2,4*%
%TO.N,Net-(U4-CANH)*%
X121219000Y-97943800D03*
%TD*%
D22*
%TO.P,U5,1,VCC1*%
%TO.N,+3.3V*%
X135436600Y-94092400D03*
%TO.P,U5,2,RXD*%
%TO.N,CAN_COMM_RX*%
X135436600Y-91552400D03*
%TO.P,U5,3,TXD*%
%TO.N,CAN_COMM_TX*%
X135436600Y-89012400D03*
%TO.P,U5,4,GND1*%
%TO.N,GND*%
X135436600Y-86472400D03*
%TO.P,U5,5,GND2*%
X126386600Y-86472400D03*
%TO.P,U5,6,CANL*%
%TO.N,Net-(U5-CANL)*%
X126386600Y-89012400D03*
%TO.P,U5,7,CANH*%
%TO.N,Net-(U5-CANH)*%
X126386600Y-91552400D03*
%TO.P,U5,8,VCC2*%
%TO.N,Net-(U5-VCC2)*%
X126386600Y-94092400D03*
%TD*%
D23*
%TO.P,C3,1*%
%TO.N,+12V*%
X119064200Y-113414800D03*
%TO.P,C3,2*%
%TO.N,GND*%
X116114200Y-113414800D03*
%TD*%
D24*
%TO.P,FB3,1*%
%TO.N,Net-(U5-VCC2)*%
X128040000Y-96227500D03*
%TO.P,FB3,2*%
%TO.N,+5V*%
X128040000Y-98352500D03*
%TD*%
D25*
%TO.P,J2,1,1*%
%TO.N,Net-(F1-Pad1)*%
X107950000Y-105790000D03*
%TO.P,J2,2,2*%
X107950000Y-103790000D03*
%TO.P,J2,3,3*%
X107950000Y-101790000D03*
%TO.P,J2,4,4*%
%TO.N,GND*%
X107950000Y-99790000D03*
%TO.P,J2,5,5*%
%TO.N,CAN_CRIT_H*%
X107950000Y-97790000D03*
%TO.P,J2,6,6*%
%TO.N,CAN_CRIT_L*%
X107950000Y-95790000D03*
%TO.P,J2,7,7*%
%TO.N,GND*%
X107950000Y-93790000D03*
%TO.P,J2,8,8*%
%TO.N,CAN_COMM_H*%
X107950000Y-91790000D03*
%TO.P,J2,9,9*%
%TO.N,CAN_COMM_L*%
X107950000Y-89790000D03*
%TO.P,J2,10,10*%
%TO.N,GND*%
X107950000Y-87790000D03*
D26*
%TO.P,J2,11,MP1*%
X103750000Y-107150000D03*
%TO.P,J2,12,MP2*%
X103750000Y-86250000D03*
%TD*%
D27*
%TO.P,R6,1*%
%TO.N,Net-(C16-Pad2)*%
X148158200Y-102653600D03*
%TO.P,R6,2*%
%TO.N,LSE_OSC_OUT*%
X148158200Y-101003600D03*
%TD*%
D28*
%TO.P,R8,1*%
%TO.N,GND*%
X130127500Y-98050000D03*
%TO.P,R8,2*%
%TO.N,BOOT0*%
X131952500Y-98050000D03*
%TD*%
D10*
%TO.P,C10,1*%
%TO.N,GND*%
X137426400Y-110286800D03*
%TO.P,C10,2*%
%TO.N,+3.3V*%
X138976400Y-110286800D03*
%TD*%
D29*
%TO.P,U1,1,GND*%
%TO.N,GND*%
X124789200Y-117777300D03*
%TO.P,U1,2,SW*%
%TO.N,Net-(U1-SW)*%
X123839200Y-117777300D03*
%TO.P,U1,3,VIN*%
%TO.N,+12V*%
X122889200Y-117777300D03*
%TO.P,U1,4,VFB*%
%TO.N,Net-(U1-VFB)*%
X122889200Y-120052300D03*
%TO.P,U1,5,EN*%
%TO.N,+12V*%
X123839200Y-120052300D03*
%TO.P,U1,6,VBST*%
%TO.N,Net-(U1-VBST)*%
X124789200Y-120052300D03*
%TD*%
D30*
%TO.P,R19,1*%
%TO.N,Net-(SB2-B)*%
X115500000Y-89050000D03*
%TO.P,R19,2*%
%TO.N,CAN_COMM_L*%
X115500000Y-87225000D03*
%TD*%
D31*
%TO.P,C25,1*%
%TO.N,GND*%
X145110000Y-75395000D03*
%TO.P,C25,2*%
%TO.N,Net-(C25-Pad2)*%
X145110000Y-76945000D03*
%TD*%
D18*
%TO.P,CMC3,1*%
%TO.N,Net-(U5-CANL)*%
X121150000Y-88289000D03*
D19*
%TO.P,CMC3,2*%
%TO.N,CAN_COMM_L*%
X119250000Y-88289000D03*
D20*
%TO.P,CMC3,3*%
%TO.N,CAN_COMM_H*%
X119250000Y-91289000D03*
D21*
%TO.P,CMC3,4*%
%TO.N,Net-(U5-CANH)*%
X121150000Y-91289000D03*
%TD*%
D32*
%TO.P,FID2,*%
%TO.N,*%
X177800000Y-76200000D03*
%TD*%
D33*
%TO.P,R7,1*%
%TO.N,Net-(X1-EN)*%
X154051000Y-104929300D03*
%TO.P,R7,2*%
%TO.N,+3.3V*%
X154051000Y-106754300D03*
%TD*%
D34*
%TO.P,C1,1*%
%TO.N,+12V_CAR*%
X121739200Y-103239800D03*
%TO.P,C1,2*%
%TO.N,GND*%
X121739200Y-100289800D03*
%TD*%
D13*
%TO.P,R4,1*%
%TO.N,VDDA*%
X155485600Y-101727000D03*
%TO.P,R4,2*%
%TO.N,VREF*%
X153835600Y-101727000D03*
%TD*%
D35*
%TO.P,J5,1,Pin_1*%
%TO.N,GND*%
X172567600Y-102235000D03*
D36*
%TO.P,J5,2,Pin_2*%
%TO.N,Net-(J5-Pin_2)*%
X172567600Y-99735000D03*
%TD*%
D37*
%TO.P,C8,1*%
%TO.N,+5V*%
X133420000Y-117845000D03*
%TO.P,C8,2*%
%TO.N,GND*%
X133420000Y-120795000D03*
%TD*%
D38*
%TO.P,R10,1*%
%TO.N,Net-(J1-Pad04)*%
X147878800Y-74663800D03*
%TO.P,R10,2*%
%TO.N,SWDIO*%
X147878800Y-76313800D03*
%TD*%
D39*
%TO.P,X1,1,EN*%
%TO.N,Net-(X1-EN)*%
X152031200Y-104224800D03*
%TO.P,X1,2,GND*%
%TO.N,GND*%
X152031200Y-102124800D03*
%TO.P,X1,3,OUT*%
%TO.N,HSE_IN*%
X150381200Y-102124800D03*
%TO.P,X1,4,Vdd*%
%TO.N,+3.3V*%
X150381200Y-104224800D03*
%TD*%
D23*
%TO.P,C2,1*%
%TO.N,+12V*%
X119093200Y-120222800D03*
%TO.P,C2,2*%
%TO.N,GND*%
X116143200Y-120222800D03*
%TD*%
D38*
%TO.P,R12,1*%
%TO.N,Net-(J1-Pad08)*%
X138125200Y-76467200D03*
%TO.P,R12,2*%
%TO.N,SWO*%
X138125200Y-78117200D03*
%TD*%
D40*
%TO.P,L1,1*%
%TO.N,Net-(U1-SW)*%
X126801700Y-115927300D03*
%TO.P,L1,2*%
%TO.N,+5V*%
X128376700Y-115927300D03*
%TD*%
D41*
%TO.P,D2,1,K*%
%TO.N,+3.3V*%
X160501600Y-101727000D03*
%TO.P,D2,2,A*%
%TO.N,VDDA*%
X157201600Y-101727000D03*
%TD*%
D24*
%TO.P,FB2,1*%
%TO.N,Net-(U4-VCC2)*%
X132943600Y-111865900D03*
%TO.P,FB2,2*%
%TO.N,+5V*%
X132943600Y-113990900D03*
%TD*%
D42*
%TO.P,C23,1*%
%TO.N,GND*%
X141300200Y-96482200D03*
%TO.P,C23,2*%
%TO.N,+3.3V*%
X141300200Y-94932200D03*
%TD*%
D43*
%TO.P,C6,1*%
%TO.N,Net-(U1-VBST)*%
X126789200Y-120052300D03*
%TO.P,C6,2*%
%TO.N,Net-(U1-SW)*%
X126789200Y-118152300D03*
%TD*%
D15*
%TO.P,H1,1,1*%
%TO.N,GND*%
X101600000Y-70649999D03*
X102302944Y-68952943D03*
X102302944Y-72347055D03*
X104000000Y-68249999D03*
D16*
X104000000Y-70649999D03*
D15*
X104000000Y-73049999D03*
X105697056Y-68952943D03*
X105697056Y-72347055D03*
X106400000Y-70649999D03*
%TD*%
D32*
%TO.P,FID2,*%
%TO.N,*%
X104140000Y-116840000D03*
%TD*%
D33*
%TO.P,R18,1*%
%TO.N,Net-(SB2-A)*%
X115500000Y-90687500D03*
%TO.P,R18,2*%
%TO.N,CAN_COMM_H*%
X115500000Y-92512500D03*
%TD*%
D38*
%TO.P,R14,1*%
%TO.N,Net-(J1-Pad14)*%
X149860000Y-74663800D03*
%TO.P,R14,2*%
%TO.N,UART4_TX*%
X149860000Y-76313800D03*
%TD*%
D31*
%TO.P,C9,1*%
%TO.N,GND*%
X137290700Y-112934800D03*
%TO.P,C9,2*%
%TO.N,+5V*%
X137290700Y-114484800D03*
%TD*%
%TO.P,C20,1*%
%TO.N,+3.3V*%
X145973800Y-97192800D03*
%TO.P,C20,2*%
%TO.N,GND*%
X145973800Y-98742800D03*
%TD*%
D42*
%TO.P,C32,1*%
%TO.N,+3.3V*%
X162610800Y-79489600D03*
%TO.P,C32,2*%
%TO.N,GND*%
X162610800Y-77939600D03*
%TD*%
D31*
%TO.P,C21,1*%
%TO.N,+3.3V*%
X148463000Y-97192800D03*
%TO.P,C21,2*%
%TO.N,GND*%
X148463000Y-98742800D03*
%TD*%
D23*
%TO.P,C4,1*%
%TO.N,+12V*%
X119064200Y-116864800D03*
%TO.P,C4,2*%
%TO.N,GND*%
X116114200Y-116864800D03*
%TD*%
D44*
%TO.P,U3,1,PE2*%
%TO.N,unconnected-(U3-PE2-Pad1)*%
X143479000Y-95355800D03*
%TO.P,U3,2,PE3*%
%TO.N,unconnected-(U3-PE3-Pad2)*%
X143979000Y-95355800D03*
%TO.P,U3,3,PE4*%
%TO.N,unconnected-(U3-PE4-Pad3)*%
X144479000Y-95355800D03*
%TO.P,U3,4,PE5*%
%TO.N,unconnected-(U3-PE5-Pad4)*%
X144979000Y-95355800D03*
%TO.P,U3,5,PE6*%
%TO.N,unconnected-(U3-PE6-Pad5)*%
X145479000Y-95355800D03*
%TO.P,U3,6,VBAT*%
%TO.N,+3.3V*%
X145979000Y-95355800D03*
%TO.P,U3,7,PC13*%
%TO.N,unconnected-(U3-PC13-Pad7)*%
X146479000Y-95355800D03*
%TO.P,U3,8,PC14*%
%TO.N,LSE_OSC_IN*%
X146979000Y-95355800D03*
%TO.P,U3,9,PC15*%
%TO.N,LSE_OSC_OUT*%
X147479000Y-95355800D03*
%TO.P,U3,10,VSS*%
%TO.N,GND*%
X147979000Y-95355800D03*
%TO.P,U3,11,VDD*%
%TO.N,+3.3V*%
X148479000Y-95355800D03*
%TO.P,U3,12,PH0*%
%TO.N,HSE_IN*%
X148979000Y-95355800D03*
%TO.P,U3,13,PH1*%
%TO.N,unconnected-(U3-PH1-Pad13)*%
X149479000Y-95355800D03*
%TO.P,U3,14,NRST*%
%TO.N,NRST*%
X149979000Y-95355800D03*
%TO.P,U3,15,PC0*%
%TO.N,unconnected-(U3-PC0-Pad15)*%
X150479000Y-95355800D03*
%TO.P,U3,16,PC1*%
%TO.N,unconnected-(U3-PC1-Pad16)*%
X150979000Y-95355800D03*
%TO.P,U3,17,PC2_C*%
%TO.N,unconnected-(U3-PC2_C-Pad17)*%
X151479000Y-95355800D03*
%TO.P,U3,18,PC3_C*%
%TO.N,unconnected-(U3-PC3_C-Pad18)*%
X151979000Y-95355800D03*
%TO.P,U3,19,VSSA*%
%TO.N,GND*%
X152479000Y-95355800D03*
%TO.P,U3,20,VREF+*%
%TO.N,VREF*%
X152979000Y-95355800D03*
%TO.P,U3,21,VDDA*%
%TO.N,VDDA*%
X153479000Y-95355800D03*
%TO.P,U3,22,PA0*%
%TO.N,unconnected-(U3-PA0-Pad22)*%
X153979000Y-95355800D03*
%TO.P,U3,23,PA1*%
%TO.N,unconnected-(U3-PA1-Pad23)*%
X154479000Y-95355800D03*
%TO.P,U3,24,PA2*%
%TO.N,unconnected-(U3-PA2-Pad24)*%
X154979000Y-95355800D03*
%TO.P,U3,25,PA3*%
%TO.N,unconnected-(U3-PA3-Pad25)*%
X155479000Y-95355800D03*
D45*
%TO.P,U3,26,VSS*%
%TO.N,GND*%
X157154000Y-93680800D03*
%TO.P,U3,27,VDD*%
%TO.N,+3.3V*%
X157154000Y-93180800D03*
%TO.P,U3,28,PA4*%
%TO.N,unconnected-(U3-PA4-Pad28)*%
X157154000Y-92680800D03*
%TO.P,U3,29,PA5*%
%TO.N,unconnected-(U3-PA5-Pad29)*%
X157154000Y-92180800D03*
%TO.P,U3,30,PA6*%
%TO.N,unconnected-(U3-PA6-Pad30)*%
X157154000Y-91680800D03*
%TO.P,U3,31,PA7*%
%TO.N,unconnected-(U3-PA7-Pad31)*%
X157154000Y-91180800D03*
%TO.P,U3,32,PC4*%
%TO.N,unconnected-(U3-PC4-Pad32)*%
X157154000Y-90680800D03*
%TO.P,U3,33,PC5*%
%TO.N,unconnected-(U3-PC5-Pad33)*%
X157154000Y-90180800D03*
%TO.P,U3,34,PB0*%
%TO.N,unconnected-(U3-PB0-Pad34)*%
X157154000Y-89680800D03*
%TO.P,U3,35,PB1*%
%TO.N,unconnected-(U3-PB1-Pad35)*%
X157154000Y-89180800D03*
%TO.P,U3,36,PB2*%
%TO.N,unconnected-(U3-PB2-Pad36)*%
X157154000Y-88680800D03*
%TO.P,U3,37,PE7*%
%TO.N,unconnected-(U3-PE7-Pad37)*%
X157154000Y-88180800D03*
%TO.P,U3,38,PE8*%
%TO.N,unconnected-(U3-PE8-Pad38)*%
X157154000Y-87680800D03*
%TO.P,U3,39,PE9*%
%TO.N,RGB_CH_1*%
X157154000Y-87180800D03*
%TO.P,U3,40,PE10*%
%TO.N,unconnected-(U3-PE10-Pad40)*%
X157154000Y-86680800D03*
%TO.P,U3,41,PE11*%
%TO.N,RGB_CH_2*%
X157154000Y-86180800D03*
%TO.P,U3,42,PE12*%
%TO.N,unconnected-(U3-PE12-Pad42)*%
X157154000Y-85680800D03*
%TO.P,U3,43,PE13*%
%TO.N,RGB_CH_3*%
X157154000Y-85180800D03*
%TO.P,U3,44,PE14*%
%TO.N,RGB_CH_4*%
X157154000Y-84680800D03*
%TO.P,U3,45,PE15*%
%TO.N,unconnected-(U3-PE15-Pad45)*%
X157154000Y-84180800D03*
%TO.P,U3,46,PB10*%
%TO.N,unconnected-(U3-PB10-Pad46)*%
X157154000Y-83680800D03*
%TO.P,U3,47,PB11*%
%TO.N,unconnected-(U3-PB11-Pad47)*%
X157154000Y-83180800D03*
%TO.P,U3,48,VCAP*%
%TO.N,Net-(C24-Pad2)*%
X157154000Y-82680800D03*
%TO.P,U3,49,VSS*%
%TO.N,GND*%
X157154000Y-82180800D03*
%TO.P,U3,50,VDD*%
%TO.N,+3.3V*%
X157154000Y-81680800D03*
D44*
%TO.P,U3,51,PB12*%
%TO.N,unconnected-(U3-PB12-Pad51)*%
X155479000Y-80005800D03*
%TO.P,U3,52,PB13*%
%TO.N,unconnected-(U3-PB13-Pad52)*%
X154979000Y-80005800D03*
%TO.P,U3,53,PB14*%
%TO.N,unconnected-(U3-PB14-Pad53)*%
X154479000Y-80005800D03*
%TO.P,U3,54,PB15*%
%TO.N,unconnected-(U3-PB15-Pad54)*%
X153979000Y-80005800D03*
%TO.P,U3,55,PD8*%
%TO.N,unconnected-(U3-PD8-Pad55)*%
X153479000Y-80005800D03*
%TO.P,U3,56,PD9*%
%TO.N,unconnected-(U3-PD9-Pad56)*%
X152979000Y-80005800D03*
%TO.P,U3,57,PD10*%
%TO.N,unconnected-(U3-PD10-Pad57)*%
X152479000Y-80005800D03*
%TO.P,U3,58,PD11*%
%TO.N,unconnected-(U3-PD11-Pad58)*%
X151979000Y-80005800D03*
%TO.P,U3,59,PD12*%
%TO.N,unconnected-(U3-PD12-Pad59)*%
X151479000Y-80005800D03*
%TO.P,U3,60,PD13*%
%TO.N,unconnected-(U3-PD13-Pad60)*%
X150979000Y-80005800D03*
%TO.P,U3,61,PD14*%
%TO.N,unconnected-(U3-PD14-Pad61)*%
X150479000Y-80005800D03*
%TO.P,U3,62,PD15*%
%TO.N,unconnected-(U3-PD15-Pad62)*%
X149979000Y-80005800D03*
%TO.P,U3,63,PC6*%
%TO.N,unconnected-(U3-PC6-Pad63)*%
X149479000Y-80005800D03*
%TO.P,U3,64,PC7*%
%TO.N,unconnected-(U3-PC7-Pad64)*%
X148979000Y-80005800D03*
%TO.P,U3,65,PC8*%
%TO.N,unconnected-(U3-PC8-Pad65)*%
X148479000Y-80005800D03*
%TO.P,U3,66,PC9*%
%TO.N,unconnected-(U3-PC9-Pad66)*%
X147979000Y-80005800D03*
%TO.P,U3,67,PA8*%
%TO.N,unconnected-(U3-PA8-Pad67)*%
X147479000Y-80005800D03*
%TO.P,U3,68,PA9*%
%TO.N,unconnected-(U3-PA9-Pad68)*%
X146979000Y-80005800D03*
%TO.P,U3,69,PA10*%
%TO.N,unconnected-(U3-PA10-Pad69)*%
X146479000Y-80005800D03*
%TO.P,U3,70,PA11*%
%TO.N,UART4_RX*%
X145979000Y-80005800D03*
%TO.P,U3,71,PA12*%
%TO.N,UART4_TX*%
X145479000Y-80005800D03*
%TO.P,U3,72,PA13*%
%TO.N,SWDIO*%
X144979000Y-80005800D03*
%TO.P,U3,73,VCAP*%
%TO.N,Net-(C25-Pad2)*%
X144479000Y-80005800D03*
%TO.P,U3,74,VSS*%
%TO.N,GND*%
X143979000Y-80005800D03*
%TO.P,U3,75,VDD*%
%TO.N,+3.3V*%
X143479000Y-80005800D03*
D45*
%TO.P,U3,76,PA14*%
%TO.N,SWCLK*%
X141804000Y-81680800D03*
%TO.P,U3,77,PA15*%
%TO.N,unconnected-(U3-PA15-Pad77)*%
X141804000Y-82180800D03*
%TO.P,U3,78,PC10*%
%TO.N,unconnected-(U3-PC10-Pad78)*%
X141804000Y-82680800D03*
%TO.P,U3,79,PC11*%
%TO.N,unconnected-(U3-PC11-Pad79)*%
X141804000Y-83180800D03*
%TO.P,U3,80,PC12*%
%TO.N,unconnected-(U3-PC12-Pad80)*%
X141804000Y-83680800D03*
%TO.P,U3,81,PD0*%
%TO.N,unconnected-(U3-PD0-Pad81)*%
X141804000Y-84180800D03*
%TO.P,U3,82,PD1*%
%TO.N,unconnected-(U3-PD1-Pad82)*%
X141804000Y-84680800D03*
%TO.P,U3,83,PD2*%
%TO.N,unconnected-(U3-PD2-Pad83)*%
X141804000Y-85180800D03*
%TO.P,U3,84,PD3*%
%TO.N,unconnected-(U3-PD3-Pad84)*%
X141804000Y-85680800D03*
%TO.P,U3,85,PD4*%
%TO.N,unconnected-(U3-PD4-Pad85)*%
X141804000Y-86180800D03*
%TO.P,U3,86,PD5*%
%TO.N,unconnected-(U3-PD5-Pad86)*%
X141804000Y-86680800D03*
%TO.P,U3,87,PD6*%
%TO.N,unconnected-(U3-PD6-Pad87)*%
X141804000Y-87180800D03*
%TO.P,U3,88,PD7*%
%TO.N,unconnected-(U3-PD7-Pad88)*%
X141804000Y-87680800D03*
%TO.P,U3,89,PB3*%
%TO.N,SWO*%
X141804000Y-88180800D03*
%TO.P,U3,90,PB4*%
%TO.N,unconnected-(U3-PB4-Pad90)*%
X141804000Y-88680800D03*
%TO.P,U3,91,PB5*%
%TO.N,CAN_COMM_RX*%
X141804000Y-89180800D03*
%TO.P,U3,92,PB6*%
%TO.N,CAN_COMM_TX*%
X141804000Y-89680800D03*
%TO.P,U3,93,PB7*%
%TO.N,unconnected-(U3-PB7-Pad93)*%
X141804000Y-90180800D03*
%TO.P,U3,94,BOOT0*%
%TO.N,BOOT0*%
X141804000Y-90680800D03*
%TO.P,U3,95,PB8*%
%TO.N,CAN_CRIT_RX*%
X141804000Y-91180800D03*
%TO.P,U3,96,PB9*%
%TO.N,CAN_CRIT_TX*%
X141804000Y-91680800D03*
%TO.P,U3,97,PE0*%
%TO.N,unconnected-(U3-PE0-Pad97)*%
X141804000Y-92180800D03*
%TO.P,U3,98,PE1*%
%TO.N,unconnected-(U3-PE1-Pad98)*%
X141804000Y-92680800D03*
%TO.P,U3,99,VSS*%
%TO.N,GND*%
X141804000Y-93180800D03*
%TO.P,U3,100,VDD*%
%TO.N,+3.3V*%
X141804000Y-93680800D03*
%TD*%
D10*
%TO.P,C11,1*%
%TO.N,GND*%
X151421800Y-99491800D03*
%TO.P,C11,2*%
%TO.N,VREF*%
X152971800Y-99491800D03*
%TD*%
D38*
%TO.P,R13,1*%
%TO.N,Net-(J1-Pad12)*%
X141300200Y-76568800D03*
%TO.P,R13,2*%
%TO.N,NRST*%
X141300200Y-78218800D03*
%TD*%
D32*
%TO.P,FID2,*%
%TO.N,*%
X104140000Y-76200000D03*
%TD*%
D15*
%TO.P,H4,1,1*%
%TO.N,GND*%
X101600000Y-122649999D03*
X102302944Y-120952943D03*
X102302944Y-124347055D03*
X104000000Y-120249999D03*
D16*
X104000000Y-122649999D03*
D15*
X104000000Y-125049999D03*
X105697056Y-120952943D03*
X105697056Y-124347055D03*
X106400000Y-122649999D03*
%TD*%
D17*
%TO.P,C12,1*%
%TO.N,VREF*%
X152971800Y-97307400D03*
%TO.P,C12,2*%
%TO.N,GND*%
X151421800Y-97307400D03*
%TD*%
D42*
%TO.P,C19,1*%
%TO.N,+3.3V*%
X143510000Y-78143400D03*
%TO.P,C19,2*%
%TO.N,GND*%
X143510000Y-76593400D03*
%TD*%
D35*
%TO.P,J3,1,Pin_1*%
%TO.N,GND*%
X172567600Y-84785200D03*
D36*
%TO.P,J3,2,Pin_2*%
%TO.N,Net-(J3-Pin_2)*%
X172567600Y-82285200D03*
%TD*%
D46*
%TO.P,U6,1,VCC1*%
%TO.N,+3.3V*%
X162599600Y-81415800D03*
%TO.P,U6,2,GND1*%
%TO.N,GND*%
X162599600Y-82685800D03*
%TO.P,U6,3,INA*%
%TO.N,RGB_CH_4*%
X162599600Y-83955800D03*
%TO.P,U6,4,INB*%
%TO.N,RGB_CH_3*%
X162599600Y-85225800D03*
%TO.P,U6,5,INC*%
%TO.N,RGB_CH_2*%
X162599600Y-86495800D03*
%TO.P,U6,6,IND*%
%TO.N,RGB_CH_1*%
X162599600Y-87765800D03*
%TO.P,U6,7*%
%TO.N,N/C*%
X162599600Y-89035800D03*
%TO.P,U6,8,GND1*%
%TO.N,GND*%
X162599600Y-90305800D03*
%TO.P,U6,9,GND2*%
X167549600Y-90305800D03*
%TO.P,U6,10,EN*%
%TO.N,Net-(U6-EN)*%
X167549600Y-89035800D03*
%TO.P,U6,11,OUTD*%
%TO.N,Net-(J6-Pin_2)*%
X167549600Y-87765800D03*
%TO.P,U6,12,OUTC*%
%TO.N,Net-(J5-Pin_2)*%
X167549600Y-86495800D03*
%TO.P,U6,13,OUTB*%
%TO.N,Net-(J4-Pin_2)*%
X167549600Y-85225800D03*
%TO.P,U6,14,OUTA*%
%TO.N,Net-(J3-Pin_2)*%
X167549600Y-83955800D03*
%TO.P,U6,15,GND2*%
%TO.N,GND*%
X167549600Y-82685800D03*
%TO.P,U6,16,VCC2*%
%TO.N,+5V*%
X167549600Y-81415800D03*
%TD*%
D31*
%TO.P,C26,1*%
%TO.N,+3.3V*%
X143281400Y-107911600D03*
%TO.P,C26,2*%
%TO.N,GND*%
X143281400Y-109461600D03*
%TD*%
D47*
%TO.P,FB1,1*%
%TO.N,+3.3V*%
X159329900Y-103825400D03*
%TO.P,FB1,2*%
%TO.N,VDDA*%
X157204900Y-103825400D03*
%TD*%
D35*
%TO.P,J6,1,Pin_1*%
%TO.N,GND*%
X172563200Y-111094200D03*
D36*
%TO.P,J6,2,Pin_2*%
%TO.N,Net-(J6-Pin_2)*%
X172563200Y-108594200D03*
%TD*%
D31*
%TO.P,C33,1*%
%TO.N,GND*%
X167563800Y-77965000D03*
%TO.P,C33,2*%
%TO.N,+5V*%
X167563800Y-79515000D03*
%TD*%
%TO.P,C30,1*%
%TO.N,Net-(U5-VCC2)*%
X126161800Y-96227600D03*
%TO.P,C30,2*%
%TO.N,GND*%
X126161800Y-97777600D03*
%TD*%
D17*
%TO.P,C24,1*%
%TO.N,GND*%
X160541000Y-82936600D03*
%TO.P,C24,2*%
%TO.N,Net-(C24-Pad2)*%
X158991000Y-82936600D03*
%TD*%
%TO.P,C17,1*%
%TO.N,GND*%
X151930400Y-106121200D03*
%TO.P,C17,2*%
%TO.N,+3.3V*%
X150380400Y-106121200D03*
%TD*%
D28*
%TO.P,R3,1*%
%TO.N,+5V*%
X138965300Y-116472300D03*
%TO.P,R3,2*%
%TO.N,Net-(U2-EN)*%
X140790300Y-116472300D03*
%TD*%
D27*
%TO.P,R5,1*%
%TO.N,Net-(C15-Pad2)*%
X146380200Y-102653600D03*
%TO.P,R5,2*%
%TO.N,LSE_OSC_IN*%
X146380200Y-101003600D03*
%TD*%
D17*
%TO.P,C27,1*%
%TO.N,Net-(U4-VCC2)*%
X132931200Y-109905800D03*
%TO.P,C27,2*%
%TO.N,GND*%
X131381200Y-109905800D03*
%TD*%
D22*
%TO.P,U4,1,VCC1*%
%TO.N,+3.3V*%
X140846800Y-107899200D03*
%TO.P,U4,2,RXD*%
%TO.N,CAN_CRIT_RX*%
X140846800Y-105359200D03*
%TO.P,U4,3,TXD*%
%TO.N,CAN_CRIT_TX*%
X140846800Y-102819200D03*
%TO.P,U4,4,GND1*%
%TO.N,GND*%
X140846800Y-100279200D03*
%TO.P,U4,5,GND2*%
X131796800Y-100279200D03*
%TO.P,U4,6,CANL*%
%TO.N,Net-(U4-CANL)*%
X131796800Y-102819200D03*
%TO.P,U4,7,CANH*%
%TO.N,Net-(U4-CANH)*%
X131796800Y-105359200D03*
%TO.P,U4,8,VCC2*%
%TO.N,Net-(U4-VCC2)*%
X131796800Y-107899200D03*
%TD*%
D48*
%TO.P,F1,1*%
%TO.N,Net-(F1-Pad1)*%
X110950000Y-103790000D03*
%TO.P,F1,2*%
%TO.N,+12V_CAR*%
X115225000Y-103790000D03*
%TD*%
D42*
%TO.P,C15,1*%
%TO.N,GND*%
X146024600Y-108496400D03*
%TO.P,C15,2*%
%TO.N,Net-(C15-Pad2)*%
X146024600Y-106946400D03*
%TD*%
D49*
%TO.P,R1,1*%
%TO.N,+5V*%
X126464700Y-122275600D03*
%TO.P,R1,2*%
%TO.N,Net-(U1-VFB)*%
X124639700Y-122275600D03*
%TD*%
D35*
%TO.P,J4,1,Pin_1*%
%TO.N,GND*%
X172567600Y-93522800D03*
D36*
%TO.P,J4,2,Pin_2*%
%TO.N,Net-(J4-Pin_2)*%
X172567600Y-91022800D03*
%TD*%
D38*
%TO.P,R11,1*%
%TO.N,Net-(J1-Pad06)*%
X139700000Y-76467200D03*
%TO.P,R11,2*%
%TO.N,SWCLK*%
X139700000Y-78117200D03*
%TD*%
D33*
%TO.P,R16,1*%
%TO.N,Net-(SB1-A)*%
X115500000Y-97650000D03*
%TO.P,R16,2*%
%TO.N,CAN_CRIT_H*%
X115500000Y-99475000D03*
%TD*%
%TO.P,R20,1*%
%TO.N,Net-(U6-EN)*%
X165481000Y-92737300D03*
%TO.P,R20,2*%
%TO.N,+5V*%
X165481000Y-94562300D03*
%TD*%
D50*
%TO.P,J1,01,01*%
%TO.N,unconnected-(J1-Pad01)*%
X127775000Y-75770000D03*
%TO.P,J1,02,02*%
%TO.N,unconnected-(J1-Pad02)*%
X131845000Y-75770000D03*
%TO.P,J1,03,03*%
%TO.N,+3.3V*%
X127775000Y-77040000D03*
%TO.P,J1,04,04*%
%TO.N,Net-(J1-Pad04)*%
X131845000Y-77040000D03*
%TO.P,J1,05,05*%
%TO.N,GND*%
X127775000Y-78310000D03*
%TO.P,J1,06,06*%
%TO.N,Net-(J1-Pad06)*%
X131845000Y-78310000D03*
%TO.P,J1,07,07*%
%TO.N,GND*%
X127775000Y-79580000D03*
%TO.P,J1,08,08*%
%TO.N,Net-(J1-Pad08)*%
X131845000Y-79580000D03*
%TO.P,J1,09,09*%
%TO.N,unconnected-(J1-Pad09)*%
X127775000Y-80850000D03*
%TO.P,J1,10,10*%
%TO.N,unconnected-(J1-Pad10)*%
X131845000Y-80850000D03*
%TO.P,J1,11,11*%
%TO.N,Net-(J1-Pad11)*%
X127775000Y-82120000D03*
%TO.P,J1,12,12*%
%TO.N,Net-(J1-Pad12)*%
X131845000Y-82120000D03*
%TO.P,J1,13,13*%
%TO.N,Net-(J1-Pad13)*%
X127775000Y-83390000D03*
%TO.P,J1,14,14*%
%TO.N,Net-(J1-Pad14)*%
X131845000Y-83390000D03*
%TD*%
D49*
%TO.P,R2,1*%
%TO.N,Net-(U1-VFB)*%
X122883300Y-122275600D03*
%TO.P,R2,2*%
%TO.N,GND*%
X121058300Y-122275600D03*
%TD*%
D30*
%TO.P,R17,1*%
%TO.N,Net-(SB1-B)*%
X115500000Y-95975000D03*
%TO.P,R17,2*%
%TO.N,CAN_CRIT_L*%
X115500000Y-94150000D03*
%TD*%
D15*
%TO.P,H2,1,1*%
%TO.N,GND*%
X175600000Y-70649999D03*
X176302944Y-68952943D03*
X176302944Y-72347055D03*
X178000000Y-68249999D03*
D16*
X178000000Y-70649999D03*
D15*
X178000000Y-73049999D03*
X179697056Y-68952943D03*
X179697056Y-72347055D03*
X180400000Y-70649999D03*
%TD*%
D38*
%TO.P,R15,1*%
%TO.N,Net-(J1-Pad13)*%
X152044400Y-74714600D03*
%TO.P,R15,2*%
%TO.N,UART4_RX*%
X152044400Y-76364600D03*
%TD*%
D51*
%TO.P,ESD1,1,Input*%
%TO.N,CAN_CRIT_L*%
X110950000Y-95790000D03*
%TO.P,ESD1,2,Input*%
%TO.N,CAN_CRIT_H*%
X110950000Y-97690000D03*
%TO.P,ESD1,3,Output*%
%TO.N,GND*%
X113225000Y-96740000D03*
%TD*%
D52*
%TO.P,X2,1,1*%
%TO.N,Net-(C16-Pad2)*%
X148544600Y-104724200D03*
%TO.P,X2,2,2*%
%TO.N,Net-(C15-Pad2)*%
X146044600Y-104724200D03*
%TD*%
D17*
%TO.P,C31,1*%
%TO.N,Net-(SB2-C)*%
X113075000Y-86400000D03*
%TO.P,C31,2*%
%TO.N,GND*%
X111525000Y-86400000D03*
%TD*%
D10*
%TO.P,C18,1*%
%TO.N,+3.3V*%
X158991000Y-93192600D03*
%TO.P,C18,2*%
%TO.N,GND*%
X160541000Y-93192600D03*
%TD*%
D53*
%TO.P,CMC1,1,1*%
%TO.N,GND*%
X127989200Y-105814800D03*
%TO.P,CMC1,2,2*%
%TO.N,+12V_CAR*%
X121789200Y-105814800D03*
%TO.P,CMC1,3,3*%
%TO.N,+12V*%
X121789200Y-113414800D03*
%TO.P,CMC1,4,4*%
%TO.N,GND*%
X127989200Y-113414800D03*
%TD*%
D10*
%TO.P,C22,1*%
%TO.N,+3.3V*%
X158991000Y-81432400D03*
%TO.P,C22,2*%
%TO.N,GND*%
X160541000Y-81432400D03*
%TD*%
D51*
%TO.P,ESD2,1,Input*%
%TO.N,CAN_COMM_L*%
X111025000Y-88950000D03*
%TO.P,ESD2,2,Input*%
%TO.N,CAN_COMM_H*%
X111025000Y-90850000D03*
%TO.P,ESD2,3,Output*%
%TO.N,GND*%
X113300000Y-89900000D03*
%TD*%
D17*
%TO.P,C28,1*%
%TO.N,Net-(SB1-C)*%
X112975000Y-100225000D03*
%TO.P,C28,2*%
%TO.N,GND*%
X111425000Y-100225000D03*
%TD*%
%TO.P,C14,1*%
%TO.N,GND*%
X156426200Y-97307400D03*
%TO.P,C14,2*%
%TO.N,VDDA*%
X154876200Y-97307400D03*
%TD*%
D42*
%TO.P,C16,1*%
%TO.N,GND*%
X148590000Y-108496400D03*
%TO.P,C16,2*%
%TO.N,Net-(C16-Pad2)*%
X148590000Y-106946400D03*
%TD*%
D37*
%TO.P,C7,1*%
%TO.N,+5V*%
X129940200Y-117870400D03*
%TO.P,C7,2*%
%TO.N,GND*%
X129940200Y-120820400D03*
%TD*%
D54*
%TO.N,Net-(J1-Pad12)*%
X141300200Y-75285600D03*
X136690000Y-77340000D03*
%TO.N,Net-(J1-Pad13)*%
X127790000Y-84670000D03*
X152050000Y-73460000D03*
%TO.N,Net-(J1-Pad14)*%
X136670000Y-78920000D03*
X149860000Y-73456800D03*
%TO.N,GND*%
X143637000Y-93167200D03*
X114722600Y-116870000D03*
X102730000Y-84250000D03*
X141300200Y-97612200D03*
X167550000Y-91460000D03*
X137439400Y-86461600D03*
X102790000Y-109100000D03*
X104730000Y-84250000D03*
X169260000Y-82260000D03*
X152450800Y-93218000D03*
X133900000Y-97350000D03*
X130073400Y-109905800D03*
X144780000Y-98679000D03*
X119684800Y-122351800D03*
X143256000Y-110363000D03*
X114722600Y-120222800D03*
X129940200Y-122063200D03*
X146024600Y-109677200D03*
X130130000Y-96560000D03*
X115773200Y-107797600D03*
X111911200Y-89914200D03*
X157632400Y-97307400D03*
X125628400Y-116789200D03*
X143510000Y-75311000D03*
X162610800Y-76809600D03*
X111912400Y-96748600D03*
X129830000Y-79580000D03*
X147955000Y-93167200D03*
X134730000Y-112870000D03*
X147294600Y-104724200D03*
X103730000Y-84250000D03*
X104790000Y-109100000D03*
X111425000Y-99075000D03*
X151942800Y-107264200D03*
X157607000Y-99491800D03*
X119532400Y-100304600D03*
X126380000Y-87690000D03*
X142773400Y-100279200D03*
X155295600Y-82169000D03*
X145355200Y-102688939D03*
X161027200Y-90305800D03*
X151409400Y-100457000D03*
X145110000Y-74138000D03*
X129820000Y-78320000D03*
X134770000Y-110288600D03*
X148590000Y-109651800D03*
X103790000Y-109100000D03*
X129768600Y-100279200D03*
X149183200Y-102632376D03*
X120980200Y-120751600D03*
X111525000Y-87600000D03*
X114697200Y-113415600D03*
X126034800Y-105867200D03*
X139900253Y-115522032D03*
X149402800Y-98729800D03*
X160528000Y-80238600D03*
X160553400Y-83718400D03*
X143979000Y-81369000D03*
X155473400Y-93675200D03*
X122160000Y-82130000D03*
X133420000Y-122037800D03*
X167554600Y-76814200D03*
X162600000Y-82265799D03*
X151409400Y-98399600D03*
X126161800Y-99060000D03*
X160528000Y-94437200D03*
X126009400Y-113411000D03*
X153365200Y-102870000D03*
%TO.N,+5V*%
X131670000Y-116320000D03*
X130670000Y-116320000D03*
X137270000Y-115676900D03*
X129670000Y-116320000D03*
X127640000Y-122260000D03*
X167005000Y-94564200D03*
X132943600Y-115189000D03*
X168757600Y-79451200D03*
X128041400Y-99491800D03*
%TO.N,+3.3V*%
X125600000Y-77050000D03*
X142417800Y-78181200D03*
X159004000Y-80264000D03*
X136728200Y-96291400D03*
X160502600Y-103835200D03*
X143281400Y-106908600D03*
X149475000Y-97192800D03*
X142290800Y-94945200D03*
X144830800Y-97180400D03*
X150393400Y-107289600D03*
D55*
X140366400Y-109761800D03*
X140366400Y-110711800D03*
D54*
X155373700Y-106754300D03*
X158978600Y-92151200D03*
X163855400Y-79476600D03*
%TO.N,Net-(SB1-C)*%
X112975369Y-99024631D03*
%TO.N,Net-(SB2-C)*%
X113100000Y-87600000D03*
%TO.N,Net-(SB1-A)*%
X116992400Y-97663000D03*
%TO.N,Net-(SB1-B)*%
X117043200Y-95986600D03*
%TO.N,Net-(SB2-A)*%
X116967000Y-90678000D03*
%TO.N,Net-(SB2-B)*%
X116950000Y-89050000D03*
%TD*%
D56*
%TO.N,Net-(U1-VBST)*%
X124789200Y-120052300D02*
X126789200Y-120052300D01*
%TO.N,Net-(U1-SW)*%
X126801700Y-115927300D02*
X126801700Y-118139800D01*
X124432900Y-115927300D02*
X126801700Y-115927300D01*
X123839200Y-117777300D02*
X123839200Y-116521000D01*
X123839200Y-116521000D02*
X124432900Y-115927300D01*
X126801700Y-118139800D02*
X126789200Y-118152300D01*
%TO.N,Net-(C15-Pad2)*%
X146380200Y-103378000D02*
X146044600Y-103713600D01*
X146380200Y-102653600D02*
X146380200Y-103378000D01*
X146044600Y-103713600D02*
X146044600Y-104724200D01*
X146024600Y-104744200D02*
X146044600Y-104724200D01*
X146024600Y-106946400D02*
X146024600Y-104744200D01*
%TO.N,Net-(C16-Pad2)*%
X148158200Y-103225600D02*
X148544600Y-103612000D01*
X148590000Y-104769600D02*
X148544600Y-104724200D01*
X148590000Y-106946400D02*
X148590000Y-104769600D01*
X148158200Y-102653600D02*
X148158200Y-103225600D01*
X148544600Y-103612000D02*
X148544600Y-104724200D01*
D57*
%TO.N,Net-(U5-VCC2)*%
X127876000Y-96227600D02*
X126161800Y-96227600D01*
D58*
X126386600Y-94092400D02*
X126354200Y-94092400D01*
X127902100Y-96227500D02*
X127889000Y-96240600D01*
X126354200Y-94092400D02*
X126161800Y-94284800D01*
D57*
X126161800Y-94284800D02*
X126161800Y-96227600D01*
D58*
X127889000Y-96240600D02*
X127876000Y-96227600D01*
X128040000Y-96227500D02*
X127902100Y-96227500D01*
%TO.N,Net-(U5-CANL)*%
X123621800Y-87858600D02*
X124775600Y-89012400D01*
X121580400Y-87858600D02*
X123621800Y-87858600D01*
X124775600Y-89012400D02*
X126386600Y-89012400D01*
X121150000Y-88289000D02*
X121580400Y-87858600D01*
%TO.N,Net-(U5-CANH)*%
X126375800Y-91541600D02*
X126386600Y-91552400D01*
X121402600Y-91541600D02*
X126375800Y-91541600D01*
X121150000Y-91289000D02*
X121402600Y-91541600D01*
D59*
%TO.N,Net-(J1-Pad12)*%
X136690000Y-77340000D02*
X135980000Y-78050000D01*
X141300200Y-76568800D02*
X141300200Y-75285600D01*
X134320000Y-82120000D02*
X132870000Y-82120000D01*
D60*
X132870000Y-82120000D02*
X131845000Y-82120000D01*
D59*
X135980000Y-78050000D02*
X135980000Y-80460000D01*
X135980000Y-80460000D02*
X134320000Y-82120000D01*
%TO.N,BOOT0*%
X141804000Y-90680800D02*
X139989200Y-90680800D01*
X137580000Y-93090000D02*
X137580000Y-97320000D01*
X139989200Y-90680800D02*
X137580000Y-93090000D01*
X136850000Y-98050000D02*
X131952500Y-98050000D01*
X137580000Y-97320000D02*
X136850000Y-98050000D01*
%TO.N,Net-(J1-Pad13)*%
X127790000Y-84670000D02*
X127775000Y-84655000D01*
X152044400Y-74714600D02*
X152044400Y-73465600D01*
X127775000Y-84655000D02*
X127775000Y-83390000D01*
X152044400Y-73465600D02*
X152050000Y-73460000D01*
%TO.N,Net-(J1-Pad04)*%
X131845000Y-77040000D02*
X133670000Y-77040000D01*
X147323000Y-73463000D02*
X147878800Y-74018800D01*
X147878800Y-74018800D02*
X147878800Y-74663800D01*
X133980000Y-74758213D02*
X135275213Y-73463000D01*
X135275213Y-73463000D02*
X147323000Y-73463000D01*
X133670000Y-77040000D02*
X133980000Y-76730000D01*
X133980000Y-76730000D02*
X133980000Y-74758213D01*
%TO.N,Net-(J1-Pad06)*%
X139237000Y-74340000D02*
X135034609Y-74340000D01*
X134450000Y-74924609D02*
X134450000Y-77933604D01*
X134450000Y-77933604D02*
X134073604Y-78310000D01*
X135034609Y-74340000D02*
X134450000Y-74924609D01*
X139700000Y-76467200D02*
X139700000Y-74803000D01*
X139700000Y-74803000D02*
X139237000Y-74340000D01*
X134073604Y-78310000D02*
X131845000Y-78310000D01*
%TO.N,Net-(J1-Pad08)*%
X138125200Y-74980800D02*
X137934400Y-74790000D01*
X133760000Y-79580000D02*
X131845000Y-79580000D01*
X134970000Y-78370000D02*
X133760000Y-79580000D01*
X135221005Y-74790000D02*
X134970000Y-75041005D01*
X134970000Y-75041005D02*
X134970000Y-78370000D01*
X137934400Y-74790000D02*
X135221005Y-74790000D01*
X138125200Y-76467200D02*
X138125200Y-74980800D01*
D56*
%TO.N,Net-(J1-Pad11)*%
X125065000Y-82120000D02*
X127775000Y-82120000D01*
%TO.N,Net-(J1-Pad14)*%
X149860000Y-74689200D02*
X149860000Y-73456800D01*
D59*
X133840000Y-83390000D02*
X131845000Y-83390000D01*
X136670000Y-80560000D02*
X133840000Y-83390000D01*
X136670000Y-78920000D02*
X136670000Y-80560000D01*
%TO.N,Net-(J5-Pin_2)*%
X167549600Y-86495800D02*
X169435800Y-86495800D01*
X170855000Y-99735000D02*
X172567600Y-99735000D01*
X169435800Y-86495800D02*
X169950000Y-87010000D01*
X169950000Y-87010000D02*
X169950000Y-98830000D01*
X169950000Y-98830000D02*
X170855000Y-99735000D01*
D56*
%TO.N,Net-(U1-VFB)*%
X122883300Y-122275600D02*
X122883300Y-120058200D01*
X124637700Y-122277600D02*
X124639700Y-122275600D01*
X122883300Y-120058200D02*
X122889200Y-120052300D01*
D61*
X122883300Y-122275600D02*
X124639700Y-122275600D01*
D59*
%TO.N,Net-(U6-EN)*%
X165470000Y-92726300D02*
X165470000Y-89520600D01*
X165470000Y-89520600D02*
X165954800Y-89035800D01*
X165481000Y-92737300D02*
X165470000Y-92726300D01*
X165954800Y-89035800D02*
X167549600Y-89035800D01*
D60*
%TO.N,GND*%
X152450800Y-93218000D02*
X152479000Y-93246200D01*
D56*
X139903200Y-114472300D02*
X139903200Y-115519085D01*
X125095000Y-116789200D02*
X125628400Y-116789200D01*
X129768600Y-100279200D02*
X131796800Y-100279200D01*
X143256000Y-110363000D02*
X143256000Y-109487000D01*
X145110000Y-74138000D02*
X145110000Y-75395000D01*
X111525000Y-87600000D02*
X111525000Y-86400000D01*
X144780000Y-98679000D02*
X145910000Y-98679000D01*
D58*
X113285800Y-89914200D02*
X113300000Y-89900000D01*
D56*
X129810000Y-78310000D02*
X127775000Y-78310000D01*
X127985400Y-113411000D02*
X127989200Y-113414800D01*
D62*
X142707120Y-93180800D02*
X142707920Y-93180000D01*
D57*
X115125600Y-107150000D02*
X115773200Y-107797600D01*
D56*
X160541000Y-80251600D02*
X160528000Y-80238600D01*
X148476000Y-98729800D02*
X148463000Y-98742800D01*
D60*
X157148400Y-93675200D02*
X157154000Y-93680800D01*
D56*
X134771800Y-110286800D02*
X137426400Y-110286800D01*
X162610800Y-77939600D02*
X162610800Y-76809600D01*
D60*
X147955000Y-93167200D02*
X147979000Y-93191200D01*
D56*
X129830000Y-79580000D02*
X127775000Y-79580000D01*
X122160000Y-82130000D02*
X123405000Y-82130000D01*
D57*
X115773200Y-107797600D02*
X118217400Y-107797600D01*
X103750000Y-107150000D02*
X115125600Y-107150000D01*
D60*
X157142200Y-82169000D02*
X157154000Y-82180800D01*
D56*
X135447400Y-86461600D02*
X135436600Y-86472400D01*
X167550000Y-90306200D02*
X167549600Y-90305800D01*
X133895800Y-96291400D02*
X133895800Y-97345800D01*
X116114200Y-116864800D02*
X114727800Y-116864800D01*
X130127500Y-96562500D02*
X130130000Y-96560000D01*
D58*
X167540800Y-82677000D02*
X167549600Y-82685800D01*
D56*
X141300200Y-96482200D02*
X141300200Y-97612200D01*
X160528000Y-94437200D02*
X160528000Y-93205600D01*
X114698000Y-113414800D02*
X114697200Y-113415600D01*
X111425000Y-100225000D02*
X111425000Y-99075000D01*
X152654000Y-102870000D02*
X153365200Y-102870000D01*
D62*
X152479000Y-93246200D02*
X152480000Y-93247200D01*
X142707920Y-93180000D02*
X143622600Y-93180000D01*
X152480000Y-94451680D02*
X152479000Y-94452680D01*
D56*
X152031200Y-102247200D02*
X152654000Y-102870000D01*
X160553400Y-83718400D02*
X160553400Y-82949000D01*
X151409400Y-97319800D02*
X151421800Y-97307400D01*
X143510000Y-76593400D02*
X143510000Y-75311000D01*
D59*
X113216400Y-96748600D02*
X113225000Y-96740000D01*
D56*
X120980200Y-119673800D02*
X120989200Y-119664800D01*
X151409400Y-99504200D02*
X151421800Y-99491800D01*
D58*
X111911200Y-89914200D02*
X113285800Y-89914200D01*
D56*
X118217400Y-107797600D02*
X118225000Y-107790000D01*
X119532400Y-100304600D02*
X121724400Y-100304600D01*
X172552900Y-111104500D02*
X172563200Y-111094200D01*
X151409400Y-100457000D02*
X151409400Y-99504200D01*
D62*
X147979000Y-93191200D02*
X147979000Y-95355800D01*
X152479000Y-94452680D02*
X152479000Y-95355800D01*
D56*
X130127500Y-98050000D02*
X130127500Y-96562500D01*
X156426200Y-99491800D02*
X157607000Y-99491800D01*
X140846800Y-100279200D02*
X142773400Y-100279200D01*
X126161800Y-99060000D02*
X126161800Y-97777600D01*
X131381200Y-109905800D02*
X130073400Y-109905800D01*
X126009400Y-113411000D02*
X127985400Y-113411000D01*
X152031200Y-102124800D02*
X152031200Y-102247200D01*
X151942800Y-107264200D02*
X151942800Y-106133600D01*
D62*
X143979000Y-80005800D02*
X143979000Y-81369000D01*
D56*
X143256000Y-109487000D02*
X143281400Y-109461600D01*
X172542200Y-102209600D02*
X172567600Y-102235000D01*
D58*
X107942400Y-87782400D02*
X107950000Y-87790000D01*
D56*
X103759000Y-107159000D02*
X103750000Y-107150000D01*
X151942800Y-106133600D02*
X151930400Y-106121200D01*
X162599600Y-82266199D02*
X162599600Y-82685800D01*
X149402800Y-98729800D02*
X148476000Y-98729800D01*
X127936800Y-105867200D02*
X127989200Y-105814800D01*
X120980200Y-120751600D02*
X120980200Y-119673800D01*
X134730000Y-112870000D02*
X137225900Y-112870000D01*
X148590000Y-109651800D02*
X148590000Y-108496400D01*
X126380000Y-87690000D02*
X126380000Y-86479000D01*
X145910000Y-98679000D02*
X145973800Y-98742800D01*
X113225000Y-96740000D02*
X111921000Y-96740000D01*
X157632400Y-97307400D02*
X156426200Y-97307400D01*
X167554600Y-77955800D02*
X167563800Y-77965000D01*
X126380000Y-86479000D02*
X126386600Y-86472400D01*
X143269000Y-109474000D02*
X143281400Y-109461600D01*
X162600000Y-82265799D02*
X162599600Y-82266199D01*
D62*
X157154000Y-82180800D02*
X155307400Y-82180800D01*
D56*
X169260000Y-82260000D02*
X168840000Y-82680000D01*
X120982100Y-122351800D02*
X121058300Y-122275600D01*
D62*
X152480000Y-93247200D02*
X152480000Y-94451680D01*
D60*
X143623400Y-93180800D02*
X143637000Y-93167200D01*
D56*
X161027200Y-90305800D02*
X162599600Y-90305800D01*
X129940200Y-122063200D02*
X129940200Y-120820400D01*
X137439400Y-86461600D02*
X135447400Y-86461600D01*
D62*
X143622600Y-93180000D02*
X143623400Y-93180800D01*
D56*
X111921000Y-96740000D02*
X111912400Y-96748600D01*
X116114200Y-113414800D02*
X114698000Y-113414800D01*
X160541000Y-81432400D02*
X160541000Y-80251600D01*
X124789200Y-117095000D02*
X125095000Y-116789200D01*
X168840000Y-82680000D02*
X167555400Y-82680000D01*
X139903200Y-115519085D02*
X139900253Y-115522032D01*
X116143200Y-120222800D02*
X114722600Y-120222800D01*
X129820000Y-78320000D02*
X129810000Y-78310000D01*
X167554600Y-76814200D02*
X167554600Y-77955800D01*
X121724400Y-100304600D02*
X121739200Y-100289800D01*
X160528000Y-93205600D02*
X160541000Y-93192600D01*
X114727800Y-116864800D02*
X114722600Y-116870000D01*
X134770000Y-110288600D02*
X134771800Y-110286800D01*
X123405000Y-82130000D02*
X123415000Y-82120000D01*
X133895800Y-97345800D02*
X133900000Y-97350000D01*
X124789200Y-117777300D02*
X124789200Y-117095000D01*
X137225900Y-112870000D02*
X137290700Y-112934800D01*
D62*
X141804000Y-93180800D02*
X142707120Y-93180800D01*
D59*
X155473400Y-93675200D02*
X157148400Y-93675200D01*
D56*
X119684800Y-122351800D02*
X120982100Y-122351800D01*
D60*
X155307400Y-82180800D02*
X155295600Y-82169000D01*
D56*
X167550000Y-91460000D02*
X167550000Y-90306200D01*
X167555400Y-82680000D02*
X167549600Y-82685800D01*
X126034800Y-105867200D02*
X127936800Y-105867200D01*
X133420000Y-122037800D02*
X133420000Y-120795000D01*
X151409400Y-98399600D02*
X151409400Y-97319800D01*
X160553400Y-82949000D02*
X160541000Y-82936600D01*
X146024600Y-109677200D02*
X146024600Y-108496400D01*
D58*
%TO.N,+12V*%
X123839200Y-119389801D02*
X122889200Y-118439801D01*
X123839200Y-120052300D02*
X123839200Y-119389801D01*
X122889200Y-118439801D02*
X122889200Y-117777300D01*
D56*
%TO.N,+5V*%
X128041400Y-98353900D02*
X128040000Y-98352500D01*
X167435000Y-79386200D02*
X167563800Y-79515000D01*
X128041400Y-99491800D02*
X128041400Y-98353900D01*
X138940700Y-114484800D02*
X138953200Y-114472300D01*
X126488300Y-122252000D02*
X126464700Y-122275600D01*
X168732200Y-79476600D02*
X167576800Y-79476600D01*
X138953200Y-114472300D02*
X138953200Y-113956500D01*
X168757600Y-79451200D02*
X168732200Y-79476600D01*
X137290700Y-114484800D02*
X138940700Y-114484800D01*
X167005000Y-94564200D02*
X165482900Y-94564200D01*
X167549600Y-79529200D02*
X167563800Y-79515000D01*
X127640000Y-122260000D02*
X126480300Y-122260000D01*
X137270000Y-115676900D02*
X137270000Y-114505500D01*
X138965300Y-116472300D02*
X138965300Y-114484400D01*
X129965600Y-117845000D02*
X129940200Y-117870400D01*
X128397000Y-115947600D02*
X128376700Y-115927300D01*
X132943600Y-115189000D02*
X132943600Y-113990900D01*
X167563800Y-79388800D02*
X167559300Y-79384300D01*
X137270000Y-114505500D02*
X137290700Y-114484800D01*
X138965300Y-114484400D02*
X138953200Y-114472300D01*
X138990700Y-114509800D02*
X138953200Y-114472300D01*
X167549600Y-81415800D02*
X167549600Y-79529200D01*
X126480300Y-122260000D02*
X126464700Y-122275600D01*
X167563800Y-79515000D02*
X167563800Y-79388800D01*
X165482900Y-94564200D02*
X165481000Y-94562300D01*
%TO.N,+3.3V*%
X142277800Y-94932200D02*
X141300200Y-94932200D01*
X163855400Y-79476600D02*
X162598400Y-79476600D01*
D62*
X140766800Y-93903800D02*
X140766800Y-94398800D01*
D56*
X159689800Y-101727000D02*
X160501600Y-101727000D01*
X158978600Y-92151200D02*
X158978600Y-93180200D01*
X143472200Y-78181200D02*
X143510000Y-78143400D01*
X150380400Y-106121200D02*
X150380400Y-104225600D01*
D62*
X148480000Y-96259920D02*
X148480000Y-97175800D01*
D56*
X162584200Y-79516200D02*
X162585400Y-79515000D01*
D62*
X140989800Y-93680800D02*
X140766800Y-93903800D01*
D56*
X135445800Y-96291400D02*
X135445800Y-94101600D01*
X145961400Y-97180400D02*
X145973800Y-97192800D01*
X142417800Y-78181200D02*
X143472200Y-78181200D01*
X162599600Y-81415800D02*
X162599600Y-79500800D01*
X150393400Y-107289600D02*
X150393400Y-106134200D01*
X138953200Y-110310000D02*
X138976400Y-110286800D01*
X153963500Y-106666800D02*
X154051000Y-106754300D01*
D62*
X157154000Y-93180800D02*
X158979200Y-93180800D01*
D56*
X160492800Y-103825400D02*
X160502600Y-103835200D01*
X143281400Y-107911600D02*
X143281400Y-106908600D01*
X125600000Y-77050000D02*
X127765000Y-77050000D01*
D60*
X158978600Y-93180200D02*
X158991000Y-93192600D01*
D59*
X145973800Y-97192800D02*
X145979000Y-97187600D01*
D62*
X141804000Y-93680800D02*
X140989800Y-93680800D01*
D56*
X158991000Y-81432400D02*
X158991000Y-80277000D01*
D60*
X158737000Y-81686400D02*
X158991000Y-81432400D01*
D62*
X143479000Y-80005800D02*
X143470000Y-79996800D01*
X140766800Y-94398800D02*
X141300200Y-94932200D01*
D56*
X144830800Y-97180400D02*
X145961400Y-97180400D01*
X143281400Y-107911600D02*
X140859200Y-107911600D01*
X138953200Y-112197300D02*
X138953200Y-110310000D01*
D62*
X148480000Y-97175800D02*
X148479000Y-97176800D01*
D56*
X159329900Y-103825400D02*
X159329900Y-102086900D01*
D59*
X148479000Y-95355800D02*
X148479000Y-95393000D01*
D62*
X143470000Y-79996800D02*
X143470000Y-78183400D01*
D59*
X148479000Y-95393000D02*
X148463000Y-95409000D01*
D56*
X158991000Y-80277000D02*
X159004000Y-80264000D01*
D62*
X148479000Y-95355800D02*
X148479000Y-96258920D01*
D59*
X148463000Y-95371800D02*
X148479000Y-95355800D01*
X149275800Y-97205800D02*
X149263000Y-97193000D01*
D58*
X162585400Y-79515000D02*
X162610800Y-79489600D01*
D56*
X142290800Y-94945200D02*
X142277800Y-94932200D01*
D60*
X158979200Y-93180800D02*
X158991000Y-93192600D01*
D62*
X143470000Y-78183400D02*
X143479000Y-78174400D01*
D56*
X148463000Y-97192800D02*
X149475000Y-97192800D01*
X150380400Y-104225600D02*
X150381200Y-104224800D01*
D58*
X162585400Y-81401600D02*
X162599600Y-81415800D01*
D56*
X135445800Y-94101600D02*
X135436600Y-94092400D01*
D62*
X157154000Y-81680800D02*
X158742600Y-81680800D01*
D56*
X136728200Y-96291400D02*
X135445800Y-96291400D01*
X159329900Y-102086900D02*
X159689800Y-101727000D01*
D59*
X158742600Y-81680800D02*
X158991000Y-81432400D01*
D56*
X162599600Y-79500800D02*
X162610800Y-79489600D01*
X143256000Y-107886200D02*
X143281400Y-107911600D01*
D59*
X148479000Y-97176800D02*
X148463000Y-97192800D01*
D60*
X143479000Y-78174400D02*
X143510000Y-78143400D01*
D56*
X150393400Y-106134200D02*
X150380400Y-106121200D01*
D62*
X148479000Y-96258920D02*
X148480000Y-96259920D01*
D56*
X159329900Y-103825400D02*
X160492800Y-103825400D01*
D62*
X145979000Y-97187600D02*
X145979000Y-95355800D01*
D56*
X155373700Y-106754300D02*
X154051000Y-106754300D01*
D58*
X159004000Y-81419400D02*
X158991000Y-81432400D01*
D56*
X127765000Y-77050000D02*
X127775000Y-77040000D01*
D62*
%TO.N,VREF*%
X152979000Y-95355800D02*
X152979000Y-97300200D01*
D56*
X152971800Y-97307400D02*
X152971800Y-99491800D01*
X152971800Y-99491800D02*
X152971800Y-100863200D01*
D59*
X152979000Y-97300200D02*
X152971800Y-97307400D01*
D56*
X152971800Y-100863200D02*
X153835600Y-101727000D01*
%TO.N,VDDA*%
X155397200Y-100609400D02*
X154876200Y-100088400D01*
X154876200Y-100088400D02*
X154876200Y-99491800D01*
X157201600Y-101169200D02*
X156641800Y-100609400D01*
D62*
X154357400Y-97307400D02*
X154876200Y-97307400D01*
X153479000Y-95355800D02*
X153479000Y-96429000D01*
D56*
X155485600Y-101727000D02*
X157201600Y-101727000D01*
D60*
X154598190Y-97307400D02*
X154876200Y-97307400D01*
D56*
X156641800Y-100609400D02*
X155397200Y-100609400D01*
X157201600Y-101727000D02*
X157201600Y-101169200D01*
X157213000Y-103833500D02*
X157204900Y-103825400D01*
X157201600Y-103822100D02*
X157204900Y-103825400D01*
X157201600Y-101727000D02*
X157201600Y-103822100D01*
X154876200Y-97307400D02*
X154876200Y-99491800D01*
D62*
X153479000Y-96429000D02*
X154357400Y-97307400D01*
D56*
X157176100Y-103796600D02*
X157204900Y-103825400D01*
D62*
%TO.N,Net-(C24-Pad2)*%
X158118800Y-82680800D02*
X158369000Y-82931000D01*
X157154000Y-82680800D02*
X158118800Y-82680800D01*
X158369000Y-82931000D02*
X158985400Y-82931000D01*
D60*
X158985400Y-82931000D02*
X158991000Y-82936600D01*
D62*
%TO.N,Net-(C25-Pad2)*%
X145110000Y-77760000D02*
X145110000Y-76945000D01*
X144479000Y-80005800D02*
X144479000Y-78391000D01*
X144479000Y-78391000D02*
X145110000Y-77760000D01*
D56*
%TO.N,Net-(SB1-C)*%
X112975000Y-99025000D02*
X112975369Y-99024631D01*
X112975000Y-100225000D02*
X112975000Y-99025000D01*
%TO.N,Net-(U4-VCC2)*%
X132931200Y-109488900D02*
X131796800Y-108354500D01*
X131796800Y-108354500D02*
X131796800Y-107899200D01*
X132931200Y-109905800D02*
X132931200Y-109488900D01*
X132943600Y-109918200D02*
X132931200Y-109905800D01*
X132943600Y-111865900D02*
X132943600Y-109918200D01*
%TO.N,Net-(SB2-C)*%
X113100000Y-87600000D02*
X113100000Y-86425000D01*
X113100000Y-86425000D02*
X113075000Y-86400000D01*
D58*
%TO.N,CAN_CRIT_L*%
X114384000Y-94150000D02*
X115500000Y-94150000D01*
X107950000Y-95790000D02*
X110950000Y-95790000D01*
X112744000Y-95790000D02*
X114384000Y-94150000D01*
X117753000Y-94943800D02*
X119319000Y-94943800D01*
X116959200Y-94150000D02*
X117753000Y-94943800D01*
X110950000Y-95790000D02*
X112744000Y-95790000D01*
X115500000Y-94150000D02*
X116959200Y-94150000D01*
%TO.N,CAN_CRIT_H*%
X117880000Y-97943800D02*
X119319000Y-97943800D01*
X112701400Y-97690000D02*
X114486400Y-99475000D01*
X116348800Y-99475000D02*
X117880000Y-97943800D01*
X109574000Y-97690000D02*
X110950000Y-97690000D01*
X115500000Y-99475000D02*
X116348800Y-99475000D01*
X109474000Y-97790000D02*
X109574000Y-97690000D01*
X107950000Y-97790000D02*
X109474000Y-97790000D01*
X114486400Y-99475000D02*
X115500000Y-99475000D01*
X110950000Y-97690000D02*
X112701400Y-97690000D01*
%TO.N,CAN_COMM_H*%
X109950000Y-90850000D02*
X111025000Y-90850000D01*
X107950000Y-91790000D02*
X109010000Y-91790000D01*
X115500000Y-92512500D02*
X116554900Y-92512500D01*
X112250000Y-90850000D02*
X111025000Y-90850000D01*
X113912500Y-92512500D02*
X112250000Y-90850000D01*
X118743400Y-91795600D02*
X119250000Y-91289000D01*
X109010000Y-91790000D02*
X109950000Y-90850000D01*
X117271800Y-91795600D02*
X118743400Y-91795600D01*
X107950000Y-91790000D02*
X107950000Y-91821000D01*
X116554900Y-92512500D02*
X117271800Y-91795600D01*
X115500000Y-92512500D02*
X113912500Y-92512500D01*
%TO.N,CAN_COMM_L*%
X109110000Y-89790000D02*
X109950000Y-88950000D01*
X107950000Y-89790000D02*
X109110000Y-89790000D01*
X109950000Y-88950000D02*
X111025000Y-88950000D01*
X118819600Y-87858600D02*
X119250000Y-88289000D01*
X115500000Y-87225000D02*
X116825000Y-87225000D01*
X114575000Y-87225000D02*
X115500000Y-87225000D01*
X117889000Y-88289000D02*
X119250000Y-88289000D01*
X111025000Y-88950000D02*
X112850000Y-88950000D01*
X116825000Y-87225000D02*
X117889000Y-88289000D01*
X112850000Y-88950000D02*
X114575000Y-87225000D01*
D56*
%TO.N,Net-(U2-EN)*%
X140853200Y-114472300D02*
X140853200Y-116409400D01*
D59*
%TO.N,LSE_OSC_IN*%
X146979000Y-99528000D02*
X146380200Y-100126800D01*
D60*
X147029000Y-95305800D02*
X146979000Y-95355800D01*
X147029000Y-95300800D02*
X147029000Y-95305800D01*
D59*
X146979000Y-95355800D02*
X146979000Y-99528000D01*
X146380200Y-100126800D02*
X146380200Y-101003600D01*
%TO.N,LSE_OSC_OUT*%
X147479000Y-95358200D02*
X147497800Y-95377000D01*
X147479000Y-95355800D02*
X147479000Y-95358200D01*
X147479000Y-95355800D02*
X147479000Y-99498400D01*
X147479000Y-99498400D02*
X148158200Y-100177600D01*
X148158200Y-100177600D02*
X148158200Y-101003600D01*
D56*
%TO.N,Net-(X1-EN)*%
X152735700Y-104929300D02*
X152031200Y-104224800D01*
X154051000Y-104929300D02*
X152735700Y-104929300D01*
%TO.N,Net-(SB1-A)*%
X116979400Y-97650000D02*
X116992400Y-97663000D01*
X115500000Y-97650000D02*
X116979400Y-97650000D01*
%TO.N,Net-(SB1-B)*%
X117031600Y-95975000D02*
X117043200Y-95986600D01*
X115500000Y-95975000D02*
X117031600Y-95975000D01*
%TO.N,Net-(SB2-A)*%
X116957500Y-90687500D02*
X116967000Y-90678000D01*
X115500000Y-90687500D02*
X116957500Y-90687500D01*
%TO.N,Net-(SB2-B)*%
X116950000Y-89050000D02*
X115500000Y-89050000D01*
D59*
%TO.N,CAN_COMM_RX*%
X133375400Y-88696800D02*
X134112000Y-87960200D01*
X135436600Y-91552400D02*
X133741800Y-91552400D01*
X133741800Y-91552400D02*
X133375400Y-91186000D01*
X138736886Y-89200000D02*
X141784800Y-89200000D01*
X133375400Y-91186000D02*
X133375400Y-88696800D01*
X141784800Y-89200000D02*
X141804000Y-89180800D01*
X137497086Y-87960200D02*
X138736886Y-89200000D01*
X134112000Y-87960200D02*
X137497086Y-87960200D01*
%TO.N,CAN_COMM_TX*%
X135436600Y-89012400D02*
X135451200Y-89027000D01*
X137667000Y-89027000D02*
X138320800Y-89680800D01*
X138320800Y-89680800D02*
X141804000Y-89680800D01*
X135451200Y-89027000D02*
X137667000Y-89027000D01*
%TO.N,CAN_CRIT_TX*%
X139599200Y-102819200D02*
X140846800Y-102819200D01*
X138740000Y-93450000D02*
X138740000Y-101960000D01*
X140509200Y-91680800D02*
X138740000Y-93450000D01*
X141804000Y-91680800D02*
X140509200Y-91680800D01*
X138740000Y-101960000D02*
X139599200Y-102819200D01*
%TO.N,HSE_IN*%
X148979000Y-96223564D02*
X149250036Y-96494600D01*
X148979000Y-95355800D02*
X148996400Y-95373200D01*
X148979000Y-95355800D02*
X148979000Y-96223564D01*
X150368000Y-97131205D02*
X150368000Y-102111600D01*
X149250036Y-96494600D02*
X149731395Y-96494600D01*
X150368000Y-102111600D02*
X150381200Y-102124800D01*
X149731395Y-96494600D02*
X150368000Y-97131205D01*
%TO.N,CAN_CRIT_RX*%
X138150000Y-93344204D02*
X138150000Y-104270000D01*
X139239200Y-105359200D02*
X140846800Y-105359200D01*
X140313404Y-91180800D02*
X138150000Y-93344204D01*
X138150000Y-104270000D02*
X139239200Y-105359200D01*
X141804000Y-91180800D02*
X140313404Y-91180800D01*
D58*
%TO.N,Net-(U4-CANH)*%
X124206000Y-98196400D02*
X123953400Y-97943800D01*
X123953400Y-97943800D02*
X121219000Y-97943800D01*
X128270000Y-103632000D02*
X124206000Y-99568000D01*
X131796800Y-105359200D02*
X130251200Y-105359200D01*
X124206000Y-99568000D02*
X124206000Y-98196400D01*
X129463800Y-103632000D02*
X128270000Y-103632000D01*
X130251200Y-105359200D02*
X130022600Y-105130600D01*
X130022600Y-104190800D02*
X129463800Y-103632000D01*
X130022600Y-105130600D02*
X130022600Y-104190800D01*
%TO.N,Net-(U4-CANL)*%
X123874400Y-94943800D02*
X125018800Y-96088200D01*
X125018800Y-96088200D02*
X125018800Y-99151272D01*
X128686728Y-102819200D02*
X131796800Y-102819200D01*
X125018800Y-99151272D02*
X128686728Y-102819200D01*
X121219000Y-94943800D02*
X123874400Y-94943800D01*
D59*
%TO.N,RGB_CH_1*%
X160147000Y-87782400D02*
X162583000Y-87782400D01*
X162583000Y-87782400D02*
X162599600Y-87765800D01*
X159545400Y-87180800D02*
X160147000Y-87782400D01*
X157154000Y-87180800D02*
X159545400Y-87180800D01*
%TO.N,RGB_CH_4*%
X161270595Y-83955800D02*
X162599600Y-83955800D01*
X157154000Y-84680800D02*
X160545595Y-84680800D01*
X160545595Y-84680800D02*
X161270595Y-83955800D01*
%TO.N,RGB_CH_2*%
X157154000Y-86180800D02*
X159663000Y-86180800D01*
X159994600Y-86512400D02*
X162583000Y-86512400D01*
X159663000Y-86180800D02*
X159994600Y-86512400D01*
X162583000Y-86512400D02*
X162599600Y-86495800D01*
%TO.N,RGB_CH_3*%
X162554600Y-85180800D02*
X162599600Y-85225800D01*
X157154000Y-85180800D02*
X162554600Y-85180800D01*
%TO.N,Net-(J3-Pin_2)*%
X167549600Y-83955800D02*
X168977400Y-83955800D01*
X170561000Y-82372200D02*
X172480600Y-82372200D01*
X168977400Y-83955800D02*
X170561000Y-82372200D01*
%TO.N,Net-(J4-Pin_2)*%
X172554800Y-91010000D02*
X172567600Y-91022800D01*
X170510000Y-86490000D02*
X169245800Y-85225800D01*
X171142800Y-91022800D02*
X170510000Y-90390000D01*
X169245800Y-85225800D02*
X167549600Y-85225800D01*
X172567600Y-91022800D02*
X171142800Y-91022800D01*
X170510000Y-90390000D02*
X170510000Y-86490000D01*
%TO.N,Net-(J6-Pin_2)*%
X169025800Y-87765800D02*
X167549600Y-87765800D01*
X170344200Y-108594200D02*
X169400000Y-107650000D01*
X169400000Y-107650000D02*
X169400000Y-88140000D01*
X172563200Y-108594200D02*
X170344200Y-108594200D01*
X169400000Y-88140000D02*
X169025800Y-87765800D01*
%TO.N,UART4_TX*%
X145479000Y-80005800D02*
X145479000Y-78781000D01*
X148083800Y-78090000D02*
X149860000Y-76313800D01*
X145479000Y-78781000D02*
X146170000Y-78090000D01*
X146170000Y-78090000D02*
X148083800Y-78090000D01*
%TO.N,UART4_RX*%
X152044400Y-77575600D02*
X152044400Y-76364600D01*
X146350000Y-78580000D02*
X151040000Y-78580000D01*
X151040000Y-78580000D02*
X152044400Y-77575600D01*
X145979000Y-80005800D02*
X145979000Y-78951000D01*
X145979000Y-78951000D02*
X146350000Y-78580000D01*
%TO.N,SWDIO*%
X145980000Y-77620000D02*
X147490000Y-77620000D01*
X147490000Y-77620000D02*
X147878800Y-77231200D01*
X144979000Y-78621000D02*
X145980000Y-77620000D01*
X147878800Y-77231200D02*
X147878800Y-76313800D01*
X144979000Y-80005800D02*
X144979000Y-78621000D01*
%TO.N,SWCLK*%
X139700000Y-78117200D02*
X139700000Y-81305400D01*
X139700000Y-81305400D02*
X140075400Y-81680800D01*
X140075400Y-81680800D02*
X141804000Y-81680800D01*
%TO.N,SWO*%
X138777600Y-88180800D02*
X141804000Y-88180800D01*
X138125200Y-78117200D02*
X138125200Y-87528400D01*
X138125200Y-87528400D02*
X138777600Y-88180800D01*
%TO.N,NRST*%
X141351000Y-79832200D02*
X149979000Y-88460200D01*
X149979000Y-88460200D02*
X149979000Y-95355800D01*
D60*
X141337800Y-78218800D02*
X141351000Y-78232000D01*
X141300200Y-78218800D02*
X141337800Y-78218800D01*
D59*
X141351000Y-78232000D02*
X141351000Y-79832200D01*
%TD*%
%TA.AperFunction,Conductor*%
%TO.N,Net-(F1-Pad1)*%
G36*
X110580335Y-101519159D02*
G01*
X111442215Y-102063504D01*
X111488385Y-102115946D01*
X111500000Y-102168345D01*
X111500000Y-105381654D01*
X111480315Y-105448693D01*
X111442215Y-105486495D01*
X110580335Y-106030841D01*
X110514120Y-106050000D01*
X107124000Y-106050000D01*
X107056961Y-106030315D01*
X107011206Y-105977511D01*
X107000000Y-105926000D01*
X107000000Y-101624000D01*
X107019685Y-101556961D01*
X107072489Y-101511206D01*
X107124000Y-101500000D01*
X110514120Y-101500000D01*
X110580335Y-101519159D01*
G37*
%TD.AperFunction*%
%TD*%
%TA.AperFunction,Conductor*%
%TO.N,+12V_CAR*%
G36*
X123082849Y-102076885D02*
G01*
X123128604Y-102129689D01*
X123139808Y-102180589D01*
X123163986Y-107088789D01*
X123144632Y-107155925D01*
X123092054Y-107201939D01*
X123039988Y-107213400D01*
X120508800Y-107213400D01*
X120441761Y-107193715D01*
X120409600Y-107163800D01*
X120353342Y-107088789D01*
X119151400Y-105486200D01*
X119151399Y-105486200D01*
X114774582Y-105499618D01*
X114707483Y-105480139D01*
X114661566Y-105427476D01*
X114650202Y-105375419D01*
X114655399Y-102180998D01*
X114675193Y-102113991D01*
X114728071Y-102068322D01*
X114779399Y-102057200D01*
X123015810Y-102057200D01*
X123082849Y-102076885D01*
G37*
%TD.AperFunction*%
%TD*%
%TA.AperFunction,Conductor*%
%TO.N,GND*%
G36*
X145736233Y-102049685D02*
G01*
X145781988Y-102102489D01*
X145791932Y-102171647D01*
X145779679Y-102210295D01*
X145719552Y-102328298D01*
X145704700Y-102422075D01*
X145704700Y-102885117D01*
X145715492Y-102953257D01*
X145719554Y-102978904D01*
X145777150Y-103091942D01*
X145777152Y-103091944D01*
X145777154Y-103091947D01*
X145780114Y-103094907D01*
X145782563Y-103099393D01*
X145782889Y-103099841D01*
X145782831Y-103099883D01*
X145813599Y-103156230D01*
X145808615Y-103225922D01*
X145780116Y-103270267D01*
X145737287Y-103313098D01*
X145737286Y-103313100D01*
X145644099Y-103406287D01*
X145644098Y-103406289D01*
X145578209Y-103520411D01*
X145578208Y-103520412D01*
X145571936Y-103543823D01*
X145535570Y-103603483D01*
X145476355Y-103633346D01*
X145466369Y-103635332D01*
X145400047Y-103679647D01*
X145355732Y-103745969D01*
X145355731Y-103745970D01*
X145344100Y-103804447D01*
X145344100Y-105643952D01*
X145355731Y-105702429D01*
X145355732Y-105702430D01*
X145355733Y-105702431D01*
X145400048Y-105768752D01*
X145466369Y-105813067D01*
X145466371Y-105813067D01*
X145468990Y-105814817D01*
X145513796Y-105868429D01*
X145524100Y-105917920D01*
X145524100Y-106318789D01*
X145504415Y-106385828D01*
X145487781Y-106406470D01*
X145426076Y-106468174D01*
X145426073Y-106468178D01*
X145364879Y-106588278D01*
X145349100Y-106687906D01*
X145349100Y-107204893D01*
X145364879Y-107304521D01*
X145364880Y-107304524D01*
X145364881Y-107304526D01*
X145426072Y-107424620D01*
X145426073Y-107424621D01*
X145426076Y-107424625D01*
X145521375Y-107519924D01*
X145521378Y-107519926D01*
X145521380Y-107519928D01*
X145521381Y-107519928D01*
X145527773Y-107524572D01*
X145570442Y-107579900D01*
X145576425Y-107649513D01*
X145543822Y-107711309D01*
X145482985Y-107745670D01*
X145455159Y-107748894D01*
X145064266Y-107749733D01*
X144997185Y-107730192D01*
X144951316Y-107677486D01*
X144940000Y-107625733D01*
X144940000Y-102154000D01*
X144959685Y-102086961D01*
X145012489Y-102041206D01*
X145064000Y-102030000D01*
X145669194Y-102030000D01*
X145736233Y-102049685D01*
G37*
%TD.AperFunction*%
%TA.AperFunction,Conductor*%
G36*
X147514233Y-102049685D02*
G01*
X147559988Y-102102489D01*
X147569932Y-102171647D01*
X147557679Y-102210295D01*
X147497552Y-102328298D01*
X147482700Y-102422075D01*
X147482700Y-102885117D01*
X147493492Y-102953257D01*
X147497554Y-102978904D01*
X147555150Y-103091942D01*
X147621382Y-103158174D01*
X147654866Y-103219495D01*
X147657700Y-103245854D01*
X147657700Y-103291492D01*
X147661236Y-103304689D01*
X147691808Y-103418787D01*
X147724754Y-103475850D01*
X147757700Y-103532914D01*
X147757702Y-103532916D01*
X147830835Y-103606049D01*
X147864320Y-103667372D01*
X147859336Y-103737064D01*
X147857715Y-103741183D01*
X147855731Y-103745970D01*
X147844100Y-103804447D01*
X147844100Y-105643952D01*
X147855731Y-105702429D01*
X147855732Y-105702430D01*
X147900047Y-105768752D01*
X147943591Y-105797847D01*
X147966369Y-105813067D01*
X147989690Y-105817706D01*
X148051600Y-105850089D01*
X148086176Y-105910804D01*
X148089500Y-105939323D01*
X148089500Y-106318789D01*
X148069815Y-106385828D01*
X148053181Y-106406470D01*
X147991476Y-106468174D01*
X147991473Y-106468178D01*
X147930279Y-106588278D01*
X147914500Y-106687906D01*
X147914500Y-107204893D01*
X147930279Y-107304521D01*
X147930280Y-107304524D01*
X147930281Y-107304526D01*
X147991472Y-107424620D01*
X147991473Y-107424621D01*
X147991476Y-107424625D01*
X148093680Y-107526829D01*
X148092500Y-107528008D01*
X148128286Y-107574412D01*
X148134268Y-107644025D01*
X148101665Y-107705821D01*
X148040828Y-107740181D01*
X148013003Y-107743405D01*
X146597948Y-107746442D01*
X146530867Y-107726901D01*
X146484998Y-107674195D01*
X146474907Y-107605058D01*
X146503795Y-107541441D01*
X146524803Y-107522119D01*
X146527812Y-107519931D01*
X146527820Y-107519928D01*
X146623128Y-107424620D01*
X146684319Y-107304526D01*
X146686683Y-107289600D01*
X146700100Y-107204893D01*
X146700100Y-106687906D01*
X146684320Y-106588278D01*
X146684319Y-106588276D01*
X146684319Y-106588274D01*
X146623128Y-106468180D01*
X146623126Y-106468178D01*
X146623123Y-106468174D01*
X146561419Y-106406470D01*
X146527934Y-106345147D01*
X146525100Y-106318789D01*
X146525100Y-105934271D01*
X146544785Y-105867232D01*
X146597589Y-105821477D01*
X146620002Y-105814239D01*
X146622829Y-105813067D01*
X146622831Y-105813067D01*
X146689152Y-105768752D01*
X146733467Y-105702431D01*
X146733467Y-105702429D01*
X146733468Y-105702429D01*
X146745099Y-105643952D01*
X146745100Y-105643950D01*
X146745100Y-103804451D01*
X146744171Y-103799781D01*
X146750397Y-103730189D01*
X146778112Y-103687902D01*
X146780698Y-103685316D01*
X146780698Y-103685315D01*
X146780700Y-103685314D01*
X146846592Y-103571186D01*
X146880700Y-103443893D01*
X146880700Y-103312108D01*
X146880700Y-103245854D01*
X146900385Y-103178815D01*
X146917014Y-103158177D01*
X146983250Y-103091942D01*
X147040846Y-102978904D01*
X147040846Y-102978902D01*
X147040847Y-102978901D01*
X147055699Y-102885124D01*
X147055700Y-102885119D01*
X147055699Y-102422082D01*
X147040846Y-102328296D01*
X146983250Y-102215258D01*
X146983249Y-102215257D01*
X146980721Y-102210295D01*
X146967825Y-102141625D01*
X146994102Y-102076885D01*
X147051208Y-102036628D01*
X147091206Y-102030000D01*
X147447194Y-102030000D01*
X147514233Y-102049685D01*
G37*
%TD.AperFunction*%
%TA.AperFunction,Conductor*%
G36*
X149533256Y-102049685D02*
G01*
X149579011Y-102102489D01*
X149590216Y-102153781D01*
X149591972Y-103156230D01*
X149599782Y-107616048D01*
X149580215Y-107683122D01*
X149527491Y-107728969D01*
X149476048Y-107740265D01*
X149170948Y-107740920D01*
X149103867Y-107721379D01*
X149057998Y-107668673D01*
X149047907Y-107599536D01*
X149076795Y-107535919D01*
X149086492Y-107527001D01*
X149086320Y-107526829D01*
X149188523Y-107424625D01*
X149188528Y-107424620D01*
X149249719Y-107304526D01*
X149252083Y-107289600D01*
X149265500Y-107204893D01*
X149265500Y-106687906D01*
X149249720Y-106588278D01*
X149249719Y-106588276D01*
X149249719Y-106588274D01*
X149188528Y-106468180D01*
X149188526Y-106468178D01*
X149188523Y-106468174D01*
X149126819Y-106406470D01*
X149093334Y-106345147D01*
X149090500Y-106318789D01*
X149090500Y-105900949D01*
X149110185Y-105833910D01*
X149145609Y-105797847D01*
X149189152Y-105768752D01*
X149189153Y-105768751D01*
X149233467Y-105702431D01*
X149233467Y-105702429D01*
X149233468Y-105702429D01*
X149245099Y-105643952D01*
X149245100Y-105643950D01*
X149245100Y-103804449D01*
X149245099Y-103804447D01*
X149233468Y-103745970D01*
X149233467Y-103745969D01*
X149189152Y-103679647D01*
X149122829Y-103635331D01*
X149118777Y-103633653D01*
X149064375Y-103589809D01*
X149046460Y-103551187D01*
X149045100Y-103546111D01*
X149045100Y-103546108D01*
X149038215Y-103520414D01*
X149010992Y-103418814D01*
X148945100Y-103304686D01*
X148815201Y-103174787D01*
X148781716Y-103113464D01*
X148786700Y-103043772D01*
X148792398Y-103030810D01*
X148818846Y-102978904D01*
X148818846Y-102978902D01*
X148818847Y-102978901D01*
X148833699Y-102885124D01*
X148833700Y-102885119D01*
X148833699Y-102422082D01*
X148818846Y-102328296D01*
X148761250Y-102215258D01*
X148761249Y-102215257D01*
X148758721Y-102210295D01*
X148745825Y-102141625D01*
X148772102Y-102076885D01*
X148829208Y-102036628D01*
X148869206Y-102030000D01*
X149466217Y-102030000D01*
X149533256Y-102049685D01*
G37*
%TD.AperFunction*%
%TD*%
%TA.AperFunction,Conductor*%
%TO.N,+3.3V*%
G36*
X140409439Y-109381485D02*
G01*
X140455194Y-109434289D01*
X140466400Y-109485800D01*
X140466400Y-110987800D01*
X140446715Y-111054839D01*
X140393911Y-111100594D01*
X140342400Y-111111800D01*
X140155488Y-111111800D01*
X140088449Y-111092115D01*
X140084379Y-111089385D01*
X139616401Y-110761800D01*
X139616400Y-110761800D01*
X138640400Y-110761800D01*
X138573361Y-110742115D01*
X138527606Y-110689311D01*
X138516400Y-110637800D01*
X138516400Y-109935800D01*
X138536085Y-109868761D01*
X138588889Y-109823006D01*
X138640400Y-109811800D01*
X139616400Y-109811800D01*
X140081031Y-109393632D01*
X140144030Y-109363416D01*
X140163983Y-109361800D01*
X140342400Y-109361800D01*
X140409439Y-109381485D01*
G37*
%TD.AperFunction*%
%TD*%
%TA.AperFunction,Conductor*%
%TO.N,+5V*%
G36*
X131176704Y-115413605D02*
G01*
X134772291Y-117245503D01*
X134823089Y-117293476D01*
X134840000Y-117355990D01*
X134840000Y-118356000D01*
X134820315Y-118423039D01*
X134767511Y-118468794D01*
X134716000Y-118480000D01*
X131170000Y-118480000D01*
X128628576Y-118480000D01*
X128561537Y-118460315D01*
X128515782Y-118407511D01*
X128511277Y-118396210D01*
X127858501Y-116491947D01*
X127851800Y-116451737D01*
X127851800Y-115529600D01*
X127871485Y-115462561D01*
X127924289Y-115416806D01*
X127975800Y-115405600D01*
X129375922Y-115405600D01*
X130047607Y-115403479D01*
X131120026Y-115400094D01*
X131176704Y-115413605D01*
G37*
%TD.AperFunction*%
%TD*%
%TA.AperFunction,Conductor*%
%TO.N,GND*%
G36*
X105239894Y-83769685D02*
G01*
X105255236Y-83781321D01*
X106978381Y-85313005D01*
X107015409Y-85372256D01*
X107020000Y-85405684D01*
X107020000Y-87502999D01*
X107020000Y-87503000D01*
X108794867Y-87500197D01*
X108861937Y-87519776D01*
X108907775Y-87572507D01*
X108919058Y-87625130D01*
X108916126Y-88014933D01*
X108895938Y-88081822D01*
X108842792Y-88127179D01*
X108792130Y-88138000D01*
X105003600Y-88138000D01*
X105003600Y-93395800D01*
X108842000Y-93395800D01*
X108909039Y-93415485D01*
X108954794Y-93468289D01*
X108966000Y-93519800D01*
X108966000Y-94059200D01*
X108946315Y-94126239D01*
X108893511Y-94171994D01*
X108842000Y-94183200D01*
X105003600Y-94183200D01*
X105003600Y-99415600D01*
X108867400Y-99415600D01*
X108934439Y-99435285D01*
X108980194Y-99488089D01*
X108991400Y-99539600D01*
X108991400Y-100079000D01*
X108971715Y-100146039D01*
X108918911Y-100191794D01*
X108867400Y-100203000D01*
X105003600Y-100203000D01*
X105029000Y-106476800D01*
X106860800Y-106476800D01*
X106927839Y-106496485D01*
X106973594Y-106549289D01*
X106984800Y-106600800D01*
X106984800Y-107723429D01*
X106965115Y-107790468D01*
X106951577Y-107807902D01*
X105319782Y-109561473D01*
X105259702Y-109597140D01*
X105229005Y-109601000D01*
X102412370Y-109601000D01*
X102345331Y-109581315D01*
X102325898Y-109565874D01*
X100538028Y-107826323D01*
X100503706Y-107765464D01*
X100500500Y-107737449D01*
X100500500Y-106850307D01*
X100500524Y-106847876D01*
X100505416Y-106598368D01*
X100526411Y-106531729D01*
X100580102Y-106487018D01*
X100629392Y-106476800D01*
X102997000Y-106476800D01*
X102997000Y-86918800D01*
X100655368Y-86918800D01*
X100588329Y-86899115D01*
X100542574Y-86846311D01*
X100531382Y-86796645D01*
X100510810Y-85414439D01*
X100529494Y-85347114D01*
X100549527Y-85322565D01*
X102174133Y-83783967D01*
X102236344Y-83752162D01*
X102259399Y-83750000D01*
X105172855Y-83750000D01*
X105239894Y-83769685D01*
G37*
%TD.AperFunction*%
%TD*%
%TA.AperFunction,Conductor*%
%TO.N,+12V*%
G36*
X123082239Y-112084485D02*
G01*
X123127994Y-112137289D01*
X123139200Y-112188800D01*
X123139200Y-114640800D01*
X123119515Y-114707839D01*
X123066711Y-114753594D01*
X123015200Y-114764800D01*
X120489200Y-114764800D01*
X120189200Y-115014800D01*
X120189200Y-116714800D01*
X120539200Y-117064800D01*
X123065200Y-117064800D01*
X123132239Y-117084485D01*
X123177994Y-117137289D01*
X123189200Y-117188800D01*
X123189200Y-118339979D01*
X123169515Y-118407018D01*
X123116711Y-118452773D01*
X123064382Y-118463976D01*
X120158199Y-118444799D01*
X119777200Y-118698799D01*
X119777200Y-121495800D01*
X119757515Y-121562839D01*
X119704711Y-121608594D01*
X119653200Y-121619800D01*
X118630967Y-121619800D01*
X118563928Y-121600115D01*
X118518173Y-121547311D01*
X118506967Y-121496034D01*
X118489434Y-112189034D01*
X118508992Y-112121957D01*
X118561710Y-112076103D01*
X118613434Y-112064800D01*
X123015200Y-112064800D01*
X123082239Y-112084485D01*
G37*
%TD.AperFunction*%
%TD*%
M02*
