%TF.GenerationSoftware,KiCad,Pcbnew,8.0.6*%
%TF.CreationDate,2024-11-05T11:01:03+02:00*%
%TF.ProjectId,PionController,50696f6e-436f-46e7-9472-6f6c6c65722e,rev?*%
%TF.SameCoordinates,Original*%
%TF.FileFunction,Copper,L3,Inr*%
%TF.FilePolarity,Positive*%
%FSLAX46Y46*%
G04 Gerber Fmt 4.6, Leading zero omitted, Abs format (unit mm)*
G04 Created by KiCad (PCBNEW 8.0.6) date 2024-11-05 11:01:03*
%MOMM*%
%LPD*%
G01*
G04 APERTURE LIST*
G04 Aperture macros list*
%AMRoundRect*
0 Rectangle with rounded corners*
0 $1 Rounding radius*
0 $2 $3 $4 $5 $6 $7 $8 $9 X,Y pos of 4 corners*
0 Add a 4 corners polygon primitive as box body*
4,1,4,$2,$3,$4,$5,$6,$7,$8,$9,$2,$3,0*
0 Add four circle primitives for the rounded corners*
1,1,$1+$1,$2,$3*
1,1,$1+$1,$4,$5*
1,1,$1+$1,$6,$7*
1,1,$1+$1,$8,$9*
0 Add four rect primitives between the rounded corners*
20,1,$1+$1,$2,$3,$4,$5,0*
20,1,$1+$1,$4,$5,$6,$7,0*
20,1,$1+$1,$6,$7,$8,$9,0*
20,1,$1+$1,$8,$9,$2,$3,0*%
G04 Aperture macros list end*
%TA.AperFunction,ComponentPad*%
%ADD10C,0.800000*%
%TD*%
%TA.AperFunction,ComponentPad*%
%ADD11C,6.400000*%
%TD*%
%TA.AperFunction,ComponentPad*%
%ADD12RoundRect,0.250000X0.750000X-0.600000X0.750000X0.600000X-0.750000X0.600000X-0.750000X-0.600000X0*%
%TD*%
%TA.AperFunction,ComponentPad*%
%ADD13O,2.000000X1.700000*%
%TD*%
%TA.AperFunction,ViaPad*%
%ADD14C,0.700000*%
%TD*%
%TA.AperFunction,ViaPad*%
%ADD15C,0.900000*%
%TD*%
G04 APERTURE END LIST*
D10*
%TO.N,GND*%
%TO.C,H3*%
X175600000Y-122649999D03*
X176302944Y-120952943D03*
X176302944Y-124347055D03*
X178000000Y-120249999D03*
D11*
X178000000Y-122649999D03*
D10*
X178000000Y-125049999D03*
X179697056Y-120952943D03*
X179697056Y-124347055D03*
X180400000Y-122649999D03*
%TD*%
D12*
%TO.N,GND*%
%TO.C,J5*%
X172567600Y-102235000D03*
D13*
%TO.N,Net-(J5-Pin_2)*%
X172567600Y-99735000D03*
%TD*%
D10*
%TO.N,GND*%
%TO.C,H1*%
X101600000Y-70649999D03*
X102302944Y-68952943D03*
X102302944Y-72347055D03*
X104000000Y-68249999D03*
D11*
X104000000Y-70649999D03*
D10*
X104000000Y-73049999D03*
X105697056Y-68952943D03*
X105697056Y-72347055D03*
X106400000Y-70649999D03*
%TD*%
%TO.N,GND*%
%TO.C,H4*%
X101600000Y-122649999D03*
X102302944Y-120952943D03*
X102302944Y-124347055D03*
X104000000Y-120249999D03*
D11*
X104000000Y-122649999D03*
D10*
X104000000Y-125049999D03*
X105697056Y-120952943D03*
X105697056Y-124347055D03*
X106400000Y-122649999D03*
%TD*%
D12*
%TO.N,GND*%
%TO.C,J3*%
X172567600Y-84785200D03*
D13*
%TO.N,Net-(J3-Pin_2)*%
X172567600Y-82285200D03*
%TD*%
D12*
%TO.N,GND*%
%TO.C,J6*%
X172563200Y-111094200D03*
D13*
%TO.N,Net-(J6-Pin_2)*%
X172563200Y-108594200D03*
%TD*%
D12*
%TO.N,GND*%
%TO.C,J4*%
X172567600Y-93522800D03*
D13*
%TO.N,Net-(J4-Pin_2)*%
X172567600Y-91022800D03*
%TD*%
D10*
%TO.N,GND*%
%TO.C,H2*%
X175600000Y-70649999D03*
X176302944Y-68952943D03*
X176302944Y-72347055D03*
X178000000Y-68249999D03*
D11*
X178000000Y-70649999D03*
D10*
X178000000Y-73049999D03*
X179697056Y-68952943D03*
X179697056Y-72347055D03*
X180400000Y-70649999D03*
%TD*%
D14*
%TO.N,Net-(J1-Pad12)*%
X141300200Y-75285600D03*
X136690000Y-77340000D03*
%TO.N,Net-(J1-Pad13)*%
X127790000Y-84670000D03*
X152050000Y-73460000D03*
%TO.N,Net-(J1-Pad14)*%
X136670000Y-78920000D03*
X149860000Y-73456800D03*
%TO.N,GND*%
X143637000Y-93167200D03*
X114722600Y-116870000D03*
X102730000Y-84250000D03*
X141300200Y-97612200D03*
X167550000Y-91460000D03*
X137439400Y-86461600D03*
X102790000Y-109100000D03*
X104730000Y-84250000D03*
X169260000Y-82260000D03*
X152450800Y-93218000D03*
X133900000Y-97350000D03*
X130073400Y-109905800D03*
X144780000Y-98679000D03*
X119684800Y-122351800D03*
X143256000Y-110363000D03*
X114722600Y-120222800D03*
X129940200Y-122063200D03*
X146024600Y-109677200D03*
X130130000Y-96560000D03*
X115773200Y-107797600D03*
X111911200Y-89914200D03*
X157632400Y-97307400D03*
X125628400Y-116789200D03*
X143510000Y-75311000D03*
X162610800Y-76809600D03*
X111912400Y-96748600D03*
X129830000Y-79580000D03*
X147955000Y-93167200D03*
X134730000Y-112870000D03*
X147294600Y-104724200D03*
X103730000Y-84250000D03*
X104790000Y-109100000D03*
X111425000Y-99075000D03*
X151942800Y-107264200D03*
X157607000Y-99491800D03*
X119532400Y-100304600D03*
X126380000Y-87690000D03*
X142773400Y-100279200D03*
X155295600Y-82169000D03*
X145355200Y-102688939D03*
X161027200Y-90305800D03*
X151409400Y-100457000D03*
X145110000Y-74138000D03*
X129820000Y-78320000D03*
X134770000Y-110288600D03*
X148590000Y-109651800D03*
X103790000Y-109100000D03*
X129768600Y-100279200D03*
X149183200Y-102632376D03*
X120980200Y-120751600D03*
X111525000Y-87600000D03*
X114697200Y-113415600D03*
X126034800Y-105867200D03*
X139900253Y-115522032D03*
X149402800Y-98729800D03*
X160528000Y-80238600D03*
X160553400Y-83718400D03*
X143979000Y-81369000D03*
X155473400Y-93675200D03*
X122160000Y-82130000D03*
X133420000Y-122037800D03*
X167554600Y-76814200D03*
X162600000Y-82265799D03*
X151409400Y-98399600D03*
X126161800Y-99060000D03*
X160528000Y-94437200D03*
X126009400Y-113411000D03*
X153365200Y-102870000D03*
%TO.N,+5V*%
X131670000Y-116320000D03*
X130670000Y-116320000D03*
X137270000Y-115676900D03*
X129670000Y-116320000D03*
X127640000Y-122260000D03*
X167005000Y-94564200D03*
X132943600Y-115189000D03*
X168757600Y-79451200D03*
X128041400Y-99491800D03*
%TO.N,+3.3V*%
X125600000Y-77050000D03*
X142417800Y-78181200D03*
X159004000Y-80264000D03*
X136728200Y-96291400D03*
X160502600Y-103835200D03*
X143281400Y-106908600D03*
X149475000Y-97192800D03*
X142290800Y-94945200D03*
X144830800Y-97180400D03*
X150393400Y-107289600D03*
D15*
X140366400Y-109761800D03*
X140366400Y-110711800D03*
D14*
X155373700Y-106754300D03*
X158978600Y-92151200D03*
X163855400Y-79476600D03*
%TO.N,Net-(SB1-C)*%
X112975369Y-99024631D03*
%TO.N,Net-(SB2-C)*%
X113100000Y-87600000D03*
%TO.N,Net-(SB1-A)*%
X116992400Y-97663000D03*
%TO.N,Net-(SB1-B)*%
X117043200Y-95986600D03*
%TO.N,Net-(SB2-A)*%
X116967000Y-90678000D03*
%TO.N,Net-(SB2-B)*%
X116950000Y-89050000D03*
%TD*%
%TA.AperFunction,Conductor*%
%TO.N,+5V*%
G36*
X123693039Y-67170184D02*
G01*
X123738794Y-67222988D01*
X123750000Y-67274499D01*
X123750000Y-86500000D01*
X131126000Y-86500000D01*
X131193039Y-86519685D01*
X131238794Y-86572489D01*
X131250000Y-86624000D01*
X131250000Y-99500000D01*
X135876000Y-99500000D01*
X135943039Y-99519685D01*
X135988794Y-99572489D01*
X136000000Y-99624000D01*
X136000000Y-113000000D01*
X165750000Y-113000000D01*
X165750000Y-110446335D01*
X171312700Y-110446335D01*
X171312700Y-111742070D01*
X171312701Y-111742076D01*
X171319108Y-111801683D01*
X171369402Y-111936528D01*
X171369406Y-111936535D01*
X171455652Y-112051744D01*
X171455655Y-112051747D01*
X171570864Y-112137993D01*
X171570871Y-112137997D01*
X171705717Y-112188291D01*
X171705716Y-112188291D01*
X171712644Y-112189035D01*
X171765327Y-112194700D01*
X173361072Y-112194699D01*
X173420683Y-112188291D01*
X173555531Y-112137996D01*
X173670746Y-112051746D01*
X173756996Y-111936531D01*
X173807291Y-111801683D01*
X173813700Y-111742073D01*
X173813699Y-110446328D01*
X173807291Y-110386717D01*
X173806229Y-110383870D01*
X173756997Y-110251871D01*
X173756993Y-110251864D01*
X173670747Y-110136655D01*
X173670744Y-110136652D01*
X173555535Y-110050406D01*
X173555528Y-110050402D01*
X173420682Y-110000108D01*
X173420683Y-110000108D01*
X173361083Y-109993701D01*
X173361081Y-109993700D01*
X173361073Y-109993700D01*
X173361064Y-109993700D01*
X171765329Y-109993700D01*
X171765323Y-109993701D01*
X171705716Y-110000108D01*
X171570871Y-110050402D01*
X171570864Y-110050406D01*
X171455655Y-110136652D01*
X171455652Y-110136655D01*
X171369406Y-110251864D01*
X171369402Y-110251871D01*
X171319108Y-110386717D01*
X171314419Y-110430336D01*
X171312701Y-110446323D01*
X171312700Y-110446335D01*
X165750000Y-110446335D01*
X165750000Y-108507589D01*
X171312700Y-108507589D01*
X171312700Y-108680811D01*
X171339798Y-108851901D01*
X171393327Y-109016645D01*
X171471968Y-109170988D01*
X171573786Y-109311128D01*
X171696272Y-109433614D01*
X171836412Y-109535432D01*
X171990755Y-109614073D01*
X172155499Y-109667602D01*
X172326589Y-109694700D01*
X172326590Y-109694700D01*
X172799810Y-109694700D01*
X172799811Y-109694700D01*
X172970901Y-109667602D01*
X173135645Y-109614073D01*
X173289988Y-109535432D01*
X173430128Y-109433614D01*
X173552614Y-109311128D01*
X173654432Y-109170988D01*
X173733073Y-109016645D01*
X173786602Y-108851901D01*
X173813700Y-108680811D01*
X173813700Y-108507589D01*
X173786602Y-108336499D01*
X173733073Y-108171755D01*
X173654432Y-108017412D01*
X173552614Y-107877272D01*
X173430128Y-107754786D01*
X173289988Y-107652968D01*
X173135645Y-107574327D01*
X172970901Y-107520798D01*
X172970899Y-107520797D01*
X172970898Y-107520797D01*
X172839471Y-107499981D01*
X172799811Y-107493700D01*
X172326589Y-107493700D01*
X172286928Y-107499981D01*
X172155502Y-107520797D01*
X171990752Y-107574328D01*
X171836411Y-107652968D01*
X171782026Y-107692482D01*
X171696272Y-107754786D01*
X171696270Y-107754788D01*
X171696269Y-107754788D01*
X171573788Y-107877269D01*
X171573788Y-107877270D01*
X171573786Y-107877272D01*
X171560701Y-107895282D01*
X171471968Y-108017411D01*
X171393328Y-108171752D01*
X171339797Y-108336502D01*
X171314802Y-108494318D01*
X171312700Y-108507589D01*
X165750000Y-108507589D01*
X165750000Y-101587135D01*
X171317100Y-101587135D01*
X171317100Y-102882870D01*
X171317101Y-102882876D01*
X171323508Y-102942483D01*
X171373802Y-103077328D01*
X171373806Y-103077335D01*
X171460052Y-103192544D01*
X171460055Y-103192547D01*
X171575264Y-103278793D01*
X171575271Y-103278797D01*
X171710117Y-103329091D01*
X171710116Y-103329091D01*
X171717044Y-103329835D01*
X171769727Y-103335500D01*
X173365472Y-103335499D01*
X173425083Y-103329091D01*
X173559931Y-103278796D01*
X173675146Y-103192546D01*
X173761396Y-103077331D01*
X173811691Y-102942483D01*
X173818100Y-102882873D01*
X173818099Y-101587128D01*
X173811691Y-101527517D01*
X173761396Y-101392669D01*
X173761395Y-101392668D01*
X173761393Y-101392664D01*
X173675147Y-101277455D01*
X173675144Y-101277452D01*
X173559935Y-101191206D01*
X173559928Y-101191202D01*
X173425082Y-101140908D01*
X173425083Y-101140908D01*
X173365483Y-101134501D01*
X173365481Y-101134500D01*
X173365473Y-101134500D01*
X173365464Y-101134500D01*
X171769729Y-101134500D01*
X171769723Y-101134501D01*
X171710116Y-101140908D01*
X171575271Y-101191202D01*
X171575264Y-101191206D01*
X171460055Y-101277452D01*
X171460052Y-101277455D01*
X171373806Y-101392664D01*
X171373802Y-101392671D01*
X171323508Y-101527517D01*
X171317101Y-101587116D01*
X171317101Y-101587123D01*
X171317100Y-101587135D01*
X165750000Y-101587135D01*
X165750000Y-99648389D01*
X171317100Y-99648389D01*
X171317100Y-99821610D01*
X171341609Y-99976359D01*
X171344198Y-99992701D01*
X171397727Y-100157445D01*
X171476368Y-100311788D01*
X171578186Y-100451928D01*
X171700672Y-100574414D01*
X171840812Y-100676232D01*
X171995155Y-100754873D01*
X172159899Y-100808402D01*
X172330989Y-100835500D01*
X172330990Y-100835500D01*
X172804210Y-100835500D01*
X172804211Y-100835500D01*
X172975301Y-100808402D01*
X173140045Y-100754873D01*
X173294388Y-100676232D01*
X173434528Y-100574414D01*
X173557014Y-100451928D01*
X173658832Y-100311788D01*
X173737473Y-100157445D01*
X173791002Y-99992701D01*
X173818100Y-99821611D01*
X173818100Y-99648389D01*
X173791002Y-99477299D01*
X173737473Y-99312555D01*
X173658832Y-99158212D01*
X173557014Y-99018072D01*
X173434528Y-98895586D01*
X173294388Y-98793768D01*
X173140045Y-98715127D01*
X172975301Y-98661598D01*
X172975299Y-98661597D01*
X172975298Y-98661597D01*
X172843871Y-98640781D01*
X172804211Y-98634500D01*
X172330989Y-98634500D01*
X172291328Y-98640781D01*
X172159902Y-98661597D01*
X171995152Y-98715128D01*
X171840811Y-98793768D01*
X171793858Y-98827882D01*
X171700672Y-98895586D01*
X171700670Y-98895588D01*
X171700669Y-98895588D01*
X171578188Y-99018069D01*
X171578188Y-99018070D01*
X171578186Y-99018072D01*
X171536827Y-99074998D01*
X171476368Y-99158211D01*
X171397728Y-99312552D01*
X171344197Y-99477302D01*
X171317100Y-99648389D01*
X165750000Y-99648389D01*
X165750000Y-92874935D01*
X171317100Y-92874935D01*
X171317100Y-94170670D01*
X171317101Y-94170676D01*
X171323508Y-94230283D01*
X171373802Y-94365128D01*
X171373806Y-94365135D01*
X171460052Y-94480344D01*
X171460055Y-94480347D01*
X171575264Y-94566593D01*
X171575271Y-94566597D01*
X171710117Y-94616891D01*
X171710116Y-94616891D01*
X171717044Y-94617635D01*
X171769727Y-94623300D01*
X173365472Y-94623299D01*
X173425083Y-94616891D01*
X173559931Y-94566596D01*
X173675146Y-94480346D01*
X173761396Y-94365131D01*
X173811691Y-94230283D01*
X173818100Y-94170673D01*
X173818099Y-92874928D01*
X173811691Y-92815317D01*
X173802143Y-92789718D01*
X173761397Y-92680471D01*
X173761393Y-92680464D01*
X173675147Y-92565255D01*
X173675144Y-92565252D01*
X173559935Y-92479006D01*
X173559928Y-92479002D01*
X173425082Y-92428708D01*
X173425083Y-92428708D01*
X173365483Y-92422301D01*
X173365481Y-92422300D01*
X173365473Y-92422300D01*
X173365464Y-92422300D01*
X171769729Y-92422300D01*
X171769723Y-92422301D01*
X171710116Y-92428708D01*
X171575271Y-92479002D01*
X171575264Y-92479006D01*
X171460055Y-92565252D01*
X171460052Y-92565255D01*
X171373806Y-92680464D01*
X171373802Y-92680471D01*
X171323508Y-92815317D01*
X171318236Y-92864359D01*
X171317101Y-92874923D01*
X171317100Y-92874935D01*
X165750000Y-92874935D01*
X165750000Y-91459998D01*
X166944318Y-91459998D01*
X166944318Y-91460001D01*
X166964955Y-91616760D01*
X166964956Y-91616762D01*
X167025464Y-91762841D01*
X167121718Y-91888282D01*
X167247159Y-91984536D01*
X167393238Y-92045044D01*
X167471619Y-92055363D01*
X167549999Y-92065682D01*
X167550000Y-92065682D01*
X167550001Y-92065682D01*
X167602254Y-92058802D01*
X167706762Y-92045044D01*
X167852841Y-91984536D01*
X167978282Y-91888282D01*
X168074536Y-91762841D01*
X168135044Y-91616762D01*
X168155682Y-91460000D01*
X168153739Y-91445245D01*
X168135044Y-91303239D01*
X168135044Y-91303238D01*
X168074536Y-91157159D01*
X167978282Y-91031718D01*
X167853786Y-90936189D01*
X171317100Y-90936189D01*
X171317100Y-91109410D01*
X171331849Y-91202536D01*
X171344198Y-91280501D01*
X171397727Y-91445245D01*
X171476368Y-91599588D01*
X171578186Y-91739728D01*
X171700672Y-91862214D01*
X171840812Y-91964032D01*
X171995155Y-92042673D01*
X172159899Y-92096202D01*
X172330989Y-92123300D01*
X172330990Y-92123300D01*
X172804210Y-92123300D01*
X172804211Y-92123300D01*
X172975301Y-92096202D01*
X173140045Y-92042673D01*
X173294388Y-91964032D01*
X173434528Y-91862214D01*
X173557014Y-91739728D01*
X173658832Y-91599588D01*
X173737473Y-91445245D01*
X173791002Y-91280501D01*
X173818100Y-91109411D01*
X173818100Y-90936189D01*
X173791002Y-90765099D01*
X173737473Y-90600355D01*
X173658832Y-90446012D01*
X173557014Y-90305872D01*
X173434528Y-90183386D01*
X173294388Y-90081568D01*
X173140045Y-90002927D01*
X172975301Y-89949398D01*
X172975299Y-89949397D01*
X172975298Y-89949397D01*
X172843871Y-89928581D01*
X172804211Y-89922300D01*
X172330989Y-89922300D01*
X172291328Y-89928581D01*
X172159902Y-89949397D01*
X171995152Y-90002928D01*
X171840811Y-90081568D01*
X171760856Y-90139659D01*
X171700672Y-90183386D01*
X171700670Y-90183388D01*
X171700669Y-90183388D01*
X171578188Y-90305869D01*
X171578188Y-90305870D01*
X171578186Y-90305872D01*
X171551588Y-90342481D01*
X171476368Y-90446011D01*
X171397728Y-90600352D01*
X171344197Y-90765102D01*
X171317100Y-90936189D01*
X167853786Y-90936189D01*
X167852841Y-90935464D01*
X167794943Y-90911482D01*
X167706762Y-90874956D01*
X167706760Y-90874955D01*
X167550001Y-90854318D01*
X167549999Y-90854318D01*
X167393239Y-90874955D01*
X167393237Y-90874956D01*
X167247160Y-90935463D01*
X167121718Y-91031718D01*
X167025463Y-91157160D01*
X166964956Y-91303237D01*
X166964955Y-91303239D01*
X166944318Y-91459998D01*
X165750000Y-91459998D01*
X165750000Y-84137335D01*
X171317100Y-84137335D01*
X171317100Y-85433070D01*
X171317101Y-85433076D01*
X171323508Y-85492683D01*
X171373802Y-85627528D01*
X171373806Y-85627535D01*
X171460052Y-85742744D01*
X171460055Y-85742747D01*
X171575264Y-85828993D01*
X171575271Y-85828997D01*
X171710117Y-85879291D01*
X171710116Y-85879291D01*
X171717044Y-85880035D01*
X171769727Y-85885700D01*
X173365472Y-85885699D01*
X173425083Y-85879291D01*
X173559931Y-85828996D01*
X173675146Y-85742746D01*
X173761396Y-85627531D01*
X173811691Y-85492683D01*
X173818100Y-85433073D01*
X173818099Y-84137328D01*
X173811691Y-84077717D01*
X173762996Y-83947160D01*
X173761397Y-83942871D01*
X173761393Y-83942864D01*
X173675147Y-83827655D01*
X173675144Y-83827652D01*
X173559935Y-83741406D01*
X173559928Y-83741402D01*
X173425082Y-83691108D01*
X173425083Y-83691108D01*
X173365483Y-83684701D01*
X173365481Y-83684700D01*
X173365473Y-83684700D01*
X173365464Y-83684700D01*
X171769729Y-83684700D01*
X171769723Y-83684701D01*
X171710116Y-83691108D01*
X171575271Y-83741402D01*
X171575264Y-83741406D01*
X171460055Y-83827652D01*
X171460052Y-83827655D01*
X171373806Y-83942864D01*
X171373802Y-83942871D01*
X171323508Y-84077717D01*
X171317101Y-84137316D01*
X171317101Y-84137323D01*
X171317100Y-84137335D01*
X165750000Y-84137335D01*
X165750000Y-82259998D01*
X168654318Y-82259998D01*
X168654318Y-82260001D01*
X168674955Y-82416760D01*
X168674956Y-82416762D01*
X168733575Y-82558282D01*
X168735464Y-82562841D01*
X168831718Y-82688282D01*
X168957159Y-82784536D01*
X169103238Y-82845044D01*
X169147286Y-82850843D01*
X169259999Y-82865682D01*
X169260000Y-82865682D01*
X169260001Y-82865682D01*
X169312254Y-82858802D01*
X169416762Y-82845044D01*
X169562841Y-82784536D01*
X169688282Y-82688282D01*
X169784536Y-82562841D01*
X169845044Y-82416762D01*
X169865682Y-82260000D01*
X169857597Y-82198589D01*
X171317100Y-82198589D01*
X171317100Y-82371810D01*
X171342656Y-82533170D01*
X171344198Y-82542901D01*
X171397727Y-82707645D01*
X171476368Y-82861988D01*
X171578186Y-83002128D01*
X171700672Y-83124614D01*
X171840812Y-83226432D01*
X171995155Y-83305073D01*
X172159899Y-83358602D01*
X172330989Y-83385700D01*
X172330990Y-83385700D01*
X172804210Y-83385700D01*
X172804211Y-83385700D01*
X172975301Y-83358602D01*
X173140045Y-83305073D01*
X173294388Y-83226432D01*
X173434528Y-83124614D01*
X173557014Y-83002128D01*
X173658832Y-82861988D01*
X173737473Y-82707645D01*
X173791002Y-82542901D01*
X173818100Y-82371811D01*
X173818100Y-82198589D01*
X173791002Y-82027499D01*
X173737473Y-81862755D01*
X173658832Y-81708412D01*
X173557014Y-81568272D01*
X173434528Y-81445786D01*
X173294388Y-81343968D01*
X173140045Y-81265327D01*
X172975301Y-81211798D01*
X172975299Y-81211797D01*
X172975298Y-81211797D01*
X172843871Y-81190981D01*
X172804211Y-81184700D01*
X172330989Y-81184700D01*
X172291328Y-81190981D01*
X172159902Y-81211797D01*
X171995152Y-81265328D01*
X171840811Y-81343968D01*
X171760856Y-81402059D01*
X171700672Y-81445786D01*
X171700670Y-81445788D01*
X171700669Y-81445788D01*
X171578188Y-81568269D01*
X171578188Y-81568270D01*
X171578186Y-81568272D01*
X171534459Y-81628456D01*
X171476368Y-81708411D01*
X171397728Y-81862752D01*
X171344197Y-82027502D01*
X171317100Y-82198589D01*
X169857597Y-82198589D01*
X169845044Y-82103238D01*
X169784536Y-81957159D01*
X169688282Y-81831718D01*
X169562841Y-81735464D01*
X169497529Y-81708411D01*
X169416762Y-81674956D01*
X169416760Y-81674955D01*
X169260001Y-81654318D01*
X169259999Y-81654318D01*
X169103239Y-81674955D01*
X169103237Y-81674956D01*
X168957160Y-81735463D01*
X168831718Y-81831718D01*
X168735463Y-81957160D01*
X168674956Y-82103237D01*
X168674955Y-82103239D01*
X168654318Y-82259998D01*
X165750000Y-82259998D01*
X165750000Y-76814198D01*
X166948918Y-76814198D01*
X166948918Y-76814201D01*
X166969555Y-76970960D01*
X166969556Y-76970962D01*
X167028158Y-77112441D01*
X167030064Y-77117041D01*
X167126318Y-77242482D01*
X167251759Y-77338736D01*
X167397838Y-77399244D01*
X167476219Y-77409563D01*
X167554599Y-77419882D01*
X167554600Y-77419882D01*
X167554601Y-77419882D01*
X167606854Y-77413002D01*
X167711362Y-77399244D01*
X167857441Y-77338736D01*
X167982882Y-77242482D01*
X168079136Y-77117041D01*
X168139644Y-76970962D01*
X168160282Y-76814200D01*
X168159676Y-76809600D01*
X168139644Y-76657439D01*
X168139644Y-76657438D01*
X168079136Y-76511359D01*
X167982882Y-76385918D01*
X167857441Y-76289664D01*
X167711362Y-76229156D01*
X167711360Y-76229155D01*
X167554601Y-76208518D01*
X167554599Y-76208518D01*
X167397839Y-76229155D01*
X167397837Y-76229156D01*
X167251760Y-76289663D01*
X167126318Y-76385918D01*
X167030063Y-76511360D01*
X166969556Y-76657437D01*
X166969555Y-76657439D01*
X166948918Y-76814198D01*
X165750000Y-76814198D01*
X165750000Y-67274499D01*
X165769685Y-67207460D01*
X165822489Y-67161705D01*
X165874000Y-67150499D01*
X176823379Y-67150499D01*
X176890418Y-67170184D01*
X176936173Y-67222988D01*
X176946117Y-67292146D01*
X176917092Y-67355702D01*
X176862973Y-67392007D01*
X176720962Y-67439857D01*
X176720959Y-67439858D01*
X176720951Y-67439861D01*
X176381391Y-67596958D01*
X176381378Y-67596965D01*
X176060794Y-67789852D01*
X176060789Y-67789856D01*
X175762913Y-68016295D01*
X175762912Y-68016296D01*
X175491272Y-68273607D01*
X175249052Y-68558769D01*
X175249045Y-68558779D01*
X175039073Y-68868464D01*
X174863815Y-69199035D01*
X174863806Y-69199053D01*
X174725318Y-69546634D01*
X174725317Y-69546636D01*
X174625223Y-69907145D01*
X174625222Y-69907148D01*
X174564688Y-70276388D01*
X174544432Y-70649996D01*
X174544432Y-70650001D01*
X174564688Y-71023609D01*
X174625222Y-71392849D01*
X174625223Y-71392852D01*
X174725317Y-71753361D01*
X174725318Y-71753363D01*
X174863806Y-72100944D01*
X174863815Y-72100962D01*
X175039073Y-72431533D01*
X175249045Y-72741218D01*
X175249052Y-72741228D01*
X175491272Y-73026390D01*
X175491273Y-73026391D01*
X175762913Y-73283702D01*
X176060780Y-73510135D01*
X176060785Y-73510138D01*
X176060789Y-73510141D01*
X176060794Y-73510145D01*
X176381378Y-73703032D01*
X176381383Y-73703035D01*
X176381387Y-73703036D01*
X176381391Y-73703039D01*
X176666964Y-73835159D01*
X176720962Y-73860141D01*
X177075538Y-73979612D01*
X177440951Y-74060045D01*
X177812919Y-74100499D01*
X177812925Y-74100499D01*
X178187075Y-74100499D01*
X178187081Y-74100499D01*
X178559049Y-74060045D01*
X178924462Y-73979612D01*
X179279038Y-73860141D01*
X179618617Y-73703035D01*
X179767323Y-73613562D01*
X179939205Y-73510145D01*
X179939210Y-73510141D01*
X179939209Y-73510141D01*
X179939220Y-73510135D01*
X180237087Y-73283702D01*
X180508727Y-73026391D01*
X180750954Y-72741220D01*
X180960928Y-72431530D01*
X181136189Y-72100954D01*
X181260307Y-71789439D01*
X181303407Y-71734448D01*
X181369396Y-71711487D01*
X181437323Y-71727848D01*
X181485622Y-71778336D01*
X181499500Y-71835337D01*
X181499500Y-121464660D01*
X181479815Y-121531699D01*
X181427011Y-121577454D01*
X181357853Y-121587398D01*
X181294297Y-121558373D01*
X181260307Y-121510557D01*
X181136193Y-121199053D01*
X181136184Y-121199035D01*
X180960926Y-120868464D01*
X180813537Y-120651082D01*
X180750954Y-120558778D01*
X180750950Y-120558773D01*
X180750947Y-120558769D01*
X180508727Y-120273607D01*
X180237087Y-120016296D01*
X180237086Y-120016295D01*
X180110358Y-119919959D01*
X179939220Y-119789863D01*
X179939216Y-119789860D01*
X179939210Y-119789856D01*
X179939205Y-119789852D01*
X179618621Y-119596965D01*
X179618608Y-119596958D01*
X179279048Y-119439861D01*
X179279043Y-119439859D01*
X179279038Y-119439857D01*
X179106203Y-119381622D01*
X178924461Y-119320385D01*
X178559047Y-119239952D01*
X178187082Y-119199499D01*
X178187081Y-119199499D01*
X177812919Y-119199499D01*
X177812917Y-119199499D01*
X177440952Y-119239952D01*
X177075538Y-119320385D01*
X176801440Y-119412740D01*
X176720962Y-119439857D01*
X176720959Y-119439858D01*
X176720951Y-119439861D01*
X176381391Y-119596958D01*
X176381378Y-119596965D01*
X176060794Y-119789852D01*
X176060789Y-119789856D01*
X175762913Y-120016295D01*
X175762912Y-120016296D01*
X175491272Y-120273607D01*
X175249052Y-120558769D01*
X175249045Y-120558779D01*
X175039073Y-120868464D01*
X174863815Y-121199035D01*
X174863806Y-121199053D01*
X174725318Y-121546634D01*
X174725317Y-121546636D01*
X174625223Y-121907145D01*
X174625222Y-121907148D01*
X174564688Y-122276388D01*
X174544432Y-122649996D01*
X174544432Y-122650001D01*
X174564688Y-123023609D01*
X174625222Y-123392849D01*
X174625223Y-123392852D01*
X174725317Y-123753361D01*
X174725318Y-123753363D01*
X174863806Y-124100944D01*
X174863815Y-124100962D01*
X175039073Y-124431533D01*
X175149376Y-124594217D01*
X175241492Y-124730079D01*
X175249045Y-124741218D01*
X175249052Y-124741228D01*
X175358483Y-124870059D01*
X175491273Y-125026391D01*
X175762913Y-125283702D01*
X176060780Y-125510135D01*
X176060785Y-125510138D01*
X176060789Y-125510141D01*
X176060794Y-125510145D01*
X176365353Y-125693390D01*
X176381383Y-125703035D01*
X176381387Y-125703036D01*
X176381391Y-125703039D01*
X176453247Y-125736283D01*
X176720962Y-125860141D01*
X176862973Y-125907990D01*
X176920217Y-125948050D01*
X176946717Y-126012700D01*
X176934057Y-126081413D01*
X176886258Y-126132374D01*
X176823379Y-126149499D01*
X105176621Y-126149499D01*
X105109582Y-126129814D01*
X105063827Y-126077010D01*
X105053883Y-126007852D01*
X105082908Y-125944296D01*
X105137026Y-125907990D01*
X105279038Y-125860141D01*
X105618617Y-125703035D01*
X105739912Y-125630054D01*
X105939205Y-125510145D01*
X105939210Y-125510141D01*
X105939209Y-125510141D01*
X105939220Y-125510135D01*
X106237087Y-125283702D01*
X106508727Y-125026391D01*
X106750954Y-124741220D01*
X106960928Y-124431530D01*
X107136189Y-124100954D01*
X107274680Y-123753367D01*
X107374779Y-123392844D01*
X107435311Y-123023612D01*
X107455316Y-122654641D01*
X107455568Y-122650001D01*
X107455568Y-122649996D01*
X107439400Y-122351798D01*
X119079118Y-122351798D01*
X119079118Y-122351801D01*
X119099755Y-122508560D01*
X119099756Y-122508562D01*
X119158341Y-122650000D01*
X119160264Y-122654641D01*
X119256518Y-122780082D01*
X119381959Y-122876336D01*
X119528038Y-122936844D01*
X119606419Y-122947163D01*
X119684799Y-122957482D01*
X119684800Y-122957482D01*
X119684801Y-122957482D01*
X119737054Y-122950602D01*
X119841562Y-122936844D01*
X119987641Y-122876336D01*
X120113082Y-122780082D01*
X120209336Y-122654641D01*
X120269844Y-122508562D01*
X120288607Y-122366041D01*
X120290482Y-122351801D01*
X120290482Y-122351798D01*
X120269844Y-122195039D01*
X120269844Y-122195038D01*
X120215234Y-122063198D01*
X129334518Y-122063198D01*
X129334518Y-122063201D01*
X129355155Y-122219960D01*
X129355156Y-122219962D01*
X129409765Y-122351801D01*
X129415664Y-122366041D01*
X129511918Y-122491482D01*
X129637359Y-122587736D01*
X129783438Y-122648244D01*
X129861819Y-122658563D01*
X129940199Y-122668882D01*
X129940200Y-122668882D01*
X129940201Y-122668882D01*
X129992454Y-122662002D01*
X130096962Y-122648244D01*
X130243041Y-122587736D01*
X130368482Y-122491482D01*
X130464736Y-122366041D01*
X130525244Y-122219962D01*
X130545882Y-122063200D01*
X130544007Y-122048960D01*
X130542538Y-122037798D01*
X132814318Y-122037798D01*
X132814318Y-122037801D01*
X132834955Y-122194560D01*
X132834956Y-122194562D01*
X132895464Y-122340641D01*
X132991718Y-122466082D01*
X133117159Y-122562336D01*
X133263238Y-122622844D01*
X133341619Y-122633163D01*
X133419999Y-122643482D01*
X133420000Y-122643482D01*
X133420001Y-122643482D01*
X133472254Y-122636602D01*
X133576762Y-122622844D01*
X133722841Y-122562336D01*
X133848282Y-122466082D01*
X133944536Y-122340641D01*
X134005044Y-122194562D01*
X134025682Y-122037800D01*
X134005044Y-121881038D01*
X133944536Y-121734959D01*
X133848282Y-121609518D01*
X133722841Y-121513264D01*
X133576762Y-121452756D01*
X133576760Y-121452755D01*
X133420001Y-121432118D01*
X133419999Y-121432118D01*
X133263239Y-121452755D01*
X133263237Y-121452756D01*
X133117160Y-121513263D01*
X132991718Y-121609518D01*
X132895463Y-121734960D01*
X132834956Y-121881037D01*
X132834955Y-121881039D01*
X132814318Y-122037798D01*
X130542538Y-122037798D01*
X130525244Y-121906439D01*
X130525244Y-121906438D01*
X130464736Y-121760359D01*
X130368482Y-121634918D01*
X130243041Y-121538664D01*
X130096962Y-121478156D01*
X130096960Y-121478155D01*
X129940201Y-121457518D01*
X129940199Y-121457518D01*
X129783439Y-121478155D01*
X129783437Y-121478156D01*
X129637360Y-121538663D01*
X129511918Y-121634918D01*
X129415663Y-121760360D01*
X129355156Y-121906437D01*
X129355155Y-121906439D01*
X129334518Y-122063198D01*
X120215234Y-122063198D01*
X120209336Y-122048959D01*
X120113082Y-121923518D01*
X119987641Y-121827264D01*
X119841562Y-121766756D01*
X119841560Y-121766755D01*
X119684801Y-121746118D01*
X119684799Y-121746118D01*
X119528039Y-121766755D01*
X119528037Y-121766756D01*
X119381960Y-121827263D01*
X119256518Y-121923518D01*
X119160263Y-122048960D01*
X119099756Y-122195037D01*
X119099755Y-122195039D01*
X119079118Y-122351798D01*
X107439400Y-122351798D01*
X107435311Y-122276388D01*
X107435311Y-122276386D01*
X107374779Y-121907154D01*
X107285999Y-121587398D01*
X107274682Y-121546636D01*
X107274681Y-121546634D01*
X107271505Y-121538664D01*
X107136189Y-121199044D01*
X106982079Y-120908362D01*
X106960926Y-120868464D01*
X106813537Y-120651082D01*
X106750954Y-120558778D01*
X106750950Y-120558773D01*
X106750947Y-120558769D01*
X106508727Y-120273607D01*
X106455089Y-120222798D01*
X114116918Y-120222798D01*
X114116918Y-120222801D01*
X114137555Y-120379560D01*
X114137556Y-120379562D01*
X114198064Y-120525641D01*
X114294318Y-120651082D01*
X114419759Y-120747336D01*
X114565838Y-120807844D01*
X114644219Y-120818163D01*
X114722599Y-120828482D01*
X114722600Y-120828482D01*
X114722601Y-120828482D01*
X114774854Y-120821602D01*
X114879362Y-120807844D01*
X115015152Y-120751598D01*
X120374518Y-120751598D01*
X120374518Y-120751601D01*
X120395155Y-120908360D01*
X120395156Y-120908362D01*
X120455664Y-121054441D01*
X120551918Y-121179882D01*
X120677359Y-121276136D01*
X120823438Y-121336644D01*
X120901819Y-121346963D01*
X120980199Y-121357282D01*
X120980200Y-121357282D01*
X120980201Y-121357282D01*
X121032454Y-121350402D01*
X121136962Y-121336644D01*
X121283041Y-121276136D01*
X121408482Y-121179882D01*
X121504736Y-121054441D01*
X121565244Y-120908362D01*
X121585882Y-120751600D01*
X121572648Y-120651081D01*
X121565244Y-120594839D01*
X121565244Y-120594838D01*
X121504736Y-120448759D01*
X121408482Y-120323318D01*
X121283041Y-120227064D01*
X121272749Y-120222801D01*
X121136962Y-120166556D01*
X121136960Y-120166555D01*
X120980201Y-120145918D01*
X120980199Y-120145918D01*
X120823439Y-120166555D01*
X120823437Y-120166556D01*
X120677360Y-120227063D01*
X120551918Y-120323318D01*
X120455663Y-120448760D01*
X120395156Y-120594837D01*
X120395155Y-120594839D01*
X120374518Y-120751598D01*
X115015152Y-120751598D01*
X115025441Y-120747336D01*
X115150882Y-120651082D01*
X115247136Y-120525641D01*
X115307644Y-120379562D01*
X115328282Y-120222800D01*
X115307644Y-120066038D01*
X115247136Y-119919959D01*
X115150882Y-119794518D01*
X115025441Y-119698264D01*
X114879362Y-119637756D01*
X114879360Y-119637755D01*
X114722601Y-119617118D01*
X114722599Y-119617118D01*
X114565839Y-119637755D01*
X114565837Y-119637756D01*
X114419760Y-119698263D01*
X114294318Y-119794518D01*
X114198063Y-119919960D01*
X114137556Y-120066037D01*
X114137555Y-120066039D01*
X114116918Y-120222798D01*
X106455089Y-120222798D01*
X106237087Y-120016296D01*
X106237086Y-120016295D01*
X106110358Y-119919959D01*
X105939220Y-119789863D01*
X105939216Y-119789860D01*
X105939210Y-119789856D01*
X105939205Y-119789852D01*
X105618621Y-119596965D01*
X105618608Y-119596958D01*
X105279048Y-119439861D01*
X105279043Y-119439859D01*
X105279038Y-119439857D01*
X105106203Y-119381622D01*
X104924461Y-119320385D01*
X104559047Y-119239952D01*
X104187082Y-119199499D01*
X104187081Y-119199499D01*
X103812919Y-119199499D01*
X103812917Y-119199499D01*
X103440952Y-119239952D01*
X103075538Y-119320385D01*
X102801440Y-119412740D01*
X102720962Y-119439857D01*
X102720959Y-119439858D01*
X102720951Y-119439861D01*
X102381391Y-119596958D01*
X102381378Y-119596965D01*
X102060794Y-119789852D01*
X102060789Y-119789856D01*
X101762913Y-120016295D01*
X101762912Y-120016296D01*
X101491272Y-120273607D01*
X101249052Y-120558769D01*
X101249045Y-120558779D01*
X101039073Y-120868464D01*
X100863815Y-121199035D01*
X100863806Y-121199053D01*
X100739693Y-121510557D01*
X100696593Y-121565549D01*
X100630604Y-121588510D01*
X100562677Y-121572149D01*
X100514378Y-121521661D01*
X100500500Y-121464660D01*
X100500500Y-116869998D01*
X114116918Y-116869998D01*
X114116918Y-116870001D01*
X114137555Y-117026760D01*
X114137556Y-117026762D01*
X114198064Y-117172841D01*
X114294318Y-117298282D01*
X114419759Y-117394536D01*
X114565838Y-117455044D01*
X114644219Y-117465363D01*
X114722599Y-117475682D01*
X114722600Y-117475682D01*
X114722601Y-117475682D01*
X114774854Y-117468802D01*
X114879362Y-117455044D01*
X115025441Y-117394536D01*
X115150882Y-117298282D01*
X115247136Y-117172841D01*
X115307644Y-117026762D01*
X115328282Y-116870000D01*
X115317644Y-116789198D01*
X125022718Y-116789198D01*
X125022718Y-116789201D01*
X125043355Y-116945960D01*
X125043356Y-116945962D01*
X125076824Y-117026762D01*
X125103864Y-117092041D01*
X125200118Y-117217482D01*
X125325559Y-117313736D01*
X125471638Y-117374244D01*
X125550019Y-117384563D01*
X125628399Y-117394882D01*
X125628400Y-117394882D01*
X125628401Y-117394882D01*
X125680654Y-117388002D01*
X125785162Y-117374244D01*
X125931241Y-117313736D01*
X126056682Y-117217482D01*
X126152936Y-117092041D01*
X126213444Y-116945962D01*
X126234082Y-116789200D01*
X126224081Y-116713238D01*
X126213444Y-116632439D01*
X126213444Y-116632438D01*
X126152936Y-116486359D01*
X126056682Y-116360918D01*
X125931241Y-116264664D01*
X125785162Y-116204156D01*
X125785160Y-116204155D01*
X125628401Y-116183518D01*
X125628399Y-116183518D01*
X125471639Y-116204155D01*
X125471637Y-116204156D01*
X125325560Y-116264663D01*
X125200118Y-116360918D01*
X125103863Y-116486360D01*
X125043356Y-116632437D01*
X125043355Y-116632439D01*
X125022718Y-116789198D01*
X115317644Y-116789198D01*
X115307644Y-116713238D01*
X115247136Y-116567159D01*
X115150882Y-116441718D01*
X115025441Y-116345464D01*
X114879362Y-116284956D01*
X114879360Y-116284955D01*
X114722601Y-116264318D01*
X114722599Y-116264318D01*
X114565839Y-116284955D01*
X114565837Y-116284956D01*
X114419760Y-116345463D01*
X114294318Y-116441718D01*
X114198063Y-116567160D01*
X114137556Y-116713237D01*
X114137555Y-116713239D01*
X114116918Y-116869998D01*
X100500500Y-116869998D01*
X100500500Y-115522030D01*
X139294571Y-115522030D01*
X139294571Y-115522033D01*
X139315208Y-115678792D01*
X139315209Y-115678794D01*
X139375717Y-115824873D01*
X139471971Y-115950314D01*
X139597412Y-116046568D01*
X139743491Y-116107076D01*
X139821872Y-116117395D01*
X139900252Y-116127714D01*
X139900253Y-116127714D01*
X139900254Y-116127714D01*
X139952507Y-116120834D01*
X140057015Y-116107076D01*
X140203094Y-116046568D01*
X140328535Y-115950314D01*
X140424789Y-115824873D01*
X140485297Y-115678794D01*
X140505935Y-115522032D01*
X140485297Y-115365270D01*
X140424789Y-115219191D01*
X140328535Y-115093750D01*
X140203094Y-114997496D01*
X140057015Y-114936988D01*
X140057013Y-114936987D01*
X139900254Y-114916350D01*
X139900252Y-114916350D01*
X139743492Y-114936987D01*
X139743490Y-114936988D01*
X139597413Y-114997495D01*
X139471971Y-115093750D01*
X139375716Y-115219192D01*
X139315209Y-115365269D01*
X139315208Y-115365271D01*
X139294571Y-115522030D01*
X100500500Y-115522030D01*
X100500500Y-113415598D01*
X114091518Y-113415598D01*
X114091518Y-113415601D01*
X114112155Y-113572360D01*
X114112156Y-113572362D01*
X114170758Y-113713841D01*
X114172664Y-113718441D01*
X114268918Y-113843882D01*
X114394359Y-113940136D01*
X114540438Y-114000644D01*
X114618819Y-114010963D01*
X114697199Y-114021282D01*
X114697200Y-114021282D01*
X114697201Y-114021282D01*
X114749454Y-114014402D01*
X114853962Y-114000644D01*
X115000041Y-113940136D01*
X115125482Y-113843882D01*
X115221736Y-113718441D01*
X115282244Y-113572362D01*
X115302882Y-113415600D01*
X115302276Y-113411000D01*
X115302276Y-113410998D01*
X125403718Y-113410998D01*
X125403718Y-113411001D01*
X125424355Y-113567760D01*
X125424356Y-113567762D01*
X125484864Y-113713841D01*
X125581118Y-113839282D01*
X125706559Y-113935536D01*
X125852638Y-113996044D01*
X125887579Y-114000644D01*
X126009399Y-114016682D01*
X126009400Y-114016682D01*
X126009401Y-114016682D01*
X126061654Y-114009802D01*
X126166162Y-113996044D01*
X126312241Y-113935536D01*
X126437682Y-113839282D01*
X126533936Y-113713841D01*
X126594444Y-113567762D01*
X126614476Y-113415601D01*
X126615082Y-113411001D01*
X126615082Y-113410998D01*
X126595050Y-113258839D01*
X126594444Y-113254238D01*
X126533936Y-113108159D01*
X126437682Y-112982718D01*
X126312241Y-112886464D01*
X126272493Y-112870000D01*
X126272488Y-112869998D01*
X134124318Y-112869998D01*
X134124318Y-112870001D01*
X134144955Y-113026760D01*
X134144956Y-113026762D01*
X134180577Y-113112760D01*
X134205464Y-113172841D01*
X134301718Y-113298282D01*
X134427159Y-113394536D01*
X134573238Y-113455044D01*
X134651619Y-113465363D01*
X134729999Y-113475682D01*
X134730000Y-113475682D01*
X134730001Y-113475682D01*
X134782254Y-113468802D01*
X134886762Y-113455044D01*
X135032841Y-113394536D01*
X135158282Y-113298282D01*
X135254536Y-113172841D01*
X135315044Y-113026762D01*
X135332909Y-112891063D01*
X135335682Y-112870001D01*
X135335682Y-112869998D01*
X135315044Y-112713239D01*
X135315044Y-112713238D01*
X135254536Y-112567159D01*
X135158282Y-112441718D01*
X135032841Y-112345464D01*
X134886762Y-112284956D01*
X134886760Y-112284955D01*
X134730001Y-112264318D01*
X134729999Y-112264318D01*
X134573239Y-112284955D01*
X134573237Y-112284956D01*
X134427160Y-112345463D01*
X134301718Y-112441718D01*
X134205463Y-112567160D01*
X134144956Y-112713237D01*
X134144955Y-112713239D01*
X134124318Y-112869998D01*
X126272488Y-112869998D01*
X126166162Y-112825956D01*
X126166160Y-112825955D01*
X126009401Y-112805318D01*
X126009399Y-112805318D01*
X125852639Y-112825955D01*
X125852637Y-112825956D01*
X125706560Y-112886463D01*
X125581118Y-112982718D01*
X125484863Y-113108160D01*
X125424356Y-113254237D01*
X125424355Y-113254239D01*
X125403718Y-113410998D01*
X115302276Y-113410998D01*
X115282244Y-113258839D01*
X115282244Y-113258838D01*
X115221736Y-113112759D01*
X115125482Y-112987318D01*
X115000041Y-112891064D01*
X114988933Y-112886463D01*
X114853962Y-112830556D01*
X114853960Y-112830555D01*
X114697201Y-112809918D01*
X114697199Y-112809918D01*
X114540439Y-112830555D01*
X114540437Y-112830556D01*
X114394360Y-112891063D01*
X114268918Y-112987318D01*
X114172663Y-113112760D01*
X114112156Y-113258837D01*
X114112155Y-113258839D01*
X114091518Y-113415598D01*
X100500500Y-113415598D01*
X100500500Y-109905798D01*
X129467718Y-109905798D01*
X129467718Y-109905801D01*
X129488355Y-110062560D01*
X129488356Y-110062562D01*
X129547868Y-110206238D01*
X129548864Y-110208641D01*
X129645118Y-110334082D01*
X129770559Y-110430336D01*
X129916638Y-110490844D01*
X129995019Y-110501163D01*
X130073399Y-110511482D01*
X130073400Y-110511482D01*
X130073401Y-110511482D01*
X130125654Y-110504602D01*
X130230162Y-110490844D01*
X130376241Y-110430336D01*
X130501682Y-110334082D01*
X130536583Y-110288598D01*
X134164318Y-110288598D01*
X134164318Y-110288601D01*
X134184955Y-110445360D01*
X134184956Y-110445362D01*
X134215773Y-110519762D01*
X134245464Y-110591441D01*
X134341718Y-110716882D01*
X134467159Y-110813136D01*
X134613238Y-110873644D01*
X134691619Y-110883963D01*
X134769999Y-110894282D01*
X134770000Y-110894282D01*
X134770001Y-110894282D01*
X134822254Y-110887402D01*
X134926762Y-110873644D01*
X135072841Y-110813136D01*
X135198282Y-110716882D01*
X135294536Y-110591441D01*
X135355044Y-110445362D01*
X135375682Y-110288600D01*
X135368862Y-110236800D01*
X135355044Y-110131839D01*
X135355044Y-110131838D01*
X135294536Y-109985759D01*
X135198282Y-109860318D01*
X135072841Y-109764064D01*
X135067375Y-109761800D01*
X134926762Y-109703556D01*
X134926760Y-109703555D01*
X134770001Y-109682918D01*
X134769999Y-109682918D01*
X134613239Y-109703555D01*
X134613237Y-109703556D01*
X134467160Y-109764063D01*
X134341718Y-109860318D01*
X134245463Y-109985760D01*
X134184956Y-110131837D01*
X134184955Y-110131839D01*
X134164318Y-110288598D01*
X130536583Y-110288598D01*
X130597936Y-110208641D01*
X130658444Y-110062562D01*
X130679082Y-109905800D01*
X130658444Y-109749038D01*
X130597936Y-109602959D01*
X130501682Y-109477518D01*
X130376241Y-109381264D01*
X130230162Y-109320756D01*
X130230160Y-109320755D01*
X130073401Y-109300118D01*
X130073399Y-109300118D01*
X129916639Y-109320755D01*
X129916637Y-109320756D01*
X129770560Y-109381263D01*
X129645118Y-109477518D01*
X129548863Y-109602960D01*
X129488356Y-109749037D01*
X129488355Y-109749039D01*
X129467718Y-109905798D01*
X100500500Y-109905798D01*
X100500500Y-109099998D01*
X102184318Y-109099998D01*
X102184318Y-109100001D01*
X102204955Y-109256760D01*
X102204956Y-109256762D01*
X102265464Y-109402841D01*
X102361718Y-109528282D01*
X102487159Y-109624536D01*
X102633238Y-109685044D01*
X102706583Y-109694700D01*
X102789999Y-109705682D01*
X102790000Y-109705682D01*
X102790001Y-109705682D01*
X102842254Y-109698802D01*
X102946762Y-109685044D01*
X103092841Y-109624536D01*
X103214515Y-109531171D01*
X103279683Y-109505979D01*
X103348127Y-109520017D01*
X103365478Y-109531167D01*
X103487159Y-109624536D01*
X103633238Y-109685044D01*
X103706583Y-109694700D01*
X103789999Y-109705682D01*
X103790000Y-109705682D01*
X103790001Y-109705682D01*
X103842254Y-109698802D01*
X103946762Y-109685044D01*
X104092841Y-109624536D01*
X104214515Y-109531171D01*
X104279683Y-109505979D01*
X104348127Y-109520017D01*
X104365478Y-109531167D01*
X104487159Y-109624536D01*
X104633238Y-109685044D01*
X104706583Y-109694700D01*
X104789999Y-109705682D01*
X104790000Y-109705682D01*
X104790001Y-109705682D01*
X104842254Y-109698802D01*
X104946762Y-109685044D01*
X105092841Y-109624536D01*
X105218282Y-109528282D01*
X105314536Y-109402841D01*
X105375044Y-109256762D01*
X105392093Y-109127264D01*
X105395682Y-109100001D01*
X105395682Y-109099998D01*
X105375044Y-108943239D01*
X105375044Y-108943238D01*
X105314536Y-108797159D01*
X105218282Y-108671718D01*
X105092841Y-108575464D01*
X104946762Y-108514956D01*
X104946760Y-108514955D01*
X104790001Y-108494318D01*
X104789999Y-108494318D01*
X104633239Y-108514955D01*
X104633237Y-108514956D01*
X104487157Y-108575464D01*
X104365486Y-108668826D01*
X104300317Y-108694020D01*
X104231872Y-108679981D01*
X104214514Y-108668826D01*
X104092842Y-108575464D01*
X103946762Y-108514956D01*
X103946760Y-108514955D01*
X103790001Y-108494318D01*
X103789999Y-108494318D01*
X103633239Y-108514955D01*
X103633237Y-108514956D01*
X103487157Y-108575464D01*
X103365486Y-108668826D01*
X103300317Y-108694020D01*
X103231872Y-108679981D01*
X103214514Y-108668826D01*
X103092842Y-108575464D01*
X102946762Y-108514956D01*
X102946760Y-108514955D01*
X102790001Y-108494318D01*
X102789999Y-108494318D01*
X102633239Y-108514955D01*
X102633237Y-108514956D01*
X102487160Y-108575463D01*
X102361718Y-108671718D01*
X102265463Y-108797160D01*
X102204956Y-108943237D01*
X102204955Y-108943239D01*
X102184318Y-109099998D01*
X100500500Y-109099998D01*
X100500500Y-107797598D01*
X115167518Y-107797598D01*
X115167518Y-107797601D01*
X115188155Y-107954360D01*
X115188156Y-107954362D01*
X115248664Y-108100441D01*
X115344918Y-108225882D01*
X115470359Y-108322136D01*
X115616438Y-108382644D01*
X115694819Y-108392963D01*
X115773199Y-108403282D01*
X115773200Y-108403282D01*
X115773201Y-108403282D01*
X115825454Y-108396402D01*
X115929962Y-108382644D01*
X116076041Y-108322136D01*
X116201482Y-108225882D01*
X116297736Y-108100441D01*
X116358244Y-107954362D01*
X116378882Y-107797600D01*
X116373245Y-107754786D01*
X116358244Y-107640839D01*
X116358244Y-107640838D01*
X116297736Y-107494759D01*
X116201482Y-107369318D01*
X116076041Y-107273064D01*
X116054641Y-107264200D01*
X115929962Y-107212556D01*
X115929960Y-107212555D01*
X115773201Y-107191918D01*
X115773199Y-107191918D01*
X115616439Y-107212555D01*
X115616437Y-107212556D01*
X115470360Y-107273063D01*
X115344918Y-107369318D01*
X115248663Y-107494760D01*
X115188156Y-107640837D01*
X115188155Y-107640839D01*
X115167518Y-107797598D01*
X100500500Y-107797598D01*
X100500500Y-105867198D01*
X125429118Y-105867198D01*
X125429118Y-105867201D01*
X125449755Y-106023960D01*
X125449756Y-106023962D01*
X125510264Y-106170041D01*
X125606518Y-106295482D01*
X125731959Y-106391736D01*
X125878038Y-106452244D01*
X125956419Y-106462563D01*
X126034799Y-106472882D01*
X126034800Y-106472882D01*
X126034801Y-106472882D01*
X126087054Y-106466002D01*
X126191562Y-106452244D01*
X126337641Y-106391736D01*
X126463082Y-106295482D01*
X126559336Y-106170041D01*
X126619844Y-106023962D01*
X126640482Y-105867200D01*
X126619844Y-105710438D01*
X126559336Y-105564359D01*
X126463082Y-105438918D01*
X126337641Y-105342664D01*
X126191562Y-105282156D01*
X126191560Y-105282155D01*
X126034801Y-105261518D01*
X126034799Y-105261518D01*
X125878039Y-105282155D01*
X125878037Y-105282156D01*
X125731960Y-105342663D01*
X125606518Y-105438918D01*
X125510263Y-105564360D01*
X125449756Y-105710437D01*
X125449755Y-105710439D01*
X125429118Y-105867198D01*
X100500500Y-105867198D01*
X100500500Y-100304598D01*
X118926718Y-100304598D01*
X118926718Y-100304601D01*
X118947355Y-100461360D01*
X118947356Y-100461362D01*
X118994182Y-100574411D01*
X119007864Y-100607441D01*
X119104118Y-100732882D01*
X119229559Y-100829136D01*
X119375638Y-100889644D01*
X119454019Y-100899963D01*
X119532399Y-100910282D01*
X119532400Y-100910282D01*
X119532401Y-100910282D01*
X119584654Y-100903402D01*
X119689162Y-100889644D01*
X119835241Y-100829136D01*
X119960682Y-100732882D01*
X120056936Y-100607441D01*
X120117444Y-100461362D01*
X120138082Y-100304600D01*
X120134738Y-100279198D01*
X129162918Y-100279198D01*
X129162918Y-100279201D01*
X129183555Y-100435960D01*
X129183556Y-100435962D01*
X129240903Y-100574411D01*
X129244064Y-100582041D01*
X129340318Y-100707482D01*
X129465759Y-100803736D01*
X129611838Y-100864244D01*
X129690219Y-100874563D01*
X129768599Y-100884882D01*
X129768600Y-100884882D01*
X129768601Y-100884882D01*
X129820854Y-100878002D01*
X129925362Y-100864244D01*
X130071441Y-100803736D01*
X130196882Y-100707482D01*
X130293136Y-100582041D01*
X130353644Y-100435962D01*
X130374282Y-100279200D01*
X130353644Y-100122438D01*
X130293136Y-99976359D01*
X130196882Y-99850918D01*
X130071441Y-99754664D01*
X129925362Y-99694156D01*
X129925360Y-99694155D01*
X129768601Y-99673518D01*
X129768599Y-99673518D01*
X129611839Y-99694155D01*
X129611837Y-99694156D01*
X129465760Y-99754663D01*
X129340318Y-99850918D01*
X129244063Y-99976360D01*
X129183556Y-100122437D01*
X129183555Y-100122439D01*
X129162918Y-100279198D01*
X120134738Y-100279198D01*
X120117444Y-100147838D01*
X120056936Y-100001759D01*
X119960682Y-99876318D01*
X119835241Y-99780064D01*
X119689162Y-99719556D01*
X119689160Y-99719555D01*
X119532401Y-99698918D01*
X119532399Y-99698918D01*
X119375639Y-99719555D01*
X119375637Y-99719556D01*
X119229560Y-99780063D01*
X119104118Y-99876318D01*
X119007863Y-100001760D01*
X118947356Y-100147837D01*
X118947355Y-100147839D01*
X118926718Y-100304598D01*
X100500500Y-100304598D01*
X100500500Y-99074998D01*
X110819318Y-99074998D01*
X110819318Y-99075001D01*
X110839955Y-99231760D01*
X110839956Y-99231762D01*
X110900464Y-99377841D01*
X110996718Y-99503282D01*
X111122159Y-99599536D01*
X111268238Y-99660044D01*
X111346619Y-99670363D01*
X111424999Y-99680682D01*
X111425000Y-99680682D01*
X111425001Y-99680682D01*
X111479416Y-99673518D01*
X111581762Y-99660044D01*
X111727841Y-99599536D01*
X111853282Y-99503282D01*
X111949536Y-99377841D01*
X112010044Y-99231762D01*
X112030682Y-99075000D01*
X112029170Y-99063518D01*
X112024050Y-99024629D01*
X112369687Y-99024629D01*
X112369687Y-99024632D01*
X112390324Y-99181391D01*
X112390325Y-99181393D01*
X112411188Y-99231762D01*
X112450833Y-99327472D01*
X112547087Y-99452913D01*
X112672528Y-99549167D01*
X112818607Y-99609675D01*
X112896988Y-99619994D01*
X112975368Y-99630313D01*
X112975369Y-99630313D01*
X112975370Y-99630313D01*
X113027623Y-99623433D01*
X113132131Y-99609675D01*
X113278210Y-99549167D01*
X113403651Y-99452913D01*
X113499905Y-99327472D01*
X113560413Y-99181393D01*
X113575931Y-99063518D01*
X113576394Y-99059998D01*
X125556118Y-99059998D01*
X125556118Y-99060001D01*
X125576755Y-99216760D01*
X125576756Y-99216762D01*
X125625931Y-99335482D01*
X125637264Y-99362841D01*
X125733518Y-99488282D01*
X125858959Y-99584536D01*
X126005038Y-99645044D01*
X126083419Y-99655363D01*
X126161799Y-99665682D01*
X126161800Y-99665682D01*
X126161801Y-99665682D01*
X126214054Y-99658802D01*
X126318562Y-99645044D01*
X126464641Y-99584536D01*
X126590082Y-99488282D01*
X126686336Y-99362841D01*
X126746844Y-99216762D01*
X126765507Y-99075000D01*
X126767482Y-99060001D01*
X126767482Y-99059998D01*
X126746844Y-98903239D01*
X126746844Y-98903238D01*
X126686336Y-98757159D01*
X126590082Y-98631718D01*
X126464641Y-98535464D01*
X126379250Y-98500094D01*
X126318562Y-98474956D01*
X126318560Y-98474955D01*
X126161801Y-98454318D01*
X126161799Y-98454318D01*
X126005039Y-98474955D01*
X126005037Y-98474956D01*
X125858960Y-98535463D01*
X125733518Y-98631718D01*
X125637263Y-98757160D01*
X125576756Y-98903237D01*
X125576755Y-98903239D01*
X125556118Y-99059998D01*
X113576394Y-99059998D01*
X113581051Y-99024632D01*
X113581051Y-99024629D01*
X113565533Y-98906756D01*
X113560413Y-98867869D01*
X113499905Y-98721790D01*
X113403651Y-98596349D01*
X113278210Y-98500095D01*
X113253732Y-98489956D01*
X113132131Y-98439587D01*
X113132129Y-98439586D01*
X112975370Y-98418949D01*
X112975368Y-98418949D01*
X112818608Y-98439586D01*
X112818606Y-98439587D01*
X112672529Y-98500094D01*
X112547087Y-98596349D01*
X112450832Y-98721791D01*
X112390325Y-98867868D01*
X112390324Y-98867870D01*
X112369687Y-99024629D01*
X112024050Y-99024629D01*
X112010044Y-98918239D01*
X112010044Y-98918238D01*
X111949536Y-98772159D01*
X111853282Y-98646718D01*
X111727841Y-98550464D01*
X111691625Y-98535463D01*
X111581762Y-98489956D01*
X111581760Y-98489955D01*
X111425001Y-98469318D01*
X111424999Y-98469318D01*
X111268239Y-98489955D01*
X111268237Y-98489956D01*
X111122160Y-98550463D01*
X110996718Y-98646718D01*
X110900463Y-98772160D01*
X110839956Y-98918237D01*
X110839955Y-98918239D01*
X110819318Y-99074998D01*
X100500500Y-99074998D01*
X100500500Y-97662998D01*
X116386718Y-97662998D01*
X116386718Y-97663001D01*
X116407355Y-97819760D01*
X116407356Y-97819762D01*
X116467864Y-97965841D01*
X116564118Y-98091282D01*
X116689559Y-98187536D01*
X116835638Y-98248044D01*
X116914019Y-98258363D01*
X116992399Y-98268682D01*
X116992400Y-98268682D01*
X116992401Y-98268682D01*
X117044654Y-98261802D01*
X117149162Y-98248044D01*
X117295241Y-98187536D01*
X117420682Y-98091282D01*
X117516936Y-97965841D01*
X117577444Y-97819762D01*
X117598082Y-97663000D01*
X117592563Y-97621082D01*
X117577444Y-97506239D01*
X117577444Y-97506238D01*
X117516936Y-97360159D01*
X117420682Y-97234718D01*
X117295241Y-97138464D01*
X117165047Y-97084536D01*
X117149162Y-97077956D01*
X117149160Y-97077955D01*
X116992401Y-97057318D01*
X116992399Y-97057318D01*
X116835639Y-97077955D01*
X116835637Y-97077956D01*
X116689560Y-97138463D01*
X116564118Y-97234718D01*
X116467863Y-97360160D01*
X116407356Y-97506237D01*
X116407355Y-97506239D01*
X116386718Y-97662998D01*
X100500500Y-97662998D01*
X100500500Y-96748598D01*
X111306718Y-96748598D01*
X111306718Y-96748601D01*
X111327355Y-96905360D01*
X111327356Y-96905362D01*
X111376347Y-97023638D01*
X111387864Y-97051441D01*
X111484118Y-97176882D01*
X111609559Y-97273136D01*
X111755638Y-97333644D01*
X111834019Y-97343963D01*
X111912399Y-97354282D01*
X111912400Y-97354282D01*
X111912401Y-97354282D01*
X111964654Y-97347402D01*
X112069162Y-97333644D01*
X112215241Y-97273136D01*
X112340682Y-97176882D01*
X112436936Y-97051441D01*
X112497444Y-96905362D01*
X112518082Y-96748600D01*
X112517518Y-96744318D01*
X112497444Y-96591839D01*
X112497444Y-96591838D01*
X112436936Y-96445759D01*
X112340682Y-96320318D01*
X112215241Y-96224064D01*
X112069162Y-96163556D01*
X112069160Y-96163555D01*
X111912401Y-96142918D01*
X111912399Y-96142918D01*
X111755639Y-96163555D01*
X111755637Y-96163556D01*
X111609560Y-96224063D01*
X111484118Y-96320318D01*
X111387863Y-96445760D01*
X111327356Y-96591837D01*
X111327355Y-96591839D01*
X111306718Y-96748598D01*
X100500500Y-96748598D01*
X100500500Y-95986598D01*
X116437518Y-95986598D01*
X116437518Y-95986601D01*
X116458155Y-96143360D01*
X116458156Y-96143362D01*
X116491583Y-96224063D01*
X116518664Y-96289441D01*
X116614918Y-96414882D01*
X116740359Y-96511136D01*
X116886438Y-96571644D01*
X116964819Y-96581963D01*
X117043199Y-96592282D01*
X117043200Y-96592282D01*
X117043201Y-96592282D01*
X117095454Y-96585402D01*
X117199962Y-96571644D01*
X117228078Y-96559998D01*
X129524318Y-96559998D01*
X129524318Y-96560001D01*
X129544955Y-96716760D01*
X129544956Y-96716762D01*
X129605464Y-96862841D01*
X129701718Y-96988282D01*
X129827159Y-97084536D01*
X129973238Y-97145044D01*
X130015729Y-97150638D01*
X130129999Y-97165682D01*
X130130000Y-97165682D01*
X130130001Y-97165682D01*
X130182254Y-97158802D01*
X130286762Y-97145044D01*
X130432841Y-97084536D01*
X130558282Y-96988282D01*
X130654536Y-96862841D01*
X130715044Y-96716762D01*
X130731490Y-96591839D01*
X130735682Y-96560001D01*
X130735682Y-96559998D01*
X130715044Y-96403239D01*
X130715044Y-96403238D01*
X130654536Y-96257159D01*
X130558282Y-96131718D01*
X130432841Y-96035464D01*
X130319602Y-95988559D01*
X130286762Y-95974956D01*
X130286760Y-95974955D01*
X130130001Y-95954318D01*
X130129999Y-95954318D01*
X129973239Y-95974955D01*
X129973237Y-95974956D01*
X129827160Y-96035463D01*
X129701718Y-96131718D01*
X129605463Y-96257160D01*
X129544956Y-96403237D01*
X129544955Y-96403239D01*
X129524318Y-96559998D01*
X117228078Y-96559998D01*
X117346041Y-96511136D01*
X117471482Y-96414882D01*
X117567736Y-96289441D01*
X117628244Y-96143362D01*
X117648882Y-95986600D01*
X117628244Y-95829838D01*
X117567736Y-95683759D01*
X117471482Y-95558318D01*
X117346041Y-95462064D01*
X117199962Y-95401556D01*
X117199960Y-95401555D01*
X117043201Y-95380918D01*
X117043199Y-95380918D01*
X116886439Y-95401555D01*
X116886437Y-95401556D01*
X116740360Y-95462063D01*
X116614918Y-95558318D01*
X116518663Y-95683760D01*
X116458156Y-95829837D01*
X116458155Y-95829839D01*
X116437518Y-95986598D01*
X100500500Y-95986598D01*
X100500500Y-90677998D01*
X116361318Y-90677998D01*
X116361318Y-90678001D01*
X116381955Y-90834760D01*
X116381956Y-90834762D01*
X116423968Y-90936189D01*
X116442464Y-90980841D01*
X116538718Y-91106282D01*
X116664159Y-91202536D01*
X116810238Y-91263044D01*
X116888619Y-91273363D01*
X116966999Y-91283682D01*
X116967000Y-91283682D01*
X116967001Y-91283682D01*
X117019254Y-91276802D01*
X117123762Y-91263044D01*
X117269841Y-91202536D01*
X117395282Y-91106282D01*
X117491536Y-90980841D01*
X117552044Y-90834762D01*
X117572682Y-90678000D01*
X117552044Y-90521238D01*
X117491536Y-90375159D01*
X117395282Y-90249718D01*
X117269841Y-90153464D01*
X117123762Y-90092956D01*
X117123760Y-90092955D01*
X116967001Y-90072318D01*
X116966999Y-90072318D01*
X116810239Y-90092955D01*
X116810237Y-90092956D01*
X116664160Y-90153463D01*
X116538718Y-90249718D01*
X116442463Y-90375160D01*
X116381956Y-90521237D01*
X116381955Y-90521239D01*
X116361318Y-90677998D01*
X100500500Y-90677998D01*
X100500500Y-89914198D01*
X111305518Y-89914198D01*
X111305518Y-89914201D01*
X111326155Y-90070960D01*
X111326156Y-90070962D01*
X111372723Y-90183386D01*
X111386664Y-90217041D01*
X111482918Y-90342482D01*
X111608359Y-90438736D01*
X111754438Y-90499244D01*
X111832819Y-90509563D01*
X111911199Y-90519882D01*
X111911200Y-90519882D01*
X111911201Y-90519882D01*
X111963454Y-90513002D01*
X112067962Y-90499244D01*
X112214041Y-90438736D01*
X112339482Y-90342482D01*
X112435736Y-90217041D01*
X112496244Y-90070962D01*
X112516882Y-89914200D01*
X112496244Y-89757438D01*
X112435736Y-89611359D01*
X112339482Y-89485918D01*
X112214041Y-89389664D01*
X112067962Y-89329156D01*
X112067960Y-89329155D01*
X111911201Y-89308518D01*
X111911199Y-89308518D01*
X111754439Y-89329155D01*
X111754437Y-89329156D01*
X111608360Y-89389663D01*
X111482918Y-89485918D01*
X111386663Y-89611360D01*
X111326156Y-89757437D01*
X111326155Y-89757439D01*
X111305518Y-89914198D01*
X100500500Y-89914198D01*
X100500500Y-89049998D01*
X116344318Y-89049998D01*
X116344318Y-89050001D01*
X116364955Y-89206760D01*
X116364956Y-89206762D01*
X116425464Y-89352841D01*
X116521718Y-89478282D01*
X116647159Y-89574536D01*
X116793238Y-89635044D01*
X116871619Y-89645363D01*
X116949999Y-89655682D01*
X116950000Y-89655682D01*
X116950001Y-89655682D01*
X117002254Y-89648802D01*
X117106762Y-89635044D01*
X117252841Y-89574536D01*
X117378282Y-89478282D01*
X117474536Y-89352841D01*
X117535044Y-89206762D01*
X117555682Y-89050000D01*
X117535044Y-88893238D01*
X117474536Y-88747159D01*
X117378282Y-88621718D01*
X117252841Y-88525464D01*
X117106762Y-88464956D01*
X117106760Y-88464955D01*
X116950001Y-88444318D01*
X116949999Y-88444318D01*
X116793239Y-88464955D01*
X116793237Y-88464956D01*
X116647160Y-88525463D01*
X116521718Y-88621718D01*
X116425463Y-88747160D01*
X116364956Y-88893237D01*
X116364955Y-88893239D01*
X116344318Y-89049998D01*
X100500500Y-89049998D01*
X100500500Y-87599998D01*
X110919318Y-87599998D01*
X110919318Y-87600001D01*
X110939955Y-87756760D01*
X110939956Y-87756762D01*
X111000464Y-87902841D01*
X111096718Y-88028282D01*
X111222159Y-88124536D01*
X111368238Y-88185044D01*
X111446619Y-88195363D01*
X111524999Y-88205682D01*
X111525000Y-88205682D01*
X111525001Y-88205682D01*
X111577254Y-88198802D01*
X111681762Y-88185044D01*
X111827841Y-88124536D01*
X111953282Y-88028282D01*
X112049536Y-87902841D01*
X112110044Y-87756762D01*
X112130682Y-87600000D01*
X112130682Y-87599998D01*
X112494318Y-87599998D01*
X112494318Y-87600001D01*
X112514955Y-87756760D01*
X112514956Y-87756762D01*
X112575464Y-87902841D01*
X112671718Y-88028282D01*
X112797159Y-88124536D01*
X112943238Y-88185044D01*
X113021619Y-88195363D01*
X113099999Y-88205682D01*
X113100000Y-88205682D01*
X113100001Y-88205682D01*
X113152254Y-88198802D01*
X113256762Y-88185044D01*
X113402841Y-88124536D01*
X113528282Y-88028282D01*
X113624536Y-87902841D01*
X113685044Y-87756762D01*
X113693834Y-87689998D01*
X125774318Y-87689998D01*
X125774318Y-87690001D01*
X125794955Y-87846760D01*
X125794956Y-87846762D01*
X125855464Y-87992841D01*
X125951718Y-88118282D01*
X126077159Y-88214536D01*
X126223238Y-88275044D01*
X126301619Y-88285363D01*
X126379999Y-88295682D01*
X126380000Y-88295682D01*
X126380001Y-88295682D01*
X126432254Y-88288802D01*
X126536762Y-88275044D01*
X126682841Y-88214536D01*
X126808282Y-88118282D01*
X126904536Y-87992841D01*
X126965044Y-87846762D01*
X126985682Y-87690000D01*
X126973833Y-87600001D01*
X126965044Y-87533239D01*
X126965044Y-87533238D01*
X126904536Y-87387159D01*
X126808282Y-87261718D01*
X126682841Y-87165464D01*
X126536762Y-87104956D01*
X126536760Y-87104955D01*
X126380001Y-87084318D01*
X126379999Y-87084318D01*
X126223239Y-87104955D01*
X126223237Y-87104956D01*
X126077160Y-87165463D01*
X125951718Y-87261718D01*
X125855463Y-87387160D01*
X125794956Y-87533237D01*
X125794955Y-87533239D01*
X125774318Y-87689998D01*
X113693834Y-87689998D01*
X113705682Y-87600000D01*
X113685044Y-87443238D01*
X113624536Y-87297159D01*
X113528282Y-87171718D01*
X113402841Y-87075464D01*
X113333263Y-87046644D01*
X113256762Y-87014956D01*
X113256760Y-87014955D01*
X113100001Y-86994318D01*
X113099999Y-86994318D01*
X112943239Y-87014955D01*
X112943237Y-87014956D01*
X112797160Y-87075463D01*
X112671718Y-87171718D01*
X112575463Y-87297160D01*
X112514956Y-87443237D01*
X112514955Y-87443239D01*
X112494318Y-87599998D01*
X112130682Y-87599998D01*
X112110044Y-87443238D01*
X112049536Y-87297159D01*
X111953282Y-87171718D01*
X111827841Y-87075464D01*
X111758263Y-87046644D01*
X111681762Y-87014956D01*
X111681760Y-87014955D01*
X111525001Y-86994318D01*
X111524999Y-86994318D01*
X111368239Y-87014955D01*
X111368237Y-87014956D01*
X111222160Y-87075463D01*
X111096718Y-87171718D01*
X111000463Y-87297160D01*
X110939956Y-87443237D01*
X110939955Y-87443239D01*
X110919318Y-87599998D01*
X100500500Y-87599998D01*
X100500500Y-84249998D01*
X102124318Y-84249998D01*
X102124318Y-84250001D01*
X102144955Y-84406760D01*
X102144956Y-84406762D01*
X102205464Y-84552841D01*
X102301718Y-84678282D01*
X102427159Y-84774536D01*
X102573238Y-84835044D01*
X102651619Y-84845363D01*
X102729999Y-84855682D01*
X102730000Y-84855682D01*
X102730001Y-84855682D01*
X102782254Y-84848802D01*
X102886762Y-84835044D01*
X103032841Y-84774536D01*
X103154515Y-84681171D01*
X103219683Y-84655979D01*
X103288127Y-84670017D01*
X103305478Y-84681167D01*
X103427159Y-84774536D01*
X103573238Y-84835044D01*
X103651619Y-84845363D01*
X103729999Y-84855682D01*
X103730000Y-84855682D01*
X103730001Y-84855682D01*
X103782254Y-84848802D01*
X103886762Y-84835044D01*
X104032841Y-84774536D01*
X104154515Y-84681171D01*
X104219683Y-84655979D01*
X104288127Y-84670017D01*
X104305478Y-84681167D01*
X104427159Y-84774536D01*
X104573238Y-84835044D01*
X104651619Y-84845363D01*
X104729999Y-84855682D01*
X104730000Y-84855682D01*
X104730001Y-84855682D01*
X104782254Y-84848802D01*
X104886762Y-84835044D01*
X105032841Y-84774536D01*
X105158282Y-84678282D01*
X105254536Y-84552841D01*
X105315044Y-84406762D01*
X105335682Y-84250000D01*
X105315044Y-84093238D01*
X105254536Y-83947159D01*
X105158282Y-83821718D01*
X105032841Y-83725464D01*
X104949898Y-83691108D01*
X104886762Y-83664956D01*
X104886760Y-83664955D01*
X104730001Y-83644318D01*
X104729999Y-83644318D01*
X104573239Y-83664955D01*
X104573237Y-83664956D01*
X104427157Y-83725464D01*
X104305486Y-83818826D01*
X104240317Y-83844020D01*
X104171872Y-83829981D01*
X104154514Y-83818826D01*
X104032842Y-83725464D01*
X103886762Y-83664956D01*
X103886760Y-83664955D01*
X103730001Y-83644318D01*
X103729999Y-83644318D01*
X103573239Y-83664955D01*
X103573237Y-83664956D01*
X103427157Y-83725464D01*
X103305486Y-83818826D01*
X103240317Y-83844020D01*
X103171872Y-83829981D01*
X103154514Y-83818826D01*
X103032842Y-83725464D01*
X102886762Y-83664956D01*
X102886760Y-83664955D01*
X102730001Y-83644318D01*
X102729999Y-83644318D01*
X102573239Y-83664955D01*
X102573237Y-83664956D01*
X102427160Y-83725463D01*
X102301718Y-83821718D01*
X102205463Y-83947160D01*
X102144956Y-84093237D01*
X102144955Y-84093239D01*
X102124318Y-84249998D01*
X100500500Y-84249998D01*
X100500500Y-82129998D01*
X121554318Y-82129998D01*
X121554318Y-82130001D01*
X121574955Y-82286760D01*
X121574956Y-82286762D01*
X121619693Y-82394768D01*
X121635464Y-82432841D01*
X121731718Y-82558282D01*
X121857159Y-82654536D01*
X122003238Y-82715044D01*
X122081619Y-82725363D01*
X122159999Y-82735682D01*
X122160000Y-82735682D01*
X122160001Y-82735682D01*
X122212254Y-82728802D01*
X122316762Y-82715044D01*
X122462841Y-82654536D01*
X122588282Y-82558282D01*
X122684536Y-82432841D01*
X122745044Y-82286762D01*
X122765682Y-82130000D01*
X122745044Y-81973238D01*
X122684536Y-81827159D01*
X122588282Y-81701718D01*
X122462841Y-81605464D01*
X122373044Y-81568269D01*
X122316762Y-81544956D01*
X122316760Y-81544955D01*
X122160001Y-81524318D01*
X122159999Y-81524318D01*
X122003239Y-81544955D01*
X122003237Y-81544956D01*
X121857160Y-81605463D01*
X121731718Y-81701718D01*
X121635463Y-81827160D01*
X121574956Y-81973237D01*
X121574955Y-81973239D01*
X121554318Y-82129998D01*
X100500500Y-82129998D01*
X100500500Y-71835337D01*
X100520185Y-71768298D01*
X100572989Y-71722543D01*
X100642147Y-71712599D01*
X100705703Y-71741624D01*
X100739693Y-71789440D01*
X100863806Y-72100944D01*
X100863815Y-72100962D01*
X101039073Y-72431533D01*
X101249045Y-72741218D01*
X101249052Y-72741228D01*
X101491272Y-73026390D01*
X101491273Y-73026391D01*
X101762913Y-73283702D01*
X102060780Y-73510135D01*
X102060785Y-73510138D01*
X102060789Y-73510141D01*
X102060794Y-73510145D01*
X102381378Y-73703032D01*
X102381383Y-73703035D01*
X102381387Y-73703036D01*
X102381391Y-73703039D01*
X102666964Y-73835159D01*
X102720962Y-73860141D01*
X103075538Y-73979612D01*
X103440951Y-74060045D01*
X103812919Y-74100499D01*
X103812925Y-74100499D01*
X104187075Y-74100499D01*
X104187081Y-74100499D01*
X104559049Y-74060045D01*
X104924462Y-73979612D01*
X105279038Y-73860141D01*
X105618617Y-73703035D01*
X105767323Y-73613562D01*
X105939205Y-73510145D01*
X105939210Y-73510141D01*
X105939209Y-73510141D01*
X105939220Y-73510135D01*
X106237087Y-73283702D01*
X106508727Y-73026391D01*
X106750954Y-72741220D01*
X106960928Y-72431530D01*
X107136189Y-72100954D01*
X107274680Y-71753367D01*
X107277941Y-71741624D01*
X107304730Y-71645133D01*
X107374779Y-71392844D01*
X107435311Y-71023612D01*
X107455568Y-70649999D01*
X107451995Y-70584107D01*
X107435311Y-70276388D01*
X107400165Y-70062006D01*
X107374779Y-69907154D01*
X107298979Y-69634148D01*
X107274682Y-69546636D01*
X107274681Y-69546634D01*
X107136193Y-69199053D01*
X107136184Y-69199035D01*
X106960926Y-68868464D01*
X106758508Y-68569920D01*
X106750954Y-68558778D01*
X106750950Y-68558773D01*
X106750947Y-68558769D01*
X106508727Y-68273607D01*
X106237087Y-68016296D01*
X106237086Y-68016295D01*
X106094176Y-67907658D01*
X105939220Y-67789863D01*
X105939216Y-67789860D01*
X105939210Y-67789856D01*
X105939205Y-67789852D01*
X105618621Y-67596965D01*
X105618608Y-67596958D01*
X105279048Y-67439861D01*
X105279043Y-67439859D01*
X105279038Y-67439857D01*
X105137026Y-67392007D01*
X105079783Y-67351948D01*
X105053283Y-67287298D01*
X105065943Y-67218585D01*
X105113742Y-67167624D01*
X105176621Y-67150499D01*
X123626000Y-67150499D01*
X123693039Y-67170184D01*
G37*
%TD.AperFunction*%
%TD*%
%TA.AperFunction,Conductor*%
%TO.N,+3.3V*%
G36*
X164535039Y-67170184D02*
G01*
X164580794Y-67222988D01*
X164592000Y-67274499D01*
X164592000Y-111636000D01*
X164572315Y-111703039D01*
X164519511Y-111748794D01*
X164468000Y-111760000D01*
X137284000Y-111760000D01*
X137216961Y-111740315D01*
X137171206Y-111687511D01*
X137160000Y-111636000D01*
X137160000Y-110362998D01*
X142650318Y-110362998D01*
X142650318Y-110363001D01*
X142670955Y-110519760D01*
X142670956Y-110519762D01*
X142731464Y-110665841D01*
X142827718Y-110791282D01*
X142953159Y-110887536D01*
X143099238Y-110948044D01*
X143177619Y-110958363D01*
X143255999Y-110968682D01*
X143256000Y-110968682D01*
X143256001Y-110968682D01*
X143308254Y-110961802D01*
X143412762Y-110948044D01*
X143558841Y-110887536D01*
X143684282Y-110791282D01*
X143780536Y-110665841D01*
X143841044Y-110519762D01*
X143861682Y-110363000D01*
X143841044Y-110206238D01*
X143780536Y-110060159D01*
X143684282Y-109934718D01*
X143558841Y-109838464D01*
X143547972Y-109833962D01*
X143412762Y-109777956D01*
X143412760Y-109777955D01*
X143256001Y-109757318D01*
X143255999Y-109757318D01*
X143099239Y-109777955D01*
X143099237Y-109777956D01*
X142953160Y-109838463D01*
X142827718Y-109934718D01*
X142731463Y-110060160D01*
X142670956Y-110206237D01*
X142670955Y-110206239D01*
X142650318Y-110362998D01*
X137160000Y-110362998D01*
X137160000Y-109677198D01*
X145418918Y-109677198D01*
X145418918Y-109677201D01*
X145439555Y-109833960D01*
X145439556Y-109833962D01*
X145481290Y-109934718D01*
X145500064Y-109980041D01*
X145596318Y-110105482D01*
X145721759Y-110201736D01*
X145867838Y-110262244D01*
X145946219Y-110272563D01*
X146024599Y-110282882D01*
X146024600Y-110282882D01*
X146024601Y-110282882D01*
X146076854Y-110276002D01*
X146181362Y-110262244D01*
X146327441Y-110201736D01*
X146452882Y-110105482D01*
X146549136Y-109980041D01*
X146609644Y-109833962D01*
X146630282Y-109677200D01*
X146626938Y-109651798D01*
X147984318Y-109651798D01*
X147984318Y-109651801D01*
X148004955Y-109808560D01*
X148004956Y-109808562D01*
X148057211Y-109934718D01*
X148065464Y-109954641D01*
X148161718Y-110080082D01*
X148287159Y-110176336D01*
X148433238Y-110236844D01*
X148511619Y-110247163D01*
X148589999Y-110257482D01*
X148590000Y-110257482D01*
X148590001Y-110257482D01*
X148642254Y-110250602D01*
X148746762Y-110236844D01*
X148892841Y-110176336D01*
X149018282Y-110080082D01*
X149114536Y-109954641D01*
X149175044Y-109808562D01*
X149195682Y-109651800D01*
X149175044Y-109495038D01*
X149114536Y-109348959D01*
X149018282Y-109223518D01*
X148892841Y-109127264D01*
X148746762Y-109066756D01*
X148746760Y-109066755D01*
X148590001Y-109046118D01*
X148589999Y-109046118D01*
X148433239Y-109066755D01*
X148433237Y-109066756D01*
X148287160Y-109127263D01*
X148161718Y-109223518D01*
X148065463Y-109348960D01*
X148004956Y-109495037D01*
X148004955Y-109495039D01*
X147984318Y-109651798D01*
X146626938Y-109651798D01*
X146609644Y-109520438D01*
X146549136Y-109374359D01*
X146452882Y-109248918D01*
X146327441Y-109152664D01*
X146181362Y-109092156D01*
X146181360Y-109092155D01*
X146024601Y-109071518D01*
X146024599Y-109071518D01*
X145867839Y-109092155D01*
X145867837Y-109092156D01*
X145721760Y-109152663D01*
X145596318Y-109248918D01*
X145500063Y-109374360D01*
X145439556Y-109520437D01*
X145439555Y-109520439D01*
X145418918Y-109677198D01*
X137160000Y-109677198D01*
X137160000Y-107264198D01*
X151337118Y-107264198D01*
X151337118Y-107264201D01*
X151357755Y-107420960D01*
X151357756Y-107420962D01*
X151418264Y-107567041D01*
X151514518Y-107692482D01*
X151639959Y-107788736D01*
X151786038Y-107849244D01*
X151864419Y-107859563D01*
X151942799Y-107869882D01*
X151942800Y-107869882D01*
X151942801Y-107869882D01*
X151995054Y-107863002D01*
X152099562Y-107849244D01*
X152245641Y-107788736D01*
X152371082Y-107692482D01*
X152467336Y-107567041D01*
X152527844Y-107420962D01*
X152548482Y-107264200D01*
X152527844Y-107107438D01*
X152467336Y-106961359D01*
X152371082Y-106835918D01*
X152245641Y-106739664D01*
X152099562Y-106679156D01*
X152099560Y-106679155D01*
X151942801Y-106658518D01*
X151942799Y-106658518D01*
X151786039Y-106679155D01*
X151786037Y-106679156D01*
X151639960Y-106739663D01*
X151514518Y-106835918D01*
X151418263Y-106961360D01*
X151357756Y-107107437D01*
X151357755Y-107107439D01*
X151337118Y-107264198D01*
X137160000Y-107264198D01*
X137160000Y-104724198D01*
X146688918Y-104724198D01*
X146688918Y-104724201D01*
X146709555Y-104880960D01*
X146709556Y-104880962D01*
X146770064Y-105027041D01*
X146866318Y-105152482D01*
X146991759Y-105248736D01*
X147137838Y-105309244D01*
X147216219Y-105319563D01*
X147294599Y-105329882D01*
X147294600Y-105329882D01*
X147294601Y-105329882D01*
X147346854Y-105323002D01*
X147451362Y-105309244D01*
X147597441Y-105248736D01*
X147722882Y-105152482D01*
X147819136Y-105027041D01*
X147879644Y-104880962D01*
X147900282Y-104724200D01*
X147879644Y-104567438D01*
X147819136Y-104421359D01*
X147722882Y-104295918D01*
X147597441Y-104199664D01*
X147451362Y-104139156D01*
X147451360Y-104139155D01*
X147294601Y-104118518D01*
X147294599Y-104118518D01*
X147137839Y-104139155D01*
X147137837Y-104139156D01*
X146991760Y-104199663D01*
X146866318Y-104295918D01*
X146770063Y-104421360D01*
X146709556Y-104567437D01*
X146709555Y-104567439D01*
X146688918Y-104724198D01*
X137160000Y-104724198D01*
X137160000Y-102688937D01*
X144749518Y-102688937D01*
X144749518Y-102688940D01*
X144770155Y-102845699D01*
X144770156Y-102845701D01*
X144830664Y-102991780D01*
X144926918Y-103117221D01*
X145052359Y-103213475D01*
X145198438Y-103273983D01*
X145276819Y-103284302D01*
X145355199Y-103294621D01*
X145355200Y-103294621D01*
X145355201Y-103294621D01*
X145407454Y-103287741D01*
X145511962Y-103273983D01*
X145658041Y-103213475D01*
X145783482Y-103117221D01*
X145879736Y-102991780D01*
X145940244Y-102845701D01*
X145960882Y-102688939D01*
X145953435Y-102632374D01*
X148577518Y-102632374D01*
X148577518Y-102632377D01*
X148598155Y-102789136D01*
X148598156Y-102789138D01*
X148658664Y-102935217D01*
X148754918Y-103060658D01*
X148880359Y-103156912D01*
X149026438Y-103217420D01*
X149104819Y-103227739D01*
X149183199Y-103238058D01*
X149183200Y-103238058D01*
X149183201Y-103238058D01*
X149235454Y-103231178D01*
X149339962Y-103217420D01*
X149486041Y-103156912D01*
X149611482Y-103060658D01*
X149707736Y-102935217D01*
X149734751Y-102869998D01*
X152759518Y-102869998D01*
X152759518Y-102870001D01*
X152780155Y-103026760D01*
X152780156Y-103026762D01*
X152840664Y-103172841D01*
X152936918Y-103298282D01*
X153062359Y-103394536D01*
X153208438Y-103455044D01*
X153286819Y-103465363D01*
X153365199Y-103475682D01*
X153365200Y-103475682D01*
X153365201Y-103475682D01*
X153417454Y-103468802D01*
X153521962Y-103455044D01*
X153668041Y-103394536D01*
X153793482Y-103298282D01*
X153889736Y-103172841D01*
X153950244Y-103026762D01*
X153970882Y-102870000D01*
X153950244Y-102713238D01*
X153889736Y-102567159D01*
X153793482Y-102441718D01*
X153668041Y-102345464D01*
X153629587Y-102329536D01*
X153521962Y-102284956D01*
X153521960Y-102284955D01*
X153365201Y-102264318D01*
X153365199Y-102264318D01*
X153208439Y-102284955D01*
X153208437Y-102284956D01*
X153062360Y-102345463D01*
X152936918Y-102441718D01*
X152840663Y-102567160D01*
X152780156Y-102713237D01*
X152780155Y-102713239D01*
X152759518Y-102869998D01*
X149734751Y-102869998D01*
X149768244Y-102789138D01*
X149788882Y-102632376D01*
X149775690Y-102532176D01*
X149768244Y-102475615D01*
X149768244Y-102475614D01*
X149707736Y-102329535D01*
X149611482Y-102204094D01*
X149486041Y-102107840D01*
X149426692Y-102083257D01*
X149339962Y-102047332D01*
X149339960Y-102047331D01*
X149183201Y-102026694D01*
X149183199Y-102026694D01*
X149026439Y-102047331D01*
X149026437Y-102047332D01*
X148880360Y-102107839D01*
X148754918Y-102204094D01*
X148658663Y-102329536D01*
X148598156Y-102475613D01*
X148598155Y-102475615D01*
X148577518Y-102632374D01*
X145953435Y-102632374D01*
X145940244Y-102532177D01*
X145879736Y-102386098D01*
X145783482Y-102260657D01*
X145658041Y-102164403D01*
X145511962Y-102103895D01*
X145511960Y-102103894D01*
X145355201Y-102083257D01*
X145355199Y-102083257D01*
X145198439Y-102103894D01*
X145198437Y-102103895D01*
X145052360Y-102164402D01*
X144926918Y-102260657D01*
X144830663Y-102386099D01*
X144770156Y-102532176D01*
X144770155Y-102532178D01*
X144749518Y-102688937D01*
X137160000Y-102688937D01*
X137160000Y-100279198D01*
X142167718Y-100279198D01*
X142167718Y-100279201D01*
X142188355Y-100435960D01*
X142188356Y-100435962D01*
X142248864Y-100582041D01*
X142345118Y-100707482D01*
X142470559Y-100803736D01*
X142616638Y-100864244D01*
X142695019Y-100874563D01*
X142773399Y-100884882D01*
X142773400Y-100884882D01*
X142773401Y-100884882D01*
X142825654Y-100878002D01*
X142930162Y-100864244D01*
X143076241Y-100803736D01*
X143201682Y-100707482D01*
X143297936Y-100582041D01*
X143349731Y-100456998D01*
X150803718Y-100456998D01*
X150803718Y-100457001D01*
X150824355Y-100613760D01*
X150824356Y-100613762D01*
X150884864Y-100759841D01*
X150981118Y-100885282D01*
X151106559Y-100981536D01*
X151252638Y-101042044D01*
X151331019Y-101052363D01*
X151409399Y-101062682D01*
X151409400Y-101062682D01*
X151409401Y-101062682D01*
X151461654Y-101055802D01*
X151566162Y-101042044D01*
X151712241Y-100981536D01*
X151837682Y-100885282D01*
X151933936Y-100759841D01*
X151994444Y-100613762D01*
X152015082Y-100457000D01*
X152012312Y-100435962D01*
X151994444Y-100300239D01*
X151994444Y-100300238D01*
X151933936Y-100154159D01*
X151837682Y-100028718D01*
X151712241Y-99932464D01*
X151682348Y-99920082D01*
X151566162Y-99871956D01*
X151566160Y-99871955D01*
X151409401Y-99851318D01*
X151409399Y-99851318D01*
X151252639Y-99871955D01*
X151252637Y-99871956D01*
X151106560Y-99932463D01*
X150981118Y-100028718D01*
X150884863Y-100154160D01*
X150824356Y-100300237D01*
X150824355Y-100300239D01*
X150803718Y-100456998D01*
X143349731Y-100456998D01*
X143358444Y-100435962D01*
X143376312Y-100300238D01*
X143379082Y-100279201D01*
X143379082Y-100279198D01*
X143358444Y-100122439D01*
X143358444Y-100122438D01*
X143297936Y-99976359D01*
X143201682Y-99850918D01*
X143076241Y-99754664D01*
X142930162Y-99694156D01*
X142930160Y-99694155D01*
X142773401Y-99673518D01*
X142773399Y-99673518D01*
X142616639Y-99694155D01*
X142616637Y-99694156D01*
X142470560Y-99754663D01*
X142345118Y-99850918D01*
X142248863Y-99976360D01*
X142188356Y-100122437D01*
X142188355Y-100122439D01*
X142167718Y-100279198D01*
X137160000Y-100279198D01*
X137160000Y-99491798D01*
X157001318Y-99491798D01*
X157001318Y-99491801D01*
X157021955Y-99648560D01*
X157021956Y-99648562D01*
X157065904Y-99754663D01*
X157082464Y-99794641D01*
X157178718Y-99920082D01*
X157304159Y-100016336D01*
X157450238Y-100076844D01*
X157528619Y-100087163D01*
X157606999Y-100097482D01*
X157607000Y-100097482D01*
X157607001Y-100097482D01*
X157659254Y-100090602D01*
X157763762Y-100076844D01*
X157909841Y-100016336D01*
X158035282Y-99920082D01*
X158131536Y-99794641D01*
X158192044Y-99648562D01*
X158212682Y-99491800D01*
X158192044Y-99335038D01*
X158131536Y-99188959D01*
X158035282Y-99063518D01*
X157909841Y-98967264D01*
X157763762Y-98906756D01*
X157763760Y-98906755D01*
X157607001Y-98886118D01*
X157606999Y-98886118D01*
X157450239Y-98906755D01*
X157450237Y-98906756D01*
X157304160Y-98967263D01*
X157178718Y-99063518D01*
X157082463Y-99188960D01*
X157021956Y-99335037D01*
X157021955Y-99335039D01*
X157001318Y-99491798D01*
X137160000Y-99491798D01*
X137160000Y-98678998D01*
X144174318Y-98678998D01*
X144174318Y-98679001D01*
X144194955Y-98835760D01*
X144194956Y-98835762D01*
X144249425Y-98967263D01*
X144255464Y-98981841D01*
X144351718Y-99107282D01*
X144477159Y-99203536D01*
X144623238Y-99264044D01*
X144701619Y-99274363D01*
X144779999Y-99284682D01*
X144780000Y-99284682D01*
X144780001Y-99284682D01*
X144832254Y-99277802D01*
X144936762Y-99264044D01*
X145082841Y-99203536D01*
X145208282Y-99107282D01*
X145304536Y-98981841D01*
X145365044Y-98835762D01*
X145378994Y-98729798D01*
X148797118Y-98729798D01*
X148797118Y-98729801D01*
X148817755Y-98886560D01*
X148817756Y-98886562D01*
X148866931Y-99005282D01*
X148878264Y-99032641D01*
X148974518Y-99158082D01*
X149099959Y-99254336D01*
X149246038Y-99314844D01*
X149324419Y-99325163D01*
X149402799Y-99335482D01*
X149402800Y-99335482D01*
X149402801Y-99335482D01*
X149455054Y-99328602D01*
X149559562Y-99314844D01*
X149705641Y-99254336D01*
X149831082Y-99158082D01*
X149927336Y-99032641D01*
X149987844Y-98886562D01*
X150008482Y-98729800D01*
X149987844Y-98573038D01*
X149927336Y-98426959D01*
X149906341Y-98399598D01*
X150803718Y-98399598D01*
X150803718Y-98399601D01*
X150824355Y-98556360D01*
X150824356Y-98556362D01*
X150875153Y-98678998D01*
X150884864Y-98702441D01*
X150981118Y-98827882D01*
X151106559Y-98924136D01*
X151252638Y-98984644D01*
X151331019Y-98994963D01*
X151409399Y-99005282D01*
X151409400Y-99005282D01*
X151409401Y-99005282D01*
X151461654Y-98998402D01*
X151566162Y-98984644D01*
X151712241Y-98924136D01*
X151837682Y-98827882D01*
X151933936Y-98702441D01*
X151994444Y-98556362D01*
X152015082Y-98399600D01*
X151994444Y-98242838D01*
X151933936Y-98096759D01*
X151837682Y-97971318D01*
X151712241Y-97875064D01*
X151710966Y-97874536D01*
X151566162Y-97814556D01*
X151566160Y-97814555D01*
X151409401Y-97793918D01*
X151409399Y-97793918D01*
X151252639Y-97814555D01*
X151252637Y-97814556D01*
X151106560Y-97875063D01*
X150981118Y-97971318D01*
X150884863Y-98096760D01*
X150824356Y-98242837D01*
X150824355Y-98242839D01*
X150803718Y-98399598D01*
X149906341Y-98399598D01*
X149831082Y-98301518D01*
X149705641Y-98205264D01*
X149559562Y-98144756D01*
X149559560Y-98144755D01*
X149402801Y-98124118D01*
X149402799Y-98124118D01*
X149246039Y-98144755D01*
X149246037Y-98144756D01*
X149099960Y-98205263D01*
X148974518Y-98301518D01*
X148878263Y-98426960D01*
X148817756Y-98573037D01*
X148817755Y-98573039D01*
X148797118Y-98729798D01*
X145378994Y-98729798D01*
X145385682Y-98679000D01*
X145365044Y-98522238D01*
X145304536Y-98376159D01*
X145208282Y-98250718D01*
X145082841Y-98154464D01*
X145059401Y-98144755D01*
X144936762Y-98093956D01*
X144936760Y-98093955D01*
X144780001Y-98073318D01*
X144779999Y-98073318D01*
X144623239Y-98093955D01*
X144623237Y-98093956D01*
X144477160Y-98154463D01*
X144351718Y-98250718D01*
X144255463Y-98376160D01*
X144194956Y-98522237D01*
X144194955Y-98522239D01*
X144174318Y-98678998D01*
X137160000Y-98678998D01*
X137160000Y-98323400D01*
X137159999Y-98323399D01*
X132457347Y-98298649D01*
X132390412Y-98278612D01*
X132344936Y-98225568D01*
X132334000Y-98174651D01*
X132334000Y-97349998D01*
X133294318Y-97349998D01*
X133294318Y-97350001D01*
X133314955Y-97506760D01*
X133314956Y-97506762D01*
X133375464Y-97652841D01*
X133471718Y-97778282D01*
X133597159Y-97874536D01*
X133743238Y-97935044D01*
X133821619Y-97945363D01*
X133899999Y-97955682D01*
X133900000Y-97955682D01*
X133900001Y-97955682D01*
X133952254Y-97948802D01*
X134056762Y-97935044D01*
X134202841Y-97874536D01*
X134328282Y-97778282D01*
X134424536Y-97652841D01*
X134441371Y-97612198D01*
X140694518Y-97612198D01*
X140694518Y-97612201D01*
X140715155Y-97768960D01*
X140715156Y-97768962D01*
X140774852Y-97913082D01*
X140775664Y-97915041D01*
X140871918Y-98040482D01*
X140997359Y-98136736D01*
X141143438Y-98197244D01*
X141204349Y-98205263D01*
X141300199Y-98217882D01*
X141300200Y-98217882D01*
X141300201Y-98217882D01*
X141352454Y-98211002D01*
X141456962Y-98197244D01*
X141603041Y-98136736D01*
X141728482Y-98040482D01*
X141824736Y-97915041D01*
X141885244Y-97768962D01*
X141905882Y-97612200D01*
X141885244Y-97455438D01*
X141824736Y-97309359D01*
X141823231Y-97307398D01*
X157026718Y-97307398D01*
X157026718Y-97307401D01*
X157047355Y-97464160D01*
X157047356Y-97464162D01*
X157065001Y-97506762D01*
X157107864Y-97610241D01*
X157204118Y-97735682D01*
X157329559Y-97831936D01*
X157475638Y-97892444D01*
X157554019Y-97902763D01*
X157632399Y-97913082D01*
X157632400Y-97913082D01*
X157632401Y-97913082D01*
X157684654Y-97906202D01*
X157789162Y-97892444D01*
X157935241Y-97831936D01*
X158060682Y-97735682D01*
X158156936Y-97610241D01*
X158217444Y-97464162D01*
X158238082Y-97307400D01*
X158217444Y-97150638D01*
X158156936Y-97004559D01*
X158060682Y-96879118D01*
X157935241Y-96782864D01*
X157892007Y-96764956D01*
X157789162Y-96722356D01*
X157789160Y-96722355D01*
X157632401Y-96701718D01*
X157632399Y-96701718D01*
X157475639Y-96722355D01*
X157475637Y-96722356D01*
X157329560Y-96782863D01*
X157204118Y-96879118D01*
X157107863Y-97004560D01*
X157047356Y-97150637D01*
X157047355Y-97150639D01*
X157026718Y-97307398D01*
X141823231Y-97307398D01*
X141728482Y-97183918D01*
X141603041Y-97087664D01*
X141595489Y-97084536D01*
X141456962Y-97027156D01*
X141456960Y-97027155D01*
X141300201Y-97006518D01*
X141300199Y-97006518D01*
X141143439Y-97027155D01*
X141143437Y-97027156D01*
X140997360Y-97087663D01*
X140871918Y-97183918D01*
X140775663Y-97309360D01*
X140715156Y-97455437D01*
X140715155Y-97455439D01*
X140694518Y-97612198D01*
X134441371Y-97612198D01*
X134485044Y-97506762D01*
X134505682Y-97350000D01*
X134500073Y-97307398D01*
X134485044Y-97193239D01*
X134485044Y-97193238D01*
X134424536Y-97047159D01*
X134328282Y-96921718D01*
X134202841Y-96825464D01*
X134056762Y-96764956D01*
X134056760Y-96764955D01*
X133900001Y-96744318D01*
X133899999Y-96744318D01*
X133743239Y-96764955D01*
X133743237Y-96764956D01*
X133597160Y-96825463D01*
X133471718Y-96921718D01*
X133375463Y-97047160D01*
X133314956Y-97193237D01*
X133314955Y-97193239D01*
X133294318Y-97349998D01*
X132334000Y-97349998D01*
X132334000Y-94437198D01*
X159922318Y-94437198D01*
X159922318Y-94437201D01*
X159942955Y-94593960D01*
X159942956Y-94593962D01*
X160003464Y-94740041D01*
X160099718Y-94865482D01*
X160225159Y-94961736D01*
X160371238Y-95022244D01*
X160449619Y-95032563D01*
X160527999Y-95042882D01*
X160528000Y-95042882D01*
X160528001Y-95042882D01*
X160580254Y-95036002D01*
X160684762Y-95022244D01*
X160830841Y-94961736D01*
X160956282Y-94865482D01*
X161052536Y-94740041D01*
X161113044Y-94593962D01*
X161133682Y-94437200D01*
X161113044Y-94280438D01*
X161052536Y-94134359D01*
X160956282Y-94008918D01*
X160830841Y-93912664D01*
X160684762Y-93852156D01*
X160684760Y-93852155D01*
X160528001Y-93831518D01*
X160527999Y-93831518D01*
X160371239Y-93852155D01*
X160371237Y-93852156D01*
X160225160Y-93912663D01*
X160099718Y-94008918D01*
X160003463Y-94134360D01*
X159942956Y-94280437D01*
X159942955Y-94280439D01*
X159922318Y-94437198D01*
X132334000Y-94437198D01*
X132334000Y-93167198D01*
X143031318Y-93167198D01*
X143031318Y-93167201D01*
X143051955Y-93323960D01*
X143051956Y-93323962D01*
X143112464Y-93470041D01*
X143208718Y-93595482D01*
X143334159Y-93691736D01*
X143480238Y-93752244D01*
X143558619Y-93762563D01*
X143636999Y-93772882D01*
X143637000Y-93772882D01*
X143637001Y-93772882D01*
X143689254Y-93766002D01*
X143793762Y-93752244D01*
X143939841Y-93691736D01*
X144065282Y-93595482D01*
X144161536Y-93470041D01*
X144222044Y-93323962D01*
X144242682Y-93167200D01*
X144242682Y-93167198D01*
X147349318Y-93167198D01*
X147349318Y-93167201D01*
X147369955Y-93323960D01*
X147369956Y-93323962D01*
X147430464Y-93470041D01*
X147526718Y-93595482D01*
X147652159Y-93691736D01*
X147798238Y-93752244D01*
X147876619Y-93762563D01*
X147954999Y-93772882D01*
X147955000Y-93772882D01*
X147955001Y-93772882D01*
X148007254Y-93766002D01*
X148111762Y-93752244D01*
X148257841Y-93691736D01*
X148383282Y-93595482D01*
X148479536Y-93470041D01*
X148540044Y-93323962D01*
X148553994Y-93217998D01*
X151845118Y-93217998D01*
X151845118Y-93218001D01*
X151865755Y-93374760D01*
X151865756Y-93374762D01*
X151925268Y-93518438D01*
X151926264Y-93520841D01*
X152022518Y-93646282D01*
X152147959Y-93742536D01*
X152294038Y-93803044D01*
X152372419Y-93813363D01*
X152450799Y-93823682D01*
X152450800Y-93823682D01*
X152450801Y-93823682D01*
X152503054Y-93816802D01*
X152607562Y-93803044D01*
X152753641Y-93742536D01*
X152841398Y-93675198D01*
X154867718Y-93675198D01*
X154867718Y-93675201D01*
X154888355Y-93831960D01*
X154888356Y-93831962D01*
X154921783Y-93912663D01*
X154948864Y-93978041D01*
X155045118Y-94103482D01*
X155170559Y-94199736D01*
X155316638Y-94260244D01*
X155395019Y-94270563D01*
X155473399Y-94280882D01*
X155473400Y-94280882D01*
X155473401Y-94280882D01*
X155525654Y-94274002D01*
X155630162Y-94260244D01*
X155776241Y-94199736D01*
X155901682Y-94103482D01*
X155997936Y-93978041D01*
X156058444Y-93831962D01*
X156079082Y-93675200D01*
X156058444Y-93518438D01*
X155997936Y-93372359D01*
X155901682Y-93246918D01*
X155776241Y-93150664D01*
X155630162Y-93090156D01*
X155630160Y-93090155D01*
X155473401Y-93069518D01*
X155473399Y-93069518D01*
X155316639Y-93090155D01*
X155316637Y-93090156D01*
X155170560Y-93150663D01*
X155045118Y-93246918D01*
X154948863Y-93372360D01*
X154888356Y-93518437D01*
X154888355Y-93518439D01*
X154867718Y-93675198D01*
X152841398Y-93675198D01*
X152879082Y-93646282D01*
X152975336Y-93520841D01*
X153035844Y-93374762D01*
X153056482Y-93218000D01*
X153035844Y-93061238D01*
X152975336Y-92915159D01*
X152879082Y-92789718D01*
X152753641Y-92693464D01*
X152607562Y-92632956D01*
X152607560Y-92632955D01*
X152450801Y-92612318D01*
X152450799Y-92612318D01*
X152294039Y-92632955D01*
X152294037Y-92632956D01*
X152147960Y-92693463D01*
X152022518Y-92789718D01*
X151926263Y-92915160D01*
X151865756Y-93061237D01*
X151865755Y-93061239D01*
X151845118Y-93217998D01*
X148553994Y-93217998D01*
X148560682Y-93167200D01*
X148540044Y-93010438D01*
X148479536Y-92864359D01*
X148383282Y-92738918D01*
X148257841Y-92642664D01*
X148234401Y-92632955D01*
X148111762Y-92582156D01*
X148111760Y-92582155D01*
X147955001Y-92561518D01*
X147954999Y-92561518D01*
X147798239Y-92582155D01*
X147798237Y-92582156D01*
X147652160Y-92642663D01*
X147526718Y-92738918D01*
X147430463Y-92864360D01*
X147369956Y-93010437D01*
X147369955Y-93010439D01*
X147349318Y-93167198D01*
X144242682Y-93167198D01*
X144222044Y-93010438D01*
X144161536Y-92864359D01*
X144065282Y-92738918D01*
X143939841Y-92642664D01*
X143916401Y-92632955D01*
X143793762Y-92582156D01*
X143793760Y-92582155D01*
X143637001Y-92561518D01*
X143636999Y-92561518D01*
X143480239Y-92582155D01*
X143480237Y-92582156D01*
X143334160Y-92642663D01*
X143208718Y-92738918D01*
X143112463Y-92864360D01*
X143051956Y-93010437D01*
X143051955Y-93010439D01*
X143031318Y-93167198D01*
X132334000Y-93167198D01*
X132334000Y-90305798D01*
X160421518Y-90305798D01*
X160421518Y-90305801D01*
X160442155Y-90462560D01*
X160442156Y-90462562D01*
X160502664Y-90608641D01*
X160598918Y-90734082D01*
X160724359Y-90830336D01*
X160870438Y-90890844D01*
X160948819Y-90901163D01*
X161027199Y-90911482D01*
X161027200Y-90911482D01*
X161027201Y-90911482D01*
X161079454Y-90904602D01*
X161183962Y-90890844D01*
X161330041Y-90830336D01*
X161455482Y-90734082D01*
X161551736Y-90608641D01*
X161612244Y-90462562D01*
X161632882Y-90305800D01*
X161612244Y-90149038D01*
X161551736Y-90002959D01*
X161455482Y-89877518D01*
X161330041Y-89781264D01*
X161183962Y-89720756D01*
X161183960Y-89720755D01*
X161027201Y-89700118D01*
X161027199Y-89700118D01*
X160870439Y-89720755D01*
X160870437Y-89720756D01*
X160724360Y-89781263D01*
X160598918Y-89877518D01*
X160502663Y-90002960D01*
X160442156Y-90149037D01*
X160442155Y-90149039D01*
X160421518Y-90305798D01*
X132334000Y-90305798D01*
X132334000Y-86461598D01*
X136833718Y-86461598D01*
X136833718Y-86461601D01*
X136854355Y-86618360D01*
X136854356Y-86618362D01*
X136914864Y-86764441D01*
X137011118Y-86889882D01*
X137136559Y-86986136D01*
X137282638Y-87046644D01*
X137361019Y-87056963D01*
X137439399Y-87067282D01*
X137439400Y-87067282D01*
X137439401Y-87067282D01*
X137491654Y-87060402D01*
X137596162Y-87046644D01*
X137742241Y-86986136D01*
X137867682Y-86889882D01*
X137963936Y-86764441D01*
X138024444Y-86618362D01*
X138045082Y-86461600D01*
X138024444Y-86304838D01*
X137963936Y-86158759D01*
X137867682Y-86033318D01*
X137742241Y-85937064D01*
X137596162Y-85876556D01*
X137596160Y-85876555D01*
X137439401Y-85855918D01*
X137439399Y-85855918D01*
X137282639Y-85876555D01*
X137282637Y-85876556D01*
X137136560Y-85937063D01*
X137011118Y-86033318D01*
X136914863Y-86158760D01*
X136854356Y-86304837D01*
X136854355Y-86304839D01*
X136833718Y-86461598D01*
X132334000Y-86461598D01*
X132334000Y-85344000D01*
X128263348Y-85344000D01*
X128196309Y-85324315D01*
X128150554Y-85271511D01*
X128140610Y-85202353D01*
X128169635Y-85138797D01*
X128187856Y-85121628D01*
X128218282Y-85098282D01*
X128314536Y-84972841D01*
X128375044Y-84826762D01*
X128395682Y-84670000D01*
X128375044Y-84513238D01*
X128314536Y-84367159D01*
X128218282Y-84241718D01*
X128092841Y-84145464D01*
X127946762Y-84084956D01*
X127946760Y-84084955D01*
X127790001Y-84064318D01*
X127789999Y-84064318D01*
X127633239Y-84084955D01*
X127633237Y-84084956D01*
X127487160Y-84145463D01*
X127361718Y-84241718D01*
X127265463Y-84367160D01*
X127204956Y-84513237D01*
X127204955Y-84513239D01*
X127184318Y-84669998D01*
X127184318Y-84670001D01*
X127204955Y-84826760D01*
X127204956Y-84826762D01*
X127265464Y-84972841D01*
X127361718Y-85098282D01*
X127392140Y-85121625D01*
X127433341Y-85178052D01*
X127437496Y-85247798D01*
X127403283Y-85308719D01*
X127341566Y-85341471D01*
X127316652Y-85344000D01*
X125092000Y-85344000D01*
X125024961Y-85324315D01*
X124979206Y-85271511D01*
X124968000Y-85220000D01*
X124968000Y-83718398D01*
X159947718Y-83718398D01*
X159947718Y-83718401D01*
X159968355Y-83875160D01*
X159968356Y-83875162D01*
X160028864Y-84021241D01*
X160125118Y-84146682D01*
X160250559Y-84242936D01*
X160396638Y-84303444D01*
X160475019Y-84313763D01*
X160553399Y-84324082D01*
X160553400Y-84324082D01*
X160553401Y-84324082D01*
X160605654Y-84317202D01*
X160710162Y-84303444D01*
X160856241Y-84242936D01*
X160981682Y-84146682D01*
X161077936Y-84021241D01*
X161138444Y-83875162D01*
X161159082Y-83718400D01*
X161138444Y-83561638D01*
X161077936Y-83415559D01*
X160981682Y-83290118D01*
X160856241Y-83193864D01*
X160710162Y-83133356D01*
X160710160Y-83133355D01*
X160553401Y-83112718D01*
X160553399Y-83112718D01*
X160396639Y-83133355D01*
X160396637Y-83133356D01*
X160250560Y-83193863D01*
X160125118Y-83290118D01*
X160028863Y-83415560D01*
X159968356Y-83561637D01*
X159968355Y-83561639D01*
X159947718Y-83718398D01*
X124968000Y-83718398D01*
X124968000Y-82680092D01*
X129049500Y-82680092D01*
X129049500Y-82829907D01*
X129078723Y-82976822D01*
X129078725Y-82976830D01*
X129136051Y-83115229D01*
X129136056Y-83115238D01*
X129219280Y-83239790D01*
X129219283Y-83239794D01*
X129325205Y-83345716D01*
X129325209Y-83345719D01*
X129449761Y-83428943D01*
X129449767Y-83428946D01*
X129449768Y-83428947D01*
X129588170Y-83486275D01*
X129735092Y-83515499D01*
X129735096Y-83515500D01*
X129735097Y-83515500D01*
X129884904Y-83515500D01*
X129884905Y-83515499D01*
X130031830Y-83486275D01*
X130170232Y-83428947D01*
X130294791Y-83345719D01*
X130400719Y-83239791D01*
X130483947Y-83115232D01*
X130541275Y-82976830D01*
X130570500Y-82829903D01*
X130570500Y-82680097D01*
X130541275Y-82533170D01*
X130483947Y-82394768D01*
X130483946Y-82394767D01*
X130483943Y-82394761D01*
X130400719Y-82270209D01*
X130400716Y-82270205D01*
X130299509Y-82168998D01*
X154689918Y-82168998D01*
X154689918Y-82169001D01*
X154710555Y-82325760D01*
X154710556Y-82325762D01*
X154750651Y-82422561D01*
X154771064Y-82471841D01*
X154867318Y-82597282D01*
X154992759Y-82693536D01*
X155138838Y-82754044D01*
X155217219Y-82764363D01*
X155295599Y-82774682D01*
X155295600Y-82774682D01*
X155295601Y-82774682D01*
X155347854Y-82767802D01*
X155452362Y-82754044D01*
X155598441Y-82693536D01*
X155723882Y-82597282D01*
X155820136Y-82471841D01*
X155880644Y-82325762D01*
X155888539Y-82265797D01*
X161994318Y-82265797D01*
X161994318Y-82265800D01*
X162014955Y-82422559D01*
X162014956Y-82422561D01*
X162075464Y-82568640D01*
X162171718Y-82694081D01*
X162297159Y-82790335D01*
X162443238Y-82850843D01*
X162521619Y-82861162D01*
X162599999Y-82871481D01*
X162600000Y-82871481D01*
X162600001Y-82871481D01*
X162652254Y-82864601D01*
X162756762Y-82850843D01*
X162902841Y-82790335D01*
X163028282Y-82694081D01*
X163124536Y-82568640D01*
X163185044Y-82422561D01*
X163198802Y-82318053D01*
X163205682Y-82265800D01*
X163205682Y-82265797D01*
X163185044Y-82109038D01*
X163185044Y-82109037D01*
X163124536Y-81962958D01*
X163028282Y-81837517D01*
X162902841Y-81741263D01*
X162901525Y-81740718D01*
X162756762Y-81680755D01*
X162756760Y-81680754D01*
X162600001Y-81660117D01*
X162599999Y-81660117D01*
X162443239Y-81680754D01*
X162443237Y-81680755D01*
X162297160Y-81741262D01*
X162171718Y-81837517D01*
X162075463Y-81962959D01*
X162014956Y-82109036D01*
X162014955Y-82109038D01*
X161994318Y-82265797D01*
X155888539Y-82265797D01*
X155901282Y-82169000D01*
X155880644Y-82012238D01*
X155820136Y-81866159D01*
X155723882Y-81740718D01*
X155598441Y-81644464D01*
X155452362Y-81583956D01*
X155452360Y-81583955D01*
X155295601Y-81563318D01*
X155295599Y-81563318D01*
X155138839Y-81583955D01*
X155138837Y-81583956D01*
X154992760Y-81644463D01*
X154867318Y-81740718D01*
X154771063Y-81866160D01*
X154710556Y-82012237D01*
X154710555Y-82012239D01*
X154689918Y-82168998D01*
X130299509Y-82168998D01*
X130294794Y-82164283D01*
X130294790Y-82164280D01*
X130170238Y-82081056D01*
X130170229Y-82081051D01*
X130031830Y-82023725D01*
X130031822Y-82023723D01*
X129884907Y-81994500D01*
X129884903Y-81994500D01*
X129735097Y-81994500D01*
X129735092Y-81994500D01*
X129588177Y-82023723D01*
X129588169Y-82023725D01*
X129449770Y-82081051D01*
X129449761Y-82081056D01*
X129325209Y-82164280D01*
X129325205Y-82164283D01*
X129219283Y-82270205D01*
X129219280Y-82270209D01*
X129136056Y-82394761D01*
X129136051Y-82394770D01*
X129078725Y-82533169D01*
X129078723Y-82533177D01*
X129049500Y-82680092D01*
X124968000Y-82680092D01*
X124968000Y-81368998D01*
X143373318Y-81368998D01*
X143373318Y-81369001D01*
X143393955Y-81525760D01*
X143393956Y-81525762D01*
X143454464Y-81671841D01*
X143550718Y-81797282D01*
X143676159Y-81893536D01*
X143822238Y-81954044D01*
X143889947Y-81962958D01*
X143978999Y-81974682D01*
X143979000Y-81974682D01*
X143979001Y-81974682D01*
X144068045Y-81962959D01*
X144135762Y-81954044D01*
X144281841Y-81893536D01*
X144407282Y-81797282D01*
X144503536Y-81671841D01*
X144564044Y-81525762D01*
X144584682Y-81369000D01*
X144564044Y-81212238D01*
X144503536Y-81066159D01*
X144407282Y-80940718D01*
X144281841Y-80844464D01*
X144135762Y-80783956D01*
X144135760Y-80783955D01*
X143979001Y-80763318D01*
X143978999Y-80763318D01*
X143822239Y-80783955D01*
X143822237Y-80783956D01*
X143676160Y-80844463D01*
X143550718Y-80940718D01*
X143454463Y-81066160D01*
X143393956Y-81212237D01*
X143393955Y-81212239D01*
X143373318Y-81368998D01*
X124968000Y-81368998D01*
X124968000Y-80238598D01*
X159922318Y-80238598D01*
X159922318Y-80238601D01*
X159942955Y-80395360D01*
X159942956Y-80395362D01*
X160003464Y-80541441D01*
X160099718Y-80666882D01*
X160225159Y-80763136D01*
X160371238Y-80823644D01*
X160449619Y-80833963D01*
X160527999Y-80844282D01*
X160528000Y-80844282D01*
X160528001Y-80844282D01*
X160580254Y-80837402D01*
X160684762Y-80823644D01*
X160830841Y-80763136D01*
X160956282Y-80666882D01*
X161052536Y-80541441D01*
X161113044Y-80395362D01*
X161133682Y-80238600D01*
X161113044Y-80081838D01*
X161052536Y-79935759D01*
X160956282Y-79810318D01*
X160830841Y-79714064D01*
X160684762Y-79653556D01*
X160684760Y-79653555D01*
X160528001Y-79632918D01*
X160527999Y-79632918D01*
X160371239Y-79653555D01*
X160371237Y-79653556D01*
X160225160Y-79714063D01*
X160099718Y-79810318D01*
X160003463Y-79935760D01*
X159942956Y-80081837D01*
X159942955Y-80081839D01*
X159922318Y-80238598D01*
X124968000Y-80238598D01*
X124968000Y-78319998D01*
X129214318Y-78319998D01*
X129214318Y-78320001D01*
X129234955Y-78476760D01*
X129234956Y-78476762D01*
X129295464Y-78622841D01*
X129391718Y-78748282D01*
X129517159Y-78844536D01*
X129517166Y-78844541D01*
X129519009Y-78845605D01*
X129520252Y-78846909D01*
X129523608Y-78849484D01*
X129523206Y-78850007D01*
X129567225Y-78896171D01*
X129580449Y-78964778D01*
X129554481Y-79029643D01*
X129532497Y-79051368D01*
X129401718Y-79151718D01*
X129305463Y-79277160D01*
X129244956Y-79423237D01*
X129244955Y-79423239D01*
X129224318Y-79579998D01*
X129224318Y-79580001D01*
X129244955Y-79736760D01*
X129244956Y-79736762D01*
X129305464Y-79882841D01*
X129401718Y-80008282D01*
X129527159Y-80104536D01*
X129673238Y-80165044D01*
X129751619Y-80175363D01*
X129829999Y-80185682D01*
X129830000Y-80185682D01*
X129830001Y-80185682D01*
X129882254Y-80178802D01*
X129986762Y-80165044D01*
X130132841Y-80104536D01*
X130258282Y-80008282D01*
X130354536Y-79882841D01*
X130415044Y-79736762D01*
X130435682Y-79580000D01*
X130415044Y-79423238D01*
X130354536Y-79277159D01*
X130258282Y-79151718D01*
X130132841Y-79055464D01*
X130132840Y-79055463D01*
X130132833Y-79055458D01*
X130130986Y-79054392D01*
X130129739Y-79053084D01*
X130126392Y-79050516D01*
X130126792Y-79049993D01*
X130082772Y-79003824D01*
X130069551Y-78935216D01*
X130075644Y-78919998D01*
X136064318Y-78919998D01*
X136064318Y-78920001D01*
X136084955Y-79076760D01*
X136084956Y-79076762D01*
X136145464Y-79222841D01*
X136241718Y-79348282D01*
X136367159Y-79444536D01*
X136513238Y-79505044D01*
X136591619Y-79515363D01*
X136669999Y-79525682D01*
X136670000Y-79525682D01*
X136670001Y-79525682D01*
X136722254Y-79518802D01*
X136826762Y-79505044D01*
X136972841Y-79444536D01*
X137098282Y-79348282D01*
X137194536Y-79222841D01*
X137255044Y-79076762D01*
X137275682Y-78920000D01*
X137266398Y-78849484D01*
X137255044Y-78763239D01*
X137255044Y-78763238D01*
X137194536Y-78617159D01*
X137098282Y-78491718D01*
X136972841Y-78395464D01*
X136826762Y-78334956D01*
X136826760Y-78334955D01*
X136670001Y-78314318D01*
X136669999Y-78314318D01*
X136513239Y-78334955D01*
X136513237Y-78334956D01*
X136367160Y-78395463D01*
X136241718Y-78491718D01*
X136145463Y-78617160D01*
X136084956Y-78763237D01*
X136084955Y-78763239D01*
X136064318Y-78919998D01*
X130075644Y-78919998D01*
X130095521Y-78870352D01*
X130117503Y-78848631D01*
X130122838Y-78844537D01*
X130122841Y-78844536D01*
X130248282Y-78748282D01*
X130344536Y-78622841D01*
X130405044Y-78476762D01*
X130425682Y-78320000D01*
X130405044Y-78163238D01*
X130344536Y-78017159D01*
X130248282Y-77891718D01*
X130122841Y-77795464D01*
X129976762Y-77734956D01*
X129976760Y-77734955D01*
X129820001Y-77714318D01*
X129819999Y-77714318D01*
X129663239Y-77734955D01*
X129663237Y-77734956D01*
X129517160Y-77795463D01*
X129391718Y-77891718D01*
X129295463Y-78017160D01*
X129234956Y-78163237D01*
X129234955Y-78163239D01*
X129214318Y-78319998D01*
X124968000Y-78319998D01*
X124968000Y-77339998D01*
X136084318Y-77339998D01*
X136084318Y-77340001D01*
X136104955Y-77496760D01*
X136104956Y-77496762D01*
X136165464Y-77642841D01*
X136261718Y-77768282D01*
X136387159Y-77864536D01*
X136533238Y-77925044D01*
X136611619Y-77935363D01*
X136689999Y-77945682D01*
X136690000Y-77945682D01*
X136690001Y-77945682D01*
X136742254Y-77938802D01*
X136846762Y-77925044D01*
X136992841Y-77864536D01*
X137118282Y-77768282D01*
X137214536Y-77642841D01*
X137275044Y-77496762D01*
X137295682Y-77340000D01*
X137275044Y-77183238D01*
X137214536Y-77037159D01*
X137118282Y-76911718D01*
X136992841Y-76815464D01*
X136978686Y-76809601D01*
X136978679Y-76809598D01*
X162005118Y-76809598D01*
X162005118Y-76809601D01*
X162025755Y-76966360D01*
X162025756Y-76966362D01*
X162055081Y-77037160D01*
X162086264Y-77112441D01*
X162182518Y-77237882D01*
X162307959Y-77334136D01*
X162454038Y-77394644D01*
X162532419Y-77404963D01*
X162610799Y-77415282D01*
X162610800Y-77415282D01*
X162610801Y-77415282D01*
X162663054Y-77408402D01*
X162767562Y-77394644D01*
X162913641Y-77334136D01*
X163039082Y-77237882D01*
X163135336Y-77112441D01*
X163195844Y-76966362D01*
X163216482Y-76809600D01*
X163210640Y-76765229D01*
X163195844Y-76652839D01*
X163195844Y-76652838D01*
X163135336Y-76506759D01*
X163039082Y-76381318D01*
X162913641Y-76285064D01*
X162767562Y-76224556D01*
X162767560Y-76224555D01*
X162610801Y-76203918D01*
X162610799Y-76203918D01*
X162454039Y-76224555D01*
X162454037Y-76224556D01*
X162307960Y-76285063D01*
X162182518Y-76381318D01*
X162086263Y-76506760D01*
X162025756Y-76652837D01*
X162025755Y-76652839D01*
X162005118Y-76809598D01*
X136978679Y-76809598D01*
X136846762Y-76754956D01*
X136846760Y-76754955D01*
X136690001Y-76734318D01*
X136689999Y-76734318D01*
X136533239Y-76754955D01*
X136533237Y-76754956D01*
X136387160Y-76815463D01*
X136261718Y-76911718D01*
X136165463Y-77037160D01*
X136104956Y-77183237D01*
X136104955Y-77183239D01*
X136084318Y-77339998D01*
X124968000Y-77339998D01*
X124968000Y-76330092D01*
X129049500Y-76330092D01*
X129049500Y-76479907D01*
X129078723Y-76626822D01*
X129078725Y-76626830D01*
X129136051Y-76765229D01*
X129136056Y-76765238D01*
X129219280Y-76889790D01*
X129219283Y-76889794D01*
X129325205Y-76995716D01*
X129325209Y-76995719D01*
X129449761Y-77078943D01*
X129449767Y-77078946D01*
X129449768Y-77078947D01*
X129588170Y-77136275D01*
X129735092Y-77165499D01*
X129735096Y-77165500D01*
X129735097Y-77165500D01*
X129884904Y-77165500D01*
X129884905Y-77165499D01*
X130031830Y-77136275D01*
X130170232Y-77078947D01*
X130294791Y-76995719D01*
X130400719Y-76889791D01*
X130483947Y-76765232D01*
X130541275Y-76626830D01*
X130570500Y-76479903D01*
X130570500Y-76330097D01*
X130541275Y-76183170D01*
X130483947Y-76044768D01*
X130483946Y-76044767D01*
X130483943Y-76044761D01*
X130400719Y-75920209D01*
X130400716Y-75920205D01*
X130294794Y-75814283D01*
X130294790Y-75814280D01*
X130170238Y-75731056D01*
X130170229Y-75731051D01*
X130031830Y-75673725D01*
X130031822Y-75673723D01*
X129884907Y-75644500D01*
X129884903Y-75644500D01*
X129735097Y-75644500D01*
X129735092Y-75644500D01*
X129588177Y-75673723D01*
X129588169Y-75673725D01*
X129449770Y-75731051D01*
X129449761Y-75731056D01*
X129325209Y-75814280D01*
X129325205Y-75814283D01*
X129219283Y-75920205D01*
X129219280Y-75920209D01*
X129136056Y-76044761D01*
X129136051Y-76044770D01*
X129078725Y-76183169D01*
X129078723Y-76183177D01*
X129049500Y-76330092D01*
X124968000Y-76330092D01*
X124968000Y-75285598D01*
X140694518Y-75285598D01*
X140694518Y-75285601D01*
X140715155Y-75442360D01*
X140715156Y-75442362D01*
X140775664Y-75588441D01*
X140871918Y-75713882D01*
X140997359Y-75810136D01*
X141143438Y-75870644D01*
X141221819Y-75880963D01*
X141300199Y-75891282D01*
X141300200Y-75891282D01*
X141300201Y-75891282D01*
X141352454Y-75884402D01*
X141456962Y-75870644D01*
X141603041Y-75810136D01*
X141728482Y-75713882D01*
X141824736Y-75588441D01*
X141885244Y-75442362D01*
X141902538Y-75310998D01*
X142904318Y-75310998D01*
X142904318Y-75311001D01*
X142924955Y-75467760D01*
X142924956Y-75467762D01*
X142985464Y-75613841D01*
X143081718Y-75739282D01*
X143207159Y-75835536D01*
X143353238Y-75896044D01*
X143431619Y-75906363D01*
X143509999Y-75916682D01*
X143510000Y-75916682D01*
X143510001Y-75916682D01*
X143562254Y-75909802D01*
X143666762Y-75896044D01*
X143812841Y-75835536D01*
X143938282Y-75739282D01*
X144034536Y-75613841D01*
X144095044Y-75467762D01*
X144115682Y-75311000D01*
X144095044Y-75154238D01*
X144034536Y-75008159D01*
X143938282Y-74882718D01*
X143812841Y-74786464D01*
X143666762Y-74725956D01*
X143666760Y-74725955D01*
X143510001Y-74705318D01*
X143509999Y-74705318D01*
X143353239Y-74725955D01*
X143353237Y-74725956D01*
X143207160Y-74786463D01*
X143081718Y-74882718D01*
X142985463Y-75008160D01*
X142924956Y-75154237D01*
X142924955Y-75154239D01*
X142904318Y-75310998D01*
X141902538Y-75310998D01*
X141905882Y-75285600D01*
X141885244Y-75128838D01*
X141824736Y-74982759D01*
X141728482Y-74857318D01*
X141603041Y-74761064D01*
X141561077Y-74743682D01*
X141456962Y-74700556D01*
X141456960Y-74700555D01*
X141300201Y-74679918D01*
X141300199Y-74679918D01*
X141143439Y-74700555D01*
X141143437Y-74700556D01*
X140997360Y-74761063D01*
X140871918Y-74857318D01*
X140775663Y-74982760D01*
X140715156Y-75128837D01*
X140715155Y-75128839D01*
X140694518Y-75285598D01*
X124968000Y-75285598D01*
X124968000Y-74137998D01*
X144504318Y-74137998D01*
X144504318Y-74138001D01*
X144524955Y-74294760D01*
X144524956Y-74294762D01*
X144585464Y-74440841D01*
X144681718Y-74566282D01*
X144807159Y-74662536D01*
X144953238Y-74723044D01*
X145031619Y-74733363D01*
X145109999Y-74743682D01*
X145110000Y-74743682D01*
X145110001Y-74743682D01*
X145162254Y-74736802D01*
X145266762Y-74723044D01*
X145412841Y-74662536D01*
X145538282Y-74566282D01*
X145634536Y-74440841D01*
X145695044Y-74294762D01*
X145715682Y-74138000D01*
X145695044Y-73981238D01*
X145634536Y-73835159D01*
X145538282Y-73709718D01*
X145412841Y-73613464D01*
X145266762Y-73552956D01*
X145266760Y-73552955D01*
X145110001Y-73532318D01*
X145109999Y-73532318D01*
X144953239Y-73552955D01*
X144953237Y-73552956D01*
X144807160Y-73613463D01*
X144681718Y-73709718D01*
X144585463Y-73835160D01*
X144524956Y-73981237D01*
X144524955Y-73981239D01*
X144504318Y-74137998D01*
X124968000Y-74137998D01*
X124968000Y-73456798D01*
X149254318Y-73456798D01*
X149254318Y-73456801D01*
X149274955Y-73613560D01*
X149274956Y-73613562D01*
X149335464Y-73759641D01*
X149431718Y-73885082D01*
X149557159Y-73981336D01*
X149703238Y-74041844D01*
X149727545Y-74045044D01*
X149859999Y-74062482D01*
X149860000Y-74062482D01*
X149860001Y-74062482D01*
X149912254Y-74055602D01*
X150016762Y-74041844D01*
X150162841Y-73981336D01*
X150288282Y-73885082D01*
X150384536Y-73759641D01*
X150445044Y-73613562D01*
X150465261Y-73459998D01*
X151444318Y-73459998D01*
X151444318Y-73460001D01*
X151464955Y-73616760D01*
X151464956Y-73616762D01*
X151524138Y-73759641D01*
X151525464Y-73762841D01*
X151621718Y-73888282D01*
X151747159Y-73984536D01*
X151893238Y-74045044D01*
X151971619Y-74055363D01*
X152049999Y-74065682D01*
X152050000Y-74065682D01*
X152050001Y-74065682D01*
X152102254Y-74058802D01*
X152206762Y-74045044D01*
X152352841Y-73984536D01*
X152478282Y-73888282D01*
X152574536Y-73762841D01*
X152635044Y-73616762D01*
X152655682Y-73460000D01*
X152655260Y-73456798D01*
X152635044Y-73303239D01*
X152635044Y-73303238D01*
X152574536Y-73157159D01*
X152478282Y-73031718D01*
X152352841Y-72935464D01*
X152345113Y-72932263D01*
X152206762Y-72874956D01*
X152206760Y-72874955D01*
X152050001Y-72854318D01*
X152049999Y-72854318D01*
X151893239Y-72874955D01*
X151893237Y-72874956D01*
X151747160Y-72935463D01*
X151621718Y-73031718D01*
X151525463Y-73157160D01*
X151464956Y-73303237D01*
X151464955Y-73303239D01*
X151444318Y-73459998D01*
X150465261Y-73459998D01*
X150465682Y-73456800D01*
X150445044Y-73300038D01*
X150384536Y-73153959D01*
X150288282Y-73028518D01*
X150162841Y-72932264D01*
X150016762Y-72871756D01*
X150016760Y-72871755D01*
X149860001Y-72851118D01*
X149859999Y-72851118D01*
X149703239Y-72871755D01*
X149703237Y-72871756D01*
X149557160Y-72932263D01*
X149431718Y-73028518D01*
X149335463Y-73153960D01*
X149274956Y-73300037D01*
X149274955Y-73300039D01*
X149254318Y-73456798D01*
X124968000Y-73456798D01*
X124968000Y-67274499D01*
X124987685Y-67207460D01*
X125040489Y-67161705D01*
X125092000Y-67150499D01*
X164468000Y-67150499D01*
X164535039Y-67170184D01*
G37*
%TD.AperFunction*%
%TD*%
M02*
