%TF.GenerationSoftware,KiCad,Pcbnew,8.0.6*%
%TF.CreationDate,2024-11-05T11:01:03+02:00*%
%TF.ProjectId,PionController,50696f6e-436f-46e7-9472-6f6c6c65722e,rev?*%
%TF.SameCoordinates,Original*%
%TF.FileFunction,Copper,L4,Bot*%
%TF.FilePolarity,Positive*%
%FSLAX46Y46*%
G04 Gerber Fmt 4.6, Leading zero omitted, Abs format (unit mm)*
G04 Created by KiCad (PCBNEW 8.0.6) date 2024-11-05 11:01:03*
%MOMM*%
%LPD*%
G01*
G04 APERTURE LIST*
G04 Aperture macros list*
%AMRoundRect*
0 Rectangle with rounded corners*
0 $1 Rounding radius*
0 $2 $3 $4 $5 $6 $7 $8 $9 X,Y pos of 4 corners*
0 Add a 4 corners polygon primitive as box body*
4,1,4,$2,$3,$4,$5,$6,$7,$8,$9,$2,$3,0*
0 Add four circle primitives for the rounded corners*
1,1,$1+$1,$2,$3*
1,1,$1+$1,$4,$5*
1,1,$1+$1,$6,$7*
1,1,$1+$1,$8,$9*
0 Add four rect primitives between the rounded corners*
20,1,$1+$1,$2,$3,$4,$5,0*
20,1,$1+$1,$4,$5,$6,$7,0*
20,1,$1+$1,$6,$7,$8,$9,0*
20,1,$1+$1,$8,$9,$2,$3,0*%
%AMFreePoly0*
4,1,19,0.550000,-0.750000,0.000000,-0.750000,0.000000,-0.744911,-0.071157,-0.744911,-0.207708,-0.704816,-0.327430,-0.627875,-0.420627,-0.520320,-0.479746,-0.390866,-0.500000,-0.250000,-0.500000,0.250000,-0.479746,0.390866,-0.420627,0.520320,-0.327430,0.627875,-0.207708,0.704816,-0.071157,0.744911,0.000000,0.744911,0.000000,0.750000,0.550000,0.750000,0.550000,-0.750000,0.550000,-0.750000,
$1*%
%AMFreePoly1*
4,1,19,0.000000,0.744911,0.071157,0.744911,0.207708,0.704816,0.327430,0.627875,0.420627,0.520320,0.479746,0.390866,0.500000,0.250000,0.500000,-0.250000,0.479746,-0.390866,0.420627,-0.520320,0.327430,-0.627875,0.207708,-0.704816,0.071157,-0.744911,0.000000,-0.744911,0.000000,-0.750000,-0.550000,-0.750000,-0.550000,0.750000,0.000000,0.750000,0.000000,0.744911,0.000000,0.744911,
$1*%
G04 Aperture macros list end*
%TA.AperFunction,ComponentPad*%
%ADD10C,0.800000*%
%TD*%
%TA.AperFunction,ComponentPad*%
%ADD11C,6.400000*%
%TD*%
%TA.AperFunction,ComponentPad*%
%ADD12RoundRect,0.250000X0.750000X-0.600000X0.750000X0.600000X-0.750000X0.600000X-0.750000X-0.600000X0*%
%TD*%
%TA.AperFunction,ComponentPad*%
%ADD13O,2.000000X1.700000*%
%TD*%
%TA.AperFunction,SMDPad,CuDef*%
%ADD14FreePoly0,90.000000*%
%TD*%
%TA.AperFunction,SMDPad,CuDef*%
%ADD15R,1.500000X1.000000*%
%TD*%
%TA.AperFunction,SMDPad,CuDef*%
%ADD16FreePoly1,90.000000*%
%TD*%
%TA.AperFunction,ViaPad*%
%ADD17C,0.700000*%
%TD*%
%TA.AperFunction,ViaPad*%
%ADD18C,0.900000*%
%TD*%
%TA.AperFunction,Conductor*%
%ADD19C,0.250000*%
%TD*%
%TA.AperFunction,Conductor*%
%ADD20C,0.600000*%
%TD*%
G04 APERTURE END LIST*
D10*
%TO.P,H3,1,1*%
%TO.N,GND*%
X175600000Y-122649999D03*
X176302944Y-120952943D03*
X176302944Y-124347055D03*
X178000000Y-120249999D03*
D11*
X178000000Y-122649999D03*
D10*
X178000000Y-125049999D03*
X179697056Y-120952943D03*
X179697056Y-124347055D03*
X180400000Y-122649999D03*
%TD*%
D12*
%TO.P,J5,1,Pin_1*%
%TO.N,GND*%
X172567600Y-102235000D03*
D13*
%TO.P,J5,2,Pin_2*%
%TO.N,Net-(J5-Pin_2)*%
X172567600Y-99735000D03*
%TD*%
D10*
%TO.P,H1,1,1*%
%TO.N,GND*%
X101600000Y-70649999D03*
X102302944Y-68952943D03*
X102302944Y-72347055D03*
X104000000Y-68249999D03*
D11*
X104000000Y-70649999D03*
D10*
X104000000Y-73049999D03*
X105697056Y-68952943D03*
X105697056Y-72347055D03*
X106400000Y-70649999D03*
%TD*%
%TO.P,H4,1,1*%
%TO.N,GND*%
X101600000Y-122649999D03*
X102302944Y-120952943D03*
X102302944Y-124347055D03*
X104000000Y-120249999D03*
D11*
X104000000Y-122649999D03*
D10*
X104000000Y-125049999D03*
X105697056Y-120952943D03*
X105697056Y-124347055D03*
X106400000Y-122649999D03*
%TD*%
D12*
%TO.P,J3,1,Pin_1*%
%TO.N,GND*%
X172567600Y-84785200D03*
D13*
%TO.P,J3,2,Pin_2*%
%TO.N,Net-(J3-Pin_2)*%
X172567600Y-82285200D03*
%TD*%
D12*
%TO.P,J6,1,Pin_1*%
%TO.N,GND*%
X172563200Y-111094200D03*
D13*
%TO.P,J6,2,Pin_2*%
%TO.N,Net-(J6-Pin_2)*%
X172563200Y-108594200D03*
%TD*%
D12*
%TO.P,J4,1,Pin_1*%
%TO.N,GND*%
X172567600Y-93522800D03*
D13*
%TO.P,J4,2,Pin_2*%
%TO.N,Net-(J4-Pin_2)*%
X172567600Y-91022800D03*
%TD*%
D10*
%TO.P,H2,1,1*%
%TO.N,GND*%
X175600000Y-70649999D03*
X176302944Y-68952943D03*
X176302944Y-72347055D03*
X178000000Y-68249999D03*
D11*
X178000000Y-70649999D03*
D10*
X178000000Y-73049999D03*
X179697056Y-68952943D03*
X179697056Y-72347055D03*
X180400000Y-70649999D03*
%TD*%
D14*
%TO.P,SB2,1,A*%
%TO.N,Net-(SB2-A)*%
X115443000Y-91089000D03*
D15*
%TO.P,SB2,2,C*%
%TO.N,Net-(SB2-C)*%
X115443000Y-89789000D03*
D16*
%TO.P,SB2,3,B*%
%TO.N,Net-(SB2-B)*%
X115443000Y-88489000D03*
%TD*%
D14*
%TO.P,SB1,1,A*%
%TO.N,Net-(SB1-A)*%
X115500000Y-98000000D03*
D15*
%TO.P,SB1,2,C*%
%TO.N,Net-(SB1-C)*%
X115500000Y-96700000D03*
D16*
%TO.P,SB1,3,B*%
%TO.N,Net-(SB1-B)*%
X115500000Y-95400000D03*
%TD*%
D17*
%TO.N,Net-(J1-Pad12)*%
X141300200Y-75285600D03*
X136690000Y-77340000D03*
%TO.N,Net-(J1-Pad13)*%
X127790000Y-84670000D03*
X152050000Y-73460000D03*
%TO.N,Net-(J1-Pad14)*%
X136670000Y-78920000D03*
X149860000Y-73456800D03*
%TO.N,GND*%
X143637000Y-93167200D03*
X114722600Y-116870000D03*
X102730000Y-84250000D03*
X141300200Y-97612200D03*
X167550000Y-91460000D03*
X137439400Y-86461600D03*
X102790000Y-109100000D03*
X104730000Y-84250000D03*
X169260000Y-82260000D03*
X152450800Y-93218000D03*
X133900000Y-97350000D03*
X130073400Y-109905800D03*
X144780000Y-98679000D03*
X119684800Y-122351800D03*
X143256000Y-110363000D03*
X114722600Y-120222800D03*
X129940200Y-122063200D03*
X146024600Y-109677200D03*
X130130000Y-96560000D03*
X115773200Y-107797600D03*
X111911200Y-89914200D03*
X157632400Y-97307400D03*
X125628400Y-116789200D03*
X143510000Y-75311000D03*
X162610800Y-76809600D03*
X111912400Y-96748600D03*
X129830000Y-79580000D03*
X147955000Y-93167200D03*
X134730000Y-112870000D03*
X147294600Y-104724200D03*
X103730000Y-84250000D03*
X104790000Y-109100000D03*
X111425000Y-99075000D03*
X151942800Y-107264200D03*
X157607000Y-99491800D03*
X119532400Y-100304600D03*
X126380000Y-87690000D03*
X142773400Y-100279200D03*
X155295600Y-82169000D03*
X145355200Y-102688939D03*
X161027200Y-90305800D03*
X151409400Y-100457000D03*
X145110000Y-74138000D03*
X129820000Y-78320000D03*
X134770000Y-110288600D03*
X148590000Y-109651800D03*
X103790000Y-109100000D03*
X129768600Y-100279200D03*
X149183200Y-102632376D03*
X120980200Y-120751600D03*
X111525000Y-87600000D03*
X114697200Y-113415600D03*
X126034800Y-105867200D03*
X139900253Y-115522032D03*
X149402800Y-98729800D03*
X160528000Y-80238600D03*
X160553400Y-83718400D03*
X143979000Y-81369000D03*
X155473400Y-93675200D03*
X122160000Y-82130000D03*
X133420000Y-122037800D03*
X167554600Y-76814200D03*
X162600000Y-82265799D03*
X151409400Y-98399600D03*
X126161800Y-99060000D03*
X160528000Y-94437200D03*
X126009400Y-113411000D03*
X153365200Y-102870000D03*
%TO.N,+5V*%
X131670000Y-116320000D03*
X130670000Y-116320000D03*
X137270000Y-115676900D03*
X129670000Y-116320000D03*
X127640000Y-122260000D03*
X167005000Y-94564200D03*
X132943600Y-115189000D03*
X168757600Y-79451200D03*
X128041400Y-99491800D03*
%TO.N,+3.3V*%
X125600000Y-77050000D03*
X142417800Y-78181200D03*
X159004000Y-80264000D03*
X136728200Y-96291400D03*
X160502600Y-103835200D03*
X143281400Y-106908600D03*
X149475000Y-97192800D03*
X142290800Y-94945200D03*
X144830800Y-97180400D03*
X150393400Y-107289600D03*
D18*
X140366400Y-109761800D03*
X140366400Y-110711800D03*
D17*
X155373700Y-106754300D03*
X158978600Y-92151200D03*
X163855400Y-79476600D03*
%TO.N,Net-(SB1-C)*%
X112975369Y-99024631D03*
%TO.N,Net-(SB2-C)*%
X113100000Y-87600000D03*
%TO.N,Net-(SB1-A)*%
X116992400Y-97663000D03*
%TO.N,Net-(SB1-B)*%
X117043200Y-95986600D03*
%TO.N,Net-(SB2-A)*%
X116967000Y-90678000D03*
%TO.N,Net-(SB2-B)*%
X116950000Y-89050000D03*
%TD*%
D19*
%TO.N,Net-(J1-Pad12)*%
X140260000Y-77340000D02*
X141300200Y-76299800D01*
X136690000Y-77340000D02*
X140260000Y-77340000D01*
X141300200Y-76299800D02*
X141300200Y-75285600D01*
%TO.N,Net-(J1-Pad13)*%
X150710000Y-74800000D02*
X152050000Y-73460000D01*
X138420000Y-79600000D02*
X143200000Y-79600000D01*
X133350000Y-84670000D02*
X138420000Y-79600000D01*
X127790000Y-84670000D02*
X133350000Y-84670000D01*
X148000000Y-74800000D02*
X150710000Y-74800000D01*
X143200000Y-79600000D02*
X148000000Y-74800000D01*
%TO.N,Net-(J1-Pad14)*%
X136670000Y-78920000D02*
X142840000Y-78920000D01*
X148303200Y-73456800D02*
X149860000Y-73456800D01*
X142840000Y-78920000D02*
X148303200Y-73456800D01*
D20*
%TO.N,GND*%
X147294600Y-104724200D02*
X147324200Y-104724200D01*
%TO.N,Net-(SB1-C)*%
X112975000Y-99024262D02*
X112975000Y-97540200D01*
X112975369Y-99024631D02*
X112975000Y-99024262D01*
X113815200Y-96700000D02*
X115500000Y-96700000D01*
X112975000Y-97540200D02*
X113815200Y-96700000D01*
%TO.N,Net-(SB2-C)*%
X113100000Y-87600000D02*
X113100000Y-88796000D01*
X114093000Y-89789000D02*
X115443000Y-89789000D01*
X113100000Y-88796000D02*
X114093000Y-89789000D01*
%TO.N,Net-(SB1-A)*%
X115500000Y-98000000D02*
X116655400Y-98000000D01*
X116655400Y-98000000D02*
X116992400Y-97663000D01*
%TO.N,Net-(SB1-B)*%
X115500000Y-95400000D02*
X116456600Y-95400000D01*
X116456600Y-95400000D02*
X117043200Y-95986600D01*
%TO.N,Net-(SB2-A)*%
X116556000Y-91089000D02*
X116967000Y-90678000D01*
X115443000Y-91089000D02*
X116556000Y-91089000D01*
%TO.N,Net-(SB2-B)*%
X116950000Y-89050000D02*
X116389000Y-88489000D01*
X116389000Y-88489000D02*
X115443000Y-88489000D01*
%TD*%
M02*
