%TF.GenerationSoftware,KiCad,Pcbnew,8.0.6*%
%TF.CreationDate,2024-11-05T11:01:03+02:00*%
%TF.ProjectId,PionController,50696f6e-436f-46e7-9472-6f6c6c65722e,rev?*%
%TF.SameCoordinates,Original*%
%TF.FileFunction,Soldermask,Top*%
%TF.FilePolarity,Negative*%
%FSLAX46Y46*%
G04 Gerber Fmt 4.6, Leading zero omitted, Abs format (unit mm)*
G04 Created by KiCad (PCBNEW 8.0.6) date 2024-11-05 11:01:03*
%MOMM*%
%LPD*%
G01*
G04 APERTURE LIST*
G04 Aperture macros list*
%AMRoundRect*
0 Rectangle with rounded corners*
0 $1 Rounding radius*
0 $2 $3 $4 $5 $6 $7 $8 $9 X,Y pos of 4 corners*
0 Add a 4 corners polygon primitive as box body*
4,1,4,$2,$3,$4,$5,$6,$7,$8,$9,$2,$3,0*
0 Add four circle primitives for the rounded corners*
1,1,$1+$1,$2,$3*
1,1,$1+$1,$4,$5*
1,1,$1+$1,$6,$7*
1,1,$1+$1,$8,$9*
0 Add four rect primitives between the rounded corners*
20,1,$1+$1,$2,$3,$4,$5,0*
20,1,$1+$1,$4,$5,$6,$7,0*
20,1,$1+$1,$6,$7,$8,$9,0*
20,1,$1+$1,$8,$9,$2,$3,0*%
%AMFreePoly0*
4,1,8,0.500000,-0.850000,-0.500000,-0.850000,-1.800000,-0.850000,-1.800000,-0.150000,-0.500000,-0.150000,-0.500000,0.850000,0.500000,0.850000,0.500000,-0.850000,0.500000,-0.850000,$1*%
%AMFreePoly1*
4,1,7,0.500000,-0.150000,1.800000,-0.150000,1.800000,-0.850000,-0.500000,-0.850000,-0.500000,0.850000,0.500000,0.850000,0.500000,-0.150000,0.500000,-0.150000,$1*%
G04 Aperture macros list end*
%ADD10RoundRect,0.225000X-0.225000X-0.250000X0.225000X-0.250000X0.225000X0.250000X-0.225000X0.250000X0*%
%ADD11RoundRect,0.250000X-0.475000X0.250000X-0.475000X-0.250000X0.475000X-0.250000X0.475000X0.250000X0*%
%ADD12RoundRect,0.150000X0.150000X-0.512500X0.150000X0.512500X-0.150000X0.512500X-0.150000X-0.512500X0*%
%ADD13RoundRect,0.200000X0.200000X0.275000X-0.200000X0.275000X-0.200000X-0.275000X0.200000X-0.275000X0*%
%ADD14RoundRect,0.250000X-0.650000X1.000000X-0.650000X-1.000000X0.650000X-1.000000X0.650000X1.000000X0*%
%ADD15C,0.800000*%
%ADD16C,6.400000*%
%ADD17RoundRect,0.225000X0.225000X0.250000X-0.225000X0.250000X-0.225000X-0.250000X0.225000X-0.250000X0*%
%ADD18FreePoly0,180.000000*%
%ADD19FreePoly1,180.000000*%
%ADD20FreePoly0,0.000000*%
%ADD21FreePoly1,0.000000*%
%ADD22RoundRect,0.162500X1.012500X0.162500X-1.012500X0.162500X-1.012500X-0.162500X1.012500X-0.162500X0*%
%ADD23RoundRect,0.250000X0.325000X1.100000X-0.325000X1.100000X-0.325000X-1.100000X0.325000X-1.100000X0*%
%ADD24RoundRect,0.218750X-0.381250X0.218750X-0.381250X-0.218750X0.381250X-0.218750X0.381250X0.218750X0*%
%ADD25R,1.900000X0.550000*%
%ADD26R,6.300000X1.050000*%
%ADD27RoundRect,0.200000X0.275000X-0.200000X0.275000X0.200000X-0.275000X0.200000X-0.275000X-0.200000X0*%
%ADD28RoundRect,0.250000X-0.262500X-0.450000X0.262500X-0.450000X0.262500X0.450000X-0.262500X0.450000X0*%
%ADD29RoundRect,0.150000X-0.150000X0.512500X-0.150000X-0.512500X0.150000X-0.512500X0.150000X0.512500X0*%
%ADD30RoundRect,0.250000X0.450000X-0.262500X0.450000X0.262500X-0.450000X0.262500X-0.450000X-0.262500X0*%
%ADD31RoundRect,0.225000X-0.250000X0.225000X-0.250000X-0.225000X0.250000X-0.225000X0.250000X0.225000X0*%
%ADD32C,2.000000*%
%ADD33RoundRect,0.250000X-0.450000X0.262500X-0.450000X-0.262500X0.450000X-0.262500X0.450000X0.262500X0*%
%ADD34RoundRect,0.250000X1.100000X-0.325000X1.100000X0.325000X-1.100000X0.325000X-1.100000X-0.325000X0*%
%ADD35RoundRect,0.250000X0.750000X-0.600000X0.750000X0.600000X-0.750000X0.600000X-0.750000X-0.600000X0*%
%ADD36O,2.000000X1.700000*%
%ADD37RoundRect,0.250000X-1.100000X0.325000X-1.100000X-0.325000X1.100000X-0.325000X1.100000X0.325000X0*%
%ADD38RoundRect,0.200000X-0.275000X0.200000X-0.275000X-0.200000X0.275000X-0.200000X0.275000X0.200000X0*%
%ADD39R,1.100000X1.300000*%
%ADD40RoundRect,0.218750X-0.218750X-0.256250X0.218750X-0.256250X0.218750X0.256250X-0.218750X0.256250X0*%
%ADD41RoundRect,0.225000X0.225000X0.375000X-0.225000X0.375000X-0.225000X-0.375000X0.225000X-0.375000X0*%
%ADD42RoundRect,0.225000X0.250000X-0.225000X0.250000X0.225000X-0.250000X0.225000X-0.250000X-0.225000X0*%
%ADD43RoundRect,0.250000X0.475000X-0.250000X0.475000X0.250000X-0.475000X0.250000X-0.475000X-0.250000X0*%
%ADD44RoundRect,0.075000X0.075000X-0.725000X0.075000X0.725000X-0.075000X0.725000X-0.075000X-0.725000X0*%
%ADD45RoundRect,0.075000X0.725000X-0.075000X0.725000X0.075000X-0.725000X0.075000X-0.725000X-0.075000X0*%
%ADD46RoundRect,0.150000X-0.825000X-0.150000X0.825000X-0.150000X0.825000X0.150000X-0.825000X0.150000X0*%
%ADD47RoundRect,0.218750X0.218750X0.381250X-0.218750X0.381250X-0.218750X-0.381250X0.218750X-0.381250X0*%
%ADD48RoundRect,0.250000X-0.312500X-1.450000X0.312500X-1.450000X0.312500X1.450000X-0.312500X1.450000X0*%
%ADD49RoundRect,0.250000X0.262500X0.450000X-0.262500X0.450000X-0.262500X-0.450000X0.262500X-0.450000X0*%
%ADD50C,1.020000*%
%ADD51RoundRect,0.102000X-1.395000X0.370000X-1.395000X-0.370000X1.395000X-0.370000X1.395000X0.370000X0*%
%ADD52RoundRect,0.150000X-0.512500X-0.150000X0.512500X-0.150000X0.512500X0.150000X-0.512500X0.150000X0*%
%ADD53R,1.000000X1.800000*%
%ADD54RoundRect,0.250000X1.100000X-1.100000X1.100000X1.100000X-1.100000X1.100000X-1.100000X-1.100000X0*%
G04 APERTURE END LIST*
D10*
%TO.C,C13*%
X154876200Y-99491800D03*
X156426200Y-99491800D03*
%TD*%
D11*
%TO.C,C5*%
X120989200Y-117764800D03*
X120989200Y-119664800D03*
%TD*%
D12*
%TO.C,U2*%
X138953200Y-114472300D03*
X139903200Y-114472300D03*
X140853200Y-114472300D03*
X140853200Y-112197300D03*
X138953200Y-112197300D03*
%TD*%
D13*
%TO.C,R9*%
X125065000Y-82120000D03*
X123415000Y-82120000D03*
%TD*%
D14*
%TO.C,D1*%
X118225000Y-103790000D03*
X118225000Y-107790000D03*
%TD*%
D15*
%TO.C,H3*%
X175600000Y-122649999D03*
X176302944Y-120952943D03*
X176302944Y-124347055D03*
X178000000Y-120249999D03*
D16*
X178000000Y-122649999D03*
D15*
X178000000Y-125049999D03*
X179697056Y-120952943D03*
X179697056Y-124347055D03*
X180400000Y-122649999D03*
%TD*%
D17*
%TO.C,C29*%
X135445800Y-96291400D03*
X133895800Y-96291400D03*
%TD*%
D18*
%TO.C,CMC2*%
X121219000Y-94943800D03*
D19*
X119319000Y-94943800D03*
D20*
X119319000Y-97943800D03*
D21*
X121219000Y-97943800D03*
%TD*%
D22*
%TO.C,U5*%
X135436600Y-94092400D03*
X135436600Y-91552400D03*
X135436600Y-89012400D03*
X135436600Y-86472400D03*
X126386600Y-86472400D03*
X126386600Y-89012400D03*
X126386600Y-91552400D03*
X126386600Y-94092400D03*
%TD*%
D23*
%TO.C,C3*%
X119064200Y-113414800D03*
X116114200Y-113414800D03*
%TD*%
D24*
%TO.C,FB3*%
X128040000Y-96227500D03*
X128040000Y-98352500D03*
%TD*%
D25*
%TO.C,J2*%
X107950000Y-105790000D03*
X107950000Y-103790000D03*
X107950000Y-101790000D03*
X107950000Y-99790000D03*
X107950000Y-97790000D03*
X107950000Y-95790000D03*
X107950000Y-93790000D03*
X107950000Y-91790000D03*
X107950000Y-89790000D03*
X107950000Y-87790000D03*
D26*
X103750000Y-107150000D03*
X103750000Y-86250000D03*
%TD*%
D27*
%TO.C,R6*%
X148158200Y-102653600D03*
X148158200Y-101003600D03*
%TD*%
D28*
%TO.C,R8*%
X130127500Y-98050000D03*
X131952500Y-98050000D03*
%TD*%
D10*
%TO.C,C10*%
X137426400Y-110286800D03*
X138976400Y-110286800D03*
%TD*%
D29*
%TO.C,U1*%
X124789200Y-117777300D03*
X123839200Y-117777300D03*
X122889200Y-117777300D03*
X122889200Y-120052300D03*
X123839200Y-120052300D03*
X124789200Y-120052300D03*
%TD*%
D30*
%TO.C,R19*%
X115500000Y-89050000D03*
X115500000Y-87225000D03*
%TD*%
D31*
%TO.C,C25*%
X145110000Y-75395000D03*
X145110000Y-76945000D03*
%TD*%
D18*
%TO.C,CMC3*%
X121150000Y-88289000D03*
D19*
X119250000Y-88289000D03*
D20*
X119250000Y-91289000D03*
D21*
X121150000Y-91289000D03*
%TD*%
D32*
%TO.C,FID2*%
X177800000Y-76200000D03*
%TD*%
D33*
%TO.C,R7*%
X154051000Y-104929300D03*
X154051000Y-106754300D03*
%TD*%
D34*
%TO.C,C1*%
X121739200Y-103239800D03*
X121739200Y-100289800D03*
%TD*%
D13*
%TO.C,R4*%
X155485600Y-101727000D03*
X153835600Y-101727000D03*
%TD*%
D35*
%TO.C,J5*%
X172567600Y-102235000D03*
D36*
X172567600Y-99735000D03*
%TD*%
D37*
%TO.C,C8*%
X133420000Y-117845000D03*
X133420000Y-120795000D03*
%TD*%
D38*
%TO.C,R10*%
X147878800Y-74663800D03*
X147878800Y-76313800D03*
%TD*%
D39*
%TO.C,X1*%
X152031200Y-104224800D03*
X152031200Y-102124800D03*
X150381200Y-102124800D03*
X150381200Y-104224800D03*
%TD*%
D23*
%TO.C,C2*%
X119093200Y-120222800D03*
X116143200Y-120222800D03*
%TD*%
D38*
%TO.C,R12*%
X138125200Y-76467200D03*
X138125200Y-78117200D03*
%TD*%
D40*
%TO.C,L1*%
X126801700Y-115927300D03*
X128376700Y-115927300D03*
%TD*%
D41*
%TO.C,D2*%
X160501600Y-101727000D03*
X157201600Y-101727000D03*
%TD*%
D24*
%TO.C,FB2*%
X132943600Y-111865900D03*
X132943600Y-113990900D03*
%TD*%
D42*
%TO.C,C23*%
X141300200Y-96482200D03*
X141300200Y-94932200D03*
%TD*%
D43*
%TO.C,C6*%
X126789200Y-120052300D03*
X126789200Y-118152300D03*
%TD*%
D15*
%TO.C,H1*%
X101600000Y-70649999D03*
X102302944Y-68952943D03*
X102302944Y-72347055D03*
X104000000Y-68249999D03*
D16*
X104000000Y-70649999D03*
D15*
X104000000Y-73049999D03*
X105697056Y-68952943D03*
X105697056Y-72347055D03*
X106400000Y-70649999D03*
%TD*%
D32*
%TO.C,FID2*%
X104140000Y-116840000D03*
%TD*%
D33*
%TO.C,R18*%
X115500000Y-90687500D03*
X115500000Y-92512500D03*
%TD*%
D38*
%TO.C,R14*%
X149860000Y-74663800D03*
X149860000Y-76313800D03*
%TD*%
D31*
%TO.C,C9*%
X137290700Y-112934800D03*
X137290700Y-114484800D03*
%TD*%
%TO.C,C20*%
X145973800Y-97192800D03*
X145973800Y-98742800D03*
%TD*%
D42*
%TO.C,C32*%
X162610800Y-79489600D03*
X162610800Y-77939600D03*
%TD*%
D31*
%TO.C,C21*%
X148463000Y-97192800D03*
X148463000Y-98742800D03*
%TD*%
D23*
%TO.C,C4*%
X119064200Y-116864800D03*
X116114200Y-116864800D03*
%TD*%
D44*
%TO.C,U3*%
X143479000Y-95355800D03*
X143979000Y-95355800D03*
X144479000Y-95355800D03*
X144979000Y-95355800D03*
X145479000Y-95355800D03*
X145979000Y-95355800D03*
X146479000Y-95355800D03*
X146979000Y-95355800D03*
X147479000Y-95355800D03*
X147979000Y-95355800D03*
X148479000Y-95355800D03*
X148979000Y-95355800D03*
X149479000Y-95355800D03*
X149979000Y-95355800D03*
X150479000Y-95355800D03*
X150979000Y-95355800D03*
X151479000Y-95355800D03*
X151979000Y-95355800D03*
X152479000Y-95355800D03*
X152979000Y-95355800D03*
X153479000Y-95355800D03*
X153979000Y-95355800D03*
X154479000Y-95355800D03*
X154979000Y-95355800D03*
X155479000Y-95355800D03*
D45*
X157154000Y-93680800D03*
X157154000Y-93180800D03*
X157154000Y-92680800D03*
X157154000Y-92180800D03*
X157154000Y-91680800D03*
X157154000Y-91180800D03*
X157154000Y-90680800D03*
X157154000Y-90180800D03*
X157154000Y-89680800D03*
X157154000Y-89180800D03*
X157154000Y-88680800D03*
X157154000Y-88180800D03*
X157154000Y-87680800D03*
X157154000Y-87180800D03*
X157154000Y-86680800D03*
X157154000Y-86180800D03*
X157154000Y-85680800D03*
X157154000Y-85180800D03*
X157154000Y-84680800D03*
X157154000Y-84180800D03*
X157154000Y-83680800D03*
X157154000Y-83180800D03*
X157154000Y-82680800D03*
X157154000Y-82180800D03*
X157154000Y-81680800D03*
D44*
X155479000Y-80005800D03*
X154979000Y-80005800D03*
X154479000Y-80005800D03*
X153979000Y-80005800D03*
X153479000Y-80005800D03*
X152979000Y-80005800D03*
X152479000Y-80005800D03*
X151979000Y-80005800D03*
X151479000Y-80005800D03*
X150979000Y-80005800D03*
X150479000Y-80005800D03*
X149979000Y-80005800D03*
X149479000Y-80005800D03*
X148979000Y-80005800D03*
X148479000Y-80005800D03*
X147979000Y-80005800D03*
X147479000Y-80005800D03*
X146979000Y-80005800D03*
X146479000Y-80005800D03*
X145979000Y-80005800D03*
X145479000Y-80005800D03*
X144979000Y-80005800D03*
X144479000Y-80005800D03*
X143979000Y-80005800D03*
X143479000Y-80005800D03*
D45*
X141804000Y-81680800D03*
X141804000Y-82180800D03*
X141804000Y-82680800D03*
X141804000Y-83180800D03*
X141804000Y-83680800D03*
X141804000Y-84180800D03*
X141804000Y-84680800D03*
X141804000Y-85180800D03*
X141804000Y-85680800D03*
X141804000Y-86180800D03*
X141804000Y-86680800D03*
X141804000Y-87180800D03*
X141804000Y-87680800D03*
X141804000Y-88180800D03*
X141804000Y-88680800D03*
X141804000Y-89180800D03*
X141804000Y-89680800D03*
X141804000Y-90180800D03*
X141804000Y-90680800D03*
X141804000Y-91180800D03*
X141804000Y-91680800D03*
X141804000Y-92180800D03*
X141804000Y-92680800D03*
X141804000Y-93180800D03*
X141804000Y-93680800D03*
%TD*%
D10*
%TO.C,C11*%
X151421800Y-99491800D03*
X152971800Y-99491800D03*
%TD*%
D38*
%TO.C,R13*%
X141300200Y-76568800D03*
X141300200Y-78218800D03*
%TD*%
D32*
%TO.C,FID2*%
X104140000Y-76200000D03*
%TD*%
D15*
%TO.C,H4*%
X101600000Y-122649999D03*
X102302944Y-120952943D03*
X102302944Y-124347055D03*
X104000000Y-120249999D03*
D16*
X104000000Y-122649999D03*
D15*
X104000000Y-125049999D03*
X105697056Y-120952943D03*
X105697056Y-124347055D03*
X106400000Y-122649999D03*
%TD*%
D17*
%TO.C,C12*%
X152971800Y-97307400D03*
X151421800Y-97307400D03*
%TD*%
D42*
%TO.C,C19*%
X143510000Y-78143400D03*
X143510000Y-76593400D03*
%TD*%
D35*
%TO.C,J3*%
X172567600Y-84785200D03*
D36*
X172567600Y-82285200D03*
%TD*%
D46*
%TO.C,U6*%
X162599600Y-81415800D03*
X162599600Y-82685800D03*
X162599600Y-83955800D03*
X162599600Y-85225800D03*
X162599600Y-86495800D03*
X162599600Y-87765800D03*
X162599600Y-89035800D03*
X162599600Y-90305800D03*
X167549600Y-90305800D03*
X167549600Y-89035800D03*
X167549600Y-87765800D03*
X167549600Y-86495800D03*
X167549600Y-85225800D03*
X167549600Y-83955800D03*
X167549600Y-82685800D03*
X167549600Y-81415800D03*
%TD*%
D31*
%TO.C,C26*%
X143281400Y-107911600D03*
X143281400Y-109461600D03*
%TD*%
D47*
%TO.C,FB1*%
X159329900Y-103825400D03*
X157204900Y-103825400D03*
%TD*%
D35*
%TO.C,J6*%
X172563200Y-111094200D03*
D36*
X172563200Y-108594200D03*
%TD*%
D31*
%TO.C,C33*%
X167563800Y-77965000D03*
X167563800Y-79515000D03*
%TD*%
%TO.C,C30*%
X126161800Y-96227600D03*
X126161800Y-97777600D03*
%TD*%
D17*
%TO.C,C24*%
X160541000Y-82936600D03*
X158991000Y-82936600D03*
%TD*%
%TO.C,C17*%
X151930400Y-106121200D03*
X150380400Y-106121200D03*
%TD*%
D28*
%TO.C,R3*%
X138965300Y-116472300D03*
X140790300Y-116472300D03*
%TD*%
D27*
%TO.C,R5*%
X146380200Y-102653600D03*
X146380200Y-101003600D03*
%TD*%
D17*
%TO.C,C27*%
X132931200Y-109905800D03*
X131381200Y-109905800D03*
%TD*%
D22*
%TO.C,U4*%
X140846800Y-107899200D03*
X140846800Y-105359200D03*
X140846800Y-102819200D03*
X140846800Y-100279200D03*
X131796800Y-100279200D03*
X131796800Y-102819200D03*
X131796800Y-105359200D03*
X131796800Y-107899200D03*
%TD*%
D48*
%TO.C,F1*%
X110950000Y-103790000D03*
X115225000Y-103790000D03*
%TD*%
D42*
%TO.C,C15*%
X146024600Y-108496400D03*
X146024600Y-106946400D03*
%TD*%
D49*
%TO.C,R1*%
X126464700Y-122275600D03*
X124639700Y-122275600D03*
%TD*%
D35*
%TO.C,J4*%
X172567600Y-93522800D03*
D36*
X172567600Y-91022800D03*
%TD*%
D38*
%TO.C,R11*%
X139700000Y-76467200D03*
X139700000Y-78117200D03*
%TD*%
D33*
%TO.C,R16*%
X115500000Y-97650000D03*
X115500000Y-99475000D03*
%TD*%
%TO.C,R20*%
X165481000Y-92737300D03*
X165481000Y-94562300D03*
%TD*%
D50*
%TO.C,J1*%
X129810000Y-76405000D03*
X129810000Y-82755000D03*
D51*
X127775000Y-75770000D03*
X131845000Y-75770000D03*
X127775000Y-77040000D03*
X131845000Y-77040000D03*
X127775000Y-78310000D03*
X131845000Y-78310000D03*
X127775000Y-79580000D03*
X131845000Y-79580000D03*
X127775000Y-80850000D03*
X131845000Y-80850000D03*
X127775000Y-82120000D03*
X131845000Y-82120000D03*
X127775000Y-83390000D03*
X131845000Y-83390000D03*
%TD*%
D49*
%TO.C,R2*%
X122883300Y-122275600D03*
X121058300Y-122275600D03*
%TD*%
D30*
%TO.C,R17*%
X115500000Y-95975000D03*
X115500000Y-94150000D03*
%TD*%
D15*
%TO.C,H2*%
X175600000Y-70649999D03*
X176302944Y-68952943D03*
X176302944Y-72347055D03*
X178000000Y-68249999D03*
D16*
X178000000Y-70649999D03*
D15*
X178000000Y-73049999D03*
X179697056Y-68952943D03*
X179697056Y-72347055D03*
X180400000Y-70649999D03*
%TD*%
D38*
%TO.C,R15*%
X152044400Y-74714600D03*
X152044400Y-76364600D03*
%TD*%
D52*
%TO.C,ESD1*%
X110950000Y-95790000D03*
X110950000Y-97690000D03*
X113225000Y-96740000D03*
%TD*%
D53*
%TO.C,X2*%
X148544600Y-104724200D03*
X146044600Y-104724200D03*
%TD*%
D17*
%TO.C,C31*%
X113075000Y-86400000D03*
X111525000Y-86400000D03*
%TD*%
D10*
%TO.C,C18*%
X158991000Y-93192600D03*
X160541000Y-93192600D03*
%TD*%
D54*
%TO.C,CMC1*%
X127989200Y-105814800D03*
X121789200Y-105814800D03*
X121789200Y-113414800D03*
X127989200Y-113414800D03*
%TD*%
D10*
%TO.C,C22*%
X158991000Y-81432400D03*
X160541000Y-81432400D03*
%TD*%
D52*
%TO.C,ESD2*%
X111025000Y-88950000D03*
X111025000Y-90850000D03*
X113300000Y-89900000D03*
%TD*%
D17*
%TO.C,C28*%
X112975000Y-100225000D03*
X111425000Y-100225000D03*
%TD*%
%TO.C,C14*%
X156426200Y-97307400D03*
X154876200Y-97307400D03*
%TD*%
D42*
%TO.C,C16*%
X148590000Y-108496400D03*
X148590000Y-106946400D03*
%TD*%
D37*
%TO.C,C7*%
X129940200Y-117870400D03*
X129940200Y-120820400D03*
%TD*%
M02*
