%TF.GenerationSoftware,KiCad,Pcbnew,8.0.6*%
%TF.CreationDate,2024-12-17T06:32:24+02:00*%
%TF.ProjectId,PionController,50696f6e-436f-46e7-9472-6f6c6c65722e,rev?*%
%TF.SameCoordinates,Original*%
%TF.FileFunction,Drillmap*%
%TF.FilePolarity,Positive*%
%FSLAX45Y45*%
G04 Gerber Fmt 4.5, Leading zero omitted, Abs format (unit mm)*
G04 Created by KiCad (PCBNEW 8.0.6) date 2024-12-17 06:32:24*
%MOMM*%
%LPD*%
G01*
G04 APERTURE LIST*
%ADD10C,0.200000*%
%ADD11C,0.100000*%
%ADD12C,0.320000*%
G04 APERTURE END LIST*
D10*
X17800000Y-12665000D02*
X10400000Y-12665000D01*
X18200000Y-12265000D02*
G75*
G02*
X17800000Y-12665000I-400000J0D01*
G01*
X10560000Y-12265000D02*
G75*
G02*
X10240000Y-12265000I-160000J0D01*
G01*
X10240000Y-12265000D02*
G75*
G02*
X10560000Y-12265000I160000J0D01*
G01*
X10000000Y-7065000D02*
G75*
G02*
X10400000Y-6665000I400000J0D01*
G01*
X17960000Y-7065000D02*
G75*
G02*
X17640000Y-7065000I-160000J0D01*
G01*
X17640000Y-7065000D02*
G75*
G02*
X17960000Y-7065000I160000J0D01*
G01*
X18200000Y-7065000D02*
X18200000Y-12265000D01*
X10400000Y-6665000D02*
X17800000Y-6665000D01*
X10560000Y-7065000D02*
G75*
G02*
X10240000Y-7065000I-160000J0D01*
G01*
X10240000Y-7065000D02*
G75*
G02*
X10560000Y-7065000I160000J0D01*
G01*
X10400000Y-12665000D02*
G75*
G02*
X10000000Y-12265000I0J400000D01*
G01*
X17800000Y-6665000D02*
G75*
G02*
X18200000Y-7065000I0J-400000D01*
G01*
X17960000Y-12265000D02*
G75*
G02*
X17640000Y-12265000I-160000J0D01*
G01*
X17640000Y-12265000D02*
G75*
G02*
X17960000Y-12265000I160000J0D01*
G01*
X10000000Y-12265000D02*
X10000000Y-7065000D01*
D11*
X10258000Y-8410000D02*
X10288000Y-8440000D01*
X10288000Y-8410000D02*
X10258000Y-8440000D01*
X10264000Y-10895000D02*
X10294000Y-10925000D01*
X10294000Y-10895000D02*
X10264000Y-10925000D01*
X10358000Y-8410000D02*
X10388000Y-8440000D01*
X10388000Y-8410000D02*
X10358000Y-8440000D01*
X10364000Y-10895000D02*
X10394000Y-10925000D01*
X10394000Y-10895000D02*
X10364000Y-10925000D01*
X10458000Y-8410000D02*
X10488000Y-8440000D01*
X10488000Y-8410000D02*
X10458000Y-8440000D01*
X10464000Y-10895000D02*
X10494000Y-10925000D01*
X10494000Y-10895000D02*
X10464000Y-10925000D01*
X11127500Y-9892500D02*
X11157500Y-9922500D01*
X11157500Y-9892500D02*
X11127500Y-9922500D01*
X11137500Y-8745000D02*
X11167500Y-8775000D01*
X11167500Y-8745000D02*
X11137500Y-8775000D01*
X11176120Y-8976420D02*
X11206120Y-9006420D01*
X11206120Y-8976420D02*
X11176120Y-9006420D01*
X11176240Y-9659860D02*
X11206240Y-9689860D01*
X11206240Y-9659860D02*
X11176240Y-9689860D01*
X11282537Y-9887463D02*
X11312537Y-9917463D01*
X11312537Y-9887463D02*
X11282537Y-9917463D01*
X11295000Y-8745000D02*
X11325000Y-8775000D01*
X11325000Y-8745000D02*
X11295000Y-8775000D01*
X11454720Y-11326560D02*
X11484720Y-11356560D01*
X11484720Y-11326560D02*
X11454720Y-11356560D01*
X11457260Y-11672000D02*
X11487260Y-11702000D01*
X11487260Y-11672000D02*
X11457260Y-11702000D01*
X11457260Y-12007280D02*
X11487260Y-12037280D01*
X11487260Y-12007280D02*
X11457260Y-12037280D01*
X11562320Y-10764760D02*
X11592320Y-10794760D01*
X11592320Y-10764760D02*
X11562320Y-10794760D01*
X11680000Y-8890000D02*
X11710000Y-8920000D01*
X11710000Y-8890000D02*
X11680000Y-8920000D01*
X11681700Y-9052800D02*
X11711700Y-9082800D01*
X11711700Y-9052800D02*
X11681700Y-9082800D01*
X11684240Y-9751300D02*
X11714240Y-9781300D01*
X11714240Y-9751300D02*
X11684240Y-9781300D01*
X11689320Y-9583660D02*
X11719320Y-9613660D01*
X11719320Y-9583660D02*
X11689320Y-9613660D01*
X11938240Y-10015460D02*
X11968240Y-10045460D01*
X11968240Y-10015460D02*
X11938240Y-10045460D01*
X11953480Y-12220180D02*
X11983480Y-12250180D01*
X11983480Y-12220180D02*
X11953480Y-12250180D01*
X12083020Y-12060160D02*
X12113020Y-12090160D01*
X12113020Y-12060160D02*
X12083020Y-12090160D01*
X12201000Y-8198000D02*
X12231000Y-8228000D01*
X12231000Y-8198000D02*
X12201000Y-8228000D01*
X12545000Y-7690000D02*
X12575000Y-7720000D01*
X12575000Y-7690000D02*
X12545000Y-7720000D01*
X12547840Y-11663920D02*
X12577840Y-11693920D01*
X12577840Y-11663920D02*
X12547840Y-11693920D01*
X12585940Y-11326100D02*
X12615940Y-11356100D01*
X12615940Y-11326100D02*
X12585940Y-11356100D01*
X12588480Y-10571720D02*
X12618480Y-10601720D01*
X12618480Y-10571720D02*
X12588480Y-10601720D01*
X12601180Y-9891000D02*
X12631180Y-9921000D01*
X12631180Y-9891000D02*
X12601180Y-9921000D01*
X12623000Y-8754000D02*
X12653000Y-8784000D01*
X12653000Y-8754000D02*
X12623000Y-8784000D01*
X12749000Y-12211000D02*
X12779000Y-12241000D01*
X12779000Y-12211000D02*
X12749000Y-12241000D01*
X12764000Y-8452000D02*
X12794000Y-8482000D01*
X12794000Y-8452000D02*
X12764000Y-8482000D01*
X12789140Y-9934180D02*
X12819140Y-9964180D01*
X12819140Y-9934180D02*
X12789140Y-9964180D01*
X12952000Y-11617000D02*
X12982000Y-11647000D01*
X12982000Y-11617000D02*
X12952000Y-11647000D01*
X12961860Y-10012920D02*
X12991860Y-10042920D01*
X12991860Y-10012920D02*
X12961860Y-10042920D01*
X12967000Y-7817000D02*
X12997000Y-7847000D01*
X12997000Y-7817000D02*
X12967000Y-7847000D01*
X12968000Y-7943000D02*
X12998000Y-7973000D01*
X12998000Y-7943000D02*
X12968000Y-7973000D01*
X12979020Y-12191320D02*
X13009020Y-12221320D01*
X13009020Y-12191320D02*
X12979020Y-12221320D01*
X12992340Y-10975580D02*
X13022340Y-11005580D01*
X13022340Y-10975580D02*
X12992340Y-11005580D01*
X12998000Y-9641000D02*
X13028000Y-9671000D01*
X13028000Y-9641000D02*
X12998000Y-9671000D01*
X13052000Y-11617000D02*
X13082000Y-11647000D01*
X13082000Y-11617000D02*
X13052000Y-11647000D01*
X13152000Y-11617000D02*
X13182000Y-11647000D01*
X13182000Y-11617000D02*
X13152000Y-11647000D01*
X13279360Y-11503900D02*
X13309360Y-11533900D01*
X13309360Y-11503900D02*
X13279360Y-11533900D01*
X13327000Y-12188780D02*
X13357000Y-12218780D01*
X13357000Y-12188780D02*
X13327000Y-12218780D01*
X13375000Y-9720000D02*
X13405000Y-9750000D01*
X13405000Y-9720000D02*
X13375000Y-9750000D01*
X13458000Y-11272000D02*
X13488000Y-11302000D01*
X13488000Y-11272000D02*
X13458000Y-11302000D01*
X13462000Y-11013860D02*
X13492000Y-11043860D01*
X13492000Y-11013860D02*
X13462000Y-11043860D01*
X13652000Y-7877000D02*
X13682000Y-7907000D01*
X13682000Y-7877000D02*
X13652000Y-7907000D01*
X13654000Y-7719000D02*
X13684000Y-7749000D01*
X13684000Y-7719000D02*
X13654000Y-7749000D01*
X13657820Y-9614140D02*
X13687820Y-9644140D01*
X13687820Y-9614140D02*
X13657820Y-9644140D01*
X13712000Y-11552690D02*
X13742000Y-11582690D01*
X13742000Y-11552690D02*
X13712000Y-11582690D01*
X13728940Y-8631160D02*
X13758940Y-8661160D01*
X13758940Y-8631160D02*
X13728940Y-8661160D01*
X13975025Y-11537203D02*
X14005025Y-11567203D01*
X14005025Y-11537203D02*
X13975025Y-11567203D01*
X13992500Y-12197500D02*
X14022500Y-12227500D01*
X14022500Y-12197500D02*
X13992500Y-12227500D01*
X14115020Y-7513560D02*
X14145020Y-7543560D01*
X14145020Y-7513560D02*
X14115020Y-7543560D01*
X14115020Y-9746220D02*
X14145020Y-9776220D01*
X14145020Y-9746220D02*
X14115020Y-9776220D01*
X14214080Y-9479520D02*
X14244080Y-9509520D01*
X14244080Y-9479520D02*
X14214080Y-9509520D01*
X14226780Y-7803120D02*
X14256780Y-7833120D01*
X14256780Y-7803120D02*
X14226780Y-7833120D01*
X14262340Y-10012920D02*
X14292340Y-10042920D01*
X14292340Y-10012920D02*
X14262340Y-10042920D01*
X14310600Y-11021300D02*
X14340600Y-11051300D01*
X14340600Y-11021300D02*
X14310600Y-11051300D01*
X14313140Y-10675860D02*
X14343140Y-10705860D01*
X14343140Y-10675860D02*
X14313140Y-10705860D01*
X14336000Y-7516100D02*
X14366000Y-7546100D01*
X14366000Y-7516100D02*
X14336000Y-7546100D01*
X14348700Y-9301720D02*
X14378700Y-9331720D01*
X14378700Y-9301720D02*
X14348700Y-9331720D01*
X14382900Y-8121900D02*
X14412900Y-8151900D01*
X14412900Y-8121900D02*
X14382900Y-8151900D01*
X14463000Y-9852900D02*
X14493000Y-9882900D01*
X14493000Y-9852900D02*
X14463000Y-9882900D01*
X14468080Y-9703040D02*
X14498080Y-9733040D01*
X14498080Y-9703040D02*
X14468080Y-9733040D01*
X14496000Y-7398800D02*
X14526000Y-7428800D01*
X14526000Y-7398800D02*
X14496000Y-7428800D01*
X14520520Y-10253894D02*
X14550520Y-10283894D01*
X14550520Y-10253894D02*
X14520520Y-10283894D01*
X14587460Y-10952720D02*
X14617460Y-10982720D01*
X14617460Y-10952720D02*
X14587460Y-10982720D01*
X14714460Y-10457420D02*
X14744460Y-10487420D01*
X14744460Y-10457420D02*
X14714460Y-10487420D01*
X14780500Y-9301720D02*
X14810500Y-9331720D01*
X14810500Y-9301720D02*
X14780500Y-9331720D01*
X14844000Y-10950180D02*
X14874000Y-10980180D01*
X14874000Y-10950180D02*
X14844000Y-10980180D01*
X14903320Y-10248238D02*
X14933320Y-10278238D01*
X14933320Y-10248238D02*
X14903320Y-10278238D01*
X14925280Y-9857980D02*
X14955280Y-9887980D01*
X14955280Y-9857980D02*
X14925280Y-9887980D01*
X14932500Y-9704280D02*
X14962500Y-9734280D01*
X14962500Y-9704280D02*
X14932500Y-9734280D01*
X14971000Y-7330680D02*
X15001000Y-7360680D01*
X15001000Y-7330680D02*
X14971000Y-7360680D01*
X15024340Y-10713960D02*
X15054340Y-10743960D01*
X15054340Y-10713960D02*
X15024340Y-10743960D01*
X15125940Y-9824960D02*
X15155940Y-9854960D01*
X15155940Y-9824960D02*
X15125940Y-9854960D01*
X15125940Y-10030700D02*
X15155940Y-10060700D01*
X15155940Y-10030700D02*
X15125940Y-10060700D01*
X15179280Y-10711420D02*
X15209280Y-10741420D01*
X15209280Y-10711420D02*
X15179280Y-10741420D01*
X15190000Y-7331000D02*
X15220000Y-7361000D01*
X15220000Y-7331000D02*
X15190000Y-7361000D01*
X15230080Y-9306800D02*
X15260080Y-9336800D01*
X15260080Y-9306800D02*
X15230080Y-9336800D01*
X15321520Y-10272000D02*
X15351520Y-10302000D01*
X15351520Y-10272000D02*
X15321520Y-10302000D01*
X15514560Y-8201900D02*
X15544560Y-8231900D01*
X15544560Y-8201900D02*
X15514560Y-8231900D01*
X15522370Y-10660430D02*
X15552370Y-10690430D01*
X15552370Y-10660430D02*
X15522370Y-10690430D01*
X15532340Y-9352520D02*
X15562340Y-9382520D01*
X15562340Y-9352520D02*
X15532340Y-9382520D01*
X15745700Y-9934180D02*
X15775700Y-9964180D01*
X15775700Y-9934180D02*
X15745700Y-9964180D01*
X15748240Y-9715740D02*
X15778240Y-9745740D01*
X15778240Y-9715740D02*
X15748240Y-9745740D01*
X15882860Y-9200120D02*
X15912860Y-9230120D01*
X15912860Y-9200120D02*
X15882860Y-9230120D01*
X15885400Y-8011400D02*
X15915400Y-8041400D01*
X15915400Y-8011400D02*
X15885400Y-8041400D01*
X16035260Y-10368520D02*
X16065260Y-10398520D01*
X16065260Y-10368520D02*
X16035260Y-10398520D01*
X16037800Y-8008860D02*
X16067800Y-8038860D01*
X16067800Y-8008860D02*
X16037800Y-8038860D01*
X16037800Y-9428720D02*
X16067800Y-9458720D01*
X16067800Y-9428720D02*
X16037800Y-9458720D01*
X16040340Y-8356840D02*
X16070340Y-8386840D01*
X16070340Y-8356840D02*
X16040340Y-8386840D01*
X16087720Y-9015580D02*
X16117720Y-9045580D01*
X16117720Y-9015580D02*
X16087720Y-9045580D01*
X16245000Y-8211580D02*
X16275000Y-8241580D01*
X16275000Y-8211580D02*
X16245000Y-8241580D01*
X16246080Y-7665960D02*
X16276080Y-7695960D01*
X16276080Y-7665960D02*
X16246080Y-7695960D01*
X16370540Y-7932660D02*
X16400540Y-7962660D01*
X16400540Y-7932660D02*
X16370540Y-7962660D01*
X16685500Y-9441420D02*
X16715500Y-9471420D01*
X16715500Y-9441420D02*
X16685500Y-9471420D01*
X16740000Y-9131000D02*
X16770000Y-9161000D01*
X16770000Y-9131000D02*
X16740000Y-9161000D01*
X16740460Y-7666420D02*
X16770460Y-7696420D01*
X16770460Y-7666420D02*
X16740460Y-7696420D01*
X16860760Y-7930120D02*
X16890760Y-7960120D01*
X16890760Y-7930120D02*
X16860760Y-7960120D01*
X16911000Y-8211000D02*
X16941000Y-8241000D01*
X16941000Y-8211000D02*
X16911000Y-8241000D01*
X14056640Y-10976180D02*
G75*
G02*
X14016640Y-10976180I-20000J0D01*
G01*
X14016640Y-10976180D02*
G75*
G02*
X14056640Y-10976180I20000J0D01*
G01*
X14056640Y-11071180D02*
G75*
G02*
X14016640Y-11071180I-20000J0D01*
G01*
X14016640Y-11071180D02*
G75*
G02*
X14056640Y-11071180I20000J0D01*
G01*
X10160000Y-7040000D02*
X10160000Y-7090000D01*
X10135000Y-7065000D02*
X10185000Y-7065000D01*
X10160000Y-12240000D02*
X10160000Y-12290000D01*
X10135000Y-12265000D02*
X10185000Y-12265000D01*
X10230294Y-6870294D02*
X10230294Y-6920294D01*
X10205294Y-6895294D02*
X10255294Y-6895294D01*
X10230294Y-7209705D02*
X10230294Y-7259705D01*
X10205294Y-7234705D02*
X10255294Y-7234705D01*
X10230294Y-12070294D02*
X10230294Y-12120294D01*
X10205294Y-12095294D02*
X10255294Y-12095294D01*
X10230294Y-12409705D02*
X10230294Y-12459705D01*
X10205294Y-12434705D02*
X10255294Y-12434705D01*
X10400000Y-6800000D02*
X10400000Y-6850000D01*
X10375000Y-6825000D02*
X10425000Y-6825000D01*
X10400000Y-7280000D02*
X10400000Y-7330000D01*
X10375000Y-7305000D02*
X10425000Y-7305000D01*
X10400000Y-12000000D02*
X10400000Y-12050000D01*
X10375000Y-12025000D02*
X10425000Y-12025000D01*
X10400000Y-12480000D02*
X10400000Y-12530000D01*
X10375000Y-12505000D02*
X10425000Y-12505000D01*
X10569706Y-6870294D02*
X10569706Y-6920294D01*
X10544706Y-6895294D02*
X10594706Y-6895294D01*
X10569706Y-7209705D02*
X10569706Y-7259705D01*
X10544706Y-7234705D02*
X10594706Y-7234705D01*
X10569706Y-12070294D02*
X10569706Y-12120294D01*
X10544706Y-12095294D02*
X10594706Y-12095294D01*
X10569706Y-12409705D02*
X10569706Y-12459705D01*
X10544706Y-12434705D02*
X10594706Y-12434705D01*
X10640000Y-7040000D02*
X10640000Y-7090000D01*
X10615000Y-7065000D02*
X10665000Y-7065000D01*
X10640000Y-12240000D02*
X10640000Y-12290000D01*
X10615000Y-12265000D02*
X10665000Y-12265000D01*
X17560000Y-7040000D02*
X17560000Y-7090000D01*
X17535000Y-7065000D02*
X17585000Y-7065000D01*
X17560000Y-12240000D02*
X17560000Y-12290000D01*
X17535000Y-12265000D02*
X17585000Y-12265000D01*
X17630294Y-6870294D02*
X17630294Y-6920294D01*
X17605294Y-6895294D02*
X17655294Y-6895294D01*
X17630294Y-7209705D02*
X17630294Y-7259705D01*
X17605294Y-7234705D02*
X17655294Y-7234705D01*
X17630294Y-12070294D02*
X17630294Y-12120294D01*
X17605294Y-12095294D02*
X17655294Y-12095294D01*
X17630294Y-12409705D02*
X17630294Y-12459705D01*
X17605294Y-12434705D02*
X17655294Y-12434705D01*
X17800000Y-6800000D02*
X17800000Y-6850000D01*
X17775000Y-6825000D02*
X17825000Y-6825000D01*
X17800000Y-7280000D02*
X17800000Y-7330000D01*
X17775000Y-7305000D02*
X17825000Y-7305000D01*
X17800000Y-12000000D02*
X17800000Y-12050000D01*
X17775000Y-12025000D02*
X17825000Y-12025000D01*
X17800000Y-12480000D02*
X17800000Y-12530000D01*
X17775000Y-12505000D02*
X17825000Y-12505000D01*
X17969706Y-6870294D02*
X17969706Y-6920294D01*
X17944706Y-6895294D02*
X17994706Y-6895294D01*
X17969706Y-7209705D02*
X17969706Y-7259705D01*
X17944706Y-7234705D02*
X17994706Y-7234705D01*
X17969706Y-12070294D02*
X17969706Y-12120294D01*
X17944706Y-12095294D02*
X17994706Y-12095294D01*
X17969706Y-12409705D02*
X17969706Y-12459705D01*
X17944706Y-12434705D02*
X17994706Y-12434705D01*
X18040000Y-7040000D02*
X18040000Y-7090000D01*
X18015000Y-7065000D02*
X18065000Y-7065000D01*
X18040000Y-12240000D02*
X18040000Y-12290000D01*
X18015000Y-12265000D02*
X18065000Y-12265000D01*
X17291676Y-10894776D02*
X17291676Y-10824064D01*
X17220964Y-10824064D01*
X17220964Y-10894776D01*
X17291676Y-10894776D01*
X17291676Y-11144776D02*
X17291676Y-11074064D01*
X17220964Y-11074064D01*
X17220964Y-11144776D01*
X17291676Y-11144776D01*
X17292116Y-8263876D02*
X17292116Y-8193164D01*
X17221404Y-8193164D01*
X17221404Y-8263876D01*
X17292116Y-8263876D01*
X17292116Y-8513876D02*
X17292116Y-8443164D01*
X17221404Y-8443164D01*
X17221404Y-8513876D01*
X17292116Y-8513876D01*
X17292116Y-9137636D02*
X17292116Y-9066924D01*
X17221404Y-9066924D01*
X17221404Y-9137636D01*
X17292116Y-9137636D01*
X17292116Y-9387636D02*
X17292116Y-9316924D01*
X17221404Y-9316924D01*
X17221404Y-9387636D01*
X17292116Y-9387636D01*
X17292116Y-10008856D02*
X17292116Y-9938144D01*
X17221404Y-9938144D01*
X17221404Y-10008856D01*
X17292116Y-10008856D01*
X17292116Y-10258856D02*
X17292116Y-10188144D01*
X17221404Y-10188144D01*
X17221404Y-10258856D01*
X17292116Y-10258856D01*
D12*
X10400000Y-7225000D02*
X10560000Y-7065000D01*
X10400000Y-6905000D01*
X10240000Y-7065000D01*
X10400000Y-7225000D01*
X10400000Y-12425000D02*
X10560000Y-12265000D01*
X10400000Y-12105000D01*
X10240000Y-12265000D01*
X10400000Y-12425000D01*
X17800000Y-7225000D02*
X17960000Y-7065000D01*
X17800000Y-6905000D01*
X17640000Y-7065000D01*
X17800000Y-7225000D01*
X17800000Y-12425000D02*
X17960000Y-12265000D01*
X17800000Y-12105000D01*
X17640000Y-12265000D01*
X17800000Y-12425000D01*
D10*
X10250777Y-12986484D02*
X10250777Y-12786484D01*
X10250777Y-12786484D02*
X10298396Y-12786484D01*
X10298396Y-12786484D02*
X10326967Y-12796007D01*
X10326967Y-12796007D02*
X10346015Y-12815055D01*
X10346015Y-12815055D02*
X10355539Y-12834103D01*
X10355539Y-12834103D02*
X10365063Y-12872198D01*
X10365063Y-12872198D02*
X10365063Y-12900769D01*
X10365063Y-12900769D02*
X10355539Y-12938865D01*
X10355539Y-12938865D02*
X10346015Y-12957912D01*
X10346015Y-12957912D02*
X10326967Y-12976960D01*
X10326967Y-12976960D02*
X10298396Y-12986484D01*
X10298396Y-12986484D02*
X10250777Y-12986484D01*
X10450777Y-12986484D02*
X10450777Y-12853150D01*
X10450777Y-12891246D02*
X10460301Y-12872198D01*
X10460301Y-12872198D02*
X10469824Y-12862674D01*
X10469824Y-12862674D02*
X10488872Y-12853150D01*
X10488872Y-12853150D02*
X10507920Y-12853150D01*
X10574586Y-12986484D02*
X10574586Y-12853150D01*
X10574586Y-12786484D02*
X10565063Y-12796007D01*
X10565063Y-12796007D02*
X10574586Y-12805531D01*
X10574586Y-12805531D02*
X10584110Y-12796007D01*
X10584110Y-12796007D02*
X10574586Y-12786484D01*
X10574586Y-12786484D02*
X10574586Y-12805531D01*
X10698396Y-12986484D02*
X10679348Y-12976960D01*
X10679348Y-12976960D02*
X10669824Y-12957912D01*
X10669824Y-12957912D02*
X10669824Y-12786484D01*
X10803158Y-12986484D02*
X10784110Y-12976960D01*
X10784110Y-12976960D02*
X10774586Y-12957912D01*
X10774586Y-12957912D02*
X10774586Y-12786484D01*
X11031729Y-12986484D02*
X11031729Y-12786484D01*
X11031729Y-12786484D02*
X11098396Y-12929341D01*
X11098396Y-12929341D02*
X11165063Y-12786484D01*
X11165063Y-12786484D02*
X11165063Y-12986484D01*
X11346015Y-12986484D02*
X11346015Y-12881722D01*
X11346015Y-12881722D02*
X11336491Y-12862674D01*
X11336491Y-12862674D02*
X11317443Y-12853150D01*
X11317443Y-12853150D02*
X11279348Y-12853150D01*
X11279348Y-12853150D02*
X11260301Y-12862674D01*
X11346015Y-12976960D02*
X11326967Y-12986484D01*
X11326967Y-12986484D02*
X11279348Y-12986484D01*
X11279348Y-12986484D02*
X11260301Y-12976960D01*
X11260301Y-12976960D02*
X11250777Y-12957912D01*
X11250777Y-12957912D02*
X11250777Y-12938865D01*
X11250777Y-12938865D02*
X11260301Y-12919817D01*
X11260301Y-12919817D02*
X11279348Y-12910293D01*
X11279348Y-12910293D02*
X11326967Y-12910293D01*
X11326967Y-12910293D02*
X11346015Y-12900769D01*
X11441253Y-12853150D02*
X11441253Y-13053150D01*
X11441253Y-12862674D02*
X11460301Y-12853150D01*
X11460301Y-12853150D02*
X11498396Y-12853150D01*
X11498396Y-12853150D02*
X11517443Y-12862674D01*
X11517443Y-12862674D02*
X11526967Y-12872198D01*
X11526967Y-12872198D02*
X11536491Y-12891246D01*
X11536491Y-12891246D02*
X11536491Y-12948388D01*
X11536491Y-12948388D02*
X11526967Y-12967436D01*
X11526967Y-12967436D02*
X11517443Y-12976960D01*
X11517443Y-12976960D02*
X11498396Y-12986484D01*
X11498396Y-12986484D02*
X11460301Y-12986484D01*
X11460301Y-12986484D02*
X11441253Y-12976960D01*
X11622205Y-12967436D02*
X11631729Y-12976960D01*
X11631729Y-12976960D02*
X11622205Y-12986484D01*
X11622205Y-12986484D02*
X11612682Y-12976960D01*
X11612682Y-12976960D02*
X11622205Y-12967436D01*
X11622205Y-12967436D02*
X11622205Y-12986484D01*
X11622205Y-12862674D02*
X11631729Y-12872198D01*
X11631729Y-12872198D02*
X11622205Y-12881722D01*
X11622205Y-12881722D02*
X11612682Y-12872198D01*
X11612682Y-12872198D02*
X11622205Y-12862674D01*
X11622205Y-12862674D02*
X11622205Y-12881722D01*
D11*
X9960000Y-13300000D02*
X9990000Y-13330000D01*
X9990000Y-13300000D02*
X9960000Y-13330000D01*
D10*
X10288872Y-13206484D02*
X10307920Y-13206484D01*
X10307920Y-13206484D02*
X10326967Y-13216007D01*
X10326967Y-13216007D02*
X10336491Y-13225531D01*
X10336491Y-13225531D02*
X10346015Y-13244579D01*
X10346015Y-13244579D02*
X10355539Y-13282674D01*
X10355539Y-13282674D02*
X10355539Y-13330293D01*
X10355539Y-13330293D02*
X10346015Y-13368388D01*
X10346015Y-13368388D02*
X10336491Y-13387436D01*
X10336491Y-13387436D02*
X10326967Y-13396960D01*
X10326967Y-13396960D02*
X10307920Y-13406484D01*
X10307920Y-13406484D02*
X10288872Y-13406484D01*
X10288872Y-13406484D02*
X10269824Y-13396960D01*
X10269824Y-13396960D02*
X10260301Y-13387436D01*
X10260301Y-13387436D02*
X10250777Y-13368388D01*
X10250777Y-13368388D02*
X10241253Y-13330293D01*
X10241253Y-13330293D02*
X10241253Y-13282674D01*
X10241253Y-13282674D02*
X10250777Y-13244579D01*
X10250777Y-13244579D02*
X10260301Y-13225531D01*
X10260301Y-13225531D02*
X10269824Y-13216007D01*
X10269824Y-13216007D02*
X10288872Y-13206484D01*
X10441253Y-13387436D02*
X10450777Y-13396960D01*
X10450777Y-13396960D02*
X10441253Y-13406484D01*
X10441253Y-13406484D02*
X10431729Y-13396960D01*
X10431729Y-13396960D02*
X10441253Y-13387436D01*
X10441253Y-13387436D02*
X10441253Y-13406484D01*
X10517444Y-13206484D02*
X10641253Y-13206484D01*
X10641253Y-13206484D02*
X10574586Y-13282674D01*
X10574586Y-13282674D02*
X10603158Y-13282674D01*
X10603158Y-13282674D02*
X10622205Y-13292198D01*
X10622205Y-13292198D02*
X10631729Y-13301722D01*
X10631729Y-13301722D02*
X10641253Y-13320769D01*
X10641253Y-13320769D02*
X10641253Y-13368388D01*
X10641253Y-13368388D02*
X10631729Y-13387436D01*
X10631729Y-13387436D02*
X10622205Y-13396960D01*
X10622205Y-13396960D02*
X10603158Y-13406484D01*
X10603158Y-13406484D02*
X10546015Y-13406484D01*
X10546015Y-13406484D02*
X10526967Y-13396960D01*
X10526967Y-13396960D02*
X10517444Y-13387436D01*
X10765063Y-13206484D02*
X10784110Y-13206484D01*
X10784110Y-13206484D02*
X10803158Y-13216007D01*
X10803158Y-13216007D02*
X10812682Y-13225531D01*
X10812682Y-13225531D02*
X10822205Y-13244579D01*
X10822205Y-13244579D02*
X10831729Y-13282674D01*
X10831729Y-13282674D02*
X10831729Y-13330293D01*
X10831729Y-13330293D02*
X10822205Y-13368388D01*
X10822205Y-13368388D02*
X10812682Y-13387436D01*
X10812682Y-13387436D02*
X10803158Y-13396960D01*
X10803158Y-13396960D02*
X10784110Y-13406484D01*
X10784110Y-13406484D02*
X10765063Y-13406484D01*
X10765063Y-13406484D02*
X10746015Y-13396960D01*
X10746015Y-13396960D02*
X10736491Y-13387436D01*
X10736491Y-13387436D02*
X10726967Y-13368388D01*
X10726967Y-13368388D02*
X10717444Y-13330293D01*
X10717444Y-13330293D02*
X10717444Y-13282674D01*
X10717444Y-13282674D02*
X10726967Y-13244579D01*
X10726967Y-13244579D02*
X10736491Y-13225531D01*
X10736491Y-13225531D02*
X10746015Y-13216007D01*
X10746015Y-13216007D02*
X10765063Y-13206484D01*
X10955539Y-13206484D02*
X10974586Y-13206484D01*
X10974586Y-13206484D02*
X10993634Y-13216007D01*
X10993634Y-13216007D02*
X11003158Y-13225531D01*
X11003158Y-13225531D02*
X11012682Y-13244579D01*
X11012682Y-13244579D02*
X11022205Y-13282674D01*
X11022205Y-13282674D02*
X11022205Y-13330293D01*
X11022205Y-13330293D02*
X11012682Y-13368388D01*
X11012682Y-13368388D02*
X11003158Y-13387436D01*
X11003158Y-13387436D02*
X10993634Y-13396960D01*
X10993634Y-13396960D02*
X10974586Y-13406484D01*
X10974586Y-13406484D02*
X10955539Y-13406484D01*
X10955539Y-13406484D02*
X10936491Y-13396960D01*
X10936491Y-13396960D02*
X10926967Y-13387436D01*
X10926967Y-13387436D02*
X10917444Y-13368388D01*
X10917444Y-13368388D02*
X10907920Y-13330293D01*
X10907920Y-13330293D02*
X10907920Y-13282674D01*
X10907920Y-13282674D02*
X10917444Y-13244579D01*
X10917444Y-13244579D02*
X10926967Y-13225531D01*
X10926967Y-13225531D02*
X10936491Y-13216007D01*
X10936491Y-13216007D02*
X10955539Y-13206484D01*
X11107920Y-13406484D02*
X11107920Y-13273150D01*
X11107920Y-13292198D02*
X11117444Y-13282674D01*
X11117444Y-13282674D02*
X11136491Y-13273150D01*
X11136491Y-13273150D02*
X11165063Y-13273150D01*
X11165063Y-13273150D02*
X11184110Y-13282674D01*
X11184110Y-13282674D02*
X11193634Y-13301722D01*
X11193634Y-13301722D02*
X11193634Y-13406484D01*
X11193634Y-13301722D02*
X11203158Y-13282674D01*
X11203158Y-13282674D02*
X11222205Y-13273150D01*
X11222205Y-13273150D02*
X11250777Y-13273150D01*
X11250777Y-13273150D02*
X11269824Y-13282674D01*
X11269824Y-13282674D02*
X11279348Y-13301722D01*
X11279348Y-13301722D02*
X11279348Y-13406484D01*
X11374586Y-13406484D02*
X11374586Y-13273150D01*
X11374586Y-13292198D02*
X11384110Y-13282674D01*
X11384110Y-13282674D02*
X11403158Y-13273150D01*
X11403158Y-13273150D02*
X11431729Y-13273150D01*
X11431729Y-13273150D02*
X11450777Y-13282674D01*
X11450777Y-13282674D02*
X11460301Y-13301722D01*
X11460301Y-13301722D02*
X11460301Y-13406484D01*
X11460301Y-13301722D02*
X11469824Y-13282674D01*
X11469824Y-13282674D02*
X11488872Y-13273150D01*
X11488872Y-13273150D02*
X11517443Y-13273150D01*
X11517443Y-13273150D02*
X11536491Y-13282674D01*
X11536491Y-13282674D02*
X11546015Y-13301722D01*
X11546015Y-13301722D02*
X11546015Y-13406484D01*
X11936491Y-13196960D02*
X11765063Y-13454103D01*
X12193634Y-13206484D02*
X12212682Y-13206484D01*
X12212682Y-13206484D02*
X12231729Y-13216007D01*
X12231729Y-13216007D02*
X12241253Y-13225531D01*
X12241253Y-13225531D02*
X12250777Y-13244579D01*
X12250777Y-13244579D02*
X12260301Y-13282674D01*
X12260301Y-13282674D02*
X12260301Y-13330293D01*
X12260301Y-13330293D02*
X12250777Y-13368388D01*
X12250777Y-13368388D02*
X12241253Y-13387436D01*
X12241253Y-13387436D02*
X12231729Y-13396960D01*
X12231729Y-13396960D02*
X12212682Y-13406484D01*
X12212682Y-13406484D02*
X12193634Y-13406484D01*
X12193634Y-13406484D02*
X12174586Y-13396960D01*
X12174586Y-13396960D02*
X12165063Y-13387436D01*
X12165063Y-13387436D02*
X12155539Y-13368388D01*
X12155539Y-13368388D02*
X12146015Y-13330293D01*
X12146015Y-13330293D02*
X12146015Y-13282674D01*
X12146015Y-13282674D02*
X12155539Y-13244579D01*
X12155539Y-13244579D02*
X12165063Y-13225531D01*
X12165063Y-13225531D02*
X12174586Y-13216007D01*
X12174586Y-13216007D02*
X12193634Y-13206484D01*
X12346015Y-13387436D02*
X12355539Y-13396960D01*
X12355539Y-13396960D02*
X12346015Y-13406484D01*
X12346015Y-13406484D02*
X12336491Y-13396960D01*
X12336491Y-13396960D02*
X12346015Y-13387436D01*
X12346015Y-13387436D02*
X12346015Y-13406484D01*
X12479348Y-13206484D02*
X12498396Y-13206484D01*
X12498396Y-13206484D02*
X12517444Y-13216007D01*
X12517444Y-13216007D02*
X12526967Y-13225531D01*
X12526967Y-13225531D02*
X12536491Y-13244579D01*
X12536491Y-13244579D02*
X12546015Y-13282674D01*
X12546015Y-13282674D02*
X12546015Y-13330293D01*
X12546015Y-13330293D02*
X12536491Y-13368388D01*
X12536491Y-13368388D02*
X12526967Y-13387436D01*
X12526967Y-13387436D02*
X12517444Y-13396960D01*
X12517444Y-13396960D02*
X12498396Y-13406484D01*
X12498396Y-13406484D02*
X12479348Y-13406484D01*
X12479348Y-13406484D02*
X12460301Y-13396960D01*
X12460301Y-13396960D02*
X12450777Y-13387436D01*
X12450777Y-13387436D02*
X12441253Y-13368388D01*
X12441253Y-13368388D02*
X12431729Y-13330293D01*
X12431729Y-13330293D02*
X12431729Y-13282674D01*
X12431729Y-13282674D02*
X12441253Y-13244579D01*
X12441253Y-13244579D02*
X12450777Y-13225531D01*
X12450777Y-13225531D02*
X12460301Y-13216007D01*
X12460301Y-13216007D02*
X12479348Y-13206484D01*
X12736491Y-13406484D02*
X12622206Y-13406484D01*
X12679348Y-13406484D02*
X12679348Y-13206484D01*
X12679348Y-13206484D02*
X12660301Y-13235055D01*
X12660301Y-13235055D02*
X12641253Y-13254103D01*
X12641253Y-13254103D02*
X12622206Y-13263626D01*
X12926967Y-13406484D02*
X12812682Y-13406484D01*
X12869825Y-13406484D02*
X12869825Y-13206484D01*
X12869825Y-13206484D02*
X12850777Y-13235055D01*
X12850777Y-13235055D02*
X12831729Y-13254103D01*
X12831729Y-13254103D02*
X12812682Y-13263626D01*
X13041253Y-13292198D02*
X13022206Y-13282674D01*
X13022206Y-13282674D02*
X13012682Y-13273150D01*
X13012682Y-13273150D02*
X13003158Y-13254103D01*
X13003158Y-13254103D02*
X13003158Y-13244579D01*
X13003158Y-13244579D02*
X13012682Y-13225531D01*
X13012682Y-13225531D02*
X13022206Y-13216007D01*
X13022206Y-13216007D02*
X13041253Y-13206484D01*
X13041253Y-13206484D02*
X13079348Y-13206484D01*
X13079348Y-13206484D02*
X13098396Y-13216007D01*
X13098396Y-13216007D02*
X13107920Y-13225531D01*
X13107920Y-13225531D02*
X13117444Y-13244579D01*
X13117444Y-13244579D02*
X13117444Y-13254103D01*
X13117444Y-13254103D02*
X13107920Y-13273150D01*
X13107920Y-13273150D02*
X13098396Y-13282674D01*
X13098396Y-13282674D02*
X13079348Y-13292198D01*
X13079348Y-13292198D02*
X13041253Y-13292198D01*
X13041253Y-13292198D02*
X13022206Y-13301722D01*
X13022206Y-13301722D02*
X13012682Y-13311246D01*
X13012682Y-13311246D02*
X13003158Y-13330293D01*
X13003158Y-13330293D02*
X13003158Y-13368388D01*
X13003158Y-13368388D02*
X13012682Y-13387436D01*
X13012682Y-13387436D02*
X13022206Y-13396960D01*
X13022206Y-13396960D02*
X13041253Y-13406484D01*
X13041253Y-13406484D02*
X13079348Y-13406484D01*
X13079348Y-13406484D02*
X13098396Y-13396960D01*
X13098396Y-13396960D02*
X13107920Y-13387436D01*
X13107920Y-13387436D02*
X13117444Y-13368388D01*
X13117444Y-13368388D02*
X13117444Y-13330293D01*
X13117444Y-13330293D02*
X13107920Y-13311246D01*
X13107920Y-13311246D02*
X13098396Y-13301722D01*
X13098396Y-13301722D02*
X13079348Y-13292198D01*
X13193634Y-13206484D02*
X13193634Y-13244579D01*
X13269825Y-13206484D02*
X13269825Y-13244579D01*
X13565063Y-13482674D02*
X13555539Y-13473150D01*
X13555539Y-13473150D02*
X13536491Y-13444579D01*
X13536491Y-13444579D02*
X13526968Y-13425531D01*
X13526968Y-13425531D02*
X13517444Y-13396960D01*
X13517444Y-13396960D02*
X13507920Y-13349341D01*
X13507920Y-13349341D02*
X13507920Y-13311246D01*
X13507920Y-13311246D02*
X13517444Y-13263626D01*
X13517444Y-13263626D02*
X13526968Y-13235055D01*
X13526968Y-13235055D02*
X13536491Y-13216007D01*
X13536491Y-13216007D02*
X13555539Y-13187436D01*
X13555539Y-13187436D02*
X13565063Y-13177912D01*
X13746015Y-13406484D02*
X13631729Y-13406484D01*
X13688872Y-13406484D02*
X13688872Y-13206484D01*
X13688872Y-13206484D02*
X13669825Y-13235055D01*
X13669825Y-13235055D02*
X13650777Y-13254103D01*
X13650777Y-13254103D02*
X13631729Y-13263626D01*
X13869825Y-13206484D02*
X13888872Y-13206484D01*
X13888872Y-13206484D02*
X13907920Y-13216007D01*
X13907920Y-13216007D02*
X13917444Y-13225531D01*
X13917444Y-13225531D02*
X13926968Y-13244579D01*
X13926968Y-13244579D02*
X13936491Y-13282674D01*
X13936491Y-13282674D02*
X13936491Y-13330293D01*
X13936491Y-13330293D02*
X13926968Y-13368388D01*
X13926968Y-13368388D02*
X13917444Y-13387436D01*
X13917444Y-13387436D02*
X13907920Y-13396960D01*
X13907920Y-13396960D02*
X13888872Y-13406484D01*
X13888872Y-13406484D02*
X13869825Y-13406484D01*
X13869825Y-13406484D02*
X13850777Y-13396960D01*
X13850777Y-13396960D02*
X13841253Y-13387436D01*
X13841253Y-13387436D02*
X13831729Y-13368388D01*
X13831729Y-13368388D02*
X13822206Y-13330293D01*
X13822206Y-13330293D02*
X13822206Y-13282674D01*
X13822206Y-13282674D02*
X13831729Y-13244579D01*
X13831729Y-13244579D02*
X13841253Y-13225531D01*
X13841253Y-13225531D02*
X13850777Y-13216007D01*
X13850777Y-13216007D02*
X13869825Y-13206484D01*
X14003158Y-13206484D02*
X14126968Y-13206484D01*
X14126968Y-13206484D02*
X14060301Y-13282674D01*
X14060301Y-13282674D02*
X14088872Y-13282674D01*
X14088872Y-13282674D02*
X14107920Y-13292198D01*
X14107920Y-13292198D02*
X14117444Y-13301722D01*
X14117444Y-13301722D02*
X14126968Y-13320769D01*
X14126968Y-13320769D02*
X14126968Y-13368388D01*
X14126968Y-13368388D02*
X14117444Y-13387436D01*
X14117444Y-13387436D02*
X14107920Y-13396960D01*
X14107920Y-13396960D02*
X14088872Y-13406484D01*
X14088872Y-13406484D02*
X14031729Y-13406484D01*
X14031729Y-13406484D02*
X14012682Y-13396960D01*
X14012682Y-13396960D02*
X14003158Y-13387436D01*
X14365063Y-13406484D02*
X14365063Y-13206484D01*
X14450777Y-13406484D02*
X14450777Y-13301722D01*
X14450777Y-13301722D02*
X14441253Y-13282674D01*
X14441253Y-13282674D02*
X14422206Y-13273150D01*
X14422206Y-13273150D02*
X14393634Y-13273150D01*
X14393634Y-13273150D02*
X14374587Y-13282674D01*
X14374587Y-13282674D02*
X14365063Y-13292198D01*
X14574587Y-13406484D02*
X14555539Y-13396960D01*
X14555539Y-13396960D02*
X14546015Y-13387436D01*
X14546015Y-13387436D02*
X14536491Y-13368388D01*
X14536491Y-13368388D02*
X14536491Y-13311246D01*
X14536491Y-13311246D02*
X14546015Y-13292198D01*
X14546015Y-13292198D02*
X14555539Y-13282674D01*
X14555539Y-13282674D02*
X14574587Y-13273150D01*
X14574587Y-13273150D02*
X14603158Y-13273150D01*
X14603158Y-13273150D02*
X14622206Y-13282674D01*
X14622206Y-13282674D02*
X14631730Y-13292198D01*
X14631730Y-13292198D02*
X14641253Y-13311246D01*
X14641253Y-13311246D02*
X14641253Y-13368388D01*
X14641253Y-13368388D02*
X14631730Y-13387436D01*
X14631730Y-13387436D02*
X14622206Y-13396960D01*
X14622206Y-13396960D02*
X14603158Y-13406484D01*
X14603158Y-13406484D02*
X14574587Y-13406484D01*
X14755539Y-13406484D02*
X14736491Y-13396960D01*
X14736491Y-13396960D02*
X14726968Y-13377912D01*
X14726968Y-13377912D02*
X14726968Y-13206484D01*
X14907920Y-13396960D02*
X14888872Y-13406484D01*
X14888872Y-13406484D02*
X14850777Y-13406484D01*
X14850777Y-13406484D02*
X14831730Y-13396960D01*
X14831730Y-13396960D02*
X14822206Y-13377912D01*
X14822206Y-13377912D02*
X14822206Y-13301722D01*
X14822206Y-13301722D02*
X14831730Y-13282674D01*
X14831730Y-13282674D02*
X14850777Y-13273150D01*
X14850777Y-13273150D02*
X14888872Y-13273150D01*
X14888872Y-13273150D02*
X14907920Y-13282674D01*
X14907920Y-13282674D02*
X14917444Y-13301722D01*
X14917444Y-13301722D02*
X14917444Y-13320769D01*
X14917444Y-13320769D02*
X14822206Y-13339817D01*
X14993634Y-13396960D02*
X15012682Y-13406484D01*
X15012682Y-13406484D02*
X15050777Y-13406484D01*
X15050777Y-13406484D02*
X15069825Y-13396960D01*
X15069825Y-13396960D02*
X15079349Y-13377912D01*
X15079349Y-13377912D02*
X15079349Y-13368388D01*
X15079349Y-13368388D02*
X15069825Y-13349341D01*
X15069825Y-13349341D02*
X15050777Y-13339817D01*
X15050777Y-13339817D02*
X15022206Y-13339817D01*
X15022206Y-13339817D02*
X15003158Y-13330293D01*
X15003158Y-13330293D02*
X14993634Y-13311246D01*
X14993634Y-13311246D02*
X14993634Y-13301722D01*
X14993634Y-13301722D02*
X15003158Y-13282674D01*
X15003158Y-13282674D02*
X15022206Y-13273150D01*
X15022206Y-13273150D02*
X15050777Y-13273150D01*
X15050777Y-13273150D02*
X15069825Y-13282674D01*
X15146015Y-13482674D02*
X15155539Y-13473150D01*
X15155539Y-13473150D02*
X15174587Y-13444579D01*
X15174587Y-13444579D02*
X15184111Y-13425531D01*
X15184111Y-13425531D02*
X15193634Y-13396960D01*
X15193634Y-13396960D02*
X15203158Y-13349341D01*
X15203158Y-13349341D02*
X15203158Y-13311246D01*
X15203158Y-13311246D02*
X15193634Y-13263626D01*
X15193634Y-13263626D02*
X15184111Y-13235055D01*
X15184111Y-13235055D02*
X15174587Y-13216007D01*
X15174587Y-13216007D02*
X15155539Y-13187436D01*
X15155539Y-13187436D02*
X15146015Y-13177912D01*
D11*
X9990000Y-13579000D02*
G75*
G02*
X9950000Y-13579000I-20000J0D01*
G01*
X9950000Y-13579000D02*
G75*
G02*
X9990000Y-13579000I20000J0D01*
G01*
D10*
X10288872Y-13470484D02*
X10307920Y-13470484D01*
X10307920Y-13470484D02*
X10326967Y-13480007D01*
X10326967Y-13480007D02*
X10336491Y-13489531D01*
X10336491Y-13489531D02*
X10346015Y-13508579D01*
X10346015Y-13508579D02*
X10355539Y-13546674D01*
X10355539Y-13546674D02*
X10355539Y-13594293D01*
X10355539Y-13594293D02*
X10346015Y-13632388D01*
X10346015Y-13632388D02*
X10336491Y-13651436D01*
X10336491Y-13651436D02*
X10326967Y-13660960D01*
X10326967Y-13660960D02*
X10307920Y-13670484D01*
X10307920Y-13670484D02*
X10288872Y-13670484D01*
X10288872Y-13670484D02*
X10269824Y-13660960D01*
X10269824Y-13660960D02*
X10260301Y-13651436D01*
X10260301Y-13651436D02*
X10250777Y-13632388D01*
X10250777Y-13632388D02*
X10241253Y-13594293D01*
X10241253Y-13594293D02*
X10241253Y-13546674D01*
X10241253Y-13546674D02*
X10250777Y-13508579D01*
X10250777Y-13508579D02*
X10260301Y-13489531D01*
X10260301Y-13489531D02*
X10269824Y-13480007D01*
X10269824Y-13480007D02*
X10288872Y-13470484D01*
X10441253Y-13651436D02*
X10450777Y-13660960D01*
X10450777Y-13660960D02*
X10441253Y-13670484D01*
X10441253Y-13670484D02*
X10431729Y-13660960D01*
X10431729Y-13660960D02*
X10441253Y-13651436D01*
X10441253Y-13651436D02*
X10441253Y-13670484D01*
X10622205Y-13537150D02*
X10622205Y-13670484D01*
X10574586Y-13460960D02*
X10526967Y-13603817D01*
X10526967Y-13603817D02*
X10650777Y-13603817D01*
X10765063Y-13470484D02*
X10784110Y-13470484D01*
X10784110Y-13470484D02*
X10803158Y-13480007D01*
X10803158Y-13480007D02*
X10812682Y-13489531D01*
X10812682Y-13489531D02*
X10822205Y-13508579D01*
X10822205Y-13508579D02*
X10831729Y-13546674D01*
X10831729Y-13546674D02*
X10831729Y-13594293D01*
X10831729Y-13594293D02*
X10822205Y-13632388D01*
X10822205Y-13632388D02*
X10812682Y-13651436D01*
X10812682Y-13651436D02*
X10803158Y-13660960D01*
X10803158Y-13660960D02*
X10784110Y-13670484D01*
X10784110Y-13670484D02*
X10765063Y-13670484D01*
X10765063Y-13670484D02*
X10746015Y-13660960D01*
X10746015Y-13660960D02*
X10736491Y-13651436D01*
X10736491Y-13651436D02*
X10726967Y-13632388D01*
X10726967Y-13632388D02*
X10717444Y-13594293D01*
X10717444Y-13594293D02*
X10717444Y-13546674D01*
X10717444Y-13546674D02*
X10726967Y-13508579D01*
X10726967Y-13508579D02*
X10736491Y-13489531D01*
X10736491Y-13489531D02*
X10746015Y-13480007D01*
X10746015Y-13480007D02*
X10765063Y-13470484D01*
X10955539Y-13470484D02*
X10974586Y-13470484D01*
X10974586Y-13470484D02*
X10993634Y-13480007D01*
X10993634Y-13480007D02*
X11003158Y-13489531D01*
X11003158Y-13489531D02*
X11012682Y-13508579D01*
X11012682Y-13508579D02*
X11022205Y-13546674D01*
X11022205Y-13546674D02*
X11022205Y-13594293D01*
X11022205Y-13594293D02*
X11012682Y-13632388D01*
X11012682Y-13632388D02*
X11003158Y-13651436D01*
X11003158Y-13651436D02*
X10993634Y-13660960D01*
X10993634Y-13660960D02*
X10974586Y-13670484D01*
X10974586Y-13670484D02*
X10955539Y-13670484D01*
X10955539Y-13670484D02*
X10936491Y-13660960D01*
X10936491Y-13660960D02*
X10926967Y-13651436D01*
X10926967Y-13651436D02*
X10917444Y-13632388D01*
X10917444Y-13632388D02*
X10907920Y-13594293D01*
X10907920Y-13594293D02*
X10907920Y-13546674D01*
X10907920Y-13546674D02*
X10917444Y-13508579D01*
X10917444Y-13508579D02*
X10926967Y-13489531D01*
X10926967Y-13489531D02*
X10936491Y-13480007D01*
X10936491Y-13480007D02*
X10955539Y-13470484D01*
X11107920Y-13670484D02*
X11107920Y-13537150D01*
X11107920Y-13556198D02*
X11117444Y-13546674D01*
X11117444Y-13546674D02*
X11136491Y-13537150D01*
X11136491Y-13537150D02*
X11165063Y-13537150D01*
X11165063Y-13537150D02*
X11184110Y-13546674D01*
X11184110Y-13546674D02*
X11193634Y-13565722D01*
X11193634Y-13565722D02*
X11193634Y-13670484D01*
X11193634Y-13565722D02*
X11203158Y-13546674D01*
X11203158Y-13546674D02*
X11222205Y-13537150D01*
X11222205Y-13537150D02*
X11250777Y-13537150D01*
X11250777Y-13537150D02*
X11269824Y-13546674D01*
X11269824Y-13546674D02*
X11279348Y-13565722D01*
X11279348Y-13565722D02*
X11279348Y-13670484D01*
X11374586Y-13670484D02*
X11374586Y-13537150D01*
X11374586Y-13556198D02*
X11384110Y-13546674D01*
X11384110Y-13546674D02*
X11403158Y-13537150D01*
X11403158Y-13537150D02*
X11431729Y-13537150D01*
X11431729Y-13537150D02*
X11450777Y-13546674D01*
X11450777Y-13546674D02*
X11460301Y-13565722D01*
X11460301Y-13565722D02*
X11460301Y-13670484D01*
X11460301Y-13565722D02*
X11469824Y-13546674D01*
X11469824Y-13546674D02*
X11488872Y-13537150D01*
X11488872Y-13537150D02*
X11517443Y-13537150D01*
X11517443Y-13537150D02*
X11536491Y-13546674D01*
X11536491Y-13546674D02*
X11546015Y-13565722D01*
X11546015Y-13565722D02*
X11546015Y-13670484D01*
X11936491Y-13460960D02*
X11765063Y-13718103D01*
X12193634Y-13470484D02*
X12212682Y-13470484D01*
X12212682Y-13470484D02*
X12231729Y-13480007D01*
X12231729Y-13480007D02*
X12241253Y-13489531D01*
X12241253Y-13489531D02*
X12250777Y-13508579D01*
X12250777Y-13508579D02*
X12260301Y-13546674D01*
X12260301Y-13546674D02*
X12260301Y-13594293D01*
X12260301Y-13594293D02*
X12250777Y-13632388D01*
X12250777Y-13632388D02*
X12241253Y-13651436D01*
X12241253Y-13651436D02*
X12231729Y-13660960D01*
X12231729Y-13660960D02*
X12212682Y-13670484D01*
X12212682Y-13670484D02*
X12193634Y-13670484D01*
X12193634Y-13670484D02*
X12174586Y-13660960D01*
X12174586Y-13660960D02*
X12165063Y-13651436D01*
X12165063Y-13651436D02*
X12155539Y-13632388D01*
X12155539Y-13632388D02*
X12146015Y-13594293D01*
X12146015Y-13594293D02*
X12146015Y-13546674D01*
X12146015Y-13546674D02*
X12155539Y-13508579D01*
X12155539Y-13508579D02*
X12165063Y-13489531D01*
X12165063Y-13489531D02*
X12174586Y-13480007D01*
X12174586Y-13480007D02*
X12193634Y-13470484D01*
X12346015Y-13651436D02*
X12355539Y-13660960D01*
X12355539Y-13660960D02*
X12346015Y-13670484D01*
X12346015Y-13670484D02*
X12336491Y-13660960D01*
X12336491Y-13660960D02*
X12346015Y-13651436D01*
X12346015Y-13651436D02*
X12346015Y-13670484D01*
X12479348Y-13470484D02*
X12498396Y-13470484D01*
X12498396Y-13470484D02*
X12517444Y-13480007D01*
X12517444Y-13480007D02*
X12526967Y-13489531D01*
X12526967Y-13489531D02*
X12536491Y-13508579D01*
X12536491Y-13508579D02*
X12546015Y-13546674D01*
X12546015Y-13546674D02*
X12546015Y-13594293D01*
X12546015Y-13594293D02*
X12536491Y-13632388D01*
X12536491Y-13632388D02*
X12526967Y-13651436D01*
X12526967Y-13651436D02*
X12517444Y-13660960D01*
X12517444Y-13660960D02*
X12498396Y-13670484D01*
X12498396Y-13670484D02*
X12479348Y-13670484D01*
X12479348Y-13670484D02*
X12460301Y-13660960D01*
X12460301Y-13660960D02*
X12450777Y-13651436D01*
X12450777Y-13651436D02*
X12441253Y-13632388D01*
X12441253Y-13632388D02*
X12431729Y-13594293D01*
X12431729Y-13594293D02*
X12431729Y-13546674D01*
X12431729Y-13546674D02*
X12441253Y-13508579D01*
X12441253Y-13508579D02*
X12450777Y-13489531D01*
X12450777Y-13489531D02*
X12460301Y-13480007D01*
X12460301Y-13480007D02*
X12479348Y-13470484D01*
X12736491Y-13670484D02*
X12622206Y-13670484D01*
X12679348Y-13670484D02*
X12679348Y-13470484D01*
X12679348Y-13470484D02*
X12660301Y-13499055D01*
X12660301Y-13499055D02*
X12641253Y-13518103D01*
X12641253Y-13518103D02*
X12622206Y-13527626D01*
X12917444Y-13470484D02*
X12822206Y-13470484D01*
X12822206Y-13470484D02*
X12812682Y-13565722D01*
X12812682Y-13565722D02*
X12822206Y-13556198D01*
X12822206Y-13556198D02*
X12841253Y-13546674D01*
X12841253Y-13546674D02*
X12888872Y-13546674D01*
X12888872Y-13546674D02*
X12907920Y-13556198D01*
X12907920Y-13556198D02*
X12917444Y-13565722D01*
X12917444Y-13565722D02*
X12926967Y-13584769D01*
X12926967Y-13584769D02*
X12926967Y-13632388D01*
X12926967Y-13632388D02*
X12917444Y-13651436D01*
X12917444Y-13651436D02*
X12907920Y-13660960D01*
X12907920Y-13660960D02*
X12888872Y-13670484D01*
X12888872Y-13670484D02*
X12841253Y-13670484D01*
X12841253Y-13670484D02*
X12822206Y-13660960D01*
X12822206Y-13660960D02*
X12812682Y-13651436D01*
X12993634Y-13470484D02*
X13126967Y-13470484D01*
X13126967Y-13470484D02*
X13041253Y-13670484D01*
X13193634Y-13470484D02*
X13193634Y-13508579D01*
X13269825Y-13470484D02*
X13269825Y-13508579D01*
X13565063Y-13746674D02*
X13555539Y-13737150D01*
X13555539Y-13737150D02*
X13536491Y-13708579D01*
X13536491Y-13708579D02*
X13526968Y-13689531D01*
X13526968Y-13689531D02*
X13517444Y-13660960D01*
X13517444Y-13660960D02*
X13507920Y-13613341D01*
X13507920Y-13613341D02*
X13507920Y-13575246D01*
X13507920Y-13575246D02*
X13517444Y-13527626D01*
X13517444Y-13527626D02*
X13526968Y-13499055D01*
X13526968Y-13499055D02*
X13536491Y-13480007D01*
X13536491Y-13480007D02*
X13555539Y-13451436D01*
X13555539Y-13451436D02*
X13565063Y-13441912D01*
X13631729Y-13489531D02*
X13641253Y-13480007D01*
X13641253Y-13480007D02*
X13660301Y-13470484D01*
X13660301Y-13470484D02*
X13707920Y-13470484D01*
X13707920Y-13470484D02*
X13726968Y-13480007D01*
X13726968Y-13480007D02*
X13736491Y-13489531D01*
X13736491Y-13489531D02*
X13746015Y-13508579D01*
X13746015Y-13508579D02*
X13746015Y-13527626D01*
X13746015Y-13527626D02*
X13736491Y-13556198D01*
X13736491Y-13556198D02*
X13622206Y-13670484D01*
X13622206Y-13670484D02*
X13746015Y-13670484D01*
X13984110Y-13670484D02*
X13984110Y-13470484D01*
X14069825Y-13670484D02*
X14069825Y-13565722D01*
X14069825Y-13565722D02*
X14060301Y-13546674D01*
X14060301Y-13546674D02*
X14041253Y-13537150D01*
X14041253Y-13537150D02*
X14012682Y-13537150D01*
X14012682Y-13537150D02*
X13993634Y-13546674D01*
X13993634Y-13546674D02*
X13984110Y-13556198D01*
X14193634Y-13670484D02*
X14174587Y-13660960D01*
X14174587Y-13660960D02*
X14165063Y-13651436D01*
X14165063Y-13651436D02*
X14155539Y-13632388D01*
X14155539Y-13632388D02*
X14155539Y-13575246D01*
X14155539Y-13575246D02*
X14165063Y-13556198D01*
X14165063Y-13556198D02*
X14174587Y-13546674D01*
X14174587Y-13546674D02*
X14193634Y-13537150D01*
X14193634Y-13537150D02*
X14222206Y-13537150D01*
X14222206Y-13537150D02*
X14241253Y-13546674D01*
X14241253Y-13546674D02*
X14250777Y-13556198D01*
X14250777Y-13556198D02*
X14260301Y-13575246D01*
X14260301Y-13575246D02*
X14260301Y-13632388D01*
X14260301Y-13632388D02*
X14250777Y-13651436D01*
X14250777Y-13651436D02*
X14241253Y-13660960D01*
X14241253Y-13660960D02*
X14222206Y-13670484D01*
X14222206Y-13670484D02*
X14193634Y-13670484D01*
X14374587Y-13670484D02*
X14355539Y-13660960D01*
X14355539Y-13660960D02*
X14346015Y-13641912D01*
X14346015Y-13641912D02*
X14346015Y-13470484D01*
X14526968Y-13660960D02*
X14507920Y-13670484D01*
X14507920Y-13670484D02*
X14469825Y-13670484D01*
X14469825Y-13670484D02*
X14450777Y-13660960D01*
X14450777Y-13660960D02*
X14441253Y-13641912D01*
X14441253Y-13641912D02*
X14441253Y-13565722D01*
X14441253Y-13565722D02*
X14450777Y-13546674D01*
X14450777Y-13546674D02*
X14469825Y-13537150D01*
X14469825Y-13537150D02*
X14507920Y-13537150D01*
X14507920Y-13537150D02*
X14526968Y-13546674D01*
X14526968Y-13546674D02*
X14536491Y-13565722D01*
X14536491Y-13565722D02*
X14536491Y-13584769D01*
X14536491Y-13584769D02*
X14441253Y-13603817D01*
X14612682Y-13660960D02*
X14631730Y-13670484D01*
X14631730Y-13670484D02*
X14669825Y-13670484D01*
X14669825Y-13670484D02*
X14688872Y-13660960D01*
X14688872Y-13660960D02*
X14698396Y-13641912D01*
X14698396Y-13641912D02*
X14698396Y-13632388D01*
X14698396Y-13632388D02*
X14688872Y-13613341D01*
X14688872Y-13613341D02*
X14669825Y-13603817D01*
X14669825Y-13603817D02*
X14641253Y-13603817D01*
X14641253Y-13603817D02*
X14622206Y-13594293D01*
X14622206Y-13594293D02*
X14612682Y-13575246D01*
X14612682Y-13575246D02*
X14612682Y-13565722D01*
X14612682Y-13565722D02*
X14622206Y-13546674D01*
X14622206Y-13546674D02*
X14641253Y-13537150D01*
X14641253Y-13537150D02*
X14669825Y-13537150D01*
X14669825Y-13537150D02*
X14688872Y-13546674D01*
X14765063Y-13746674D02*
X14774587Y-13737150D01*
X14774587Y-13737150D02*
X14793634Y-13708579D01*
X14793634Y-13708579D02*
X14803158Y-13689531D01*
X14803158Y-13689531D02*
X14812682Y-13660960D01*
X14812682Y-13660960D02*
X14822206Y-13613341D01*
X14822206Y-13613341D02*
X14822206Y-13575246D01*
X14822206Y-13575246D02*
X14812682Y-13527626D01*
X14812682Y-13527626D02*
X14803158Y-13499055D01*
X14803158Y-13499055D02*
X14793634Y-13480007D01*
X14793634Y-13480007D02*
X14774587Y-13451436D01*
X14774587Y-13451436D02*
X14765063Y-13441912D01*
D11*
X9965000Y-13818000D02*
X9965000Y-13868000D01*
X9940000Y-13843000D02*
X9990000Y-13843000D01*
D10*
X10288872Y-13734484D02*
X10307920Y-13734484D01*
X10307920Y-13734484D02*
X10326967Y-13744007D01*
X10326967Y-13744007D02*
X10336491Y-13753531D01*
X10336491Y-13753531D02*
X10346015Y-13772579D01*
X10346015Y-13772579D02*
X10355539Y-13810674D01*
X10355539Y-13810674D02*
X10355539Y-13858293D01*
X10355539Y-13858293D02*
X10346015Y-13896388D01*
X10346015Y-13896388D02*
X10336491Y-13915436D01*
X10336491Y-13915436D02*
X10326967Y-13924960D01*
X10326967Y-13924960D02*
X10307920Y-13934484D01*
X10307920Y-13934484D02*
X10288872Y-13934484D01*
X10288872Y-13934484D02*
X10269824Y-13924960D01*
X10269824Y-13924960D02*
X10260301Y-13915436D01*
X10260301Y-13915436D02*
X10250777Y-13896388D01*
X10250777Y-13896388D02*
X10241253Y-13858293D01*
X10241253Y-13858293D02*
X10241253Y-13810674D01*
X10241253Y-13810674D02*
X10250777Y-13772579D01*
X10250777Y-13772579D02*
X10260301Y-13753531D01*
X10260301Y-13753531D02*
X10269824Y-13744007D01*
X10269824Y-13744007D02*
X10288872Y-13734484D01*
X10441253Y-13915436D02*
X10450777Y-13924960D01*
X10450777Y-13924960D02*
X10441253Y-13934484D01*
X10441253Y-13934484D02*
X10431729Y-13924960D01*
X10431729Y-13924960D02*
X10441253Y-13915436D01*
X10441253Y-13915436D02*
X10441253Y-13934484D01*
X10631729Y-13734484D02*
X10536491Y-13734484D01*
X10536491Y-13734484D02*
X10526967Y-13829722D01*
X10526967Y-13829722D02*
X10536491Y-13820198D01*
X10536491Y-13820198D02*
X10555539Y-13810674D01*
X10555539Y-13810674D02*
X10603158Y-13810674D01*
X10603158Y-13810674D02*
X10622205Y-13820198D01*
X10622205Y-13820198D02*
X10631729Y-13829722D01*
X10631729Y-13829722D02*
X10641253Y-13848769D01*
X10641253Y-13848769D02*
X10641253Y-13896388D01*
X10641253Y-13896388D02*
X10631729Y-13915436D01*
X10631729Y-13915436D02*
X10622205Y-13924960D01*
X10622205Y-13924960D02*
X10603158Y-13934484D01*
X10603158Y-13934484D02*
X10555539Y-13934484D01*
X10555539Y-13934484D02*
X10536491Y-13924960D01*
X10536491Y-13924960D02*
X10526967Y-13915436D01*
X10765063Y-13734484D02*
X10784110Y-13734484D01*
X10784110Y-13734484D02*
X10803158Y-13744007D01*
X10803158Y-13744007D02*
X10812682Y-13753531D01*
X10812682Y-13753531D02*
X10822205Y-13772579D01*
X10822205Y-13772579D02*
X10831729Y-13810674D01*
X10831729Y-13810674D02*
X10831729Y-13858293D01*
X10831729Y-13858293D02*
X10822205Y-13896388D01*
X10822205Y-13896388D02*
X10812682Y-13915436D01*
X10812682Y-13915436D02*
X10803158Y-13924960D01*
X10803158Y-13924960D02*
X10784110Y-13934484D01*
X10784110Y-13934484D02*
X10765063Y-13934484D01*
X10765063Y-13934484D02*
X10746015Y-13924960D01*
X10746015Y-13924960D02*
X10736491Y-13915436D01*
X10736491Y-13915436D02*
X10726967Y-13896388D01*
X10726967Y-13896388D02*
X10717444Y-13858293D01*
X10717444Y-13858293D02*
X10717444Y-13810674D01*
X10717444Y-13810674D02*
X10726967Y-13772579D01*
X10726967Y-13772579D02*
X10736491Y-13753531D01*
X10736491Y-13753531D02*
X10746015Y-13744007D01*
X10746015Y-13744007D02*
X10765063Y-13734484D01*
X10955539Y-13734484D02*
X10974586Y-13734484D01*
X10974586Y-13734484D02*
X10993634Y-13744007D01*
X10993634Y-13744007D02*
X11003158Y-13753531D01*
X11003158Y-13753531D02*
X11012682Y-13772579D01*
X11012682Y-13772579D02*
X11022205Y-13810674D01*
X11022205Y-13810674D02*
X11022205Y-13858293D01*
X11022205Y-13858293D02*
X11012682Y-13896388D01*
X11012682Y-13896388D02*
X11003158Y-13915436D01*
X11003158Y-13915436D02*
X10993634Y-13924960D01*
X10993634Y-13924960D02*
X10974586Y-13934484D01*
X10974586Y-13934484D02*
X10955539Y-13934484D01*
X10955539Y-13934484D02*
X10936491Y-13924960D01*
X10936491Y-13924960D02*
X10926967Y-13915436D01*
X10926967Y-13915436D02*
X10917444Y-13896388D01*
X10917444Y-13896388D02*
X10907920Y-13858293D01*
X10907920Y-13858293D02*
X10907920Y-13810674D01*
X10907920Y-13810674D02*
X10917444Y-13772579D01*
X10917444Y-13772579D02*
X10926967Y-13753531D01*
X10926967Y-13753531D02*
X10936491Y-13744007D01*
X10936491Y-13744007D02*
X10955539Y-13734484D01*
X11107920Y-13934484D02*
X11107920Y-13801150D01*
X11107920Y-13820198D02*
X11117444Y-13810674D01*
X11117444Y-13810674D02*
X11136491Y-13801150D01*
X11136491Y-13801150D02*
X11165063Y-13801150D01*
X11165063Y-13801150D02*
X11184110Y-13810674D01*
X11184110Y-13810674D02*
X11193634Y-13829722D01*
X11193634Y-13829722D02*
X11193634Y-13934484D01*
X11193634Y-13829722D02*
X11203158Y-13810674D01*
X11203158Y-13810674D02*
X11222205Y-13801150D01*
X11222205Y-13801150D02*
X11250777Y-13801150D01*
X11250777Y-13801150D02*
X11269824Y-13810674D01*
X11269824Y-13810674D02*
X11279348Y-13829722D01*
X11279348Y-13829722D02*
X11279348Y-13934484D01*
X11374586Y-13934484D02*
X11374586Y-13801150D01*
X11374586Y-13820198D02*
X11384110Y-13810674D01*
X11384110Y-13810674D02*
X11403158Y-13801150D01*
X11403158Y-13801150D02*
X11431729Y-13801150D01*
X11431729Y-13801150D02*
X11450777Y-13810674D01*
X11450777Y-13810674D02*
X11460301Y-13829722D01*
X11460301Y-13829722D02*
X11460301Y-13934484D01*
X11460301Y-13829722D02*
X11469824Y-13810674D01*
X11469824Y-13810674D02*
X11488872Y-13801150D01*
X11488872Y-13801150D02*
X11517443Y-13801150D01*
X11517443Y-13801150D02*
X11536491Y-13810674D01*
X11536491Y-13810674D02*
X11546015Y-13829722D01*
X11546015Y-13829722D02*
X11546015Y-13934484D01*
X11936491Y-13724960D02*
X11765063Y-13982103D01*
X12193634Y-13734484D02*
X12212682Y-13734484D01*
X12212682Y-13734484D02*
X12231729Y-13744007D01*
X12231729Y-13744007D02*
X12241253Y-13753531D01*
X12241253Y-13753531D02*
X12250777Y-13772579D01*
X12250777Y-13772579D02*
X12260301Y-13810674D01*
X12260301Y-13810674D02*
X12260301Y-13858293D01*
X12260301Y-13858293D02*
X12250777Y-13896388D01*
X12250777Y-13896388D02*
X12241253Y-13915436D01*
X12241253Y-13915436D02*
X12231729Y-13924960D01*
X12231729Y-13924960D02*
X12212682Y-13934484D01*
X12212682Y-13934484D02*
X12193634Y-13934484D01*
X12193634Y-13934484D02*
X12174586Y-13924960D01*
X12174586Y-13924960D02*
X12165063Y-13915436D01*
X12165063Y-13915436D02*
X12155539Y-13896388D01*
X12155539Y-13896388D02*
X12146015Y-13858293D01*
X12146015Y-13858293D02*
X12146015Y-13810674D01*
X12146015Y-13810674D02*
X12155539Y-13772579D01*
X12155539Y-13772579D02*
X12165063Y-13753531D01*
X12165063Y-13753531D02*
X12174586Y-13744007D01*
X12174586Y-13744007D02*
X12193634Y-13734484D01*
X12346015Y-13915436D02*
X12355539Y-13924960D01*
X12355539Y-13924960D02*
X12346015Y-13934484D01*
X12346015Y-13934484D02*
X12336491Y-13924960D01*
X12336491Y-13924960D02*
X12346015Y-13915436D01*
X12346015Y-13915436D02*
X12346015Y-13934484D01*
X12479348Y-13734484D02*
X12498396Y-13734484D01*
X12498396Y-13734484D02*
X12517444Y-13744007D01*
X12517444Y-13744007D02*
X12526967Y-13753531D01*
X12526967Y-13753531D02*
X12536491Y-13772579D01*
X12536491Y-13772579D02*
X12546015Y-13810674D01*
X12546015Y-13810674D02*
X12546015Y-13858293D01*
X12546015Y-13858293D02*
X12536491Y-13896388D01*
X12536491Y-13896388D02*
X12526967Y-13915436D01*
X12526967Y-13915436D02*
X12517444Y-13924960D01*
X12517444Y-13924960D02*
X12498396Y-13934484D01*
X12498396Y-13934484D02*
X12479348Y-13934484D01*
X12479348Y-13934484D02*
X12460301Y-13924960D01*
X12460301Y-13924960D02*
X12450777Y-13915436D01*
X12450777Y-13915436D02*
X12441253Y-13896388D01*
X12441253Y-13896388D02*
X12431729Y-13858293D01*
X12431729Y-13858293D02*
X12431729Y-13810674D01*
X12431729Y-13810674D02*
X12441253Y-13772579D01*
X12441253Y-13772579D02*
X12450777Y-13753531D01*
X12450777Y-13753531D02*
X12460301Y-13744007D01*
X12460301Y-13744007D02*
X12479348Y-13734484D01*
X12736491Y-13934484D02*
X12622206Y-13934484D01*
X12679348Y-13934484D02*
X12679348Y-13734484D01*
X12679348Y-13734484D02*
X12660301Y-13763055D01*
X12660301Y-13763055D02*
X12641253Y-13782103D01*
X12641253Y-13782103D02*
X12622206Y-13791626D01*
X12831729Y-13934484D02*
X12869825Y-13934484D01*
X12869825Y-13934484D02*
X12888872Y-13924960D01*
X12888872Y-13924960D02*
X12898396Y-13915436D01*
X12898396Y-13915436D02*
X12917444Y-13886865D01*
X12917444Y-13886865D02*
X12926967Y-13848769D01*
X12926967Y-13848769D02*
X12926967Y-13772579D01*
X12926967Y-13772579D02*
X12917444Y-13753531D01*
X12917444Y-13753531D02*
X12907920Y-13744007D01*
X12907920Y-13744007D02*
X12888872Y-13734484D01*
X12888872Y-13734484D02*
X12850777Y-13734484D01*
X12850777Y-13734484D02*
X12831729Y-13744007D01*
X12831729Y-13744007D02*
X12822206Y-13753531D01*
X12822206Y-13753531D02*
X12812682Y-13772579D01*
X12812682Y-13772579D02*
X12812682Y-13820198D01*
X12812682Y-13820198D02*
X12822206Y-13839246D01*
X12822206Y-13839246D02*
X12831729Y-13848769D01*
X12831729Y-13848769D02*
X12850777Y-13858293D01*
X12850777Y-13858293D02*
X12888872Y-13858293D01*
X12888872Y-13858293D02*
X12907920Y-13848769D01*
X12907920Y-13848769D02*
X12917444Y-13839246D01*
X12917444Y-13839246D02*
X12926967Y-13820198D01*
X12993634Y-13734484D02*
X13126967Y-13734484D01*
X13126967Y-13734484D02*
X13041253Y-13934484D01*
X13193634Y-13734484D02*
X13193634Y-13772579D01*
X13269825Y-13734484D02*
X13269825Y-13772579D01*
X13565063Y-14010674D02*
X13555539Y-14001150D01*
X13555539Y-14001150D02*
X13536491Y-13972579D01*
X13536491Y-13972579D02*
X13526968Y-13953531D01*
X13526968Y-13953531D02*
X13517444Y-13924960D01*
X13517444Y-13924960D02*
X13507920Y-13877341D01*
X13507920Y-13877341D02*
X13507920Y-13839246D01*
X13507920Y-13839246D02*
X13517444Y-13791626D01*
X13517444Y-13791626D02*
X13526968Y-13763055D01*
X13526968Y-13763055D02*
X13536491Y-13744007D01*
X13536491Y-13744007D02*
X13555539Y-13715436D01*
X13555539Y-13715436D02*
X13565063Y-13705912D01*
X13622206Y-13734484D02*
X13746015Y-13734484D01*
X13746015Y-13734484D02*
X13679348Y-13810674D01*
X13679348Y-13810674D02*
X13707920Y-13810674D01*
X13707920Y-13810674D02*
X13726968Y-13820198D01*
X13726968Y-13820198D02*
X13736491Y-13829722D01*
X13736491Y-13829722D02*
X13746015Y-13848769D01*
X13746015Y-13848769D02*
X13746015Y-13896388D01*
X13746015Y-13896388D02*
X13736491Y-13915436D01*
X13736491Y-13915436D02*
X13726968Y-13924960D01*
X13726968Y-13924960D02*
X13707920Y-13934484D01*
X13707920Y-13934484D02*
X13650777Y-13934484D01*
X13650777Y-13934484D02*
X13631729Y-13924960D01*
X13631729Y-13924960D02*
X13622206Y-13915436D01*
X13822206Y-13753531D02*
X13831729Y-13744007D01*
X13831729Y-13744007D02*
X13850777Y-13734484D01*
X13850777Y-13734484D02*
X13898396Y-13734484D01*
X13898396Y-13734484D02*
X13917444Y-13744007D01*
X13917444Y-13744007D02*
X13926968Y-13753531D01*
X13926968Y-13753531D02*
X13936491Y-13772579D01*
X13936491Y-13772579D02*
X13936491Y-13791626D01*
X13936491Y-13791626D02*
X13926968Y-13820198D01*
X13926968Y-13820198D02*
X13812682Y-13934484D01*
X13812682Y-13934484D02*
X13936491Y-13934484D01*
X14174587Y-13934484D02*
X14174587Y-13734484D01*
X14260301Y-13934484D02*
X14260301Y-13829722D01*
X14260301Y-13829722D02*
X14250777Y-13810674D01*
X14250777Y-13810674D02*
X14231730Y-13801150D01*
X14231730Y-13801150D02*
X14203158Y-13801150D01*
X14203158Y-13801150D02*
X14184110Y-13810674D01*
X14184110Y-13810674D02*
X14174587Y-13820198D01*
X14384110Y-13934484D02*
X14365063Y-13924960D01*
X14365063Y-13924960D02*
X14355539Y-13915436D01*
X14355539Y-13915436D02*
X14346015Y-13896388D01*
X14346015Y-13896388D02*
X14346015Y-13839246D01*
X14346015Y-13839246D02*
X14355539Y-13820198D01*
X14355539Y-13820198D02*
X14365063Y-13810674D01*
X14365063Y-13810674D02*
X14384110Y-13801150D01*
X14384110Y-13801150D02*
X14412682Y-13801150D01*
X14412682Y-13801150D02*
X14431730Y-13810674D01*
X14431730Y-13810674D02*
X14441253Y-13820198D01*
X14441253Y-13820198D02*
X14450777Y-13839246D01*
X14450777Y-13839246D02*
X14450777Y-13896388D01*
X14450777Y-13896388D02*
X14441253Y-13915436D01*
X14441253Y-13915436D02*
X14431730Y-13924960D01*
X14431730Y-13924960D02*
X14412682Y-13934484D01*
X14412682Y-13934484D02*
X14384110Y-13934484D01*
X14565063Y-13934484D02*
X14546015Y-13924960D01*
X14546015Y-13924960D02*
X14536491Y-13905912D01*
X14536491Y-13905912D02*
X14536491Y-13734484D01*
X14717444Y-13924960D02*
X14698396Y-13934484D01*
X14698396Y-13934484D02*
X14660301Y-13934484D01*
X14660301Y-13934484D02*
X14641253Y-13924960D01*
X14641253Y-13924960D02*
X14631730Y-13905912D01*
X14631730Y-13905912D02*
X14631730Y-13829722D01*
X14631730Y-13829722D02*
X14641253Y-13810674D01*
X14641253Y-13810674D02*
X14660301Y-13801150D01*
X14660301Y-13801150D02*
X14698396Y-13801150D01*
X14698396Y-13801150D02*
X14717444Y-13810674D01*
X14717444Y-13810674D02*
X14726968Y-13829722D01*
X14726968Y-13829722D02*
X14726968Y-13848769D01*
X14726968Y-13848769D02*
X14631730Y-13867817D01*
X14803158Y-13924960D02*
X14822206Y-13934484D01*
X14822206Y-13934484D02*
X14860301Y-13934484D01*
X14860301Y-13934484D02*
X14879349Y-13924960D01*
X14879349Y-13924960D02*
X14888872Y-13905912D01*
X14888872Y-13905912D02*
X14888872Y-13896388D01*
X14888872Y-13896388D02*
X14879349Y-13877341D01*
X14879349Y-13877341D02*
X14860301Y-13867817D01*
X14860301Y-13867817D02*
X14831730Y-13867817D01*
X14831730Y-13867817D02*
X14812682Y-13858293D01*
X14812682Y-13858293D02*
X14803158Y-13839246D01*
X14803158Y-13839246D02*
X14803158Y-13829722D01*
X14803158Y-13829722D02*
X14812682Y-13810674D01*
X14812682Y-13810674D02*
X14831730Y-13801150D01*
X14831730Y-13801150D02*
X14860301Y-13801150D01*
X14860301Y-13801150D02*
X14879349Y-13810674D01*
X14955539Y-14010674D02*
X14965063Y-14001150D01*
X14965063Y-14001150D02*
X14984111Y-13972579D01*
X14984111Y-13972579D02*
X14993634Y-13953531D01*
X14993634Y-13953531D02*
X15003158Y-13924960D01*
X15003158Y-13924960D02*
X15012682Y-13877341D01*
X15012682Y-13877341D02*
X15012682Y-13839246D01*
X15012682Y-13839246D02*
X15003158Y-13791626D01*
X15003158Y-13791626D02*
X14993634Y-13763055D01*
X14993634Y-13763055D02*
X14984111Y-13744007D01*
X14984111Y-13744007D02*
X14965063Y-13715436D01*
X14965063Y-13715436D02*
X14955539Y-13705912D01*
D11*
X9975356Y-14142356D02*
X9975356Y-14071644D01*
X9904644Y-14071644D01*
X9904644Y-14142356D01*
X9975356Y-14142356D01*
D10*
X10355539Y-14198484D02*
X10241253Y-14198484D01*
X10298396Y-14198484D02*
X10298396Y-13998484D01*
X10298396Y-13998484D02*
X10279348Y-14027055D01*
X10279348Y-14027055D02*
X10260301Y-14046103D01*
X10260301Y-14046103D02*
X10241253Y-14055626D01*
X10441253Y-14179436D02*
X10450777Y-14188960D01*
X10450777Y-14188960D02*
X10441253Y-14198484D01*
X10441253Y-14198484D02*
X10431729Y-14188960D01*
X10431729Y-14188960D02*
X10441253Y-14179436D01*
X10441253Y-14179436D02*
X10441253Y-14198484D01*
X10574586Y-13998484D02*
X10593634Y-13998484D01*
X10593634Y-13998484D02*
X10612682Y-14008007D01*
X10612682Y-14008007D02*
X10622205Y-14017531D01*
X10622205Y-14017531D02*
X10631729Y-14036579D01*
X10631729Y-14036579D02*
X10641253Y-14074674D01*
X10641253Y-14074674D02*
X10641253Y-14122293D01*
X10641253Y-14122293D02*
X10631729Y-14160388D01*
X10631729Y-14160388D02*
X10622205Y-14179436D01*
X10622205Y-14179436D02*
X10612682Y-14188960D01*
X10612682Y-14188960D02*
X10593634Y-14198484D01*
X10593634Y-14198484D02*
X10574586Y-14198484D01*
X10574586Y-14198484D02*
X10555539Y-14188960D01*
X10555539Y-14188960D02*
X10546015Y-14179436D01*
X10546015Y-14179436D02*
X10536491Y-14160388D01*
X10536491Y-14160388D02*
X10526967Y-14122293D01*
X10526967Y-14122293D02*
X10526967Y-14074674D01*
X10526967Y-14074674D02*
X10536491Y-14036579D01*
X10536491Y-14036579D02*
X10546015Y-14017531D01*
X10546015Y-14017531D02*
X10555539Y-14008007D01*
X10555539Y-14008007D02*
X10574586Y-13998484D01*
X10765063Y-13998484D02*
X10784110Y-13998484D01*
X10784110Y-13998484D02*
X10803158Y-14008007D01*
X10803158Y-14008007D02*
X10812682Y-14017531D01*
X10812682Y-14017531D02*
X10822205Y-14036579D01*
X10822205Y-14036579D02*
X10831729Y-14074674D01*
X10831729Y-14074674D02*
X10831729Y-14122293D01*
X10831729Y-14122293D02*
X10822205Y-14160388D01*
X10822205Y-14160388D02*
X10812682Y-14179436D01*
X10812682Y-14179436D02*
X10803158Y-14188960D01*
X10803158Y-14188960D02*
X10784110Y-14198484D01*
X10784110Y-14198484D02*
X10765063Y-14198484D01*
X10765063Y-14198484D02*
X10746015Y-14188960D01*
X10746015Y-14188960D02*
X10736491Y-14179436D01*
X10736491Y-14179436D02*
X10726967Y-14160388D01*
X10726967Y-14160388D02*
X10717444Y-14122293D01*
X10717444Y-14122293D02*
X10717444Y-14074674D01*
X10717444Y-14074674D02*
X10726967Y-14036579D01*
X10726967Y-14036579D02*
X10736491Y-14017531D01*
X10736491Y-14017531D02*
X10746015Y-14008007D01*
X10746015Y-14008007D02*
X10765063Y-13998484D01*
X10955539Y-13998484D02*
X10974586Y-13998484D01*
X10974586Y-13998484D02*
X10993634Y-14008007D01*
X10993634Y-14008007D02*
X11003158Y-14017531D01*
X11003158Y-14017531D02*
X11012682Y-14036579D01*
X11012682Y-14036579D02*
X11022205Y-14074674D01*
X11022205Y-14074674D02*
X11022205Y-14122293D01*
X11022205Y-14122293D02*
X11012682Y-14160388D01*
X11012682Y-14160388D02*
X11003158Y-14179436D01*
X11003158Y-14179436D02*
X10993634Y-14188960D01*
X10993634Y-14188960D02*
X10974586Y-14198484D01*
X10974586Y-14198484D02*
X10955539Y-14198484D01*
X10955539Y-14198484D02*
X10936491Y-14188960D01*
X10936491Y-14188960D02*
X10926967Y-14179436D01*
X10926967Y-14179436D02*
X10917444Y-14160388D01*
X10917444Y-14160388D02*
X10907920Y-14122293D01*
X10907920Y-14122293D02*
X10907920Y-14074674D01*
X10907920Y-14074674D02*
X10917444Y-14036579D01*
X10917444Y-14036579D02*
X10926967Y-14017531D01*
X10926967Y-14017531D02*
X10936491Y-14008007D01*
X10936491Y-14008007D02*
X10955539Y-13998484D01*
X11107920Y-14198484D02*
X11107920Y-14065150D01*
X11107920Y-14084198D02*
X11117444Y-14074674D01*
X11117444Y-14074674D02*
X11136491Y-14065150D01*
X11136491Y-14065150D02*
X11165063Y-14065150D01*
X11165063Y-14065150D02*
X11184110Y-14074674D01*
X11184110Y-14074674D02*
X11193634Y-14093722D01*
X11193634Y-14093722D02*
X11193634Y-14198484D01*
X11193634Y-14093722D02*
X11203158Y-14074674D01*
X11203158Y-14074674D02*
X11222205Y-14065150D01*
X11222205Y-14065150D02*
X11250777Y-14065150D01*
X11250777Y-14065150D02*
X11269824Y-14074674D01*
X11269824Y-14074674D02*
X11279348Y-14093722D01*
X11279348Y-14093722D02*
X11279348Y-14198484D01*
X11374586Y-14198484D02*
X11374586Y-14065150D01*
X11374586Y-14084198D02*
X11384110Y-14074674D01*
X11384110Y-14074674D02*
X11403158Y-14065150D01*
X11403158Y-14065150D02*
X11431729Y-14065150D01*
X11431729Y-14065150D02*
X11450777Y-14074674D01*
X11450777Y-14074674D02*
X11460301Y-14093722D01*
X11460301Y-14093722D02*
X11460301Y-14198484D01*
X11460301Y-14093722D02*
X11469824Y-14074674D01*
X11469824Y-14074674D02*
X11488872Y-14065150D01*
X11488872Y-14065150D02*
X11517443Y-14065150D01*
X11517443Y-14065150D02*
X11536491Y-14074674D01*
X11536491Y-14074674D02*
X11546015Y-14093722D01*
X11546015Y-14093722D02*
X11546015Y-14198484D01*
X11936491Y-13988960D02*
X11765063Y-14246103D01*
X12193634Y-13998484D02*
X12212682Y-13998484D01*
X12212682Y-13998484D02*
X12231729Y-14008007D01*
X12231729Y-14008007D02*
X12241253Y-14017531D01*
X12241253Y-14017531D02*
X12250777Y-14036579D01*
X12250777Y-14036579D02*
X12260301Y-14074674D01*
X12260301Y-14074674D02*
X12260301Y-14122293D01*
X12260301Y-14122293D02*
X12250777Y-14160388D01*
X12250777Y-14160388D02*
X12241253Y-14179436D01*
X12241253Y-14179436D02*
X12231729Y-14188960D01*
X12231729Y-14188960D02*
X12212682Y-14198484D01*
X12212682Y-14198484D02*
X12193634Y-14198484D01*
X12193634Y-14198484D02*
X12174586Y-14188960D01*
X12174586Y-14188960D02*
X12165063Y-14179436D01*
X12165063Y-14179436D02*
X12155539Y-14160388D01*
X12155539Y-14160388D02*
X12146015Y-14122293D01*
X12146015Y-14122293D02*
X12146015Y-14074674D01*
X12146015Y-14074674D02*
X12155539Y-14036579D01*
X12155539Y-14036579D02*
X12165063Y-14017531D01*
X12165063Y-14017531D02*
X12174586Y-14008007D01*
X12174586Y-14008007D02*
X12193634Y-13998484D01*
X12346015Y-14179436D02*
X12355539Y-14188960D01*
X12355539Y-14188960D02*
X12346015Y-14198484D01*
X12346015Y-14198484D02*
X12336491Y-14188960D01*
X12336491Y-14188960D02*
X12346015Y-14179436D01*
X12346015Y-14179436D02*
X12346015Y-14198484D01*
X12479348Y-13998484D02*
X12498396Y-13998484D01*
X12498396Y-13998484D02*
X12517444Y-14008007D01*
X12517444Y-14008007D02*
X12526967Y-14017531D01*
X12526967Y-14017531D02*
X12536491Y-14036579D01*
X12536491Y-14036579D02*
X12546015Y-14074674D01*
X12546015Y-14074674D02*
X12546015Y-14122293D01*
X12546015Y-14122293D02*
X12536491Y-14160388D01*
X12536491Y-14160388D02*
X12526967Y-14179436D01*
X12526967Y-14179436D02*
X12517444Y-14188960D01*
X12517444Y-14188960D02*
X12498396Y-14198484D01*
X12498396Y-14198484D02*
X12479348Y-14198484D01*
X12479348Y-14198484D02*
X12460301Y-14188960D01*
X12460301Y-14188960D02*
X12450777Y-14179436D01*
X12450777Y-14179436D02*
X12441253Y-14160388D01*
X12441253Y-14160388D02*
X12431729Y-14122293D01*
X12431729Y-14122293D02*
X12431729Y-14074674D01*
X12431729Y-14074674D02*
X12441253Y-14036579D01*
X12441253Y-14036579D02*
X12450777Y-14017531D01*
X12450777Y-14017531D02*
X12460301Y-14008007D01*
X12460301Y-14008007D02*
X12479348Y-13998484D01*
X12612682Y-13998484D02*
X12736491Y-13998484D01*
X12736491Y-13998484D02*
X12669825Y-14074674D01*
X12669825Y-14074674D02*
X12698396Y-14074674D01*
X12698396Y-14074674D02*
X12717444Y-14084198D01*
X12717444Y-14084198D02*
X12726967Y-14093722D01*
X12726967Y-14093722D02*
X12736491Y-14112769D01*
X12736491Y-14112769D02*
X12736491Y-14160388D01*
X12736491Y-14160388D02*
X12726967Y-14179436D01*
X12726967Y-14179436D02*
X12717444Y-14188960D01*
X12717444Y-14188960D02*
X12698396Y-14198484D01*
X12698396Y-14198484D02*
X12641253Y-14198484D01*
X12641253Y-14198484D02*
X12622206Y-14188960D01*
X12622206Y-14188960D02*
X12612682Y-14179436D01*
X12831729Y-14198484D02*
X12869825Y-14198484D01*
X12869825Y-14198484D02*
X12888872Y-14188960D01*
X12888872Y-14188960D02*
X12898396Y-14179436D01*
X12898396Y-14179436D02*
X12917444Y-14150865D01*
X12917444Y-14150865D02*
X12926967Y-14112769D01*
X12926967Y-14112769D02*
X12926967Y-14036579D01*
X12926967Y-14036579D02*
X12917444Y-14017531D01*
X12917444Y-14017531D02*
X12907920Y-14008007D01*
X12907920Y-14008007D02*
X12888872Y-13998484D01*
X12888872Y-13998484D02*
X12850777Y-13998484D01*
X12850777Y-13998484D02*
X12831729Y-14008007D01*
X12831729Y-14008007D02*
X12822206Y-14017531D01*
X12822206Y-14017531D02*
X12812682Y-14036579D01*
X12812682Y-14036579D02*
X12812682Y-14084198D01*
X12812682Y-14084198D02*
X12822206Y-14103246D01*
X12822206Y-14103246D02*
X12831729Y-14112769D01*
X12831729Y-14112769D02*
X12850777Y-14122293D01*
X12850777Y-14122293D02*
X12888872Y-14122293D01*
X12888872Y-14122293D02*
X12907920Y-14112769D01*
X12907920Y-14112769D02*
X12917444Y-14103246D01*
X12917444Y-14103246D02*
X12926967Y-14084198D01*
X13098396Y-14065150D02*
X13098396Y-14198484D01*
X13050777Y-13988960D02*
X13003158Y-14131817D01*
X13003158Y-14131817D02*
X13126967Y-14131817D01*
X13193634Y-13998484D02*
X13193634Y-14036579D01*
X13269825Y-13998484D02*
X13269825Y-14036579D01*
X13565063Y-14274674D02*
X13555539Y-14265150D01*
X13555539Y-14265150D02*
X13536491Y-14236579D01*
X13536491Y-14236579D02*
X13526968Y-14217531D01*
X13526968Y-14217531D02*
X13517444Y-14188960D01*
X13517444Y-14188960D02*
X13507920Y-14141341D01*
X13507920Y-14141341D02*
X13507920Y-14103246D01*
X13507920Y-14103246D02*
X13517444Y-14055626D01*
X13517444Y-14055626D02*
X13526968Y-14027055D01*
X13526968Y-14027055D02*
X13536491Y-14008007D01*
X13536491Y-14008007D02*
X13555539Y-13979436D01*
X13555539Y-13979436D02*
X13565063Y-13969912D01*
X13669825Y-14084198D02*
X13650777Y-14074674D01*
X13650777Y-14074674D02*
X13641253Y-14065150D01*
X13641253Y-14065150D02*
X13631729Y-14046103D01*
X13631729Y-14046103D02*
X13631729Y-14036579D01*
X13631729Y-14036579D02*
X13641253Y-14017531D01*
X13641253Y-14017531D02*
X13650777Y-14008007D01*
X13650777Y-14008007D02*
X13669825Y-13998484D01*
X13669825Y-13998484D02*
X13707920Y-13998484D01*
X13707920Y-13998484D02*
X13726968Y-14008007D01*
X13726968Y-14008007D02*
X13736491Y-14017531D01*
X13736491Y-14017531D02*
X13746015Y-14036579D01*
X13746015Y-14036579D02*
X13746015Y-14046103D01*
X13746015Y-14046103D02*
X13736491Y-14065150D01*
X13736491Y-14065150D02*
X13726968Y-14074674D01*
X13726968Y-14074674D02*
X13707920Y-14084198D01*
X13707920Y-14084198D02*
X13669825Y-14084198D01*
X13669825Y-14084198D02*
X13650777Y-14093722D01*
X13650777Y-14093722D02*
X13641253Y-14103246D01*
X13641253Y-14103246D02*
X13631729Y-14122293D01*
X13631729Y-14122293D02*
X13631729Y-14160388D01*
X13631729Y-14160388D02*
X13641253Y-14179436D01*
X13641253Y-14179436D02*
X13650777Y-14188960D01*
X13650777Y-14188960D02*
X13669825Y-14198484D01*
X13669825Y-14198484D02*
X13707920Y-14198484D01*
X13707920Y-14198484D02*
X13726968Y-14188960D01*
X13726968Y-14188960D02*
X13736491Y-14179436D01*
X13736491Y-14179436D02*
X13746015Y-14160388D01*
X13746015Y-14160388D02*
X13746015Y-14122293D01*
X13746015Y-14122293D02*
X13736491Y-14103246D01*
X13736491Y-14103246D02*
X13726968Y-14093722D01*
X13726968Y-14093722D02*
X13707920Y-14084198D01*
X13984110Y-14198484D02*
X13984110Y-13998484D01*
X14069825Y-14198484D02*
X14069825Y-14093722D01*
X14069825Y-14093722D02*
X14060301Y-14074674D01*
X14060301Y-14074674D02*
X14041253Y-14065150D01*
X14041253Y-14065150D02*
X14012682Y-14065150D01*
X14012682Y-14065150D02*
X13993634Y-14074674D01*
X13993634Y-14074674D02*
X13984110Y-14084198D01*
X14193634Y-14198484D02*
X14174587Y-14188960D01*
X14174587Y-14188960D02*
X14165063Y-14179436D01*
X14165063Y-14179436D02*
X14155539Y-14160388D01*
X14155539Y-14160388D02*
X14155539Y-14103246D01*
X14155539Y-14103246D02*
X14165063Y-14084198D01*
X14165063Y-14084198D02*
X14174587Y-14074674D01*
X14174587Y-14074674D02*
X14193634Y-14065150D01*
X14193634Y-14065150D02*
X14222206Y-14065150D01*
X14222206Y-14065150D02*
X14241253Y-14074674D01*
X14241253Y-14074674D02*
X14250777Y-14084198D01*
X14250777Y-14084198D02*
X14260301Y-14103246D01*
X14260301Y-14103246D02*
X14260301Y-14160388D01*
X14260301Y-14160388D02*
X14250777Y-14179436D01*
X14250777Y-14179436D02*
X14241253Y-14188960D01*
X14241253Y-14188960D02*
X14222206Y-14198484D01*
X14222206Y-14198484D02*
X14193634Y-14198484D01*
X14374587Y-14198484D02*
X14355539Y-14188960D01*
X14355539Y-14188960D02*
X14346015Y-14169912D01*
X14346015Y-14169912D02*
X14346015Y-13998484D01*
X14526968Y-14188960D02*
X14507920Y-14198484D01*
X14507920Y-14198484D02*
X14469825Y-14198484D01*
X14469825Y-14198484D02*
X14450777Y-14188960D01*
X14450777Y-14188960D02*
X14441253Y-14169912D01*
X14441253Y-14169912D02*
X14441253Y-14093722D01*
X14441253Y-14093722D02*
X14450777Y-14074674D01*
X14450777Y-14074674D02*
X14469825Y-14065150D01*
X14469825Y-14065150D02*
X14507920Y-14065150D01*
X14507920Y-14065150D02*
X14526968Y-14074674D01*
X14526968Y-14074674D02*
X14536491Y-14093722D01*
X14536491Y-14093722D02*
X14536491Y-14112769D01*
X14536491Y-14112769D02*
X14441253Y-14131817D01*
X14612682Y-14188960D02*
X14631730Y-14198484D01*
X14631730Y-14198484D02*
X14669825Y-14198484D01*
X14669825Y-14198484D02*
X14688872Y-14188960D01*
X14688872Y-14188960D02*
X14698396Y-14169912D01*
X14698396Y-14169912D02*
X14698396Y-14160388D01*
X14698396Y-14160388D02*
X14688872Y-14141341D01*
X14688872Y-14141341D02*
X14669825Y-14131817D01*
X14669825Y-14131817D02*
X14641253Y-14131817D01*
X14641253Y-14131817D02*
X14622206Y-14122293D01*
X14622206Y-14122293D02*
X14612682Y-14103246D01*
X14612682Y-14103246D02*
X14612682Y-14093722D01*
X14612682Y-14093722D02*
X14622206Y-14074674D01*
X14622206Y-14074674D02*
X14641253Y-14065150D01*
X14641253Y-14065150D02*
X14669825Y-14065150D01*
X14669825Y-14065150D02*
X14688872Y-14074674D01*
X14765063Y-14274674D02*
X14774587Y-14265150D01*
X14774587Y-14265150D02*
X14793634Y-14236579D01*
X14793634Y-14236579D02*
X14803158Y-14217531D01*
X14803158Y-14217531D02*
X14812682Y-14188960D01*
X14812682Y-14188960D02*
X14822206Y-14141341D01*
X14822206Y-14141341D02*
X14822206Y-14103246D01*
X14822206Y-14103246D02*
X14812682Y-14055626D01*
X14812682Y-14055626D02*
X14803158Y-14027055D01*
X14803158Y-14027055D02*
X14793634Y-14008007D01*
X14793634Y-14008007D02*
X14774587Y-13979436D01*
X14774587Y-13979436D02*
X14765063Y-13969912D01*
X9890000Y-14471000D02*
X9990000Y-14371000D01*
X9890000Y-14271000D01*
X9790000Y-14371000D01*
X9890000Y-14471000D01*
X10231729Y-14262484D02*
X10355539Y-14262484D01*
X10355539Y-14262484D02*
X10288872Y-14338674D01*
X10288872Y-14338674D02*
X10317444Y-14338674D01*
X10317444Y-14338674D02*
X10336491Y-14348198D01*
X10336491Y-14348198D02*
X10346015Y-14357722D01*
X10346015Y-14357722D02*
X10355539Y-14376769D01*
X10355539Y-14376769D02*
X10355539Y-14424388D01*
X10355539Y-14424388D02*
X10346015Y-14443436D01*
X10346015Y-14443436D02*
X10336491Y-14452960D01*
X10336491Y-14452960D02*
X10317444Y-14462484D01*
X10317444Y-14462484D02*
X10260301Y-14462484D01*
X10260301Y-14462484D02*
X10241253Y-14452960D01*
X10241253Y-14452960D02*
X10231729Y-14443436D01*
X10441253Y-14443436D02*
X10450777Y-14452960D01*
X10450777Y-14452960D02*
X10441253Y-14462484D01*
X10441253Y-14462484D02*
X10431729Y-14452960D01*
X10431729Y-14452960D02*
X10441253Y-14443436D01*
X10441253Y-14443436D02*
X10441253Y-14462484D01*
X10526967Y-14281531D02*
X10536491Y-14272007D01*
X10536491Y-14272007D02*
X10555539Y-14262484D01*
X10555539Y-14262484D02*
X10603158Y-14262484D01*
X10603158Y-14262484D02*
X10622205Y-14272007D01*
X10622205Y-14272007D02*
X10631729Y-14281531D01*
X10631729Y-14281531D02*
X10641253Y-14300579D01*
X10641253Y-14300579D02*
X10641253Y-14319626D01*
X10641253Y-14319626D02*
X10631729Y-14348198D01*
X10631729Y-14348198D02*
X10517444Y-14462484D01*
X10517444Y-14462484D02*
X10641253Y-14462484D01*
X10765063Y-14262484D02*
X10784110Y-14262484D01*
X10784110Y-14262484D02*
X10803158Y-14272007D01*
X10803158Y-14272007D02*
X10812682Y-14281531D01*
X10812682Y-14281531D02*
X10822205Y-14300579D01*
X10822205Y-14300579D02*
X10831729Y-14338674D01*
X10831729Y-14338674D02*
X10831729Y-14386293D01*
X10831729Y-14386293D02*
X10822205Y-14424388D01*
X10822205Y-14424388D02*
X10812682Y-14443436D01*
X10812682Y-14443436D02*
X10803158Y-14452960D01*
X10803158Y-14452960D02*
X10784110Y-14462484D01*
X10784110Y-14462484D02*
X10765063Y-14462484D01*
X10765063Y-14462484D02*
X10746015Y-14452960D01*
X10746015Y-14452960D02*
X10736491Y-14443436D01*
X10736491Y-14443436D02*
X10726967Y-14424388D01*
X10726967Y-14424388D02*
X10717444Y-14386293D01*
X10717444Y-14386293D02*
X10717444Y-14338674D01*
X10717444Y-14338674D02*
X10726967Y-14300579D01*
X10726967Y-14300579D02*
X10736491Y-14281531D01*
X10736491Y-14281531D02*
X10746015Y-14272007D01*
X10746015Y-14272007D02*
X10765063Y-14262484D01*
X10955539Y-14262484D02*
X10974586Y-14262484D01*
X10974586Y-14262484D02*
X10993634Y-14272007D01*
X10993634Y-14272007D02*
X11003158Y-14281531D01*
X11003158Y-14281531D02*
X11012682Y-14300579D01*
X11012682Y-14300579D02*
X11022205Y-14338674D01*
X11022205Y-14338674D02*
X11022205Y-14386293D01*
X11022205Y-14386293D02*
X11012682Y-14424388D01*
X11012682Y-14424388D02*
X11003158Y-14443436D01*
X11003158Y-14443436D02*
X10993634Y-14452960D01*
X10993634Y-14452960D02*
X10974586Y-14462484D01*
X10974586Y-14462484D02*
X10955539Y-14462484D01*
X10955539Y-14462484D02*
X10936491Y-14452960D01*
X10936491Y-14452960D02*
X10926967Y-14443436D01*
X10926967Y-14443436D02*
X10917444Y-14424388D01*
X10917444Y-14424388D02*
X10907920Y-14386293D01*
X10907920Y-14386293D02*
X10907920Y-14338674D01*
X10907920Y-14338674D02*
X10917444Y-14300579D01*
X10917444Y-14300579D02*
X10926967Y-14281531D01*
X10926967Y-14281531D02*
X10936491Y-14272007D01*
X10936491Y-14272007D02*
X10955539Y-14262484D01*
X11107920Y-14462484D02*
X11107920Y-14329150D01*
X11107920Y-14348198D02*
X11117444Y-14338674D01*
X11117444Y-14338674D02*
X11136491Y-14329150D01*
X11136491Y-14329150D02*
X11165063Y-14329150D01*
X11165063Y-14329150D02*
X11184110Y-14338674D01*
X11184110Y-14338674D02*
X11193634Y-14357722D01*
X11193634Y-14357722D02*
X11193634Y-14462484D01*
X11193634Y-14357722D02*
X11203158Y-14338674D01*
X11203158Y-14338674D02*
X11222205Y-14329150D01*
X11222205Y-14329150D02*
X11250777Y-14329150D01*
X11250777Y-14329150D02*
X11269824Y-14338674D01*
X11269824Y-14338674D02*
X11279348Y-14357722D01*
X11279348Y-14357722D02*
X11279348Y-14462484D01*
X11374586Y-14462484D02*
X11374586Y-14329150D01*
X11374586Y-14348198D02*
X11384110Y-14338674D01*
X11384110Y-14338674D02*
X11403158Y-14329150D01*
X11403158Y-14329150D02*
X11431729Y-14329150D01*
X11431729Y-14329150D02*
X11450777Y-14338674D01*
X11450777Y-14338674D02*
X11460301Y-14357722D01*
X11460301Y-14357722D02*
X11460301Y-14462484D01*
X11460301Y-14357722D02*
X11469824Y-14338674D01*
X11469824Y-14338674D02*
X11488872Y-14329150D01*
X11488872Y-14329150D02*
X11517443Y-14329150D01*
X11517443Y-14329150D02*
X11536491Y-14338674D01*
X11536491Y-14338674D02*
X11546015Y-14357722D01*
X11546015Y-14357722D02*
X11546015Y-14462484D01*
X11936491Y-14252960D02*
X11765063Y-14510103D01*
X12193634Y-14262484D02*
X12212682Y-14262484D01*
X12212682Y-14262484D02*
X12231729Y-14272007D01*
X12231729Y-14272007D02*
X12241253Y-14281531D01*
X12241253Y-14281531D02*
X12250777Y-14300579D01*
X12250777Y-14300579D02*
X12260301Y-14338674D01*
X12260301Y-14338674D02*
X12260301Y-14386293D01*
X12260301Y-14386293D02*
X12250777Y-14424388D01*
X12250777Y-14424388D02*
X12241253Y-14443436D01*
X12241253Y-14443436D02*
X12231729Y-14452960D01*
X12231729Y-14452960D02*
X12212682Y-14462484D01*
X12212682Y-14462484D02*
X12193634Y-14462484D01*
X12193634Y-14462484D02*
X12174586Y-14452960D01*
X12174586Y-14452960D02*
X12165063Y-14443436D01*
X12165063Y-14443436D02*
X12155539Y-14424388D01*
X12155539Y-14424388D02*
X12146015Y-14386293D01*
X12146015Y-14386293D02*
X12146015Y-14338674D01*
X12146015Y-14338674D02*
X12155539Y-14300579D01*
X12155539Y-14300579D02*
X12165063Y-14281531D01*
X12165063Y-14281531D02*
X12174586Y-14272007D01*
X12174586Y-14272007D02*
X12193634Y-14262484D01*
X12346015Y-14443436D02*
X12355539Y-14452960D01*
X12355539Y-14452960D02*
X12346015Y-14462484D01*
X12346015Y-14462484D02*
X12336491Y-14452960D01*
X12336491Y-14452960D02*
X12346015Y-14443436D01*
X12346015Y-14443436D02*
X12346015Y-14462484D01*
X12546015Y-14462484D02*
X12431729Y-14462484D01*
X12488872Y-14462484D02*
X12488872Y-14262484D01*
X12488872Y-14262484D02*
X12469825Y-14291055D01*
X12469825Y-14291055D02*
X12450777Y-14310103D01*
X12450777Y-14310103D02*
X12431729Y-14319626D01*
X12622206Y-14281531D02*
X12631729Y-14272007D01*
X12631729Y-14272007D02*
X12650777Y-14262484D01*
X12650777Y-14262484D02*
X12698396Y-14262484D01*
X12698396Y-14262484D02*
X12717444Y-14272007D01*
X12717444Y-14272007D02*
X12726967Y-14281531D01*
X12726967Y-14281531D02*
X12736491Y-14300579D01*
X12736491Y-14300579D02*
X12736491Y-14319626D01*
X12736491Y-14319626D02*
X12726967Y-14348198D01*
X12726967Y-14348198D02*
X12612682Y-14462484D01*
X12612682Y-14462484D02*
X12736491Y-14462484D01*
X12907920Y-14262484D02*
X12869825Y-14262484D01*
X12869825Y-14262484D02*
X12850777Y-14272007D01*
X12850777Y-14272007D02*
X12841253Y-14281531D01*
X12841253Y-14281531D02*
X12822206Y-14310103D01*
X12822206Y-14310103D02*
X12812682Y-14348198D01*
X12812682Y-14348198D02*
X12812682Y-14424388D01*
X12812682Y-14424388D02*
X12822206Y-14443436D01*
X12822206Y-14443436D02*
X12831729Y-14452960D01*
X12831729Y-14452960D02*
X12850777Y-14462484D01*
X12850777Y-14462484D02*
X12888872Y-14462484D01*
X12888872Y-14462484D02*
X12907920Y-14452960D01*
X12907920Y-14452960D02*
X12917444Y-14443436D01*
X12917444Y-14443436D02*
X12926967Y-14424388D01*
X12926967Y-14424388D02*
X12926967Y-14376769D01*
X12926967Y-14376769D02*
X12917444Y-14357722D01*
X12917444Y-14357722D02*
X12907920Y-14348198D01*
X12907920Y-14348198D02*
X12888872Y-14338674D01*
X12888872Y-14338674D02*
X12850777Y-14338674D01*
X12850777Y-14338674D02*
X12831729Y-14348198D01*
X12831729Y-14348198D02*
X12822206Y-14357722D01*
X12822206Y-14357722D02*
X12812682Y-14376769D01*
X13050777Y-14262484D02*
X13069825Y-14262484D01*
X13069825Y-14262484D02*
X13088872Y-14272007D01*
X13088872Y-14272007D02*
X13098396Y-14281531D01*
X13098396Y-14281531D02*
X13107920Y-14300579D01*
X13107920Y-14300579D02*
X13117444Y-14338674D01*
X13117444Y-14338674D02*
X13117444Y-14386293D01*
X13117444Y-14386293D02*
X13107920Y-14424388D01*
X13107920Y-14424388D02*
X13098396Y-14443436D01*
X13098396Y-14443436D02*
X13088872Y-14452960D01*
X13088872Y-14452960D02*
X13069825Y-14462484D01*
X13069825Y-14462484D02*
X13050777Y-14462484D01*
X13050777Y-14462484D02*
X13031729Y-14452960D01*
X13031729Y-14452960D02*
X13022206Y-14443436D01*
X13022206Y-14443436D02*
X13012682Y-14424388D01*
X13012682Y-14424388D02*
X13003158Y-14386293D01*
X13003158Y-14386293D02*
X13003158Y-14338674D01*
X13003158Y-14338674D02*
X13012682Y-14300579D01*
X13012682Y-14300579D02*
X13022206Y-14281531D01*
X13022206Y-14281531D02*
X13031729Y-14272007D01*
X13031729Y-14272007D02*
X13050777Y-14262484D01*
X13193634Y-14262484D02*
X13193634Y-14300579D01*
X13269825Y-14262484D02*
X13269825Y-14300579D01*
X13565063Y-14538674D02*
X13555539Y-14529150D01*
X13555539Y-14529150D02*
X13536491Y-14500579D01*
X13536491Y-14500579D02*
X13526968Y-14481531D01*
X13526968Y-14481531D02*
X13517444Y-14452960D01*
X13517444Y-14452960D02*
X13507920Y-14405341D01*
X13507920Y-14405341D02*
X13507920Y-14367246D01*
X13507920Y-14367246D02*
X13517444Y-14319626D01*
X13517444Y-14319626D02*
X13526968Y-14291055D01*
X13526968Y-14291055D02*
X13536491Y-14272007D01*
X13536491Y-14272007D02*
X13555539Y-14243436D01*
X13555539Y-14243436D02*
X13565063Y-14233912D01*
X13726968Y-14329150D02*
X13726968Y-14462484D01*
X13679348Y-14252960D02*
X13631729Y-14395817D01*
X13631729Y-14395817D02*
X13755539Y-14395817D01*
X13984110Y-14462484D02*
X13984110Y-14262484D01*
X14069825Y-14462484D02*
X14069825Y-14357722D01*
X14069825Y-14357722D02*
X14060301Y-14338674D01*
X14060301Y-14338674D02*
X14041253Y-14329150D01*
X14041253Y-14329150D02*
X14012682Y-14329150D01*
X14012682Y-14329150D02*
X13993634Y-14338674D01*
X13993634Y-14338674D02*
X13984110Y-14348198D01*
X14193634Y-14462484D02*
X14174587Y-14452960D01*
X14174587Y-14452960D02*
X14165063Y-14443436D01*
X14165063Y-14443436D02*
X14155539Y-14424388D01*
X14155539Y-14424388D02*
X14155539Y-14367246D01*
X14155539Y-14367246D02*
X14165063Y-14348198D01*
X14165063Y-14348198D02*
X14174587Y-14338674D01*
X14174587Y-14338674D02*
X14193634Y-14329150D01*
X14193634Y-14329150D02*
X14222206Y-14329150D01*
X14222206Y-14329150D02*
X14241253Y-14338674D01*
X14241253Y-14338674D02*
X14250777Y-14348198D01*
X14250777Y-14348198D02*
X14260301Y-14367246D01*
X14260301Y-14367246D02*
X14260301Y-14424388D01*
X14260301Y-14424388D02*
X14250777Y-14443436D01*
X14250777Y-14443436D02*
X14241253Y-14452960D01*
X14241253Y-14452960D02*
X14222206Y-14462484D01*
X14222206Y-14462484D02*
X14193634Y-14462484D01*
X14374587Y-14462484D02*
X14355539Y-14452960D01*
X14355539Y-14452960D02*
X14346015Y-14433912D01*
X14346015Y-14433912D02*
X14346015Y-14262484D01*
X14526968Y-14452960D02*
X14507920Y-14462484D01*
X14507920Y-14462484D02*
X14469825Y-14462484D01*
X14469825Y-14462484D02*
X14450777Y-14452960D01*
X14450777Y-14452960D02*
X14441253Y-14433912D01*
X14441253Y-14433912D02*
X14441253Y-14357722D01*
X14441253Y-14357722D02*
X14450777Y-14338674D01*
X14450777Y-14338674D02*
X14469825Y-14329150D01*
X14469825Y-14329150D02*
X14507920Y-14329150D01*
X14507920Y-14329150D02*
X14526968Y-14338674D01*
X14526968Y-14338674D02*
X14536491Y-14357722D01*
X14536491Y-14357722D02*
X14536491Y-14376769D01*
X14536491Y-14376769D02*
X14441253Y-14395817D01*
X14612682Y-14452960D02*
X14631730Y-14462484D01*
X14631730Y-14462484D02*
X14669825Y-14462484D01*
X14669825Y-14462484D02*
X14688872Y-14452960D01*
X14688872Y-14452960D02*
X14698396Y-14433912D01*
X14698396Y-14433912D02*
X14698396Y-14424388D01*
X14698396Y-14424388D02*
X14688872Y-14405341D01*
X14688872Y-14405341D02*
X14669825Y-14395817D01*
X14669825Y-14395817D02*
X14641253Y-14395817D01*
X14641253Y-14395817D02*
X14622206Y-14386293D01*
X14622206Y-14386293D02*
X14612682Y-14367246D01*
X14612682Y-14367246D02*
X14612682Y-14357722D01*
X14612682Y-14357722D02*
X14622206Y-14338674D01*
X14622206Y-14338674D02*
X14641253Y-14329150D01*
X14641253Y-14329150D02*
X14669825Y-14329150D01*
X14669825Y-14329150D02*
X14688872Y-14338674D01*
X14765063Y-14538674D02*
X14774587Y-14529150D01*
X14774587Y-14529150D02*
X14793634Y-14500579D01*
X14793634Y-14500579D02*
X14803158Y-14481531D01*
X14803158Y-14481531D02*
X14812682Y-14452960D01*
X14812682Y-14452960D02*
X14822206Y-14405341D01*
X14822206Y-14405341D02*
X14822206Y-14367246D01*
X14822206Y-14367246D02*
X14812682Y-14319626D01*
X14812682Y-14319626D02*
X14803158Y-14291055D01*
X14803158Y-14291055D02*
X14793634Y-14272007D01*
X14793634Y-14272007D02*
X14774587Y-14243436D01*
X14774587Y-14243436D02*
X14765063Y-14233912D01*
M02*
